<svg width="216" height="361" viewBox="0 0 216 361" fill="none" xmlns="http://www.w3.org/2000/svg">
<g clip-path="url(#clip0)">
<path d="M215.081 0.662598H0.0805969V360.663H215.081V0.662598Z" fill="white"/>
<path d="M52.0389 86.7251H0.0805969V135.663H52.0389V86.7251Z" fill="#E0E0E0"/>
<path d="M106.386 86.7251H54.4278V135.663H106.386V86.7251Z" fill="#E0E0E0"/>
<path d="M160.733 86.7251H108.775V135.663H160.733V86.7251Z" fill="#E0E0E0"/>
<path d="M215.081 86.7251H163.122V135.663H215.081V86.7251Z" fill="#E0E0E0"/>
<path d="M52.0389 137.35H0.0805969V186.288H52.0389V137.35Z" fill="#E0E0E0"/>
<path d="M160.733 137.35H108.775V186.288H160.733V137.35Z" fill="#E0E0E0"/>
<path d="M215.081 137.35H163.122V186.288H215.081V137.35Z" fill="#E0E0E0"/>
<path d="M52.0389 187.975H0.0805969V236.913H52.0389V187.975Z" fill="#E0E0E0"/>
<path d="M106.386 187.975H54.4278V236.913H106.386V187.975Z" fill="#E0E0E0"/>
<path d="M215.081 187.975H163.122V236.913H215.081V187.975Z" fill="#E0E0E0"/>
<path d="M15.7362 77.9709C15.7362 77.7245 15.6436 77.535 15.4585 77.4017C15.2762 77.2684 14.9455 77.1339 14.4665 76.9978C13.9874 76.8617 13.6064 76.7109 13.3233 76.5438C12.7817 76.2238 12.5109 75.8058 12.5109 75.2906C12.5109 74.8395 12.7055 74.4677 13.0947 74.1752C13.4867 73.8832 13.9942 73.737 14.6175 73.737C15.0312 73.737 15.4 73.809 15.7239 73.9524C16.0478 74.0958 16.3023 74.3012 16.4873 74.5678C16.6724 74.8316 16.7649 75.1252 16.7649 75.4481H15.7362C15.7362 75.1562 15.6382 74.9278 15.4422 74.7635C15.2489 74.597 14.9714 74.5138 14.6093 74.5138C14.2718 74.5138 14.0092 74.5818 13.8214 74.7174C13.6363 74.8535 13.5438 75.0431 13.5438 75.2867C13.5438 75.492 13.6445 75.6635 13.8459 75.8019C14.0473 75.938 14.3794 76.0714 14.8421 76.2019C15.3047 76.3301 15.6763 76.4775 15.9566 76.644C16.2369 76.8082 16.4424 76.9978 16.573 77.2132C16.7037 77.4258 16.769 77.6756 16.769 77.963C16.769 78.4294 16.5785 78.8012 16.1974 79.0779C15.8192 79.3524 15.3047 79.4897 14.6542 79.4897C14.2242 79.4897 13.8282 79.4154 13.4662 79.2664C13.1069 79.115 12.8266 78.9075 12.6252 78.6437C12.4265 78.3793 12.3272 78.0722 12.3272 77.7206H13.3601C13.3601 78.0384 13.4717 78.2848 13.6948 78.4592C13.918 78.6335 14.2378 78.7207 14.6542 78.7207C15.0135 78.7207 15.283 78.6527 15.4626 78.5165C15.645 78.3782 15.7362 78.1965 15.7362 77.9709ZM18.6527 75.7057C18.9766 75.3519 19.3863 75.1753 19.8816 75.1753C20.8233 75.1753 21.301 75.6815 21.3146 76.694V79.4126H20.3225V76.7289C20.3225 76.4415 20.2558 76.239 20.1225 76.1208C19.9918 76.0005 19.7986 75.9403 19.5427 75.9403C19.1454 75.9403 18.8487 76.1068 18.6527 76.4404V79.4126H17.6607V73.5063H18.6527V75.7057ZM25.0559 79.4126C25.0123 79.3333 24.9742 79.2039 24.9416 79.0245C24.6259 79.3344 24.2393 79.4897 23.7821 79.4897C23.3385 79.4897 22.9765 79.3704 22.6962 79.1319C22.4158 78.8934 22.2756 78.5987 22.2756 78.2477C22.2756 77.8039 22.4498 77.4641 22.7982 77.2284C23.1493 76.9899 23.6501 76.8707 24.3006 76.8707H24.9089V76.5979C24.9089 76.3824 24.8449 76.2109 24.717 76.0826C24.5891 75.9521 24.3945 75.8863 24.1332 75.8863C23.9073 75.8863 23.7223 75.9403 23.578 76.0483C23.4338 76.1529 23.3616 76.2879 23.3616 76.4516H22.3696C22.3696 76.2238 22.4498 76.0106 22.6104 75.8137C22.771 75.6135 22.9888 75.4571 23.2636 75.3446C23.5413 75.2315 23.8501 75.1753 24.1904 75.1753C24.7075 75.1753 25.1198 75.2985 25.4274 75.5443C25.735 75.7879 25.8928 76.1315 25.901 76.5748V78.4513C25.901 78.8254 25.9568 79.124 26.0683 79.3474V79.4126H25.0559ZM23.9658 78.7399C24.1618 78.7399 24.3455 78.6948 24.517 78.6048C24.6911 78.5154 24.8218 78.395 24.9089 78.2437V77.459H24.3741C24.0067 77.459 23.7304 77.5192 23.5453 77.6402C23.3602 77.7605 23.2677 77.931 23.2677 78.1515C23.2677 78.3309 23.3303 78.4743 23.4555 78.5818C23.5834 78.687 23.7536 78.7399 23.9658 78.7399ZM29.3483 76.1057C29.2177 76.0854 29.0829 76.0747 28.9441 76.0747C28.4896 76.0747 28.1834 76.239 28.0256 76.5669V79.4126H27.0335V75.2524H27.9806L28.0051 75.7175C28.2447 75.3558 28.5767 75.1753 29.0013 75.1753C29.1428 75.1753 29.2599 75.1933 29.3524 75.2287L29.3483 76.1057ZM31.9343 79.4897C31.3056 79.4897 30.7952 79.3035 30.4033 78.9322C30.0141 78.5576 29.8195 78.0603 29.8195 77.4399V77.3246C29.8195 76.9095 29.9038 76.5388 30.0726 76.2131C30.2441 75.8852 30.4836 75.6303 30.7911 75.4481C31.0987 75.2664 31.4416 75.1753 31.8199 75.1753C32.4214 75.1753 32.8855 75.3558 33.2121 75.7175C33.5414 76.0787 33.7061 76.59 33.7061 77.2515V77.6284H30.8197C30.8496 77.972 30.9708 78.2437 31.1831 78.4434C31.3981 78.6437 31.6675 78.7438 31.9914 78.7438C32.446 78.7438 32.8161 78.5705 33.1019 78.2246L33.6367 78.705C33.4598 78.9536 33.223 79.1471 32.9263 79.2855C32.6323 79.4216 32.3017 79.4897 31.9343 79.4897ZM31.8158 75.9251C31.5437 75.9251 31.3232 76.0145 31.1545 76.194C30.9884 76.3734 30.8823 76.6237 30.836 76.9438H32.7263V76.8746C32.7045 76.5619 32.616 76.3262 32.4609 76.167C32.3058 76.0055 32.0907 75.9251 31.8158 75.9251ZM34.3896 77.3015C34.3896 76.6608 34.5474 76.1467 34.8631 75.7597C35.1788 75.3699 35.602 75.1753 36.1328 75.1753C36.601 75.1753 36.9792 75.3289 37.2677 75.6365V73.5063H38.2598V79.4126H37.3616L37.3127 78.9817C37.016 79.3203 36.62 79.4897 36.1246 79.4897C35.6075 79.4897 35.1883 79.2934 34.8672 78.9013C34.5488 78.5092 34.3896 77.976 34.3896 77.3015ZM35.3816 77.3825C35.3816 77.8055 35.4673 78.1357 35.6388 78.3742C35.813 78.6105 36.0593 78.728 36.3778 78.728C36.7833 78.728 37.0799 78.5576 37.2677 78.2167V76.4404C37.0854 76.1068 36.7915 75.9403 36.3859 75.9403C36.0648 75.9403 35.8171 76.0607 35.6429 76.302C35.4687 76.5405 35.3816 76.9005 35.3816 77.3825ZM45.4484 78.1245L46.1507 75.2524H47.1182L45.9139 79.4126H45.0973L44.1502 76.5557L43.2194 79.4126H42.4028L41.1944 75.2524H42.162L42.8764 78.0935L43.7828 75.2524H44.5299L45.4484 78.1245ZM48.9326 79.4126H47.9405V75.2524H48.9326V79.4126ZM47.8792 74.1718C47.8792 74.0278 47.9268 73.9085 48.0221 73.814C48.1201 73.719 48.2589 73.6717 48.4385 73.6717C48.6182 73.6717 48.757 73.719 48.855 73.814C48.9529 73.9085 49.002 74.0278 49.002 74.1718C49.002 74.3124 48.9529 74.4305 48.855 74.5256C48.757 74.6178 48.6182 74.664 48.4385 74.664C48.2589 74.664 48.1201 74.6178 48.0221 74.5256C47.9268 74.4305 47.8792 74.3124 47.8792 74.1718ZM51.3551 74.241V75.2524H52.1349V75.9442H51.3551V78.2668C51.3551 78.4254 51.3878 78.5413 51.4531 78.6127C51.5212 78.6819 51.641 78.7168 51.8124 78.7168C51.9267 78.7168 52.0424 78.7039 52.1594 78.678V79.4008C51.9336 79.4599 51.7158 79.4897 51.5062 79.4897C50.7441 79.4897 50.3631 79.0937 50.3631 78.3011V75.9442H49.6364V75.2524H50.3631V74.241H51.3551ZM53.9697 75.7057C54.2935 75.3519 54.7032 75.1753 55.1985 75.1753C56.1403 75.1753 56.6179 75.6815 56.6315 76.694V79.4126H55.6394V76.7289C55.6394 76.4415 55.5728 76.239 55.4394 76.1208C55.3088 76.0005 55.1155 75.9403 54.8596 75.9403C54.4623 75.9403 54.1656 76.1068 53.9697 76.4404V79.4126H52.9776V73.5063H53.9697V75.7057Z" fill="#E0E0E0"/>
<path d="M52.0389 258.288H0.0805969V307.225H52.0389V258.288Z" fill="#E0E0E0"/>
<path d="M160.733 258.288H108.775V307.225H160.733V258.288Z" fill="#E0E0E0"/>
<path d="M215.081 258.288H163.122V307.225H215.081V258.288Z" fill="#E0E0E0"/>
<path d="M52.0389 308.913H0.0805969V357.85H52.0389V308.913Z" fill="#E0E0E0"/>
<path d="M106.386 308.913H54.4278V357.85H106.386V308.913Z" fill="#E0E0E0"/>
<path d="M160.733 308.913H108.775V357.85H160.733V308.913Z" fill="#E0E0E0"/>
<path d="M215.081 308.913H163.122V357.85H215.081V308.913Z" fill="#E0E0E0"/>
<path d="M15.7362 249.533C15.7362 249.287 15.6436 249.098 15.4585 248.964C15.2762 248.831 14.9455 248.696 14.4665 248.56C13.9874 248.424 13.6064 248.273 13.3233 248.106C12.7817 247.786 12.5109 247.368 12.5109 246.853C12.5109 246.402 12.7055 246.03 13.0947 245.738C13.4867 245.446 13.9942 245.299 14.6175 245.299C15.0312 245.299 15.4 245.371 15.7239 245.515C16.0478 245.658 16.3023 245.864 16.4873 246.13C16.6724 246.394 16.7649 246.688 16.7649 247.011H15.7362C15.7362 246.719 15.6381 246.49 15.4422 246.326C15.2489 246.16 14.9714 246.076 14.6093 246.076C14.2718 246.076 14.0092 246.144 13.8214 246.28C13.6363 246.416 13.5438 246.606 13.5438 246.849C13.5438 247.054 13.6445 247.226 13.8459 247.364C14.0473 247.501 14.3794 247.634 14.8421 247.764C15.3047 247.893 15.6763 248.04 15.9566 248.207C16.2369 248.371 16.4424 248.56 16.573 248.776C16.7037 248.988 16.769 249.238 16.769 249.526C16.769 249.992 16.5785 250.364 16.1974 250.64C15.8192 250.915 15.3047 251.052 14.6542 251.052C14.2242 251.052 13.8282 250.978 13.4662 250.829C13.1069 250.678 12.8266 250.47 12.6252 250.206C12.4265 249.942 12.3272 249.635 12.3272 249.283H13.3601C13.3601 249.601 13.4717 249.847 13.6948 250.022C13.918 250.196 14.2378 250.283 14.6542 250.283C15.0135 250.283 15.283 250.215 15.4626 250.079C15.645 249.941 15.7362 249.759 15.7362 249.533ZM17.4892 248.856C17.4892 248.449 17.5749 248.082 17.7464 247.757C17.9179 247.429 18.1588 247.177 18.469 247.003C18.7793 246.826 19.1358 246.738 19.5387 246.738C20.1347 246.738 20.6178 246.918 20.988 247.28C21.3609 247.641 21.5622 248.12 21.5922 248.718L21.5963 248.937C21.5963 249.347 21.5119 249.714 21.3432 250.037C21.1771 250.36 20.9376 250.61 20.6247 250.787C20.3143 250.963 19.9551 251.052 19.5468 251.052C18.9236 251.052 18.4241 250.857 18.0485 250.468C17.6756 250.075 17.4892 249.554 17.4892 248.902V248.856ZM18.4813 248.937C18.4813 249.365 18.5752 249.701 18.763 249.945C18.9508 250.185 19.212 250.306 19.5468 250.306C19.8816 250.306 20.1415 250.183 20.3266 249.937C20.5144 249.691 20.6083 249.33 20.6083 248.856C20.6083 248.436 20.5117 248.103 20.3185 247.857C20.1279 247.611 19.868 247.488 19.5387 247.488C19.2148 247.488 18.9576 247.609 18.7671 247.853C18.5765 248.094 18.4813 248.455 18.4813 248.937ZM24.3455 250.306C24.5932 250.306 24.7987 250.238 24.962 250.102C25.1253 249.967 25.2124 249.798 25.2233 249.599H26.1582C26.1473 249.857 26.0615 250.1 25.901 250.325C25.7404 250.548 25.5227 250.725 25.2478 250.856C24.9729 250.987 24.6762 251.052 24.3578 251.052C23.7399 251.052 23.25 250.864 22.888 250.487C22.526 250.11 22.3451 249.59 22.3451 248.925V248.83C22.3451 248.196 22.5247 247.69 22.8839 247.31C23.2432 246.928 23.7331 246.738 24.3537 246.738C24.879 246.738 25.3063 246.882 25.6356 247.172C25.9676 247.46 26.1419 247.838 26.1582 248.307H25.2233C25.2124 248.068 25.1253 247.872 24.962 247.718C24.8014 247.565 24.5959 247.488 24.3455 247.488C24.0243 247.488 23.7767 247.598 23.6025 247.818C23.4283 248.036 23.3399 248.368 23.3371 248.814V248.964C23.3371 249.415 23.4228 249.752 23.5943 249.976C23.7685 250.196 24.0189 250.306 24.3455 250.306ZM28.0582 250.975H27.0662V246.815H28.0582V250.975ZM27.0049 245.734C27.0049 245.59 27.0526 245.471 27.1478 245.377C27.2458 245.281 27.3846 245.234 27.5643 245.234C27.7438 245.234 27.8827 245.281 27.9806 245.377C28.0786 245.471 28.1276 245.59 28.1276 245.734C28.1276 245.875 28.0786 245.993 27.9806 246.088C27.8827 246.18 27.7438 246.226 27.5643 246.226C27.3846 246.226 27.2458 246.18 27.1478 246.088C27.0526 245.993 27.0049 245.875 27.0049 245.734ZM31.8771 250.975C31.8336 250.896 31.7955 250.766 31.7628 250.587C31.447 250.897 31.0606 251.052 30.6033 251.052C30.1597 251.052 29.7977 250.933 29.5174 250.694C29.237 250.456 29.0968 250.161 29.0968 249.81C29.0968 249.366 29.2711 249.027 29.6194 248.791C29.9705 248.552 30.4713 248.433 31.1218 248.433H31.7301V248.16C31.7301 247.945 31.6662 247.773 31.5382 247.645C31.4103 247.515 31.2157 247.449 30.9544 247.449C30.7285 247.449 30.5434 247.503 30.3992 247.611C30.2549 247.715 30.1828 247.85 30.1828 248.014H29.1907C29.1907 247.786 29.2711 247.573 29.4317 247.376C29.5922 247.176 29.8099 247.02 30.0848 246.907C30.3625 246.794 30.6714 246.738 31.0116 246.738C31.5287 246.738 31.9411 246.861 32.2486 247.107C32.5561 247.35 32.714 247.694 32.7222 248.137V250.014C32.7222 250.388 32.7779 250.687 32.8896 250.91V250.975H31.8771ZM30.787 250.302C30.983 250.302 31.1667 250.257 31.3382 250.167C31.5124 250.078 31.643 249.958 31.7301 249.806V249.022H31.1953C30.8278 249.022 30.5516 249.082 30.3665 249.203C30.1815 249.323 30.0889 249.494 30.0889 249.714C30.0889 249.893 30.1515 250.037 30.2767 250.144C30.4046 250.25 30.5747 250.302 30.787 250.302ZM34.9121 250.975H33.92V245.069H34.9121V250.975ZM39.7043 245.377L41.419 249.668L43.1295 245.377H44.4646V250.975H43.4357V249.13L43.5378 246.661L41.7823 250.975H41.0433L39.2919 246.665L39.394 249.13V250.975H38.3652V245.377H39.7043ZM47.6343 251.052C47.0056 251.052 46.4952 250.866 46.1033 250.495C45.7141 250.12 45.5195 249.623 45.5195 249.002V248.887C45.5195 248.472 45.6039 248.101 45.7726 247.776C45.9441 247.448 46.1836 247.193 46.4912 247.011C46.7987 246.829 47.1417 246.738 47.52 246.738C48.1215 246.738 48.5855 246.918 48.9121 247.28C49.2414 247.641 49.4061 248.152 49.4061 248.814V249.191H46.5197C46.5496 249.535 46.6708 249.806 46.8831 250.006C47.0981 250.206 47.3675 250.306 47.6914 250.306C48.146 250.306 48.5161 250.133 48.8019 249.787L49.3367 250.268C49.1598 250.516 48.923 250.71 48.6264 250.848C48.3324 250.984 48.0017 251.052 47.6343 251.052ZM47.5159 247.488C47.2437 247.488 47.0232 247.577 46.8545 247.757C46.6885 247.936 46.5823 248.186 46.5361 248.506H48.4263V248.437C48.4045 248.124 48.3161 247.889 48.161 247.73C48.0058 247.568 47.7908 247.488 47.5159 247.488ZM50.0896 248.864C50.0896 248.223 50.2474 247.709 50.5632 247.322C50.8789 246.932 51.3021 246.738 51.8328 246.738C52.301 246.738 52.6793 246.891 52.9678 247.199V245.069H53.9599V250.975H53.0617L53.0127 250.544C52.716 250.883 52.32 251.052 51.8247 251.052C51.3075 251.052 50.8884 250.856 50.5672 250.464C50.2488 250.072 50.0896 249.539 50.0896 248.864ZM51.0816 248.945C51.0816 249.368 51.1674 249.698 51.3388 249.937C51.513 250.173 51.7593 250.291 52.0778 250.291C52.4833 250.291 52.78 250.12 52.9678 249.779V248.003C52.7854 247.669 52.4915 247.503 52.086 247.503C51.7648 247.503 51.5171 247.623 51.3429 247.865C51.1687 248.103 51.0816 248.463 51.0816 248.945ZM56.1457 250.975H55.1536V246.815H56.1457V250.975ZM55.0924 245.734C55.0924 245.59 55.14 245.471 55.2353 245.377C55.3332 245.281 55.472 245.234 55.6517 245.234C55.8313 245.234 55.9701 245.281 56.0681 245.377C56.1661 245.471 56.2151 245.59 56.2151 245.734C56.2151 245.875 56.1661 245.993 56.0681 246.088C55.9701 246.18 55.8313 246.226 55.6517 246.226C55.472 246.226 55.3332 246.18 55.2353 246.088C55.14 245.993 55.0924 245.875 55.0924 245.734ZM59.9647 250.975C59.9211 250.896 59.8829 250.766 59.85 250.587C59.5345 250.897 59.148 251.052 58.6908 251.052C58.2471 251.052 57.8852 250.933 57.6048 250.694C57.3245 250.456 57.1843 250.161 57.1843 249.81C57.1843 249.366 57.3585 249.027 57.7069 248.791C58.058 248.552 58.5588 248.433 59.2093 248.433H59.8178V248.16C59.8178 247.945 59.7536 247.773 59.6257 247.645C59.4978 247.515 59.3031 247.449 59.0419 247.449C58.816 247.449 58.6309 247.503 58.4866 247.611C58.3424 247.715 58.2703 247.85 58.2703 248.014H57.2782C57.2782 247.786 57.3585 247.573 57.5191 247.376C57.6797 247.176 57.8974 247.02 58.1723 246.907C58.4499 246.794 58.7588 246.738 59.099 246.738C59.6162 246.738 60.0286 246.861 60.3362 247.107C60.6437 247.35 60.8014 247.694 60.8098 248.137V250.014C60.8098 250.388 60.8653 250.687 60.977 250.91V250.975H59.9647ZM58.8745 250.302C59.0705 250.302 59.2542 250.257 59.4256 250.167C59.5998 250.078 59.7305 249.958 59.8178 249.806V249.022H59.2827C58.9153 249.022 58.639 249.082 58.454 249.203C58.2689 249.323 58.1764 249.494 58.1764 249.714C58.1764 249.893 58.239 250.037 58.3642 250.144C58.4921 250.25 58.6622 250.302 58.8745 250.302Z" fill="#E0E0E0"/>
<path d="M106.386 137.35H54.4278V186.288H106.386V137.35Z" fill="#E0E0E0"/>
<path d="M96.028 148.038L98.4168 146.35L96.028 144.663V148.038ZM94.0123 143.713C94.7965 142.975 95.7359 142.606 96.8306 142.606C97.9253 142.606 98.8588 142.975 99.6304 143.713C100.414 144.44 100.806 145.319 100.806 146.35C100.806 147.382 100.414 148.266 99.6304 149.005C98.8588 149.731 97.9253 150.094 96.8306 150.094C95.7359 150.094 94.7965 149.731 94.0123 149.005C93.2413 148.266 92.8555 147.382 92.8555 146.35C92.8555 145.319 93.2413 144.44 94.0123 143.713Z" fill="#E0E0E0"/>
<path d="M78.2684 146.579C78.2684 147.27 78.131 147.79 77.8557 148.142C77.5827 148.491 77.1665 148.666 76.6063 148.666C76.0557 148.666 75.6406 148.495 75.3605 148.155C75.0828 147.812 74.9406 147.306 74.9335 146.636V145.805C74.9335 145.115 75.0702 144.598 75.3432 144.252C75.6185 143.907 76.0371 143.735 76.5991 143.735C77.1569 143.735 77.572 143.903 77.8449 144.239C78.1203 144.576 78.2612 145.079 78.2684 145.749V146.579ZM77.4179 145.683C77.4179 145.233 77.3528 144.903 77.222 144.694C77.0918 144.483 76.884 144.378 76.5991 144.378C76.3214 144.378 76.1178 144.478 75.987 144.678C75.8562 144.876 75.7875 145.185 75.7803 145.607V146.695C75.7803 147.143 75.8472 147.477 75.9798 147.697C76.113 147.916 76.3214 148.026 76.6063 148.026C76.8792 148.026 77.0811 147.925 77.2119 147.723C77.3421 147.519 77.4113 147.2 77.4179 146.767V145.683ZM79.8486 147.756C80.0075 147.756 80.1299 147.799 80.2165 147.885C80.3025 147.968 80.3455 148.073 80.3455 148.201C80.3455 148.326 80.3025 148.431 80.2165 148.514C80.1299 148.595 80.0075 148.636 79.8486 148.636C79.6969 148.636 79.5769 148.595 79.4885 148.514C79.3995 148.433 79.3553 148.329 79.3553 148.201C79.3553 148.073 79.3983 147.968 79.4849 147.885C79.5715 147.799 79.6927 147.756 79.8486 147.756ZM79.8486 144.958C80.0075 144.958 80.1299 145.001 80.2165 145.086C80.3025 145.17 80.3455 145.275 80.3455 145.403C80.3455 145.528 80.3025 145.633 80.2165 145.716C80.1299 145.797 80.0075 145.838 79.8486 145.838C79.6969 145.838 79.5769 145.797 79.4885 145.716C79.3995 145.635 79.3553 145.53 79.3553 145.403C79.3553 145.275 79.3983 145.17 79.4849 145.086C79.5715 145.001 79.6927 144.958 79.8486 144.958ZM84.8026 148.6H81.3769V148.049L83.0736 146.306C83.3191 146.049 83.4929 145.835 83.5956 145.663C83.7001 145.49 83.7527 145.316 83.7527 145.143C83.7527 144.914 83.684 144.729 83.546 144.589C83.411 144.448 83.2277 144.378 82.9972 144.378C82.7219 144.378 82.508 144.457 82.3564 144.615C82.2047 144.773 82.1288 144.99 82.1288 145.264H81.279C81.279 144.972 81.3488 144.71 81.4886 144.477C81.6307 144.242 81.8326 144.059 82.0942 143.929C82.3575 143.8 82.6609 143.735 83.0037 143.735C83.4982 143.735 83.8882 143.853 84.1725 144.088C84.4598 144.321 84.6031 144.644 84.6031 145.057C84.6031 145.296 84.5308 145.548 84.3863 145.812C84.2436 146.073 84.0095 146.371 83.6828 146.705L82.437 147.96H84.8026V148.6ZM88.9198 145.067C88.9198 145.302 88.8559 145.512 88.7275 145.696C88.5991 145.878 88.4241 146.022 88.2026 146.128C88.4683 146.244 88.6726 146.404 88.8147 146.606C88.9598 146.808 89.0321 147.037 89.0321 147.292C89.0321 147.713 88.8804 148.049 88.577 148.297C88.2736 148.543 87.8699 148.666 87.3665 148.666C86.86 148.666 86.4539 148.541 86.1487 148.293C85.8453 148.045 85.6936 147.711 85.6936 147.292C85.6936 147.034 85.7659 146.804 85.9104 146.599C86.0549 146.395 86.258 146.238 86.5196 146.128C86.3004 146.022 86.126 145.878 85.9982 145.696C85.8722 145.512 85.8089 145.302 85.8089 145.067C85.8089 144.658 85.9492 144.334 86.2287 144.094C86.5088 143.855 86.8869 143.735 87.3629 143.735C87.8412 143.735 88.2199 143.855 88.5 144.094C88.7801 144.334 88.9198 144.658 88.9198 145.067ZM88.1817 147.252C88.1817 147.015 88.1058 146.824 87.9541 146.678C87.8048 146.531 87.6065 146.457 87.3593 146.457C87.112 146.457 86.9138 146.53 86.7645 146.675C86.6175 146.82 86.5441 147.012 86.5441 147.252C86.5441 147.487 86.6163 147.675 86.7609 147.815C86.9078 147.956 87.1096 148.026 87.3665 148.026C87.6227 148.026 87.8221 147.958 87.9649 147.822C88.1094 147.686 88.1817 147.496 88.1817 147.252ZM88.073 145.096C88.073 144.887 88.0091 144.716 87.8807 144.582C87.7523 144.446 87.5797 144.378 87.3629 144.378C87.1461 144.378 86.9741 144.442 86.8481 144.572C86.7226 144.699 86.6593 144.874 86.6593 145.096C86.6593 145.316 86.7226 145.491 86.8481 145.62C86.9765 145.75 87.1491 145.815 87.3665 145.815C87.5832 145.815 87.7546 145.75 87.8807 145.62C88.0091 145.491 88.073 145.316 88.073 145.096Z" fill="#E0E0E0"/>
<path d="M106.506 137.35H54.5473V186.288H106.506V137.35Z" fill="#E0E0E0"/>
<path d="M96.1474 148.038L98.5363 146.35L96.1474 144.663V148.038ZM94.1318 143.713C94.9159 142.975 95.8553 142.606 96.95 142.606C98.0448 142.606 98.9782 142.975 99.7492 143.713C100.533 144.44 100.925 145.319 100.925 146.35C100.925 147.382 100.533 148.266 99.7492 149.005C98.9782 149.731 98.0448 150.094 96.95 150.094C95.8553 150.094 94.9159 149.731 94.1318 149.005C93.3607 148.266 92.9749 147.382 92.9749 146.35C92.9749 145.319 93.3607 144.44 94.1318 143.713Z" fill="#E0E0E0"/>
<path d="M78.3878 146.579C78.3878 147.27 78.2504 147.79 77.9751 148.142C77.7022 148.491 77.2853 148.666 76.7257 148.666C76.1751 148.666 75.76 148.495 75.4799 148.155C75.2022 147.812 75.0601 147.306 75.0529 146.636V145.805C75.0529 145.115 75.1897 144.598 75.4626 144.252C75.7379 143.907 76.1566 143.735 76.7186 143.735C77.2764 143.735 77.6914 143.903 77.9644 144.239C78.2397 144.576 78.3806 145.079 78.3878 145.749V146.579ZM77.5374 145.683C77.5374 145.233 77.4723 144.903 77.3415 144.694C77.2107 144.483 77.0034 144.378 76.7186 144.378C76.4409 144.378 76.2372 144.478 76.1064 144.678C75.9756 144.876 75.9069 145.185 75.8998 145.607V146.695C75.8998 147.143 75.9661 147.477 76.0993 147.697C76.2324 147.916 76.4409 148.026 76.7257 148.026C76.9987 148.026 77.2005 147.925 77.3313 147.723C77.4615 147.519 77.5308 147.2 77.5374 146.767V145.683ZM79.9681 147.756C80.1269 147.756 80.2493 147.799 80.3359 147.885C80.4219 147.968 80.4649 148.073 80.4649 148.201C80.4649 148.326 80.4219 148.431 80.3359 148.514C80.2493 148.595 80.1269 148.636 79.9681 148.636C79.8164 148.636 79.6963 148.595 79.6079 148.514C79.5189 148.433 79.4747 148.329 79.4747 148.201C79.4747 148.073 79.5178 147.968 79.6044 147.885C79.6904 147.799 79.8122 147.756 79.9681 147.756ZM79.9681 144.958C80.1269 144.958 80.2493 145.001 80.3359 145.086C80.4219 145.17 80.4649 145.275 80.4649 145.403C80.4649 145.528 80.4219 145.633 80.3359 145.716C80.2493 145.797 80.1269 145.838 79.9681 145.838C79.8164 145.838 79.6963 145.797 79.6079 145.716C79.5189 145.635 79.4747 145.53 79.4747 145.403C79.4747 145.275 79.5178 145.17 79.6044 145.086C79.6904 145.001 79.8122 144.958 79.9681 144.958ZM84.922 148.6H81.4964V148.049L83.1931 146.306C83.4385 146.049 83.6123 145.835 83.7144 145.663C83.8195 145.49 83.8721 145.316 83.8721 145.143C83.8721 144.914 83.8034 144.729 83.6655 144.589C83.5305 144.448 83.3471 144.378 83.1166 144.378C82.8413 144.378 82.6275 144.457 82.4758 144.615C82.3241 144.773 82.2482 144.99 82.2482 145.264H81.3984C81.3984 144.972 81.4683 144.71 81.608 144.477C81.7502 144.242 81.952 144.059 82.2136 143.929C82.477 143.8 82.7804 143.735 83.1232 143.735C83.6177 143.735 84.0077 143.853 84.292 144.088C84.5792 144.321 84.7225 144.644 84.7225 145.057C84.7225 145.296 84.6503 145.548 84.5058 145.812C84.363 146.073 84.1289 146.371 83.8022 146.705L82.5564 147.96H84.922V148.6ZM89.0393 145.067C89.0393 145.302 88.9754 145.512 88.847 145.696C88.7186 145.878 88.5436 146.022 88.322 146.128C88.5878 146.244 88.792 146.404 88.9342 146.606C89.0793 146.808 89.1516 147.037 89.1516 147.292C89.1516 147.713 88.9999 148.049 88.6965 148.297C88.3931 148.543 87.9894 148.666 87.4859 148.666C86.9795 148.666 86.5733 148.541 86.2682 148.293C85.9648 148.045 85.8131 147.711 85.8131 147.292C85.8131 147.034 85.8853 146.804 86.0299 146.599C86.1744 146.395 86.3774 146.238 86.639 146.128C86.4193 146.022 86.2455 145.878 86.1177 145.696C85.9916 145.512 85.9283 145.302 85.9283 145.067C85.9283 144.658 86.0687 144.334 86.3482 144.094C86.6283 143.855 87.0063 143.735 87.4823 143.735C87.9607 143.735 88.3393 143.855 88.6194 144.094C88.8995 144.334 89.0393 144.658 89.0393 145.067ZM88.3011 147.252C88.3011 147.015 88.2253 146.824 88.0736 146.678C87.9243 146.531 87.726 146.457 87.4787 146.457C87.2315 146.457 87.0332 146.53 86.8839 146.675C86.737 146.82 86.6635 147.012 86.6635 147.252C86.6635 147.487 86.7358 147.675 86.8803 147.815C87.0272 147.956 87.2291 148.026 87.4859 148.026C87.7421 148.026 87.9416 147.958 88.0843 147.822C88.2288 147.686 88.3011 147.496 88.3011 147.252ZM88.1924 145.096C88.1924 144.887 88.1285 144.716 88.0001 144.582C87.8717 144.446 87.6991 144.378 87.4823 144.378C87.2649 144.378 87.0935 144.442 86.9675 144.572C86.8415 144.699 86.7788 144.874 86.7788 145.096C86.7788 145.316 86.8415 145.491 86.9675 145.62C87.0959 145.75 87.2685 145.815 87.4859 145.815C87.7027 145.815 87.8741 145.75 88.0001 145.62C88.1285 145.491 88.1924 145.316 88.1924 145.096Z" fill="#E0E0E0"/>
<path d="M106.326 137.631H54.9652V186.006H106.326V137.631Z" fill="#E0E0E0" stroke="#2C98F0"/>
<path d="M96.2669 148.038L98.6558 146.35L96.2669 144.663V148.038ZM94.2512 143.713C95.0354 142.975 95.9748 142.606 97.0695 142.606C98.1642 142.606 99.0977 142.975 99.8687 143.713C100.653 144.44 101.045 145.319 101.045 146.35C101.045 147.382 100.653 148.266 99.8687 149.005C99.0977 149.731 98.1642 150.094 97.0695 150.094C95.9748 150.094 95.0354 149.731 94.2512 149.005C93.4796 148.266 93.0944 147.382 93.0944 146.35C93.0944 145.319 93.4796 144.44 94.2512 143.713Z" fill="#E0E0E0"/>
<path d="M78.5072 146.58C78.5072 147.27 78.3698 147.791 78.0945 148.143C77.8216 148.492 77.4047 148.666 76.8451 148.666C76.2945 148.666 75.8794 148.496 75.5993 148.155C75.3216 147.813 75.1795 147.306 75.1723 146.636V145.805C75.1723 145.116 75.3091 144.598 75.582 144.253C75.8573 143.908 76.276 143.736 76.838 143.736C77.3958 143.736 77.8108 143.903 78.0838 144.24C78.3591 144.576 78.5 145.079 78.5072 145.75V146.58ZM77.6567 145.683C77.6567 145.233 77.5916 144.904 77.4609 144.695C77.3301 144.484 77.1228 144.378 76.838 144.378C76.5602 144.378 76.3566 144.478 76.2258 144.678C76.095 144.876 76.0263 145.186 76.0192 145.608V146.695C76.0192 147.144 76.0855 147.478 76.2186 147.698C76.3518 147.917 76.5602 148.027 76.8451 148.027C77.118 148.027 77.3199 147.926 77.4507 147.723C77.5809 147.519 77.6502 147.201 77.6567 146.768V145.683ZM80.0874 147.757C80.2463 147.757 80.3687 147.799 80.4553 147.885C80.5413 147.969 80.5843 148.074 80.5843 148.202C80.5843 148.327 80.5413 148.431 80.4553 148.515C80.3687 148.596 80.2463 148.636 80.0874 148.636C79.9357 148.636 79.8157 148.596 79.7273 148.515C79.6383 148.433 79.5941 148.329 79.5941 148.202C79.5941 148.074 79.6371 147.969 79.7237 147.885C79.8097 147.799 79.9316 147.757 80.0874 147.757ZM80.0874 144.958C80.2463 144.958 80.3687 145.001 80.4553 145.087C80.5413 145.17 80.5843 145.276 80.5843 145.403C80.5843 145.529 80.5413 145.633 80.4553 145.716C80.3687 145.798 80.2463 145.838 80.0874 145.838C79.9357 145.838 79.8157 145.798 79.7273 145.716C79.6383 145.635 79.5941 145.531 79.5941 145.403C79.5941 145.276 79.6371 145.17 79.7237 145.087C79.8097 145.001 79.9316 144.958 80.0874 144.958ZM85.0414 148.6H81.6157V148.05L83.3124 146.306C83.5579 146.049 83.7317 145.835 83.8338 145.664C83.9389 145.49 83.9915 145.316 83.9915 145.143C83.9915 144.914 83.9228 144.73 83.7848 144.589C83.6499 144.449 83.4665 144.378 83.2354 144.378C82.9607 144.378 82.7469 144.458 82.5952 144.616C82.4435 144.774 82.3676 144.99 82.3676 145.265H81.5178C81.5178 144.973 81.5877 144.71 81.7274 144.477C81.8695 144.242 82.0714 144.06 82.333 143.93C82.5964 143.801 82.8997 143.736 83.2426 143.736C83.7371 143.736 84.127 143.853 84.4113 144.089C84.6986 144.321 84.8419 144.644 84.8419 145.057C84.8419 145.297 84.7697 145.548 84.6251 145.812C84.4824 146.074 84.2483 146.371 83.9216 146.705L82.6758 147.961H85.0414V148.6ZM89.1586 145.067C89.1586 145.302 89.0947 145.512 88.9663 145.697C88.8379 145.879 88.6629 146.023 88.4414 146.128C88.7071 146.245 88.9114 146.404 89.0535 146.606C89.1986 146.808 89.2709 147.037 89.2709 147.292C89.2709 147.714 89.1192 148.049 88.8158 148.297C88.5124 148.543 88.1087 148.666 87.6053 148.666C87.0988 148.666 86.6927 148.542 86.3869 148.294C86.0841 148.046 85.9324 147.712 85.9324 147.292C85.9324 147.035 86.0047 146.804 86.1492 146.6C86.2938 146.395 86.4968 146.238 86.7584 146.128C86.5386 146.023 86.3648 145.879 86.237 145.697C86.111 145.512 86.0477 145.302 86.0477 145.067C86.0477 144.658 86.188 144.334 86.4675 144.095C86.7476 143.855 87.1257 143.736 87.6017 143.736C88.0794 143.736 88.4587 143.855 88.7388 144.095C89.0189 144.334 89.1586 144.658 89.1586 145.067ZM88.4205 147.253C88.4205 147.015 88.3446 146.824 88.1929 146.679C88.0436 146.532 87.8453 146.458 87.5981 146.458C87.3508 146.458 87.1526 146.53 87.0033 146.676C86.8563 146.821 86.7829 147.013 86.7829 147.253C86.7829 147.487 86.8551 147.675 86.9997 147.816C87.1466 147.956 87.3484 148.027 87.6053 148.027C87.8615 148.027 88.0609 147.959 88.2037 147.822C88.3482 147.686 88.4205 147.496 88.4205 147.253ZM88.3118 145.097C88.3118 144.888 88.2479 144.717 88.1195 144.582C87.9911 144.446 87.8185 144.378 87.6017 144.378C87.3843 144.378 87.2129 144.443 87.0869 144.573C86.9609 144.7 86.8981 144.875 86.8981 145.097C86.8981 145.316 86.9609 145.491 87.0869 145.621C87.2153 145.751 87.3879 145.815 87.6053 145.815C87.822 145.815 87.9935 145.751 88.1195 145.621C88.2479 145.491 88.3118 145.316 88.3118 145.097Z" fill="#E0E0E0"/>
<path d="M62.2563 146.35C64.0704 146.35 65.541 144.965 65.541 143.256C65.541 141.548 64.0704 140.163 62.2563 140.163C60.4421 140.163 58.9715 141.548 58.9715 143.256C58.9715 144.965 60.4421 146.35 62.2563 146.35Z" fill="#2C98F0"/>
<path d="M60.8486 143.698L62.0997 145.024L63.8203 141.636" stroke="white" stroke-linejoin="round"/>
<path d="M160.733 187.975H108.775V236.913H160.733V187.975Z" fill="#E0E0E0"/>
<path d="M150.375 198.663L152.764 196.975L150.375 195.288V198.663ZM148.36 194.338C149.144 193.6 150.083 193.231 151.178 193.231C152.273 193.231 153.206 193.6 153.978 194.338C154.761 195.065 155.153 195.944 155.153 196.975C155.153 198.007 154.761 198.891 153.978 199.63C153.206 200.356 152.273 200.719 151.178 200.719C150.083 200.719 149.144 200.356 148.36 199.63C147.589 198.891 147.203 198.007 147.203 196.975C147.203 195.944 147.589 195.065 148.36 194.338Z" fill="#E0E0E0"/>
<path d="M132.616 197.204C132.616 197.895 132.478 198.415 132.203 198.767C131.93 199.116 131.514 199.291 130.954 199.291C130.403 199.291 129.988 199.12 129.708 198.78C129.43 198.437 129.288 197.931 129.281 197.261V196.43C129.281 195.74 129.417 195.223 129.69 194.877C129.966 194.532 130.384 194.36 130.946 194.36C131.504 194.36 131.919 194.528 132.192 194.864C132.467 195.201 132.608 195.704 132.616 196.374V197.204ZM131.765 196.308C131.765 195.858 131.7 195.528 131.569 195.319C131.439 195.108 131.231 195.003 130.946 195.003C130.669 195.003 130.465 195.103 130.334 195.303C130.203 195.501 130.135 195.81 130.128 196.232V197.32C130.128 197.768 130.194 198.102 130.327 198.322C130.46 198.541 130.669 198.651 130.954 198.651C131.226 198.651 131.428 198.55 131.559 198.348C131.689 198.144 131.759 197.825 131.765 197.392V196.308ZM134.196 198.381C134.355 198.381 134.477 198.424 134.564 198.51C134.65 198.593 134.693 198.698 134.693 198.826C134.693 198.951 134.65 199.056 134.564 199.139C134.477 199.22 134.355 199.261 134.196 199.261C134.044 199.261 133.924 199.22 133.836 199.139C133.747 199.058 133.703 198.954 133.703 198.826C133.703 198.698 133.746 198.593 133.832 198.51C133.919 198.424 134.04 198.381 134.196 198.381ZM134.196 195.583C134.355 195.583 134.477 195.626 134.564 195.711C134.65 195.795 134.693 195.9 134.693 196.028C134.693 196.153 134.65 196.258 134.564 196.341C134.477 196.422 134.355 196.463 134.196 196.463C134.044 196.463 133.924 196.422 133.836 196.341C133.747 196.26 133.703 196.155 133.703 196.028C133.703 195.9 133.746 195.795 133.832 195.711C133.919 195.626 134.04 195.583 134.196 195.583ZM139.15 199.225H135.724V198.674L137.421 196.931C137.666 196.674 137.84 196.46 137.943 196.288C138.047 196.115 138.1 195.941 138.1 195.768C138.1 195.539 138.031 195.354 137.893 195.214C137.758 195.073 137.575 195.003 137.344 195.003C137.069 195.003 136.855 195.082 136.704 195.24C136.552 195.398 136.476 195.615 136.476 195.889H135.626C135.626 195.597 135.696 195.335 135.836 195.102C135.978 194.867 136.18 194.684 136.441 194.554C136.705 194.425 137.008 194.36 137.351 194.36C137.845 194.36 138.235 194.478 138.52 194.713C138.807 194.946 138.95 195.269 138.95 195.682C138.95 195.921 138.878 196.173 138.733 196.437C138.591 196.698 138.357 196.996 138.03 197.33L136.784 198.585H139.15V199.225ZM143.267 195.692C143.267 195.927 143.203 196.137 143.075 196.321C142.946 196.503 142.771 196.647 142.55 196.753C142.815 196.869 143.02 197.029 143.162 197.231C143.307 197.433 143.379 197.662 143.379 197.916C143.379 198.338 143.228 198.674 142.924 198.922C142.621 199.167 142.217 199.291 141.714 199.291C141.207 199.291 140.801 199.166 140.496 198.918C140.192 198.67 140.041 198.336 140.041 197.916C140.041 197.659 140.113 197.429 140.258 197.224C140.402 197.02 140.605 196.863 140.867 196.753C140.648 196.647 140.473 196.503 140.345 196.321C140.219 196.137 140.156 195.927 140.156 195.692C140.156 195.283 140.296 194.959 140.576 194.719C140.856 194.48 141.234 194.36 141.71 194.36C142.188 194.36 142.567 194.48 142.847 194.719C143.127 194.959 143.267 195.283 143.267 195.692ZM142.529 197.877C142.529 197.64 142.453 197.448 142.301 197.303C142.152 197.156 141.954 197.082 141.706 197.082C141.459 197.082 141.261 197.155 141.112 197.3C140.965 197.445 140.891 197.637 140.891 197.877C140.891 198.112 140.964 198.3 141.108 198.44C141.255 198.581 141.457 198.651 141.714 198.651C141.97 198.651 142.169 198.583 142.312 198.447C142.457 198.311 142.529 198.121 142.529 197.877ZM142.42 195.721C142.42 195.512 142.356 195.341 142.228 195.207C142.099 195.071 141.927 195.003 141.71 195.003C141.493 195.003 141.321 195.067 141.195 195.197C141.07 195.324 141.007 195.499 141.007 195.721C141.007 195.941 141.07 196.116 141.195 196.245C141.324 196.375 141.496 196.44 141.714 196.44C141.93 196.44 142.102 196.375 142.228 196.245C142.356 196.116 142.42 195.941 142.42 195.721Z" fill="#E0E0E0"/>
<path d="M106.386 258.288H54.4278V307.225H106.386V258.288Z" fill="#E0E0E0"/>
<path d="M96.028 268.975L98.4168 267.288L96.028 265.6V268.975ZM94.0123 264.651C94.7965 263.913 95.7359 263.544 96.8306 263.544C97.9253 263.544 98.8588 263.913 99.6304 264.651C100.414 265.378 100.806 266.257 100.806 267.288C100.806 268.319 100.414 269.204 99.6304 269.942C98.8588 270.669 97.9253 271.032 96.8306 271.032C95.7359 271.032 94.7965 270.669 94.0123 269.942C93.2413 269.204 92.8555 268.319 92.8555 267.288C92.8555 266.257 93.2413 265.378 94.0123 264.651Z" fill="#E0E0E0"/>
<path d="M78.2684 267.517C78.2684 268.207 78.131 268.728 77.8557 269.079C77.5827 269.429 77.1665 269.603 76.6063 269.603C76.0557 269.603 75.6406 269.433 75.3605 269.092C75.0828 268.75 74.9406 268.243 74.9335 267.573V266.742C74.9335 266.053 75.0702 265.535 75.3432 265.19C75.6185 264.845 76.0371 264.673 76.5991 264.673C77.1569 264.673 77.572 264.84 77.8449 265.177C78.1203 265.513 78.2612 266.016 78.2684 266.687V267.517ZM77.4179 266.62C77.4179 266.17 77.3528 265.841 77.222 265.632C77.0918 265.421 76.884 265.315 76.5991 265.315C76.3214 265.315 76.1178 265.415 75.987 265.615C75.8562 265.813 75.7875 266.123 75.7803 266.545V267.632C75.7803 268.08 75.8472 268.415 75.9798 268.634C76.113 268.854 76.3214 268.964 76.6063 268.964C76.8792 268.964 77.0811 268.863 77.2119 268.66C77.3421 268.456 77.4113 268.138 77.4179 267.705V266.62ZM79.8486 268.694C80.0075 268.694 80.1299 268.736 80.2165 268.822C80.3025 268.906 80.3455 269.011 80.3455 269.138C80.3455 269.264 80.3025 269.368 80.2165 269.452C80.1299 269.533 80.0075 269.573 79.8486 269.573C79.6969 269.573 79.5769 269.533 79.4885 269.452C79.3995 269.37 79.3553 269.266 79.3553 269.138C79.3553 269.011 79.3983 268.906 79.4849 268.822C79.5715 268.736 79.6927 268.694 79.8486 268.694ZM79.8486 265.895C80.0075 265.895 80.1299 265.938 80.2165 266.024C80.3025 266.107 80.3455 266.213 80.3455 266.34C80.3455 266.466 80.3025 266.57 80.2165 266.653C80.1299 266.735 80.0075 266.775 79.8486 266.775C79.6969 266.775 79.5769 266.735 79.4885 266.653C79.3995 266.572 79.3553 266.468 79.3553 266.34C79.3553 266.213 79.3983 266.107 79.4849 266.024C79.5715 265.938 79.6927 265.895 79.8486 265.895ZM84.8026 269.537H81.3769V268.987L83.0736 267.243C83.3191 266.986 83.4929 266.772 83.5956 266.601C83.7001 266.427 83.7527 266.253 83.7527 266.08C83.7527 265.851 83.684 265.667 83.546 265.526C83.411 265.386 83.2277 265.315 82.9972 265.315C82.7219 265.315 82.508 265.395 82.3564 265.553C82.2047 265.711 82.1288 265.927 82.1288 266.202H81.279C81.279 265.91 81.3488 265.647 81.4886 265.414C81.6307 265.179 81.8326 264.997 82.0942 264.867C82.3575 264.738 82.6609 264.673 83.0037 264.673C83.4982 264.673 83.8882 264.79 84.1725 265.026C84.4598 265.258 84.6031 265.581 84.6031 265.994C84.6031 266.234 84.5308 266.485 84.3863 266.749C84.2436 267.011 84.0095 267.308 83.6828 267.642L82.437 268.898H84.8026V269.537ZM88.9198 266.004C88.9198 266.239 88.8559 266.449 88.7275 266.634C88.5991 266.816 88.4241 266.96 88.2026 267.065C88.4683 267.182 88.6726 267.341 88.8147 267.543C88.9598 267.745 89.0321 267.974 89.0321 268.229C89.0321 268.651 88.8804 268.986 88.577 269.234C88.2736 269.48 87.8699 269.603 87.3665 269.603C86.86 269.603 86.4539 269.479 86.1487 269.231C85.8453 268.983 85.6936 268.649 85.6936 268.229C85.6936 267.972 85.7659 267.741 85.9104 267.537C86.0549 267.332 86.258 267.175 86.5196 267.065C86.3004 266.96 86.126 266.816 85.9982 266.634C85.8722 266.449 85.8089 266.239 85.8089 266.004C85.8089 265.595 85.9492 265.271 86.2287 265.032C86.5088 264.792 86.8869 264.673 87.3629 264.673C87.8412 264.673 88.2199 264.792 88.5 265.032C88.7801 265.271 88.9198 265.595 88.9198 266.004ZM88.1817 268.19C88.1817 267.952 88.1058 267.761 87.9541 267.616C87.8048 267.468 87.6065 267.395 87.3593 267.395C87.112 267.395 86.9138 267.467 86.7645 267.612C86.6175 267.758 86.5441 267.95 86.5441 268.19C86.5441 268.424 86.6163 268.612 86.7609 268.753C86.9078 268.893 87.1096 268.964 87.3665 268.964C87.6227 268.964 87.8221 268.896 87.9649 268.759C88.1094 268.623 88.1817 268.433 88.1817 268.19ZM88.073 266.034C88.073 265.825 88.0091 265.654 87.8807 265.519C87.7523 265.383 87.5797 265.315 87.3629 265.315C87.1461 265.315 86.9741 265.38 86.8481 265.51C86.7226 265.637 86.6593 265.812 86.6593 266.034C86.6593 266.253 86.7226 266.428 86.8481 266.558C86.9765 266.688 87.1491 266.752 87.3665 266.752C87.5832 266.752 87.7546 266.688 87.8807 266.558C88.0091 266.428 88.073 266.253 88.073 266.034Z" fill="#E0E0E0"/>
<path d="M160.733 187.975H108.775V236.913H160.733V187.975Z" fill="#E0E0E0"/>
<path d="M150.375 198.663L152.764 196.975L150.375 195.288V198.663ZM148.36 194.338C149.144 193.6 150.083 193.231 151.178 193.231C152.273 193.231 153.206 193.6 153.978 194.338C154.761 195.065 155.153 195.944 155.153 196.975C155.153 198.007 154.761 198.891 153.978 199.63C153.206 200.356 152.273 200.719 151.178 200.719C150.083 200.719 149.144 200.356 148.36 199.63C147.589 198.891 147.203 198.007 147.203 196.975C147.203 195.944 147.589 195.065 148.36 194.338Z" fill="#E0E0E0"/>
<path d="M132.616 197.204C132.616 197.895 132.478 198.415 132.203 198.767C131.93 199.116 131.514 199.291 130.954 199.291C130.403 199.291 129.988 199.12 129.708 198.78C129.43 198.437 129.288 197.931 129.281 197.261V196.43C129.281 195.74 129.417 195.223 129.69 194.877C129.966 194.532 130.384 194.36 130.946 194.36C131.504 194.36 131.919 194.528 132.192 194.864C132.467 195.201 132.608 195.704 132.616 196.374V197.204ZM131.765 196.308C131.765 195.858 131.7 195.528 131.569 195.319C131.439 195.108 131.231 195.003 130.946 195.003C130.669 195.003 130.465 195.103 130.334 195.303C130.203 195.501 130.135 195.81 130.128 196.232V197.32C130.128 197.768 130.194 198.102 130.327 198.322C130.46 198.541 130.669 198.651 130.954 198.651C131.226 198.651 131.428 198.55 131.559 198.348C131.689 198.144 131.759 197.825 131.765 197.392V196.308ZM134.196 198.381C134.355 198.381 134.477 198.424 134.564 198.51C134.65 198.593 134.693 198.698 134.693 198.826C134.693 198.951 134.65 199.056 134.564 199.139C134.477 199.22 134.355 199.261 134.196 199.261C134.044 199.261 133.924 199.22 133.836 199.139C133.747 199.058 133.703 198.954 133.703 198.826C133.703 198.698 133.746 198.593 133.832 198.51C133.919 198.424 134.04 198.381 134.196 198.381ZM134.196 195.583C134.355 195.583 134.477 195.626 134.564 195.711C134.65 195.795 134.693 195.9 134.693 196.028C134.693 196.153 134.65 196.258 134.564 196.341C134.477 196.422 134.355 196.463 134.196 196.463C134.044 196.463 133.924 196.422 133.836 196.341C133.747 196.26 133.703 196.155 133.703 196.028C133.703 195.9 133.746 195.795 133.832 195.711C133.919 195.626 134.04 195.583 134.196 195.583ZM139.15 199.225H135.724V198.674L137.421 196.931C137.666 196.674 137.84 196.46 137.943 196.288C138.047 196.115 138.1 195.941 138.1 195.768C138.1 195.539 138.031 195.354 137.893 195.214C137.758 195.073 137.575 195.003 137.344 195.003C137.069 195.003 136.855 195.082 136.704 195.24C136.552 195.398 136.476 195.615 136.476 195.889H135.626C135.626 195.597 135.696 195.335 135.836 195.102C135.978 194.867 136.18 194.684 136.441 194.554C136.705 194.425 137.008 194.36 137.351 194.36C137.845 194.36 138.235 194.478 138.52 194.713C138.807 194.946 138.95 195.269 138.95 195.682C138.95 195.921 138.878 196.173 138.733 196.437C138.591 196.698 138.357 196.996 138.03 197.33L136.784 198.585H139.15V199.225ZM143.267 195.692C143.267 195.927 143.203 196.137 143.075 196.321C142.946 196.503 142.771 196.647 142.55 196.753C142.815 196.869 143.02 197.029 143.162 197.231C143.307 197.433 143.379 197.662 143.379 197.916C143.379 198.338 143.228 198.674 142.924 198.922C142.621 199.167 142.217 199.291 141.714 199.291C141.207 199.291 140.801 199.166 140.496 198.918C140.192 198.67 140.041 198.336 140.041 197.916C140.041 197.659 140.113 197.429 140.258 197.224C140.402 197.02 140.605 196.863 140.867 196.753C140.648 196.647 140.473 196.503 140.345 196.321C140.219 196.137 140.156 195.927 140.156 195.692C140.156 195.283 140.296 194.959 140.576 194.719C140.856 194.48 141.234 194.36 141.71 194.36C142.188 194.36 142.567 194.48 142.847 194.719C143.127 194.959 143.267 195.283 143.267 195.692ZM142.529 197.877C142.529 197.64 142.453 197.448 142.301 197.303C142.152 197.156 141.954 197.082 141.706 197.082C141.459 197.082 141.261 197.155 141.112 197.3C140.965 197.445 140.891 197.637 140.891 197.877C140.891 198.112 140.964 198.3 141.108 198.44C141.255 198.581 141.457 198.651 141.714 198.651C141.97 198.651 142.169 198.583 142.312 198.447C142.457 198.311 142.529 198.121 142.529 197.877ZM142.42 195.721C142.42 195.512 142.356 195.341 142.228 195.207C142.099 195.071 141.927 195.003 141.71 195.003C141.493 195.003 141.321 195.067 141.195 195.197C141.07 195.324 141.007 195.499 141.007 195.721C141.007 195.941 141.07 196.116 141.195 196.245C141.324 196.375 141.496 196.44 141.714 196.44C141.93 196.44 142.102 196.375 142.228 196.245C142.356 196.116 142.42 195.941 142.42 195.721Z" fill="#E0E0E0"/>
<path d="M160.554 188.256H109.193V236.631H160.554V188.256Z" fill="#E0E0E0" stroke="#2C98F0"/>
<path d="M150.495 198.663L152.884 196.975L150.495 195.288V198.663ZM148.479 194.338C149.263 193.6 150.203 193.231 151.297 193.231C152.392 193.231 153.325 193.6 154.096 194.338C154.881 195.065 155.272 195.944 155.272 196.975C155.272 198.007 154.881 198.891 154.096 199.63C153.325 200.356 152.392 200.719 151.297 200.719C150.203 200.719 149.263 200.356 148.479 199.63C147.708 198.891 147.322 198.007 147.322 196.975C147.322 195.944 147.708 195.065 148.479 194.338Z" fill="#E0E0E0"/>
<path d="M132.735 197.205C132.735 197.895 132.598 198.416 132.322 198.767C132.049 199.117 131.633 199.291 131.073 199.291C130.522 199.291 130.107 199.121 129.827 198.78C129.549 198.438 129.407 197.931 129.4 197.261V196.43C129.4 195.741 129.537 195.223 129.81 194.878C130.085 194.533 130.504 194.361 131.066 194.361C131.624 194.361 132.039 194.528 132.312 194.865C132.587 195.201 132.728 195.704 132.735 196.375V197.205ZM131.885 196.308C131.885 195.858 131.819 195.529 131.689 195.32C131.558 195.109 131.351 195.003 131.066 195.003C130.788 195.003 130.584 195.103 130.454 195.303C130.323 195.501 130.254 195.811 130.247 196.233V197.32C130.247 197.768 130.313 198.103 130.446 198.323C130.58 198.542 130.788 198.652 131.073 198.652C131.346 198.652 131.548 198.551 131.679 198.348C131.809 198.144 131.878 197.826 131.885 197.393V196.308ZM134.315 198.382C134.474 198.382 134.597 198.424 134.683 198.51C134.769 198.594 134.812 198.699 134.812 198.827C134.812 198.952 134.769 199.056 134.683 199.14C134.597 199.221 134.474 199.261 134.315 199.261C134.164 199.261 134.044 199.221 133.955 199.14C133.866 199.058 133.822 198.954 133.822 198.827C133.822 198.699 133.865 198.594 133.952 198.51C134.038 198.424 134.159 198.382 134.315 198.382ZM134.315 195.583C134.474 195.583 134.597 195.626 134.683 195.712C134.769 195.795 134.812 195.901 134.812 196.028C134.812 196.154 134.769 196.258 134.683 196.341C134.597 196.423 134.474 196.463 134.315 196.463C134.164 196.463 134.044 196.423 133.955 196.341C133.866 196.26 133.822 196.156 133.822 196.028C133.822 195.901 133.865 195.795 133.952 195.712C134.038 195.626 134.159 195.583 134.315 195.583ZM139.269 199.225H135.844V198.675L137.54 196.931C137.786 196.674 137.96 196.46 138.062 196.289C138.167 196.115 138.219 195.941 138.219 195.768C138.219 195.539 138.151 195.355 138.013 195.214C137.878 195.074 137.694 195.003 137.464 195.003C137.189 195.003 136.975 195.083 136.823 195.241C136.671 195.399 136.595 195.615 136.595 195.89H135.746C135.746 195.598 135.816 195.335 135.955 195.102C136.097 194.867 136.299 194.685 136.561 194.555C136.824 194.426 137.128 194.361 137.47 194.361C137.965 194.361 138.355 194.478 138.639 194.714C138.926 194.946 139.07 195.269 139.07 195.682C139.07 195.922 138.998 196.173 138.853 196.437C138.71 196.699 138.476 196.996 138.149 197.33L136.904 198.586H139.269V199.225ZM143.387 195.692C143.387 195.927 143.323 196.137 143.194 196.322C143.066 196.504 142.891 196.648 142.669 196.753C142.935 196.87 143.139 197.029 143.281 197.231C143.427 197.433 143.499 197.662 143.499 197.917C143.499 198.339 143.347 198.674 143.044 198.922C142.74 199.168 142.337 199.291 141.833 199.291C141.327 199.291 140.921 199.167 140.615 198.919C140.312 198.671 140.16 198.337 140.16 197.917C140.16 197.66 140.233 197.429 140.377 197.225C140.522 197.02 140.725 196.863 140.986 196.753C140.766 196.648 140.593 196.504 140.465 196.322C140.339 196.137 140.276 195.927 140.276 195.692C140.276 195.283 140.416 194.959 140.695 194.72C140.976 194.48 141.354 194.361 141.83 194.361C142.308 194.361 142.687 194.48 142.967 194.72C143.247 194.959 143.387 195.283 143.387 195.692ZM142.648 197.878C142.648 197.64 142.573 197.449 142.421 197.304C142.272 197.156 142.073 197.083 141.826 197.083C141.579 197.083 141.38 197.155 141.231 197.3C141.084 197.446 141.011 197.638 141.011 197.878C141.011 198.112 141.083 198.3 141.228 198.441C141.374 198.581 141.576 198.652 141.833 198.652C142.089 198.652 142.289 198.584 142.432 198.447C142.576 198.311 142.648 198.121 142.648 197.878ZM142.54 195.722C142.54 195.513 142.476 195.342 142.347 195.207C142.219 195.071 142.046 195.003 141.83 195.003C141.612 195.003 141.441 195.068 141.315 195.198C141.189 195.325 141.126 195.5 141.126 195.722C141.126 195.941 141.189 196.116 141.315 196.246C141.443 196.376 141.616 196.44 141.833 196.44C142.05 196.44 142.221 196.376 142.347 196.246C142.476 196.116 142.54 195.941 142.54 195.722Z" fill="#E0E0E0"/>
<path d="M116.484 196.975C118.298 196.975 119.769 195.59 119.769 193.881C119.769 192.173 118.298 190.788 116.484 190.788C114.67 190.788 113.199 192.173 113.199 193.881C113.199 195.59 114.67 196.975 116.484 196.975Z" fill="#2C98F0"/>
<path d="M115.076 194.323L116.328 195.649L118.048 192.261" stroke="white" stroke-linejoin="round"/>
<path d="M160.733 187.975H108.775V236.913H160.733V187.975Z" fill="#E0E0E0"/>
<path d="M150.375 198.663L152.764 196.975L150.375 195.288V198.663ZM148.36 194.338C149.144 193.6 150.083 193.231 151.178 193.231C152.273 193.231 153.206 193.6 153.978 194.338C154.761 195.065 155.153 195.944 155.153 196.975C155.153 198.007 154.761 198.891 153.978 199.63C153.206 200.356 152.273 200.719 151.178 200.719C150.083 200.719 149.144 200.356 148.36 199.63C147.589 198.891 147.203 198.007 147.203 196.975C147.203 195.944 147.589 195.065 148.36 194.338Z" fill="#E0E0E0"/>
<path d="M132.616 197.204C132.616 197.895 132.478 198.415 132.203 198.767C131.93 199.116 131.514 199.291 130.954 199.291C130.403 199.291 129.988 199.12 129.708 198.78C129.43 198.437 129.288 197.931 129.281 197.261V196.43C129.281 195.74 129.417 195.223 129.69 194.877C129.966 194.532 130.384 194.36 130.946 194.36C131.504 194.36 131.919 194.528 132.192 194.864C132.467 195.201 132.608 195.704 132.616 196.374V197.204ZM131.765 196.308C131.765 195.858 131.7 195.528 131.569 195.319C131.439 195.108 131.231 195.003 130.946 195.003C130.669 195.003 130.465 195.103 130.334 195.303C130.203 195.501 130.135 195.81 130.128 196.232V197.32C130.128 197.768 130.194 198.102 130.327 198.322C130.46 198.541 130.669 198.651 130.954 198.651C131.226 198.651 131.428 198.55 131.559 198.348C131.689 198.144 131.759 197.825 131.765 197.392V196.308ZM134.196 198.381C134.355 198.381 134.477 198.424 134.564 198.51C134.65 198.593 134.693 198.698 134.693 198.826C134.693 198.951 134.65 199.056 134.564 199.139C134.477 199.22 134.355 199.261 134.196 199.261C134.044 199.261 133.924 199.22 133.836 199.139C133.747 199.058 133.703 198.954 133.703 198.826C133.703 198.698 133.746 198.593 133.832 198.51C133.919 198.424 134.04 198.381 134.196 198.381ZM134.196 195.583C134.355 195.583 134.477 195.626 134.564 195.711C134.65 195.795 134.693 195.9 134.693 196.028C134.693 196.153 134.65 196.258 134.564 196.341C134.477 196.422 134.355 196.463 134.196 196.463C134.044 196.463 133.924 196.422 133.836 196.341C133.747 196.26 133.703 196.155 133.703 196.028C133.703 195.9 133.746 195.795 133.832 195.711C133.919 195.626 134.04 195.583 134.196 195.583ZM139.15 199.225H135.724V198.674L137.421 196.931C137.666 196.674 137.84 196.46 137.943 196.288C138.047 196.115 138.1 195.941 138.1 195.768C138.1 195.539 138.031 195.354 137.893 195.214C137.758 195.073 137.575 195.003 137.344 195.003C137.069 195.003 136.855 195.082 136.704 195.24C136.552 195.398 136.476 195.615 136.476 195.889H135.626C135.626 195.597 135.696 195.335 135.836 195.102C135.978 194.867 136.18 194.684 136.441 194.554C136.705 194.425 137.008 194.36 137.351 194.36C137.845 194.36 138.235 194.478 138.52 194.713C138.807 194.946 138.95 195.269 138.95 195.682C138.95 195.921 138.878 196.173 138.733 196.437C138.591 196.698 138.357 196.996 138.03 197.33L136.784 198.585H139.15V199.225ZM143.267 195.692C143.267 195.927 143.203 196.137 143.075 196.321C142.946 196.503 142.771 196.647 142.55 196.753C142.815 196.869 143.02 197.029 143.162 197.231C143.307 197.433 143.379 197.662 143.379 197.916C143.379 198.338 143.228 198.674 142.924 198.922C142.621 199.167 142.217 199.291 141.714 199.291C141.207 199.291 140.801 199.166 140.496 198.918C140.192 198.67 140.041 198.336 140.041 197.916C140.041 197.659 140.113 197.429 140.258 197.224C140.402 197.02 140.605 196.863 140.867 196.753C140.648 196.647 140.473 196.503 140.345 196.321C140.219 196.137 140.156 195.927 140.156 195.692C140.156 195.283 140.296 194.959 140.576 194.719C140.856 194.48 141.234 194.36 141.71 194.36C142.188 194.36 142.567 194.48 142.847 194.719C143.127 194.959 143.267 195.283 143.267 195.692ZM142.529 197.877C142.529 197.64 142.453 197.448 142.301 197.303C142.152 197.156 141.954 197.082 141.706 197.082C141.459 197.082 141.261 197.155 141.112 197.3C140.965 197.445 140.891 197.637 140.891 197.877C140.891 198.112 140.964 198.3 141.108 198.44C141.255 198.581 141.457 198.651 141.714 198.651C141.97 198.651 142.169 198.583 142.312 198.447C142.457 198.311 142.529 198.121 142.529 197.877ZM142.42 195.721C142.42 195.512 142.356 195.341 142.228 195.207C142.099 195.071 141.927 195.003 141.71 195.003C141.493 195.003 141.321 195.067 141.195 195.197C141.07 195.324 141.007 195.499 141.007 195.721C141.007 195.941 141.07 196.116 141.195 196.245C141.324 196.375 141.496 196.44 141.714 196.44C141.93 196.44 142.102 196.375 142.228 196.245C142.356 196.116 142.42 195.941 142.42 195.721Z" fill="#E0E0E0"/>
<path d="M160.554 188.256H109.193V236.631H160.554V188.256Z" fill="#E0E0E0" stroke="#2C98F0"/>
<path d="M150.495 198.663L152.884 196.975L150.495 195.288V198.663ZM148.479 194.338C149.263 193.6 150.203 193.231 151.297 193.231C152.392 193.231 153.325 193.6 154.096 194.338C154.881 195.065 155.272 195.944 155.272 196.975C155.272 198.007 154.881 198.891 154.096 199.63C153.325 200.356 152.392 200.719 151.297 200.719C150.203 200.719 149.263 200.356 148.479 199.63C147.708 198.891 147.322 198.007 147.322 196.975C147.322 195.944 147.708 195.065 148.479 194.338Z" fill="#E0E0E0"/>
<path d="M132.735 197.205C132.735 197.895 132.598 198.416 132.322 198.767C132.049 199.117 131.633 199.291 131.073 199.291C130.522 199.291 130.107 199.121 129.827 198.78C129.549 198.438 129.407 197.931 129.4 197.261V196.43C129.4 195.741 129.537 195.223 129.81 194.878C130.085 194.533 130.504 194.361 131.066 194.361C131.624 194.361 132.039 194.528 132.312 194.865C132.587 195.201 132.728 195.704 132.735 196.375V197.205ZM131.885 196.308C131.885 195.858 131.819 195.529 131.689 195.32C131.558 195.109 131.351 195.003 131.066 195.003C130.788 195.003 130.584 195.103 130.454 195.303C130.323 195.501 130.254 195.811 130.247 196.233V197.32C130.247 197.768 130.313 198.103 130.446 198.323C130.58 198.542 130.788 198.652 131.073 198.652C131.346 198.652 131.548 198.551 131.679 198.348C131.809 198.144 131.878 197.826 131.885 197.393V196.308ZM134.315 198.382C134.474 198.382 134.597 198.424 134.683 198.51C134.769 198.594 134.812 198.699 134.812 198.827C134.812 198.952 134.769 199.056 134.683 199.14C134.597 199.221 134.474 199.261 134.315 199.261C134.164 199.261 134.044 199.221 133.955 199.14C133.866 199.058 133.822 198.954 133.822 198.827C133.822 198.699 133.865 198.594 133.952 198.51C134.038 198.424 134.159 198.382 134.315 198.382ZM134.315 195.583C134.474 195.583 134.597 195.626 134.683 195.712C134.769 195.795 134.812 195.901 134.812 196.028C134.812 196.154 134.769 196.258 134.683 196.341C134.597 196.423 134.474 196.463 134.315 196.463C134.164 196.463 134.044 196.423 133.955 196.341C133.866 196.26 133.822 196.156 133.822 196.028C133.822 195.901 133.865 195.795 133.952 195.712C134.038 195.626 134.159 195.583 134.315 195.583ZM139.269 199.225H135.844V198.675L137.54 196.931C137.786 196.674 137.96 196.46 138.062 196.289C138.167 196.115 138.219 195.941 138.219 195.768C138.219 195.539 138.151 195.355 138.013 195.214C137.878 195.074 137.694 195.003 137.464 195.003C137.189 195.003 136.975 195.083 136.823 195.241C136.671 195.399 136.595 195.615 136.595 195.89H135.746C135.746 195.598 135.816 195.335 135.955 195.102C136.097 194.867 136.299 194.685 136.561 194.555C136.824 194.426 137.128 194.361 137.47 194.361C137.965 194.361 138.355 194.478 138.639 194.714C138.926 194.946 139.07 195.269 139.07 195.682C139.07 195.922 138.998 196.173 138.853 196.437C138.71 196.699 138.476 196.996 138.149 197.33L136.904 198.586H139.269V199.225ZM143.387 195.692C143.387 195.927 143.323 196.137 143.194 196.322C143.066 196.504 142.891 196.648 142.669 196.753C142.935 196.87 143.139 197.029 143.281 197.231C143.427 197.433 143.499 197.662 143.499 197.917C143.499 198.339 143.347 198.674 143.044 198.922C142.74 199.168 142.337 199.291 141.833 199.291C141.327 199.291 140.921 199.167 140.615 198.919C140.312 198.671 140.16 198.337 140.16 197.917C140.16 197.66 140.233 197.429 140.377 197.225C140.522 197.02 140.725 196.863 140.986 196.753C140.766 196.648 140.593 196.504 140.465 196.322C140.339 196.137 140.276 195.927 140.276 195.692C140.276 195.283 140.416 194.959 140.695 194.72C140.976 194.48 141.354 194.361 141.83 194.361C142.308 194.361 142.687 194.48 142.967 194.72C143.247 194.959 143.387 195.283 143.387 195.692ZM142.648 197.878C142.648 197.64 142.573 197.449 142.421 197.304C142.272 197.156 142.073 197.083 141.826 197.083C141.579 197.083 141.38 197.155 141.231 197.3C141.084 197.446 141.011 197.638 141.011 197.878C141.011 198.112 141.083 198.3 141.228 198.441C141.374 198.581 141.576 198.652 141.833 198.652C142.089 198.652 142.289 198.584 142.432 198.447C142.576 198.311 142.648 198.121 142.648 197.878ZM142.54 195.722C142.54 195.513 142.476 195.342 142.347 195.207C142.219 195.071 142.046 195.003 141.83 195.003C141.612 195.003 141.441 195.068 141.315 195.198C141.189 195.325 141.126 195.5 141.126 195.722C141.126 195.941 141.189 196.116 141.315 196.246C141.443 196.376 141.616 196.44 141.833 196.44C142.05 196.44 142.221 196.376 142.347 196.246C142.476 196.116 142.54 195.941 142.54 195.722Z" fill="#E0E0E0"/>
<path d="M116.484 196.975C118.298 196.975 119.769 195.59 119.769 193.881C119.769 192.173 118.298 190.788 116.484 190.788C114.67 190.788 113.199 192.173 113.199 193.881C113.199 195.59 114.67 196.975 116.484 196.975Z" fill="#2C98F0"/>
<path d="M115.076 194.323L116.328 195.649L118.048 192.261" stroke="white" stroke-linejoin="round"/>
<g filter="url(#filter0_ddd)">
<path d="M198.358 197.538C204.955 197.538 210.303 192.501 210.303 186.288C210.303 180.074 204.955 175.038 198.358 175.038C191.762 175.038 186.414 180.074 186.414 186.288C186.414 192.501 191.762 197.538 198.358 197.538Z" fill="white"/>
</g>
<path d="M195.363 184.609L198.358 181.788L201.354 184.609H195.363Z" fill="#666666"/>
<path d="M195.363 187.966H201.354L198.358 190.788L195.363 187.966Z" fill="#666666"/>
<path fill-rule="evenodd" clip-rule="evenodd" d="M0.0805969 333.663V360.663H215.081V333.663H0.0805969Z" fill="black"/>
<path d="M163.719 343.788C163.719 343.477 163.987 343.225 164.317 343.225H171.483C171.813 343.225 172.081 343.477 172.081 343.788V350.538C172.081 350.848 171.813 351.1 171.483 351.1H164.317C163.987 351.1 163.719 350.848 163.719 350.538V343.788Z" stroke="white" stroke-width="2"/>
<path d="M111.761 347.163C111.761 349.337 109.889 351.1 107.581 351.1C105.272 351.1 103.4 349.337 103.4 347.163C103.4 344.988 105.272 343.225 107.581 343.225C109.889 343.225 111.761 344.988 111.761 347.163Z" stroke="white" stroke-width="2"/>
<path d="M50.5456 343.14C50.9437 342.924 51.4417 343.194 51.4417 343.627V350.137C51.4417 350.57 50.9437 350.84 50.5456 350.624L44.5679 347.369C44.1702 347.153 44.1702 346.611 44.5679 346.395L50.5456 343.14Z" stroke="white" stroke-width="2"/>
<path fill-rule="evenodd" clip-rule="evenodd" d="M0.0805969 0.662598V14.1626H215.081V0.662598H0.0805969Z" fill="black" fill-opacity="0.4"/>
<path d="M192.474 10.2252H191.715V5.48401L190.192 6.0108V5.36481L192.356 4.59961H192.474V10.2252ZM197.169 10.2252H196.41V5.48401L194.887 6.0108V5.36481L197.051 4.59961H197.169V10.2252ZM199.435 9.85217C199.435 9.72915 199.473 9.6266 199.549 9.54453C199.628 9.46252 199.745 9.42152 199.9 9.42152C200.056 9.42152 200.173 9.46252 200.252 9.54453C200.333 9.6266 200.374 9.72915 200.374 9.85217C200.374 9.97007 200.333 10.0688 200.252 10.1483C200.173 10.2277 200.056 10.2675 199.9 10.2675C199.745 10.2675 199.628 10.2277 199.549 10.1483C199.473 10.0688 199.435 9.97007 199.435 9.85217ZM199.439 6.45686C199.439 6.33379 199.477 6.23126 199.553 6.14923C199.632 6.0672 199.749 6.02619 199.905 6.02619C200.06 6.02619 200.177 6.0672 200.256 6.14923C200.337 6.23126 200.378 6.33379 200.378 6.45686C200.378 6.57476 200.337 6.67348 200.256 6.7529C200.177 6.83239 200.06 6.87215 199.905 6.87215C199.749 6.87215 199.632 6.83239 199.553 6.7529C199.477 6.67348 199.439 6.57476 199.439 6.45686ZM203.889 10.2252H203.13V5.48401L201.607 6.0108V5.36481L203.77 4.59961H203.889V10.2252ZM208.584 10.2252H207.825V5.48401L206.302 6.0108V5.36481L208.466 4.59961H208.584V10.2252Z" fill="white"/>
<path d="M158.345 11.4072L153.137 5.29663C154.831 4.17602 156.567 3.61572 158.345 3.61572C160.122 3.61572 161.858 4.17602 163.552 5.29663L158.345 11.4072Z" fill="white"/>
<path d="M165.817 11.6245L174.761 3.2002V11.6245H165.817Z" fill="white"/>
<path d="M183.871 4.03076C184.039 4.03076 184.179 4.09009 184.291 4.20874C184.417 4.31421 184.48 4.44604 184.48 4.60425V11.0708C184.48 11.229 184.417 11.3608 184.291 11.4663C184.179 11.5718 184.039 11.6245 183.871 11.6245H180.596C180.428 11.6245 180.28 11.5718 180.155 11.4663C180.043 11.3608 179.987 11.229 179.987 11.0708V4.60425C179.987 4.44604 180.043 4.31421 180.155 4.20874C180.28 4.09009 180.428 4.03076 180.596 4.03076H181.33V3.2002H183.136V4.03076H183.871Z" fill="white"/>
<g filter="url(#filter1_ddd)">
<path fill-rule="evenodd" clip-rule="evenodd" d="M6.05281 54.6626C5.39313 54.6626 4.85837 55.1663 4.85837 55.7876V80.5376C4.85837 81.1592 5.39314 81.6626 6.05281 81.6626H218.067C218.727 81.6626 219.261 81.1592 219.261 80.5376V55.7876C219.261 55.1663 218.727 54.6626 218.067 54.6626H6.05281Z" fill="white"/>
<path d="M24.3708 69.8105C23.6024 69.6023 23.0425 69.3475 22.6911 69.0455C22.3427 68.7412 22.1685 68.366 22.1685 67.9205C22.1685 67.4165 22.3815 67.0008 22.8077 66.6728C23.2369 66.3415 23.7937 66.1762 24.4781 66.1762C24.9446 66.1762 25.3599 66.2611 25.7238 66.431C26.0909 66.6008 26.3739 66.8354 26.573 67.1341C26.7752 67.4328 26.8763 67.7596 26.8763 68.114H25.9758C25.9758 67.7275 25.8451 67.4243 25.5838 67.2044C25.3225 66.9817 24.9539 66.8703 24.4781 66.8703C24.0364 66.8703 23.6911 66.9625 23.4423 67.147C23.1965 67.3287 23.0736 67.5824 23.0736 67.9075C23.0736 68.168 23.1903 68.3896 23.4236 68.5713C23.66 68.7496 24.0597 68.9138 24.6227 69.0635C25.1888 69.2125 25.6305 69.3779 25.9478 69.5596C26.2682 69.7385 26.5046 69.9477 26.657 70.1885C26.8125 70.4287 26.8903 70.711 26.8903 71.0362C26.8903 71.5548 26.6756 71.971 26.2464 72.2843C25.8172 72.5948 25.2432 72.7501 24.5247 72.7501C24.0581 72.7501 23.6227 72.6668 23.2183 72.4998C22.8139 72.3299 22.5013 72.0981 22.2805 71.8056C22.0627 71.5126 21.9539 71.1802 21.9539 70.8078H22.8543C22.8543 71.1948 23.0052 71.5008 23.3069 71.7263C23.6117 71.9491 24.0177 72.0605 24.5247 72.0605C24.9975 72.0605 25.3599 71.9693 25.6118 71.7877C25.8638 71.606 25.9898 71.3585 25.9898 71.0452C25.9898 70.7318 25.8731 70.49 25.6399 70.3201C25.4065 70.1474 24.9835 69.9775 24.3708 69.8105ZM30.0024 72.7501C29.318 72.7501 28.7612 72.5391 28.332 72.1173C27.9027 71.6926 27.6881 71.1256 27.6881 70.4168V70.2672C27.6881 69.7958 27.783 69.3751 27.9727 69.0061C28.1656 68.6343 28.4331 68.344 28.7753 68.1359C29.1205 67.925 29.4938 67.8198 29.8951 67.8198C30.5513 67.8198 31.0615 68.0234 31.4254 68.4307C31.7894 68.8379 31.9713 69.4207 31.9713 70.1795V70.5181H28.5513C28.5637 70.9867 28.7084 71.3658 28.9852 71.656C29.2652 71.9429 29.6197 72.0869 30.049 72.0869C30.3538 72.0869 30.612 72.0278 30.8236 71.9108C31.035 71.7938 31.2201 71.6386 31.3787 71.4451L31.906 71.8315C31.483 72.4441 30.8484 72.7501 30.0024 72.7501ZM29.8951 68.4875C29.5466 68.4875 29.2543 68.6078 29.0179 68.848C28.7815 69.0854 28.6353 69.419 28.5793 69.8498H31.1081V69.7885C31.0833 69.3751 30.965 69.0562 30.7536 68.8306C30.542 68.6017 30.2558 68.4875 29.8951 68.4875ZM36.0912 72.6623C36.0414 72.5684 36.001 72.4013 35.9699 72.1611C35.5687 72.5538 35.0896 72.7501 34.5328 72.7501C34.0352 72.7501 33.6261 72.6185 33.3057 72.3547C32.9885 72.088 32.8298 71.7511 32.8298 71.3438C32.8298 70.8488 33.0289 70.4652 33.427 70.1924C33.8283 69.9173 34.3913 69.7795 35.1161 69.7795H35.9559V69.406C35.9559 69.122 35.8657 68.8964 35.6853 68.7293C35.5049 68.5595 35.2389 68.4745 34.8874 68.4745C34.5795 68.4745 34.3213 68.5477 34.1129 68.6939C33.9045 68.8407 33.8003 69.0179 33.8003 69.226H32.9325C32.9325 68.9887 33.0211 68.7597 33.1984 68.5403C33.3788 68.3176 33.6215 68.1421 33.9263 68.0127C34.2342 67.8839 34.5717 67.8198 34.9388 67.8198C35.5204 67.8198 35.9762 67.957 36.3058 68.2327C36.6355 68.5049 36.8067 68.8818 36.8191 69.3622V71.5503C36.8191 71.9868 36.8782 72.3344 36.9964 72.592V72.6623H36.0912ZM34.6588 72.0425C34.9295 72.0425 35.186 71.9766 35.4287 71.845C35.6713 71.7128 35.847 71.5418 35.9559 71.3309V70.355H35.2794C34.2218 70.355 33.693 70.6469 33.693 71.2297C33.693 71.4845 33.7832 71.6836 33.9636 71.8276C34.1441 71.971 34.3758 72.0425 34.6588 72.0425ZM40.6124 68.6371C40.4817 68.6163 40.3402 68.6062 40.1878 68.6062C39.6217 68.6062 39.2375 68.8334 39.0354 69.2873V72.6623H38.1721V67.9075H39.012L39.026 68.4565C39.3091 68.0318 39.7103 67.8198 40.2298 67.8198C40.3978 67.8198 40.5253 67.84 40.6124 67.8811V68.6371ZM43.3419 72.0869C43.6498 72.0869 43.9189 71.9986 44.1491 71.8231C44.3793 71.647 44.5068 71.4277 44.5317 71.1638H45.3482C45.3326 71.4361 45.2331 71.6954 45.0496 71.9418C44.866 72.1876 44.6203 72.3839 44.3124 72.5307C44.0075 72.677 43.684 72.7501 43.3419 72.7501C42.6545 72.7501 42.107 72.5347 41.6995 72.1043C41.2951 71.6707 41.093 71.0789 41.093 70.3291V70.1924C41.093 69.7295 41.1832 69.3183 41.3636 68.9577C41.544 68.5972 41.8022 68.3176 42.1381 68.1185C42.4772 67.9193 42.8769 67.8198 43.3372 67.8198C43.9033 67.8198 44.373 67.979 44.7463 68.2985C45.1227 68.618 45.3233 69.0325 45.3482 69.5422H44.5317C44.5068 69.2345 44.3824 68.9825 44.1584 68.7862C43.9375 68.587 43.6638 68.4875 43.3372 68.4875C42.8986 68.4875 42.558 68.6371 42.3154 68.9358C42.0759 69.2317 41.9561 69.6608 41.9561 70.2233V70.3775C41.9561 70.9248 42.0759 71.3467 42.3154 71.6431C42.5549 71.939 42.8971 72.0869 43.3419 72.0869ZM47.1818 68.483C47.5644 68.0408 48.0621 67.8198 48.6749 67.8198C49.7418 67.8198 50.2799 68.3862 50.2892 69.5202V72.6623H49.4261V69.5157C49.423 69.1732 49.339 68.9195 49.1741 68.7558C49.0124 68.5915 48.7589 68.5094 48.4136 68.5094C48.1336 68.5094 47.8879 68.5797 47.6764 68.7203C47.4649 68.861 47.3 69.0455 47.1818 69.2744V72.6623H46.3187V65.9124H47.1818V68.483ZM54.5957 65.8291L55.0904 66.1452C54.8011 66.5176 54.6518 66.9187 54.6425 67.3495V67.9469H53.7839V67.4373C53.7839 67.1386 53.8586 66.8427 54.0079 66.5497C54.1603 66.2566 54.3563 66.0164 54.5957 65.8291ZM56.0655 65.8291L56.5601 66.1452C56.2708 66.5176 56.1215 66.9187 56.1122 67.3495V67.9469H55.2537V67.4373C55.2537 67.1386 55.3283 66.8427 55.4776 66.5497C55.63 66.2566 55.826 66.0164 56.0655 65.8291ZM59.4669 69.8105C58.6985 69.6023 58.1387 69.3475 57.7872 69.0455C57.4388 68.7412 57.2646 68.366 57.2646 67.9205C57.2646 67.4165 57.4777 67.0008 57.9038 66.6728C58.3331 66.3415 58.8899 66.1762 59.5742 66.1762C60.0405 66.1762 60.4562 66.2611 60.8199 66.431C61.1872 66.6008 61.4703 66.8354 61.6691 67.1341C61.8716 67.4328 61.9725 67.7596 61.9725 68.114H61.0719C61.0719 67.7275 60.9411 67.4243 60.6801 67.2044C60.4185 66.9817 60.0501 66.8703 59.5742 66.8703C59.1325 66.8703 58.7872 66.9625 58.5384 67.147C58.2927 67.3287 58.1698 67.5824 58.1698 67.9075C58.1698 68.168 58.2864 68.3896 58.5197 68.5713C58.7561 68.7496 59.1558 68.9138 59.7188 69.0635C60.2848 69.2125 60.7267 69.3779 61.0438 69.5596C61.3645 69.7385 61.6004 69.9477 61.7533 70.1885C61.9086 70.4287 61.9863 70.711 61.9863 71.0362C61.9863 71.5548 61.7719 71.971 61.3425 72.2843C60.913 72.5948 60.3391 72.7501 59.6208 72.7501C59.1543 72.7501 58.7188 72.6668 58.3144 72.4998C57.91 72.3299 57.5975 72.0981 57.3766 71.8056C57.1588 71.5126 57.05 71.1802 57.05 70.8078H57.9505C57.9505 71.1948 58.1013 71.5008 58.403 71.7263C58.7079 71.9491 59.1139 72.0605 59.6208 72.0605C60.0937 72.0605 60.4562 71.9693 60.7082 71.7877C60.9602 71.606 61.0856 71.3585 61.0856 71.0452C61.0856 70.7318 60.9692 70.49 60.7357 70.3201C60.5028 70.1474 60.0799 69.9775 59.4669 69.8105ZM62.7752 70.2408C62.7752 69.775 62.8713 69.356 63.0642 68.9842C63.2601 68.6118 63.5307 68.3249 63.8759 68.123C64.2246 67.9205 64.6212 67.8198 65.0655 67.8198C65.7535 67.8198 66.3083 68.0437 66.7318 68.492C67.1576 68.9403 67.3708 69.5365 67.3708 70.2807V70.3375C67.3708 70.8005 67.2759 71.2167 67.0859 71.5857C66.8996 71.9519 66.6303 72.2376 66.2791 72.4424C65.9303 72.6477 65.5296 72.7501 65.0751 72.7501C64.3907 72.7501 63.8359 72.5262 63.4094 72.0779C62.9866 71.6296 62.7752 71.0362 62.7752 70.2982V70.2408ZM63.6429 70.3375C63.6429 70.8652 63.7719 71.2882 64.03 71.6077C64.2915 71.9272 64.6397 72.0869 65.0751 72.0869C65.5135 72.0869 65.8622 71.9255 66.1202 71.6031C66.3782 71.278 66.5078 70.8241 66.5078 70.2408C66.5078 69.7193 66.3752 69.2975 66.1107 68.9752C65.8497 68.65 65.5015 68.4875 65.0655 68.4875C64.6397 68.4875 64.2957 68.6472 64.0347 68.9667C63.7731 69.2857 63.6429 69.743 63.6429 70.3375ZM69.2652 67.9075L69.2885 68.4346C69.6588 68.0245 70.158 67.8198 70.7863 67.8198C71.4922 67.8198 71.973 68.0746 72.228 68.5842C72.3958 68.3558 72.6138 68.1713 72.8808 68.0307C73.1519 67.8901 73.4702 67.8198 73.8375 67.8198C74.9448 67.8198 75.508 68.3716 75.5265 69.4763V72.6623H74.6635V69.5247C74.6635 69.185 74.5811 68.9313 74.4162 68.7642C74.2514 68.5943 73.9743 68.5094 73.5855 68.5094C73.2654 68.5094 72.999 68.6005 72.7876 68.7822C72.5762 68.9605 72.4532 69.2024 72.4191 69.5073V72.6623H71.5514V69.5467C71.5514 68.8553 71.1918 68.5094 70.4734 68.5094C69.9072 68.5094 69.5202 68.7367 69.3118 69.1906V72.6623H68.4488V67.9075H69.2652ZM78.9277 72.7501C78.2438 72.7501 77.6866 72.5391 77.2578 72.1173C76.8284 71.6926 76.6134 71.1256 76.6134 70.4168V70.2672C76.6134 69.7958 76.7084 69.3751 76.8983 69.0061C77.0912 68.6343 77.3587 68.344 77.701 68.1359C78.0462 67.925 78.4194 67.8198 78.8208 67.8198C79.4771 67.8198 79.9871 68.0234 80.3508 68.4307C80.7151 68.8379 80.8967 69.4207 80.8967 70.1795V70.5181H77.477C77.4895 70.9867 77.6341 71.3658 77.9106 71.656C78.1907 71.9429 78.5454 72.0869 78.9748 72.0869C79.2794 72.0869 79.5374 72.0278 79.7488 71.9108C79.9608 71.7938 80.1454 71.6386 80.3043 71.4451L80.8316 71.8315C80.4088 72.4441 79.7739 72.7501 78.9277 72.7501ZM78.8208 68.4875C78.472 68.4875 78.1799 68.6078 77.9434 68.848C77.7069 69.0854 77.5606 69.419 77.5051 69.8498H80.0337V69.7885C80.0086 69.3751 79.8904 69.0562 79.679 68.8306C79.4675 68.6017 79.1815 68.4875 78.8208 68.4875ZM83.0712 66.7561V67.9075H84.0136V68.5358H83.0712V71.4845C83.0712 71.6751 83.113 71.8186 83.1972 71.9153C83.2808 72.0093 83.4241 72.056 83.6266 72.056C83.7257 72.056 83.8625 72.0385 84.0369 72.0031V72.6623C83.8099 72.7208 83.589 72.7501 83.3746 72.7501C82.9888 72.7501 82.6979 72.6404 82.502 72.4205C82.3061 72.2011 82.2082 71.8889 82.2082 71.4845V68.5358H81.2891V67.9075H82.2082V66.7561H83.0712ZM85.8895 68.483C86.2717 68.0408 86.7698 67.8198 87.3825 67.8198C88.4492 67.8198 88.9873 68.3862 88.9968 69.5202V72.6623H88.1338V69.5157C88.1303 69.1732 88.0466 68.9195 87.8818 68.7558C87.72 68.5915 87.4661 68.5094 87.1209 68.5094C86.8409 68.5094 86.5954 68.5797 86.384 68.7203C86.1726 68.861 86.0077 69.0455 85.8895 69.2744V72.6623H85.0259V65.9124H85.8895V68.483ZM91.2269 72.6623H90.3639V67.9075H91.2269V72.6623ZM90.294 66.6464C90.294 66.5142 90.3358 66.4029 90.42 66.3123C90.5066 66.2212 90.6344 66.1762 90.8022 66.1762C90.9706 66.1762 91.0978 66.2212 91.185 66.3123C91.2722 66.4029 91.3158 66.5142 91.3158 66.6464C91.3158 66.778 91.2722 66.8877 91.185 66.976C91.0978 67.0638 90.9706 67.1077 90.8022 67.1077C90.6344 67.1077 90.5066 67.0638 90.42 66.976C90.3358 66.8877 90.294 66.778 90.294 66.6464ZM93.4294 67.9075L93.4575 68.5049C93.8427 68.0482 94.3467 67.8198 94.969 67.8198C96.0357 67.8198 96.5738 68.3862 96.5833 69.5202V72.6623H95.7204V69.5157C95.7168 69.1732 95.6331 68.9195 95.4683 68.7558C95.3065 68.5915 95.0527 68.5094 94.7075 68.5094C94.428 68.5094 94.1819 68.5797 93.9705 68.7203C93.7591 68.861 93.5942 69.0455 93.476 69.2744V72.6623H92.613V67.9075H93.4294ZM97.6798 70.2453C97.6798 69.5039 97.862 68.9155 98.2257 68.4785C98.5894 68.0392 99.072 67.8198 99.6722 67.8198C100.288 67.8198 100.769 68.0245 101.114 68.4346L101.156 67.9075H101.944V72.5481C101.944 73.1635 101.75 73.6484 101.361 74.0028C100.975 74.3571 100.456 74.5343 99.803 74.5343C99.4387 74.5343 99.0827 74.4612 98.7345 74.315C98.3857 74.1681 98.12 73.9673 97.9366 73.7125L98.3846 73.2248C98.7542 73.6557 99.2069 73.8706 99.742 73.8706C100.162 73.8706 100.489 73.7598 100.722 73.537C100.958 73.3143 101.076 73.001 101.076 72.5965V72.1876C100.731 72.5628 100.26 72.7501 99.6626 72.7501C99.072 72.7501 98.593 72.5262 98.2257 72.0779C97.862 71.6296 97.6798 71.0187 97.6798 70.2453ZM98.5476 70.3375C98.5476 70.8736 98.6641 71.2955 98.8976 71.6031C99.1311 71.908 99.4572 72.0605 99.8776 72.0605C100.422 72.0605 100.821 71.8276 101.076 71.3618V69.1906C100.812 68.7367 100.416 68.5094 99.8866 68.5094C99.4667 68.5094 99.1388 68.6635 98.9023 68.9712C98.6658 69.2783 98.5476 69.734 98.5476 70.3375ZM103.367 68.0656L102.877 67.7495C103.167 67.3687 103.316 66.967 103.325 66.5452V65.9124H104.179V66.4839C104.176 66.7763 104.098 67.0694 103.946 67.3625C103.797 67.6527 103.604 67.8867 103.367 68.0656ZM104.8 68.0656L104.31 67.7495C104.599 67.3687 104.749 66.967 104.758 66.5452V65.9124H105.612V66.4839C105.609 66.7763 105.531 67.0694 105.378 67.3625C105.229 67.6527 105.036 67.8867 104.8 68.0656Z" fill="black" fill-opacity="0.38"/>
<path d="M192.596 63.1001V57.8396H189.101V63.1001L190.832 62.1157L192.596 63.1001ZM192.596 56.5479C192.966 56.5479 193.282 56.6811 193.544 56.9474C193.826 57.1938 193.968 57.4914 193.968 57.8396V65.7146C193.968 66.0633 193.826 66.371 193.544 66.6376C193.282 66.9043 192.966 67.0376 192.596 67.0376H184.235C183.865 67.0376 183.538 66.9043 183.255 66.6376C182.972 66.371 182.831 66.0633 182.831 65.7146V57.8396C182.831 57.4914 182.972 57.1938 183.255 56.9474C183.538 56.6811 183.865 56.5479 184.235 56.5479H192.596ZM181.426 59.1626V68.3606H191.192V69.6521H181.426C181.056 69.6521 180.73 69.5295 180.446 69.2831C180.185 69.0165 180.055 68.7088 180.055 68.3606V59.1626H181.426Z" fill="#666666"/>
<path d="M171.821 74.5091C171.821 75.0576 171.72 75.5396 171.519 75.9553C171.318 76.3676 171.029 76.6854 170.654 76.9087C170.281 77.1292 169.851 77.2395 169.364 77.2395C168.882 77.2395 168.452 77.1292 168.074 76.9087C167.698 76.6854 167.407 76.3693 167.2 75.9587C166.996 75.5486 166.893 75.0756 166.89 74.5401V74.2245C166.89 73.6789 166.992 73.1968 167.196 72.7789C167.403 72.3609 167.693 72.042 168.065 71.8215C168.441 71.5982 168.871 71.4868 169.355 71.4868C169.84 71.4868 170.269 71.5971 170.641 71.8176C171.017 72.0353 171.307 72.3508 171.511 72.7637C171.715 73.1737 171.818 73.6519 171.821 74.1975V74.5091ZM170.789 74.2172C170.789 73.5968 170.663 73.1209 170.413 72.7907C170.165 72.4599 169.813 72.2946 169.355 72.2946C168.909 72.2946 168.559 72.4599 168.306 72.7907C168.056 73.1186 167.928 73.5838 167.923 74.1862V74.5091C167.923 75.1245 168.049 75.5998 168.302 75.9356C168.558 76.2714 168.912 76.4396 169.364 76.4396C169.821 76.4396 170.172 76.2754 170.417 75.9474C170.665 75.6195 170.789 75.1397 170.789 74.5091V74.2172ZM175.13 75.0052H173.979V77.1624H172.946V71.5639H175.036C175.722 71.5639 176.252 71.7084 176.624 71.9981C176.997 72.2878 177.183 72.7069 177.183 73.2559C177.183 73.6299 177.087 73.9438 176.894 74.1975C176.703 74.4489 176.436 74.6424 176.093 74.7786L177.429 77.1124V77.1624H176.322L175.13 75.0052ZM173.979 74.2245H175.04C175.389 74.2245 175.661 74.1429 175.857 73.9787C176.053 73.8122 176.151 73.5849 176.151 73.2981C176.151 72.9983 176.059 72.7659 175.877 72.6022C175.697 72.438 175.428 72.3536 175.068 72.348H173.979V74.2245ZM182.815 76.4357C182.6 76.6995 182.302 76.8997 181.921 77.0353C181.54 77.1714 181.107 77.2395 180.623 77.2395C180.125 77.2395 179.684 77.1332 179.3 76.92C178.916 76.7074 178.62 76.4036 178.41 76.0087C178.203 75.6116 178.096 75.1487 178.087 74.6205V74.1823C178.087 73.3363 178.302 72.6765 178.732 72.2023C179.162 71.7253 179.763 71.4868 180.533 71.4868C181.194 71.4868 181.72 71.6409 182.109 71.9481C182.498 72.2558 182.732 72.6996 182.811 73.2789H181.799C181.684 72.6045 181.269 72.2676 180.553 72.2676C180.091 72.2676 179.738 72.4251 179.496 72.7406C179.256 73.0534 179.133 73.5135 179.124 74.121V74.5513C179.124 75.1566 179.259 75.6268 179.529 75.9626C179.801 76.2962 180.178 76.4627 180.66 76.4627C181.188 76.4627 181.563 76.3496 181.786 76.1241V75.0283H180.562V74.2903H182.815V76.4357ZM187.373 75.8591H185.07L184.589 77.1624H183.515L185.76 71.5639H186.687L188.937 77.1624H187.859L187.373 75.8591ZM185.36 75.0744H187.083L186.222 72.7519L185.36 75.0744ZM194.425 77.1624H193.392L190.743 73.1901V77.1624H189.71V71.5639H190.743L193.4 75.5514V71.5639H194.425V77.1624ZM196.831 77.1624H195.803V71.5639H196.831V77.1624ZM199.168 76.3856H202.344V77.1624H197.919V76.5319L200.993 72.348H197.94V71.5639H202.246V72.1792L199.168 76.3856ZM206.804 74.6632H204.363V76.3856H207.217V77.1624H203.33V71.5639H207.188V72.348H204.363V73.8937H206.804V74.6632Z" fill="#4285F4"/>
</g>
<path d="M77.3552 41.0211C77.3552 40.775 77.2627 40.5854 77.0775 40.4521C76.8948 40.3187 76.5645 40.1842 76.0855 40.0483C75.6066 39.9125 75.2255 39.7612 74.9425 39.5946C74.4008 39.2741 74.1296 38.8563 74.1296 38.3411C74.1296 37.8899 74.3243 37.5182 74.7137 37.226C75.1055 36.9337 75.6131 36.7876 76.2366 36.7876C76.6499 36.7876 77.019 36.8594 77.3427 37.0029C77.6664 37.1465 77.9214 37.3516 78.1059 37.6181C78.2911 37.8822 78.3837 38.1757 78.3837 38.4987H77.3552C77.3552 38.2064 77.2573 37.9783 77.0608 37.8143C76.8679 37.6476 76.5902 37.5643 76.2283 37.5643C75.8908 37.5643 75.6281 37.6322 75.4405 37.7681C75.2554 37.904 75.1628 38.0937 75.1628 38.3372C75.1628 38.5423 75.2632 38.714 75.465 38.8525C75.6663 38.9883 75.9983 39.1216 76.4612 39.2524C76.9234 39.3806 77.2949 39.5279 77.5756 39.6945C77.8557 39.8586 78.0612 40.0483 78.1919 40.2636C78.3227 40.4764 78.3878 40.7263 78.3878 41.0135C78.3878 41.48 78.1973 41.8517 77.8163 42.1286C77.4382 42.4029 76.9234 42.54 76.2731 42.54C75.8431 42.54 75.4471 42.4657 75.0852 42.317C74.7257 42.1658 74.4456 41.9581 74.2443 41.6941C74.0454 41.43 73.9463 41.1224 73.9463 40.7712H74.9789C74.9789 41.0891 75.0906 41.3352 75.3139 41.5095C75.5367 41.6838 75.8568 41.771 76.2731 41.771C76.6326 41.771 76.9019 41.7031 77.0817 41.5672C77.2639 41.4287 77.3552 41.2468 77.3552 41.0211ZM84.0137 42.4631H82.9846V39.9752H80.327V42.4631H79.2944V36.8645H80.327V39.1947H82.9846V36.8645H84.0137V42.4631ZM88.6391 41.1596H86.3369L85.8549 42.4631H84.7811L87.0267 36.8645H87.9535L90.2027 42.4631H89.1253L88.6391 41.1596ZM86.6265 40.3752H88.3495L87.4877 38.0527L86.6265 40.3752ZM93.0646 40.3059H91.9137V42.4631H90.8805V36.8645H92.9708C93.657 36.8645 94.1862 37.0093 94.5588 37.299C94.9321 37.5887 95.1184 38.0078 95.1184 38.5564C95.1184 38.9307 95.0217 39.2447 94.8282 39.4985C94.6377 39.7497 94.3713 39.9432 94.0285 40.0791L95.3633 42.4131V42.4631H94.2566L93.0646 40.3059ZM91.9137 39.5253H92.975C93.3232 39.5253 93.5955 39.4433 93.7914 39.2792C93.9873 39.1126 94.0852 38.8858 94.0852 38.5987C94.0852 38.2988 93.9944 38.0667 93.8117 37.9027C93.6325 37.7386 93.3626 37.654 93.0036 37.6489H91.9137V39.5253ZM99.5725 39.9637H97.1311V41.6864H99.9846V42.4631H96.0979V36.8645H99.9559V37.6489H97.1311V39.1947H99.5725V39.9637ZM100.825 42.4631V36.8645H102.581C103.106 36.8645 103.572 36.9747 103.978 37.1952C104.386 37.4156 104.701 37.7284 104.925 38.1334C105.148 38.5384 105.259 39.0024 105.259 39.5253V39.8061C105.259 40.3367 105.146 40.8033 104.921 41.2057C104.697 41.6082 104.378 41.9184 103.961 42.1362C103.548 42.3542 103.072 42.4631 102.537 42.4631H100.825ZM101.859 37.6489V41.6864H102.532C103.074 41.6864 103.489 41.5274 103.778 41.2096C104.068 40.8891 104.217 40.4303 104.222 39.833V39.5215C104.222 38.914 104.082 38.45 103.802 38.1296C103.521 37.8091 103.115 37.6489 102.581 37.6489H101.859Z" fill="#333333"/>
<path d="M115.942 46.7876H63.3861V47.9126H115.942V46.7876Z" fill="#333333"/>
<g opacity="0.7">
<path opacity="0.7" d="M121.409 40.0906H119.016V42.4631H117.984V36.8645H121.76V37.6489H119.016V39.3139H121.409V40.0906ZM127.325 39.8099C127.325 40.3585 127.224 40.8404 127.023 41.2557C126.821 41.6684 126.532 41.9863 126.157 42.2093C125.784 42.4298 125.354 42.54 124.867 42.54C124.385 42.54 123.955 42.4298 123.577 42.2093C123.201 41.9863 122.91 41.6697 122.703 41.2596C122.499 40.8494 122.395 40.3765 122.393 39.8407V39.5253C122.393 38.9793 122.495 38.4974 122.699 38.0795C122.906 37.6617 123.196 37.3426 123.569 37.1221C123.944 36.8991 124.374 36.7876 124.859 36.7876C125.343 36.7876 125.772 36.8978 126.145 37.1182C126.52 37.3361 126.81 37.6515 127.014 38.0642C127.218 38.4744 127.322 38.9524 127.325 39.4985V39.8099ZM126.292 39.5177C126.292 38.8973 126.166 38.4218 125.916 38.0911C125.668 37.7604 125.316 37.5951 124.859 37.5951C124.412 37.5951 124.063 37.7604 123.81 38.0911C123.559 38.4192 123.431 38.8845 123.426 39.4869V39.8099C123.426 40.4252 123.552 40.9007 123.805 41.2365C124.061 41.5723 124.415 41.7402 124.867 41.7402C125.324 41.7402 125.675 41.5762 125.92 41.248C126.168 40.9199 126.292 40.4405 126.292 39.8099V39.5177ZM129.386 41.6864H132.085V42.4631H128.353V36.8645H129.386V41.6864ZM132.877 42.4631V36.8645H134.632C135.157 36.8645 135.623 36.9747 136.029 37.1952C136.437 37.4156 136.753 37.7284 136.976 38.1334C137.199 38.5384 137.31 39.0024 137.31 39.5253V39.8061C137.31 40.3367 137.197 40.8033 136.972 41.2057C136.748 41.6082 136.429 41.9184 136.012 42.1362C135.599 42.3542 135.123 42.4631 134.588 42.4631H132.877ZM133.91 37.6489V41.6864H134.583C135.125 41.6864 135.54 41.5274 135.829 41.2096C136.119 40.8891 136.268 40.4303 136.274 39.833V39.5215C136.274 38.914 136.133 38.45 135.853 38.1296C135.572 37.8091 135.166 37.6489 134.632 37.6489H133.91ZM141.813 39.9637H139.372V41.6864H142.226V42.4631H138.339V36.8645H142.197V37.6489H139.372V39.1947H141.813V39.9637ZM145.251 40.3059H144.1V42.4631H143.067V36.8645H145.157C145.843 36.8645 146.373 37.0093 146.745 37.299C147.118 37.5887 147.305 38.0078 147.305 38.5564C147.305 38.9307 147.208 39.2447 147.015 39.4985C146.824 39.7497 146.558 39.9432 146.214 40.0791L147.55 42.4131V42.4631H146.443L145.251 40.3059ZM144.1 39.5253H145.161C145.51 39.5253 145.782 39.4433 145.978 39.2792C146.174 39.1126 146.272 38.8858 146.272 38.5987C146.272 38.2988 146.18 38.0667 145.998 37.9027C145.818 37.7386 145.549 37.654 145.19 37.6489H144.1V39.5253ZM151.391 41.0211C151.391 40.775 151.298 40.5854 151.114 40.4521C150.931 40.3187 150.601 40.1842 150.121 40.0483C149.642 39.9125 149.261 39.7612 148.978 39.5946C148.437 39.2741 148.166 38.8563 148.166 38.3411C148.166 37.8899 148.361 37.5182 148.75 37.226C149.142 36.9337 149.65 36.7876 150.272 36.7876C150.686 36.7876 151.055 36.8594 151.379 37.0029C151.703 37.1465 151.957 37.3516 152.142 37.6181C152.328 37.8822 152.42 38.1757 152.42 38.4987H151.391C151.391 38.2064 151.293 37.9783 151.097 37.8143C150.904 37.6476 150.627 37.5643 150.265 37.5643C149.927 37.5643 149.664 37.6322 149.476 37.7681C149.291 37.904 149.199 38.0937 149.199 38.3372C149.199 38.5423 149.3 38.714 149.501 38.8525C149.703 38.9883 150.035 39.1216 150.497 39.2524C150.96 39.3806 151.331 39.5279 151.612 39.6945C151.892 39.8586 152.098 40.0483 152.228 40.2636C152.359 40.4764 152.424 40.7263 152.424 41.0135C152.424 41.48 152.234 41.8517 151.853 42.1286C151.474 42.4029 150.96 42.54 150.309 42.54C149.879 42.54 149.484 42.4657 149.122 42.317C148.762 42.1658 148.482 41.9581 148.28 41.6941C148.082 41.43 147.982 41.1224 147.982 40.7712H149.015C149.015 41.0891 149.127 41.3352 149.35 41.5095C149.573 41.6838 149.893 41.771 150.309 41.771C150.668 41.771 150.938 41.7031 151.118 41.5672C151.3 41.4287 151.391 41.2468 151.391 41.0211Z" fill="#333333"/>
</g>
<g opacity="0.7">
<path opacity="0.7" d="M24.9802 40.3059H23.8289V42.4631H22.7961V36.8645H24.8864C25.5722 36.8645 26.1016 37.0093 26.4744 37.299C26.8473 37.5887 27.0338 38.0078 27.0338 38.5564C27.0338 38.9307 26.9372 39.2447 26.7439 39.4985C26.5534 39.7497 26.2867 39.9432 25.9437 40.0791L27.2787 42.4131V42.4631H26.1724L24.9802 40.3059ZM23.8289 39.5253H24.8904C25.2388 39.5253 25.511 39.4433 25.7069 39.2792C25.9029 39.1126 26.0009 38.8858 26.0009 38.5987C26.0009 38.2988 25.9097 38.0667 25.7274 37.9027C25.5477 37.7386 25.2783 37.654 24.919 37.6489H23.8289V39.5253ZM31.4879 39.9637H29.0465V41.6864H31.9002V42.4631H28.0136V36.8645H31.8716V37.6489H29.0465V39.1947H31.4879V39.9637ZM37.2769 40.6405C37.2171 41.2378 36.983 41.7043 36.5747 42.0401C36.1665 42.3734 35.6235 42.54 34.9458 42.54C34.4722 42.54 34.0544 42.4349 33.6925 42.2247C33.3332 42.0119 33.0556 41.7107 32.8596 41.3211C32.6636 40.9314 32.5616 40.479 32.5534 39.9637V39.4408C32.5534 38.9127 32.6528 38.4474 32.8515 38.045C33.0501 37.6425 33.3345 37.3323 33.7047 37.1144C34.0775 36.8965 34.5076 36.7876 34.9948 36.7876C35.6507 36.7876 36.1788 36.9555 36.5788 37.2913C36.9789 37.6271 37.2117 38.1014 37.2769 38.714H36.2482C36.1991 38.3116 36.0739 38.0219 35.8726 37.845C35.6739 37.6655 35.3813 37.5758 34.9948 37.5758C34.5457 37.5758 34.2 37.7309 33.9578 38.0411C33.7183 38.3487 33.5958 38.8012 33.5904 39.3985V39.8945C33.5904 40.4995 33.7047 40.9609 33.9333 41.2788C34.1647 41.5966 34.5022 41.7556 34.9458 41.7556C35.3513 41.7556 35.6562 41.6697 35.8603 41.498C36.0644 41.3262 36.1937 41.0404 36.2482 40.6405H37.2769ZM41.678 39.9637H39.2366V41.6864H42.0903V42.4631H38.2037V36.8645H42.0617V37.6489H39.2366V39.1947H41.678V39.9637ZM47.6467 42.4631H46.6138L43.9642 38.491V42.4631H42.9313V36.8645H43.9642L46.622 40.8519V36.8645H47.6467V42.4631ZM53.0398 37.6489H51.1863V42.4631H50.1615V37.6489H48.3244V36.8645H53.0398V37.6489Z" fill="#333333"/>
</g>
</g>
<defs>
<filter id="filter0_ddd" x="168.414" y="158.038" width="59.8889" height="58.5" filterUnits="userSpaceOnUse" color-interpolation-filters="sRGB">
<feFlood flood-opacity="0" result="BackgroundImageFix"/>
<feColorMatrix in="SourceAlpha" type="matrix" values="0 0 0 0 0 0 0 0 0 0 0 0 0 0 0 0 0 0 127 0"/>
<feOffset dy="3"/>
<feGaussianBlur stdDeviation="2.5"/>
<feColorMatrix type="matrix" values="0 0 0 0 0 0 0 0 0 0 0 0 0 0 0 0 0 0 0.2 0"/>
<feBlend mode="normal" in2="BackgroundImageFix" result="effect1_dropShadow"/>
<feColorMatrix in="SourceAlpha" type="matrix" values="0 0 0 0 0 0 0 0 0 0 0 0 0 0 0 0 0 0 127 0"/>
<feOffset dy="1"/>
<feGaussianBlur stdDeviation="9"/>
<feColorMatrix type="matrix" values="0 0 0 0 0 0 0 0 0 0 0 0 0 0 0 0 0 0 0.12 0"/>
<feBlend mode="normal" in2="effect1_dropShadow" result="effect2_dropShadow"/>
<feColorMatrix in="SourceAlpha" type="matrix" values="0 0 0 0 0 0 0 0 0 0 0 0 0 0 0 0 0 0 127 0"/>
<feOffset dy="6"/>
<feGaussianBlur stdDeviation="5"/>
<feColorMatrix type="matrix" values="0 0 0 0 0 0 0 0 0 0 0 0 0 0 0 0 0 0 0.14 0"/>
<feBlend mode="normal" in2="effect2_dropShadow" result="effect3_dropShadow"/>
<feBlend mode="normal" in="SourceGraphic" in2="effect3_dropShadow" result="shape"/>
</filter>
<filter id="filter1_ddd" x="1.85837" y="52.6626" width="220.403" height="33" filterUnits="userSpaceOnUse" color-interpolation-filters="sRGB">
<feFlood flood-opacity="0" result="BackgroundImageFix"/>
<feColorMatrix in="SourceAlpha" type="matrix" values="0 0 0 0 0 0 0 0 0 0 0 0 0 0 0 0 0 0 127 0"/>
<feOffset dy="1"/>
<feGaussianBlur stdDeviation="1.5"/>
<feColorMatrix type="matrix" values="0 0 0 0 0 0 0 0 0 0 0 0 0 0 0 0 0 0 0.2 0"/>
<feBlend mode="normal" in2="BackgroundImageFix" result="effect1_dropShadow"/>
<feColorMatrix in="SourceAlpha" type="matrix" values="0 0 0 0 0 0 0 0 0 0 0 0 0 0 0 0 0 0 127 0"/>
<feOffset dy="2"/>
<feGaussianBlur stdDeviation="1"/>
<feColorMatrix type="matrix" values="0 0 0 0 0 0 0 0 0 0 0 0 0 0 0 0 0 0 0.12 0"/>
<feBlend mode="normal" in2="effect1_dropShadow" result="effect2_dropShadow"/>
<feColorMatrix in="SourceAlpha" type="matrix" values="0 0 0 0 0 0 0 0 0 0 0 0 0 0 0 0 0 0 127 0"/>
<feOffset/>
<feGaussianBlur stdDeviation="1"/>
<feColorMatrix type="matrix" values="0 0 0 0 0 0 0 0 0 0 0 0 0 0 0 0 0 0 0.14 0"/>
<feBlend mode="normal" in2="effect2_dropShadow" result="effect3_dropShadow"/>
<feBlend mode="normal" in="SourceGraphic" in2="effect3_dropShadow" result="shape"/>
</filter>
<clipPath id="clip0">
<rect width="215" height="360" fill="white" transform="translate(0.0805969 0.662598)"/>
</clipPath>
</defs>
</svg>
