<svg width="151" height="29" viewBox="0 0 151 29" fill="none" xmlns="http://www.w3.org/2000/svg">
<rect width="146" height="24" transform="translate(2.91858 2.81006)" fill="#E5E8F0"/>
<path d="M3.91858 1.81006C2.81401 1.81006 1.91858 2.70549 1.91858 3.81006V25.8101C1.91858 26.9146 2.814 27.8101 3.91858 27.8101H147.919C149.023 27.8101 149.919 26.9146 149.919 25.8101V3.81006C149.919 2.70549 149.023 1.81006 147.919 1.81006H3.91858Z" fill="#1C3368" stroke="#1C3368" stroke-width="2"/>
<path d="M11.1828 8.51406L14.2068 17.4581L17.2468 8.51406H19.6628L15.6628 19.8101H12.7668L8.76683 8.51406H11.1828ZM20.6241 8.40206C20.6241 8.03939 20.7521 7.74606 21.0081 7.52206C21.2641 7.28739 21.6001 7.17006 22.0161 7.17006C22.4321 7.17006 22.7681 7.28739 23.0241 7.52206C23.2801 7.74606 23.4081 8.03939 23.4081 8.40206C23.4081 8.75406 23.2801 9.04739 23.0241 9.28206C22.7681 9.50606 22.4321 9.61806 22.0161 9.61806C21.6001 9.61806 21.2641 9.50606 21.0081 9.28206C20.7521 9.04739 20.6241 8.75406 20.6241 8.40206ZM23.1361 10.9461V19.8101H20.8801V10.9461H23.1361ZM33.513 15.0421C33.513 15.2661 33.4863 15.5221 33.433 15.8101H26.937C26.969 16.5994 27.1823 17.1807 27.577 17.5541C27.9716 17.9274 28.4623 18.1141 29.049 18.1141C29.5716 18.1141 30.0036 17.9861 30.345 17.7301C30.697 17.4741 30.921 17.1274 31.017 16.6901H33.401C33.2836 17.3087 33.033 17.8634 32.649 18.3541C32.265 18.8447 31.769 19.2287 31.161 19.5061C30.5636 19.7834 29.897 19.9221 29.161 19.9221C28.297 19.9221 27.529 19.7407 26.857 19.3781C26.185 19.0047 25.6623 18.4767 25.289 17.7941C24.9156 17.1114 24.729 16.3061 24.729 15.3781C24.729 14.4501 24.9156 13.6447 25.289 12.9621C25.6623 12.2687 26.185 11.7407 26.857 11.3781C27.529 11.0154 28.297 10.8341 29.161 10.8341C30.0356 10.8341 30.7983 11.0154 31.449 11.3781C32.1103 11.7407 32.617 12.2421 32.969 12.8821C33.3316 13.5114 33.513 14.2314 33.513 15.0421ZM31.241 14.8181C31.273 14.0927 31.081 13.5434 30.665 13.1701C30.2596 12.7967 29.7583 12.6101 29.161 12.6101C28.553 12.6101 28.041 12.7967 27.625 13.1701C27.209 13.5434 26.9796 14.0927 26.937 14.8181H31.241ZM47.8025 10.9461L45.4185 19.8101H42.9225L41.0185 13.3621L39.0665 19.8101H36.5705L34.2025 10.9461H36.4585L37.8985 17.7941L39.8665 10.9461H42.2505L44.2345 17.7941L45.6905 10.9461H47.8025ZM57.5153 8.40206C58.9233 8.40206 60.0913 8.76472 61.0193 9.49006C61.9473 10.2154 62.5607 11.2021 62.8593 12.4501H60.4913C60.246 11.8421 59.862 11.3621 59.3393 11.0101C58.8273 10.6581 58.2087 10.4821 57.4833 10.4821C56.886 10.4821 56.3473 10.6314 55.8673 10.9301C55.3873 11.2287 55.014 11.6554 54.7473 12.2101C54.4807 12.7647 54.3473 13.4154 54.3473 14.1621C54.3473 14.8981 54.4807 15.5434 54.7473 16.0981C55.014 16.6527 55.3873 17.0794 55.8673 17.3781C56.3473 17.6767 56.886 17.8261 57.4833 17.8261C58.2087 17.8261 58.8273 17.6501 59.3393 17.2981C59.862 16.9461 60.246 16.4661 60.4913 15.8581H62.8593C62.5607 17.1061 61.9473 18.0927 61.0193 18.8181C60.0913 19.5434 58.9233 19.9061 57.5153 19.9061C56.438 19.9061 55.4833 19.6661 54.6513 19.1861C53.83 18.6954 53.19 18.0127 52.7313 17.1381C52.2833 16.2634 52.0593 15.2714 52.0593 14.1621C52.0593 13.0421 52.2833 12.0447 52.7313 11.1701C53.19 10.2954 53.83 9.61806 54.6513 9.13806C55.4727 8.64739 56.4273 8.40206 57.5153 8.40206ZM68.024 10.8341C68.7706 10.8341 69.4106 11.0101 69.944 11.3621C70.4773 11.7141 70.856 12.1887 71.08 12.7861V10.9461H73.32V19.8101H71.08V17.9541C70.856 18.5514 70.4773 19.0314 69.944 19.3941C69.4106 19.7461 68.7706 19.9221 68.024 19.9221C67.2773 19.9221 66.6053 19.7407 66.008 19.3781C65.4106 19.0154 64.9413 18.4927 64.6 17.8101C64.2693 17.1167 64.104 16.3061 64.104 15.3781C64.104 14.4501 64.2693 13.6447 64.6 12.9621C64.9413 12.2687 65.4106 11.7407 66.008 11.3781C66.6053 11.0154 67.2773 10.8341 68.024 10.8341ZM68.728 12.8021C68.024 12.8021 67.4586 13.0314 67.032 13.4901C66.6053 13.9487 66.392 14.5781 66.392 15.3781C66.392 16.1781 66.6053 16.8074 67.032 17.2661C67.4586 17.7141 68.024 17.9381 68.728 17.9381C69.4106 17.9381 69.9706 17.7087 70.408 17.2501C70.856 16.7807 71.08 16.1567 71.08 15.3781C71.08 14.5887 70.856 13.9647 70.408 13.5061C69.9706 13.0367 69.4106 12.8021 68.728 12.8021ZM78.4205 10.8341C79.4978 10.8341 80.3618 11.1061 81.0125 11.6501C81.6631 12.1941 82.0685 12.9194 82.2285 13.8261H80.1165C80.0311 13.3994 79.8391 13.0581 79.5405 12.8021C79.2418 12.5461 78.8525 12.4181 78.3725 12.4181C77.9885 12.4181 77.6898 12.5087 77.4765 12.6901C77.2631 12.8714 77.1565 13.1167 77.1565 13.4261C77.1565 13.6714 77.2418 13.8687 77.4125 14.0181C77.5831 14.1674 77.7965 14.2847 78.0525 14.3701C78.3085 14.4554 78.6765 14.5567 79.1565 14.6741C79.8285 14.8234 80.3725 14.9834 80.7885 15.1541C81.2151 15.3141 81.5778 15.5754 81.8765 15.9381C82.1858 16.2901 82.3405 16.7701 82.3405 17.3781C82.3405 18.1354 82.0418 18.7487 81.4445 19.2181C80.8578 19.6874 80.0631 19.9221 79.0605 19.9221C77.9085 19.9221 76.9858 19.6661 76.2925 19.1541C75.5991 18.6314 75.1778 17.8901 75.0285 16.9301H77.1885C77.2418 17.3674 77.4338 17.7141 77.7645 17.9701C78.0951 18.2154 78.5271 18.3381 79.0605 18.3381C79.4445 18.3381 79.7378 18.2474 79.9405 18.0661C80.1431 17.8741 80.2445 17.6287 80.2445 17.3301C80.2445 17.0741 80.1538 16.8661 79.9725 16.7061C79.8018 16.5461 79.5831 16.4234 79.3165 16.3381C79.0605 16.2527 78.6925 16.1514 78.2125 16.0341C77.5511 15.8847 77.0125 15.7354 76.5965 15.5861C76.1911 15.4261 75.8391 15.1754 75.5405 14.8341C75.2525 14.4927 75.1085 14.0234 75.1085 13.4261C75.1085 12.6581 75.4018 12.0341 75.9885 11.5541C76.5751 11.0741 77.3858 10.8341 78.4205 10.8341ZM92.3567 15.0421C92.3567 15.2661 92.33 15.5221 92.2767 15.8101H85.7807C85.8127 16.5994 86.026 17.1807 86.4207 17.5541C86.8154 17.9274 87.306 18.1141 87.8927 18.1141C88.4154 18.1141 88.8474 17.9861 89.1887 17.7301C89.5407 17.4741 89.7647 17.1274 89.8607 16.6901H92.2447C92.1274 17.3087 91.8767 17.8634 91.4927 18.3541C91.1087 18.8447 90.6127 19.2287 90.0047 19.5061C89.4074 19.7834 88.7407 19.9221 88.0047 19.9221C87.1407 19.9221 86.3727 19.7407 85.7007 19.3781C85.0287 19.0047 84.506 18.4767 84.1327 17.7941C83.7594 17.1114 83.5727 16.3061 83.5727 15.3781C83.5727 14.4501 83.7594 13.6447 84.1327 12.9621C84.506 12.2687 85.0287 11.7407 85.7007 11.3781C86.3727 11.0154 87.1407 10.8341 88.0047 10.8341C88.8794 10.8341 89.642 11.0154 90.2927 11.3781C90.954 11.7407 91.4607 12.2421 91.8127 12.8821C92.1754 13.5114 92.3567 14.2314 92.3567 15.0421ZM90.0847 14.8181C90.1167 14.0927 89.9247 13.5434 89.5087 13.1701C89.1034 12.7967 88.602 12.6101 88.0047 12.6101C87.3967 12.6101 86.8847 12.7967 86.4687 13.1701C86.0527 13.5434 85.8234 14.0927 85.7807 14.8181H90.0847ZM105.203 16.7221C105.203 17.2981 105.059 17.8314 104.771 18.3221C104.483 18.8021 104.056 19.1914 103.491 19.4901C102.925 19.7781 102.237 19.9221 101.427 19.9221C100.627 19.9221 99.9119 19.7887 99.2826 19.5221C98.6532 19.2447 98.1466 18.8501 97.7626 18.3381C97.3892 17.8261 97.1759 17.2287 97.1226 16.5461H99.5226C99.5759 17.0047 99.7572 17.3887 100.067 17.6981C100.387 17.9967 100.808 18.1461 101.331 18.1461C101.8 18.1461 102.157 18.0234 102.403 17.7781C102.659 17.5221 102.787 17.1967 102.787 16.8021C102.787 16.4501 102.685 16.1621 102.483 15.9381C102.28 15.7034 102.024 15.5167 101.715 15.3781C101.405 15.2394 100.979 15.0794 100.435 14.8981C99.7306 14.6634 99.1546 14.4341 98.7066 14.2101C98.2586 13.9754 97.8746 13.6394 97.5546 13.2021C97.2452 12.7647 97.0906 12.1941 97.0906 11.4901C97.0906 10.5194 97.4372 9.75672 98.1306 9.20206C98.8346 8.63672 99.7626 8.35406 100.915 8.35406C102.109 8.35406 103.059 8.64206 103.763 9.21806C104.477 9.79406 104.883 10.5621 104.979 11.5221H102.547C102.483 11.1167 102.312 10.7861 102.035 10.5301C101.757 10.2634 101.379 10.1301 100.899 10.1301C100.483 10.1301 100.147 10.2421 99.8906 10.4661C99.6346 10.6794 99.5066 10.9941 99.5066 11.4101C99.5066 11.7407 99.6026 12.0181 99.7946 12.2421C99.9972 12.4554 100.248 12.6314 100.547 12.7701C100.856 12.9087 101.272 13.0634 101.795 13.2341C102.52 13.4901 103.107 13.7301 103.555 13.9541C104.013 14.1781 104.403 14.5141 104.723 14.9621C105.043 15.4101 105.203 15.9967 105.203 16.7221ZM111.6 17.8741V19.8101H110.416C109.424 19.8101 108.662 19.5701 108.128 19.0901C107.606 18.6101 107.344 17.8101 107.344 16.6901V12.8501H106.112V10.9461H107.344V8.75406H109.6V10.9461H111.584V12.8501H109.6V16.7221C109.6 17.1487 109.686 17.4474 109.856 17.6181C110.027 17.7887 110.315 17.8741 110.72 17.8741H111.6ZM121.704 10.9461V19.8101H119.448V18.0181C119.213 18.6154 118.824 19.0847 118.28 19.4261C117.746 19.7567 117.128 19.9221 116.424 19.9221C115.4 19.9221 114.584 19.5861 113.976 18.9141C113.368 18.2421 113.064 17.3034 113.064 16.0981V10.9461H115.304V15.8421C115.304 16.5461 115.485 17.0954 115.848 17.4901C116.21 17.8741 116.701 18.0661 117.32 18.0661C117.97 18.0661 118.488 17.8581 118.872 17.4421C119.256 17.0261 119.448 16.4287 119.448 15.6501V10.9461H121.704ZM127.227 10.8341C127.974 10.8341 128.608 11.0101 129.131 11.3621C129.664 11.7141 130.048 12.1887 130.283 12.7861V7.97006H132.523V19.8101H130.283V17.9541C130.048 18.5514 129.664 19.0314 129.131 19.3941C128.608 19.7461 127.974 19.9221 127.227 19.9221C126.48 19.9221 125.808 19.7407 125.211 19.3781C124.614 19.0154 124.144 18.4927 123.803 17.8101C123.472 17.1167 123.307 16.3061 123.307 15.3781C123.307 14.4501 123.472 13.6447 123.803 12.9621C124.144 12.2687 124.614 11.7407 125.211 11.3781C125.808 11.0154 126.48 10.8341 127.227 10.8341ZM127.931 12.8021C127.227 12.8021 126.662 13.0314 126.235 13.4901C125.808 13.9487 125.595 14.5781 125.595 15.3781C125.595 16.1781 125.808 16.8074 126.235 17.2661C126.662 17.7141 127.227 17.9381 127.931 17.9381C128.614 17.9381 129.174 17.7087 129.611 17.2501C130.059 16.7807 130.283 16.1567 130.283 15.3781C130.283 14.5887 130.059 13.9647 129.611 13.5061C129.174 13.0367 128.614 12.8021 127.931 12.8021ZM136.088 10.9461L138.504 16.9621L140.744 10.9461H143.224L137.8 24.0341H135.304L137.304 19.5541L133.576 10.9461H136.088Z" fill="#E5E8F0"/>
</svg>
