<svg width="122" height="37" viewBox="0 0 122 37" fill="none" xmlns="http://www.w3.org/2000/svg">
<g opacity="0.8">
<path fill-rule="evenodd" clip-rule="evenodd" d="M82.5106 28.3445H77.8952V19.9396C77.8952 17.6339 76.9179 16.3478 75.1652 16.3478C73.2579 16.3478 72.1259 17.6879 72.1259 19.9396V28.3445H67.5106V12.7331H72.1259V14.4888C72.1259 14.4888 73.574 11.8445 76.8371 11.8445C80.1013 11.8445 82.5106 13.9172 82.5106 18.2067C82.5106 22.495 82.5106 28.3445 82.5106 28.3445ZM60.761 8.84448C59.5178 8.84448 58.5106 7.83676 58.5106 6.59403C58.5106 5.3522 59.5178 4.34448 60.761 4.34448C62.0033 4.34448 63.0106 5.3522 63.0106 6.59403C63.0115 7.83676 62.0033 8.84448 60.761 8.84448ZM58.5106 28.3445H63.0106V13.3445H58.5106V28.3445Z" fill="#E5E8F0"/>
<path fill-rule="evenodd" clip-rule="evenodd" d="M14.3614 30.1039C24.7116 30.1039 30.3728 20.8694 30.3728 12.8621C30.3728 12.5992 30.3728 12.3378 30.3564 12.0779C31.4576 11.2213 32.408 10.158 33.1637 8.94113C32.1378 9.43143 31.0476 9.75338 29.9326 9.89515C31.1065 9.13755 31.9856 7.94724 32.4067 6.54279C31.3013 7.2487 30.0931 7.74639 28.8327 8.01369C26.7015 5.57399 23.1372 5.45585 20.8702 7.75082C19.4096 9.23059 18.7884 11.4369 19.2423 13.5414C14.718 13.2963 10.5022 10.9954 7.64414 7.21031C6.15065 9.97933 6.91454 13.5207 9.38722 15.2988C8.49168 15.2708 7.61534 15.0108 6.83225 14.5412V14.618C6.83362 17.5022 8.72208 19.9862 11.347 20.5578C10.5187 20.8014 9.64916 20.8369 8.80711 20.6611C9.54356 23.1304 11.6569 24.8213 14.0638 24.8701C12.0711 26.5566 9.60939 27.4722 7.07499 27.4692C6.62791 27.4678 6.18082 27.4397 5.73511 27.3821C8.30928 29.1602 11.3031 30.1039 14.3614 30.0995" fill="#E5E8F0"/>
</g>
</svg>
