<svg width="64" height="621" viewBox="0 0 64 621" fill="none" xmlns="http://www.w3.org/2000/svg">
<rect x="63.9162" y="556.688" width="63.5489" height="63.5489" rx="4" transform="rotate(90 63.9162 556.688)" fill="#E8D772"/>
<rect x="63.9162" y="477.251" width="63.5489" height="63.5489" rx="4" transform="rotate(90 63.9162 477.251)" fill="#28E5FF"/>
<rect x="63.9162" y="397.815" width="63.5489" height="63.5489" rx="4" transform="rotate(90 63.9162 397.815)" fill="#FDFAFB"/>
<rect x="63.9162" y="318.379" width="63.5489" height="63.5489" rx="4" transform="rotate(90 63.9162 318.379)" fill="#EAEAEA"/>
<rect x="63.9162" y="238.943" width="63.5489" height="63.5489" rx="4" transform="rotate(90 63.9162 238.943)" fill="#666666"/>
<rect x="63.9162" y="159.507" width="63.5489" height="63.5489" rx="4" transform="rotate(90 63.9162 159.507)" fill="#1D0B17"/>
<rect x="63.9162" y="80.0713" width="63.5489" height="63.5489" rx="4" transform="rotate(90 63.9162 80.0713)" fill="#0A56BF"/>
<rect x="63.9161" y="0.634766" width="63.5489" height="63.5489" rx="4" transform="rotate(90 63.9161 0.634766)" fill="#FF28B1"/>
</svg>
