<?xml version="1.0" encoding="utf-8"?>
<!-- Generator: Adobe Illustrator 16.0.0, SVG Export Plug-In . SVG Version: 6.00 Build 0)  -->
<!DOCTYPE svg PUBLIC "-//W3C//DTD SVG 1.1//EN" "http://www.w3.org/Graphics/SVG/1.1/DTD/svg11.dtd">
<svg version="1.1" id="Layer_1" xmlns="http://www.w3.org/2000/svg" xmlns:xlink="http://www.w3.org/1999/xlink" x="0px" y="0px"
	 width="144px" height="144px" viewBox="57 -12 144 144" enable-background="new 57 -12 144 144" xml:space="preserve">
<path fill="#111E3D" d="M129.266,64.903c-0.22,0.646-0.458,1.162-0.715,1.546c-0.256,0.386-0.515,0.681-0.777,0.886
	c-0.256,0.2-0.51,0.33-0.761,0.392c-0.247,0.062-0.472,0.093-0.677,0.093c-0.349,0-0.641-0.048-0.877-0.146
	c-0.236-0.103-0.428-0.236-0.577-0.4c-0.144-0.17-0.249-0.358-0.316-0.569c-0.061-0.215-0.092-0.437-0.092-0.662
	c0-0.267,0.037-0.576,0.108-0.931c0.077-0.359,0.159-0.726,0.247-1.1c0.086-0.375,0.167-0.736,0.238-1.085
	c0.077-0.349,0.116-0.648,0.116-0.9c0-0.539-0.19-0.808-0.57-0.808c-0.138,0-0.267,0.036-0.384,0.107s-0.228,0.169-0.331,0.292
	c-0.097,0.123-0.187,0.267-0.269,0.432c-0.077,0.163-0.146,0.338-0.208,0.522c-0.133,0.703-0.279,1.475-0.439,2.316
	c-0.159,0.841-0.333,1.787-0.522,2.838h-2.27l2.162-10.054c-0.323-0.026-0.659-0.062-1.008-0.108
	c-0.349-0.046-0.708-0.097-1.077-0.153l-2.223,10.316h-2.262l2.247-10.462c-0.441,0.021-0.854,0.082-1.238,0.185
	c-0.385,0.103-0.721,0.274-1.008,0.516c-0.282,0.242-0.505,0.567-0.669,0.977c-0.164,0.405-0.246,0.918-0.246,1.539
	c0,0.2,0.01,0.364,0.03,0.493c0.026,0.123,0.052,0.224,0.077,0.3c0.026,0.072,0.049,0.129,0.069,0.169
	c0.025,0.041,0.039,0.077,0.039,0.108c-0.271,0-0.512-0.025-0.724-0.077c-0.209-0.057-0.386-0.144-0.53-0.262
	c-0.139-0.118-0.246-0.275-0.323-0.47c-0.071-0.194-0.108-0.433-0.108-0.715c0-0.523,0.105-1.031,0.316-1.523
	c0.215-0.498,0.546-0.936,0.992-1.316c0.451-0.379,1.026-0.684,1.723-0.916c0.703-0.231,1.542-0.346,2.516-0.346
	c0.174,0,0.421,0.022,0.739,0.069c0.318,0.041,0.669,0.087,1.054,0.138c0.39,0.046,0.798,0.092,1.224,0.138
	c0.426,0.042,0.838,0.062,1.238,0.062c0.385,0,0.745-0.026,1.077-0.077c0.334-0.051,0.611-0.152,0.831-0.3
	c-0.061,0.118-0.12,0.234-0.177,0.347c-0.056,0.113-0.116,0.246-0.177,0.4c-0.056,0.148-0.116,0.328-0.177,0.538
	c-0.062,0.21-0.133,0.473-0.216,0.785c-0.077,0.313-0.164,0.687-0.262,1.123c-0.092,0.436-0.197,0.954-0.315,1.554
	c0.17-0.195,0.339-0.352,0.508-0.469c0.169-0.124,0.333-0.215,0.492-0.277c0.164-0.067,0.318-0.11,0.462-0.131
	c0.148-0.025,0.287-0.039,0.415-0.039c0.251,0,0.482,0.034,0.692,0.101c0.215,0.067,0.4,0.172,0.554,0.315
	c0.159,0.144,0.282,0.329,0.369,0.554c0.087,0.226,0.131,0.495,0.131,0.808c0,0.211-0.02,0.439-0.062,0.685
	c-0.036,0.241-0.082,0.49-0.138,0.746c-0.051,0.252-0.11,0.504-0.177,0.755c-0.067,0.251-0.128,0.492-0.185,0.723
	c-0.051,0.231-0.098,0.446-0.138,0.646c-0.036,0.195-0.054,0.367-0.054,0.516c0,0.194,0.044,0.354,0.131,0.477
	c0.086,0.123,0.254,0.185,0.5,0.185c0.169,0,0.318-0.033,0.446-0.1c0.128-0.067,0.244-0.162,0.347-0.285s0.194-0.269,0.276-0.438
	c0.087-0.175,0.172-0.363,0.254-0.569H129.266z M135.198,64.903c-0.221,0.369-0.475,0.729-0.763,1.077
	c-0.281,0.35-0.603,0.659-0.961,0.931c-0.354,0.271-0.749,0.492-1.185,0.662c-0.432,0.164-0.905,0.246-1.423,0.246
	c-0.375,0-0.714-0.046-1.017-0.139c-0.302-0.098-0.561-0.246-0.776-0.446c-0.216-0.2-0.38-0.456-0.492-0.769
	c-0.119-0.318-0.178-0.7-0.178-1.146c0-0.303,0.031-0.651,0.093-1.047c0.062-0.395,0.159-0.8,0.292-1.215
	c0.133-0.416,0.31-0.823,0.531-1.224s0.487-0.756,0.8-1.069c0.313-0.318,0.68-0.572,1.101-0.761c0.421-0.195,0.9-0.292,1.438-0.292
	c0.354,0,0.641,0.043,0.861,0.131c0.226,0.082,0.403,0.192,0.531,0.331c0.133,0.138,0.223,0.3,0.27,0.484
	c0.051,0.18,0.076,0.368,0.076,0.562c0,0.456-0.1,0.882-0.3,1.276c-0.2,0.391-0.469,0.731-0.808,1.023
	c-0.334,0.293-0.718,0.528-1.154,0.708c-0.436,0.18-0.89,0.285-1.362,0.315c-0.009,0.118-0.02,0.23-0.029,0.339
	c-0.006,0.103-0.009,0.199-0.009,0.292c0,0.267,0.023,0.487,0.069,0.662c0.052,0.169,0.123,0.302,0.216,0.399
	c0.098,0.098,0.215,0.167,0.354,0.208c0.145,0.036,0.311,0.054,0.5,0.054c0.313,0,0.596-0.041,0.847-0.123
	c0.256-0.082,0.495-0.195,0.715-0.339c0.221-0.144,0.429-0.312,0.623-0.508c0.2-0.194,0.4-0.402,0.601-0.623H135.198z
	 M130.897,63.788c0.298-0.021,0.584-0.104,0.861-0.254c0.277-0.148,0.521-0.341,0.731-0.577c0.21-0.241,0.377-0.513,0.5-0.815
	c0.128-0.308,0.191-0.626,0.191-0.954c0-0.194-0.027-0.352-0.084-0.469c-0.057-0.118-0.159-0.177-0.308-0.177
	c-0.2,0-0.397,0.097-0.593,0.292c-0.19,0.19-0.369,0.438-0.538,0.746s-0.32,0.656-0.454,1.047
	C131.076,63.011,130.974,63.397,130.897,63.788z M137.952,67.727l1.153-5.439c0.031-0.123,0.047-0.253,0.047-0.392
	c0-0.092-0.008-0.18-0.023-0.262c-0.015-0.082-0.044-0.153-0.084-0.215c-0.036-0.066-0.085-0.118-0.146-0.154
	c-0.057-0.041-0.131-0.062-0.224-0.062c-0.153,0-0.298,0.038-0.431,0.116c-0.128,0.076-0.246,0.182-0.354,0.314
	c-0.103,0.133-0.195,0.29-0.277,0.47s-0.153,0.369-0.216,0.569l-1.068,5.054h-2.271l1.67-7.877h2.27l-0.169,0.815
	c0.169-0.189,0.339-0.34,0.508-0.453c0.169-0.118,0.335-0.208,0.5-0.27c0.164-0.067,0.323-0.11,0.477-0.131
	c0.154-0.025,0.301-0.039,0.438-0.039c0.205,0,0.397,0.025,0.577,0.077c0.18,0.046,0.339,0.123,0.477,0.23
	c0.14,0.108,0.257,0.25,0.354,0.423c0.097,0.17,0.167,0.377,0.208,0.624c0.189-0.293,0.385-0.526,0.585-0.701
	c0.199-0.18,0.395-0.316,0.584-0.408c0.19-0.092,0.372-0.154,0.547-0.185c0.174-0.031,0.333-0.047,0.477-0.047
	c0.251,0,0.481,0.034,0.692,0.101c0.215,0.067,0.399,0.172,0.554,0.315c0.159,0.144,0.282,0.329,0.369,0.554
	c0.088,0.226,0.131,0.495,0.131,0.808c0,0.211-0.02,0.439-0.062,0.685c-0.036,0.241-0.082,0.49-0.138,0.746
	c-0.052,0.252-0.111,0.504-0.178,0.755s-0.128,0.492-0.185,0.723c-0.052,0.231-0.098,0.446-0.139,0.646
	c-0.036,0.195-0.054,0.367-0.054,0.516c0,0.194,0.044,0.354,0.131,0.477c0.092,0.123,0.259,0.185,0.5,0.185
	c0.252,0,0.426-0.033,0.523-0.1c-0.036,0.287-0.107,0.533-0.216,0.738c-0.107,0.2-0.241,0.366-0.399,0.5
	c-0.154,0.134-0.328,0.23-0.523,0.292c-0.19,0.062-0.39,0.093-0.601,0.093c-0.303,0-0.557-0.048-0.761-0.146
	c-0.2-0.103-0.362-0.236-0.485-0.4c-0.123-0.17-0.21-0.358-0.262-0.569c-0.051-0.215-0.077-0.437-0.077-0.662
	c0-0.267,0.036-0.576,0.108-0.931c0.076-0.359,0.159-0.726,0.246-1.1c0.087-0.375,0.167-0.736,0.238-1.085
	c0.077-0.349,0.115-0.648,0.115-0.9c0-0.539-0.189-0.808-0.569-0.808c-0.144,0-0.276,0.038-0.399,0.115s-0.236,0.182-0.339,0.315
	c-0.103,0.129-0.194,0.282-0.277,0.461c-0.082,0.175-0.153,0.362-0.215,0.562l-1.069,5.054H137.952z M150.607,67.727l2.139-10.024
	l2.331-0.308l-1.115,5.262c0.267-0.021,0.518-0.093,0.754-0.216c0.241-0.123,0.464-0.279,0.669-0.469
	c0.206-0.194,0.39-0.418,0.555-0.669c0.163-0.252,0.302-0.517,0.414-0.793c0.119-0.283,0.208-0.569,0.271-0.862
	c0.061-0.297,0.092-0.586,0.092-0.869c0-0.292-0.038-0.567-0.115-0.824c-0.072-0.261-0.188-0.489-0.347-0.684
	c-0.153-0.2-0.355-0.356-0.607-0.469c-0.246-0.113-0.541-0.169-0.885-0.169c-0.642,0-1.216,0.087-1.723,0.262
	c-0.503,0.175-0.929,0.426-1.277,0.754c-0.35,0.329-0.616,0.731-0.801,1.208c-0.184,0.472-0.276,1.008-0.276,1.608
	c0,0.199,0.01,0.364,0.03,0.492c0.025,0.123,0.051,0.223,0.077,0.3c0.025,0.072,0.048,0.128,0.069,0.17
	c0.025,0.041,0.038,0.077,0.038,0.107c-0.271,0-0.513-0.026-0.723-0.077c-0.211-0.056-0.388-0.144-0.531-0.261
	c-0.139-0.118-0.246-0.275-0.322-0.47c-0.072-0.195-0.108-0.437-0.108-0.723c0-0.349,0.074-0.693,0.223-1.031
	c0.154-0.338,0.362-0.659,0.624-0.961c0.267-0.303,0.576-0.583,0.931-0.839c0.358-0.256,0.741-0.477,1.146-0.662
	c0.41-0.19,0.836-0.335,1.277-0.439c0.446-0.107,0.889-0.161,1.33-0.161c0.646,0,1.203,0.087,1.67,0.262
	c0.467,0.169,0.852,0.397,1.154,0.685c0.308,0.288,0.533,0.618,0.677,0.993c0.144,0.369,0.215,0.756,0.215,1.162
	c0,0.503-0.104,1.005-0.315,1.508c-0.205,0.503-0.505,0.957-0.899,1.361c-0.391,0.4-0.868,0.727-1.431,0.978
	c-0.56,0.251-1.193,0.377-1.9,0.377h-0.085l-0.962,4.492H150.607z M166.771,64.903c-0.221,0.646-0.46,1.162-0.716,1.546
	c-0.251,0.386-0.508,0.681-0.77,0.886c-0.257,0.2-0.511,0.33-0.762,0.392c-0.246,0.062-0.475,0.093-0.685,0.093
	c-0.349,0-0.642-0.048-0.877-0.146c-0.236-0.103-0.426-0.236-0.569-0.4c-0.144-0.17-0.249-0.358-0.315-0.569
	c-0.062-0.215-0.092-0.437-0.092-0.662c0-0.267,0.035-0.576,0.107-0.931c0.076-0.359,0.159-0.726,0.246-1.1
	c0.087-0.375,0.167-0.736,0.238-1.085c0.077-0.349,0.115-0.648,0.115-0.9c0-0.539-0.19-0.808-0.569-0.808
	c-0.144,0-0.276,0.038-0.399,0.115s-0.236,0.182-0.339,0.315c-0.103,0.129-0.195,0.282-0.276,0.461
	c-0.083,0.175-0.154,0.362-0.216,0.562l-1.069,5.054h-2.27l2.284-10.716l2.331-0.315l-0.846,3.969c0.169-0.189,0.336-0.34,0.5-0.453
	c0.169-0.118,0.333-0.208,0.492-0.27c0.159-0.062,0.308-0.103,0.446-0.123c0.144-0.021,0.277-0.031,0.4-0.031
	c0.251,0,0.484,0.034,0.7,0.101c0.215,0.067,0.399,0.172,0.554,0.315c0.159,0.144,0.282,0.329,0.369,0.554s0.131,0.495,0.131,0.808
	c0,0.211-0.021,0.439-0.062,0.685c-0.036,0.241-0.082,0.49-0.139,0.746c-0.057,0.252-0.118,0.504-0.185,0.755
	c-0.062,0.251-0.121,0.492-0.178,0.723c-0.056,0.231-0.104,0.446-0.146,0.646c-0.035,0.195-0.054,0.367-0.054,0.516
	c0,0.194,0.044,0.354,0.131,0.477c0.092,0.123,0.26,0.185,0.5,0.185c0.169,0,0.317-0.033,0.446-0.1
	c0.128-0.067,0.244-0.162,0.346-0.285c0.103-0.123,0.195-0.269,0.277-0.438c0.087-0.175,0.172-0.363,0.254-0.569H166.771z
	 M174.964,61.741c-0.308,0.323-0.705,0.598-1.192,0.823c-0.487,0.227-1.021,0.388-1.6,0.485c-0.062,0.729-0.203,1.385-0.424,1.969
	c-0.215,0.585-0.489,1.083-0.823,1.493c-0.333,0.41-0.715,0.726-1.146,0.946c-0.432,0.22-0.888,0.33-1.369,0.33
	c-0.364,0-0.703-0.043-1.017-0.13c-0.308-0.093-0.574-0.236-0.8-0.432c-0.22-0.2-0.392-0.456-0.516-0.769
	c-0.128-0.318-0.192-0.703-0.192-1.154c0-0.309,0.033-0.656,0.101-1.046c0.062-0.396,0.161-0.801,0.3-1.216
	c0.144-0.415,0.325-0.82,0.546-1.216c0.227-0.399,0.498-0.756,0.816-1.069c0.323-0.312,0.694-0.564,1.115-0.753
	c0.421-0.195,0.9-0.292,1.438-0.292c1.349,0,2.023,0.839,2.023,2.516v0.016c0.025,0.01,0.049,0.015,0.069,0.015
	c0.025,0,0.059,0,0.1,0c0.185,0,0.382-0.025,0.593-0.076c0.215-0.057,0.431-0.128,0.646-0.216c0.216-0.087,0.425-0.187,0.63-0.301
	c0.206-0.117,0.393-0.235,0.562-0.354L174.964,61.741z M170.864,63.096c-0.165-0.041-0.277-0.12-0.339-0.238
	c-0.057-0.123-0.084-0.265-0.084-0.424c0-0.221,0.043-0.399,0.13-0.538c0.093-0.144,0.213-0.248,0.361-0.315
	c-0.01-0.169-0.028-0.31-0.054-0.424c-0.025-0.117-0.061-0.212-0.107-0.284c-0.047-0.076-0.105-0.131-0.177-0.161
	c-0.067-0.031-0.153-0.047-0.262-0.047c-0.19,0-0.371,0.075-0.546,0.224c-0.175,0.144-0.342,0.336-0.5,0.577
	c-0.154,0.241-0.298,0.518-0.432,0.831c-0.128,0.308-0.238,0.625-0.33,0.953c-0.092,0.329-0.164,0.655-0.216,0.978
	c-0.051,0.318-0.076,0.608-0.076,0.869c0,0.262,0.012,0.475,0.037,0.639c0.031,0.164,0.077,0.295,0.14,0.393
	c0.066,0.092,0.15,0.156,0.253,0.192s0.229,0.054,0.377,0.054c0.19,0,0.38-0.085,0.57-0.254c0.194-0.17,0.374-0.4,0.537-0.692
	c0.165-0.292,0.309-0.639,0.432-1.038C170.707,63.988,170.803,63.558,170.864,63.096z M177.903,64.903
	c-0.149,0.426-0.315,0.795-0.5,1.108c-0.18,0.312-0.369,0.577-0.569,0.792c-0.195,0.216-0.397,0.391-0.608,0.522
	c-0.205,0.134-0.405,0.237-0.6,0.309s-0.383,0.12-0.562,0.146c-0.175,0.025-0.331,0.038-0.47,0.038
	c-0.236,0-0.456-0.036-0.662-0.107c-0.204-0.072-0.384-0.186-0.538-0.339c-0.148-0.153-0.267-0.349-0.354-0.585
	c-0.088-0.235-0.131-0.521-0.131-0.854c0-0.144,0.011-0.3,0.031-0.469c0.021-0.175,0.051-0.362,0.092-0.562l0.946-4.423h-0.523
	l0.131-0.631h0.516l0.478-2.177l2.331-0.316l-0.539,2.493h0.946l-0.123,0.631h-0.946l-1.008,4.723
	c-0.025,0.088-0.043,0.175-0.054,0.263c-0.005,0.081-0.008,0.163-0.008,0.246c0,0.22,0.052,0.374,0.154,0.461
	c0.102,0.082,0.264,0.123,0.484,0.123c0.154,0,0.303-0.033,0.445-0.1c0.149-0.072,0.285-0.169,0.408-0.292s0.233-0.27,0.331-0.438
	c0.098-0.175,0.177-0.362,0.238-0.562H177.903z M188.212,59.364c0.031,0.682,0.06,1.274,0.085,1.777
	c0.03,0.497,0.059,0.931,0.084,1.3c0.026,0.365,0.049,0.675,0.069,0.931c0.021,0.257,0.039,0.485,0.054,0.686
	c0.021,0.194,0.033,0.374,0.039,0.538c0.01,0.159,0.016,0.325,0.016,0.5c0,0.519-0.085,0.951-0.255,1.301
	c-0.163,0.344-0.379,0.623-0.646,0.838c-0.267,0.211-0.564,0.362-0.893,0.454c-0.328,0.087-0.653,0.131-0.977,0.131
	c-0.473,0-0.852-0.064-1.139-0.192c-0.282-0.128-0.503-0.292-0.662-0.492s-0.264-0.423-0.315-0.669
	c-0.051-0.252-0.077-0.498-0.077-0.739c0-0.23,0.034-0.438,0.101-0.623c0.066-0.189,0.154-0.349,0.262-0.477
	c0.107-0.129,0.228-0.226,0.361-0.292c0.139-0.072,0.276-0.108,0.415-0.108c0.544,0,0.815,0.221,0.815,0.662
	c0,0.194-0.071,0.364-0.215,0.507c-0.144,0.14-0.323,0.208-0.539,0.208c-0.087,0-0.169-0.013-0.246-0.038s-0.136-0.082-0.177-0.17
	c0,0.37,0.074,0.659,0.223,0.87c0.149,0.205,0.377,0.308,0.686,0.308c0.174,0,0.323-0.023,0.446-0.069
	c0.128-0.051,0.233-0.134,0.315-0.246c0.081-0.113,0.141-0.262,0.177-0.446c0.041-0.189,0.062-0.423,0.062-0.7
	c0-0.144-0.006-0.282-0.016-0.416c-0.01-0.133-0.023-0.276-0.039-0.431c-0.015-0.158-0.035-0.335-0.061-0.53
	c-0.021-0.195-0.044-0.426-0.069-0.692c-0.026-0.271-0.054-0.587-0.085-0.946c-0.025-0.359-0.054-0.782-0.085-1.27
	c-0.385,0.595-0.797,1.069-1.238,1.423c-0.441,0.354-0.91,0.606-1.407,0.755c-0.052,0.737-0.186,1.405-0.4,2
	c-0.21,0.59-0.482,1.092-0.815,1.508c-0.334,0.41-0.716,0.726-1.146,0.946c-0.431,0.22-0.888,0.33-1.37,0.33
	c-0.363,0-0.702-0.043-1.015-0.13c-0.309-0.093-0.574-0.236-0.8-0.432c-0.221-0.2-0.393-0.456-0.517-0.769
	c-0.128-0.318-0.191-0.703-0.191-1.154c0-0.309,0.03-0.656,0.092-1.046c0.062-0.396,0.159-0.801,0.293-1.216
	c0.138-0.415,0.315-0.82,0.53-1.216c0.221-0.399,0.487-0.756,0.801-1.069c0.317-0.312,0.687-0.564,1.107-0.753
	c0.421-0.195,0.902-0.292,1.446-0.292c1.329,0,2,0.822,2.016,2.47c0.405-0.026,0.821-0.254,1.247-0.686
	c0.43-0.431,0.871-1.038,1.323-1.823L188.212,59.364z M181.957,63.111c-0.251-0.093-0.377-0.328-0.377-0.708
	c0-0.405,0.149-0.68,0.447-0.823c-0.026-0.339-0.085-0.574-0.178-0.708c-0.087-0.139-0.228-0.208-0.423-0.208
	c-0.185,0-0.364,0.075-0.539,0.224c-0.174,0.144-0.338,0.336-0.492,0.577c-0.153,0.241-0.295,0.518-0.423,0.831
	c-0.123,0.308-0.23,0.625-0.323,0.953c-0.087,0.329-0.156,0.655-0.207,0.978c-0.047,0.318-0.07,0.608-0.07,0.869
	c0,0.262,0.013,0.475,0.039,0.639c0.031,0.164,0.077,0.295,0.138,0.393c0.067,0.092,0.151,0.156,0.254,0.192
	s0.229,0.054,0.377,0.054c0.19,0,0.378-0.082,0.562-0.246c0.189-0.169,0.363-0.4,0.523-0.692c0.158-0.292,0.297-0.637,0.414-1.031
	C181.804,64.004,181.896,63.572,181.957,63.111z"/>
<path fill="#F0A8CA" d="M76.036,33.796l5.116,13.545c-0.249-0.004-0.414-0.093-0.462-0.223l-5.115-13.546
	C75.623,33.702,75.788,33.792,76.036,33.796z"/>
<path fill="#F0A4C8" d="M90.065,34.03l5.115,13.545l-14.028-0.234l-5.116-13.545L90.065,34.03z"/>
<path fill="#F7D2E4" d="M135.315,23.255L140.43,36.8c0.006,0.016,0.011,0.032,0.014,0.047l-5.116-13.545
	C135.325,23.286,135.32,23.27,135.315,23.255z"/>
<path fill="#F8D6E6" d="M135.326,23.303l5.115,13.546c0.011,0.068-0.008,0.145-0.059,0.226l-5.115-13.545
	C135.318,23.447,135.336,23.371,135.326,23.303z"/>
<path fill="#F0A4C8" d="M108.188,34.333l5.115,13.546L95.18,47.575L90.065,34.03L108.188,34.333z"/>
<path fill="#F8D8E7" d="M135.267,23.529l5.116,13.545l-6.701,10.651l-5.114-13.546L135.267,23.529z"/>
<path fill="#F0A4C8" d="M127.538,34.655l5.116,13.546l-19.351-0.323l-5.115-13.545L127.538,34.655z"/>
<path fill="#F6C9DF" d="M134.851,23.032c0.399,0.007,0.584,0.23,0.418,0.498l-6.701,10.65c-0.168,0.266-0.63,0.482-1.03,0.476
	l-19.35-0.323L90.065,34.03l-14.029-0.234c-0.399-0.007-0.583-0.234-0.416-0.501l6.701-10.65c0.168-0.267,0.627-0.479,1.027-0.473
	L134.851,23.032z"/>
<path fill="#F8D6E6" d="M128.566,34.179l5.115,13.545c-0.005,0.008-0.011,0.017-0.016,0.024l-5.115-13.545
	C128.556,34.195,128.561,34.187,128.566,34.179z"/>
<path fill="#F7D2E4" d="M128.55,34.204l5.115,13.546c-0.014,0.019-0.028,0.039-0.046,0.057l-5.114-13.546
	C128.521,34.242,128.537,34.223,128.55,34.204z"/>
<path fill="#F6CEE2" d="M128.505,34.261l5.114,13.546c-0.013,0.015-0.027,0.03-0.042,0.044l-5.115-13.545
	C128.478,34.291,128.492,34.276,128.505,34.261z"/>
<path fill="#F6CBE0" d="M128.462,34.305l5.115,13.546c-0.014,0.013-0.026,0.025-0.042,0.038l-5.115-13.546
	C128.435,34.33,128.45,34.318,128.462,34.305z"/>
<path fill="#F5C7DD" d="M128.421,34.343l5.114,13.545c-0.014,0.013-0.027,0.023-0.042,0.035l-5.115-13.546
	C128.393,34.365,128.407,34.354,128.421,34.343z"/>
<path fill="#F5C4DB" d="M128.378,34.376l5.115,13.546c-0.015,0.01-0.029,0.021-0.044,0.031l-5.114-13.546
	C128.35,34.398,128.364,34.387,128.378,34.376z"/>
<path fill="#F4C0D9" d="M128.335,34.408l5.114,13.545c-0.014,0.011-0.029,0.02-0.044,0.03l-5.116-13.545
	C128.305,34.429,128.32,34.418,128.335,34.408z"/>
<path fill="#F4BDD7" d="M128.289,34.438l5.116,13.545c-0.016,0.01-0.031,0.02-0.048,0.028l-5.114-13.546
	C128.258,34.458,128.273,34.449,128.289,34.438z"/>
<path fill="#F3B9D5" d="M128.242,34.467l5.114,13.545c-0.017,0.01-0.034,0.02-0.051,0.028l-5.115-13.545
	C128.208,34.486,128.225,34.476,128.242,34.467z"/>
<path fill="#F2B6D3" d="M128.189,34.495l5.115,13.546c-0.019,0.009-0.037,0.018-0.056,0.027l-5.114-13.545
	C128.153,34.513,128.171,34.504,128.189,34.495z"/>
<path fill="#F2B2D1" d="M128.135,34.521l5.114,13.546c-0.021,0.009-0.042,0.018-0.062,0.026l-5.115-13.545
	C128.093,34.54,128.114,34.531,128.135,34.521z"/>
<path fill="#F1AFCE" d="M128.072,34.549l5.115,13.546c-0.023,0.01-0.048,0.019-0.073,0.027L128,34.577
	C128.024,34.567,128.048,34.558,128.072,34.549z"/>
<path fill="#F1ABCC" d="M128,34.575l5.114,13.545c-0.029,0.011-0.06,0.021-0.091,0.028l-5.115-13.545
	C127.939,34.595,127.97,34.586,128,34.575z"/>
<path fill="#F0A8CA" d="M127.908,34.604l5.115,13.546c-0.123,0.034-0.249,0.053-0.37,0.051l-5.116-13.545
	C127.659,34.657,127.785,34.639,127.908,34.604z"/>
<path fill="#F0A8CA" d="M69.919,67.21l5.115,13.547c-0.247-0.005-0.414-0.093-0.463-0.223l-5.114-13.546
	C69.506,67.118,69.672,67.206,69.919,67.21z"/>
<path fill="#F8D8E7" d="M108.188,34.333l5.115,13.546l-20.56,32.68l-5.116-13.546L108.188,34.333z"/>
<path fill="#F0A4C8" d="M86.598,67.489l5.116,13.545l-16.678-0.277L69.92,67.21L86.598,67.489z"/>
<path fill="#F6C9DF" d="M108.188,34.333l-20.561,32.68c-0.17,0.271-0.628,0.483-1.029,0.477L69.92,67.21
	c-0.4-0.007-0.586-0.229-0.415-0.5l20.56-32.68L108.188,34.333z"/>
<path fill="#F8D6E6" d="M87.628,67.013l5.115,13.546c-0.006,0.008-0.012,0.017-0.017,0.025l-5.115-13.546
	C87.617,67.029,87.622,67.021,87.628,67.013z"/>
<path fill="#F7D2E4" d="M87.611,67.038l5.115,13.546c-0.014,0.02-0.03,0.039-0.047,0.058l-5.115-13.545
	C87.581,67.078,87.597,67.059,87.611,67.038z"/>
<path fill="#F6CEE2" d="M87.564,67.097l5.115,13.545c-0.014,0.016-0.027,0.03-0.043,0.045l-5.115-13.546
	C87.536,67.127,87.551,67.111,87.564,67.097z"/>
<path fill="#F6CBE0" d="M87.521,67.141l5.115,13.546c-0.014,0.014-0.027,0.026-0.042,0.039L87.479,67.18
	C87.494,67.166,87.508,67.153,87.521,67.141z"/>
<path fill="#F5C7DD" d="M87.479,67.179l5.115,13.546c-0.014,0.012-0.028,0.023-0.043,0.034l-5.115-13.546
	C87.452,67.202,87.466,67.19,87.479,67.179z"/>
<path fill="#F5C4DB" d="M87.438,67.213l5.115,13.546c-0.014,0.011-0.028,0.021-0.043,0.031l-5.115-13.547
	C87.409,67.233,87.423,67.224,87.438,67.213z"/>
<path fill="#F4C0D9" d="M87.394,67.244l5.115,13.546c-0.015,0.01-0.03,0.02-0.045,0.029l-5.115-13.546
	C87.364,67.264,87.379,67.255,87.394,67.244z"/>
<path fill="#F4BDD7" d="M87.349,67.274l5.115,13.546c-0.014,0.01-0.031,0.019-0.046,0.028l-5.115-13.547
	C87.317,67.293,87.333,67.283,87.349,67.274z"/>
<path fill="#F3B9D5" d="M87.302,67.303l5.115,13.546c-0.017,0.009-0.034,0.018-0.05,0.027L87.251,67.33
	C87.268,67.32,87.286,67.312,87.302,67.303z"/>
<path fill="#F2B6D3" d="M87.251,67.329l5.115,13.546c-0.017,0.01-0.036,0.018-0.054,0.027l-5.115-13.547
	C87.215,67.348,87.234,67.338,87.251,67.329z"/>
<path fill="#F2B2D1" d="M87.197,67.355l5.114,13.547c-0.02,0.009-0.042,0.017-0.062,0.025l-5.115-13.546
	C87.155,67.374,87.177,67.365,87.197,67.355z"/>
<path fill="#F1AFCE" d="M87.135,67.383l5.115,13.546c-0.022,0.011-0.047,0.019-0.071,0.026L87.063,67.41
	C87.088,67.401,87.112,67.393,87.135,67.383z"/>
<path fill="#F1ABCC" d="M87.064,67.41l5.115,13.545c-0.03,0.011-0.061,0.02-0.091,0.028l-5.115-13.545
	C87.004,67.429,87.034,67.42,87.064,67.41z"/>
<path fill="#F0A8CA" d="M86.974,67.438l5.115,13.546c-0.125,0.035-0.251,0.053-0.374,0.051l-5.116-13.546
	C86.721,67.49,86.85,67.472,86.974,67.438z"/>
<path fill="#F0A4C8" d="M126.697,33.131l-13.962-0.27l5.19-8.159l13.821,0.308L126.697,33.131z"/>
</svg>
