<svg width="187" height="54" viewBox="0 0 187 54" fill="none" xmlns="http://www.w3.org/2000/svg">
<path d="M10.264 53.9164C9.72235 53.9164 9.18669 53.7599 8.65705 53.4469C8.13944 53.146 7.47738 52.6765 6.67088 52.0385C6.06901 51.5571 5.55141 51.1658 5.11807 50.8649C4.69676 50.576 4.23333 50.3292 3.72776 50.1246C3.23423 49.92 2.72866 49.8177 2.21106 49.8177C2.0305 49.8177 1.89207 49.8237 1.79577 49.8357L4.48612 37.3229C3.67961 37.6479 3.05366 38.1474 2.60828 38.8215C2.17493 39.4836 1.95827 40.2961 1.95827 41.2591C1.95827 41.7045 2.00039 42.0175 2.08465 42.198C2.16892 42.3665 2.21106 42.4628 2.21106 42.4869C1.56104 42.4869 1.07352 42.3545 0.748508 42.0897C0.435537 41.8128 0.279053 41.3614 0.279053 40.7355C0.279053 39.9651 0.592022 39.2188 1.21796 38.4965C1.85594 37.7623 2.66847 37.1724 3.65554 36.727C4.6426 36.2696 5.62965 36.0409 6.61671 36.0409C6.78523 36.0409 7.02599 36.0529 7.33896 36.077L4.55834 49.0412C4.89538 49.1255 5.23844 49.2459 5.58752 49.4024C5.94865 49.5709 6.38199 49.7936 6.88756 50.0704C7.66999 50.4917 8.33805 50.8107 8.89177 51.0274C9.44549 51.2561 10.0233 51.3705 10.6251 51.3705C11.1668 51.3705 11.6724 51.2742 12.1419 51.0816C12.0456 51.9603 11.8289 52.6525 11.4918 53.158C11.1668 53.6636 10.7576 53.9164 10.264 53.9164ZM10.9122 49.4746C10.0215 49.4746 9.3173 49.2459 8.79969 48.7885C8.28209 48.331 8.02328 47.6088 8.02328 46.6217C8.02328 45.8032 8.1918 44.8944 8.52884 43.8953C8.86589 42.8962 9.40758 42.0355 10.1539 41.3133C10.9002 40.579 11.8391 40.2118 12.9706 40.2118C14.5114 40.2118 15.2818 41.1748 15.2818 43.1008V43.1189C15.3179 43.1309 15.3841 43.1369 15.4804 43.1369C15.8777 43.1369 16.3351 43.0346 16.8527 42.83C17.3703 42.6133 17.8397 42.3545 18.261 42.0536L18.4235 42.5411C18.0745 42.9142 17.617 43.2332 17.0513 43.498C16.4976 43.7508 15.8897 43.9314 15.2276 44.0397C15.1313 45.1351 14.8846 46.0921 14.4873 46.9106C14.0901 47.7292 13.5785 48.3611 12.9526 48.8065C12.3266 49.2519 11.6465 49.4746 10.9122 49.4746ZM11.6345 47.8495C11.9234 47.8495 12.2123 47.687 12.5012 47.362C12.7901 47.025 13.0429 46.5736 13.2595 46.0078C13.4762 45.43 13.6327 44.7921 13.729 44.0939C13.404 44.0217 13.2415 43.7689 13.2415 43.3355C13.2415 42.842 13.428 42.517 13.8012 42.3605C13.7771 41.9633 13.7169 41.6924 13.6206 41.548C13.5243 41.3915 13.3558 41.3133 13.1151 41.3133C12.7178 41.3133 12.3327 41.6022 11.9595 42.18C11.5863 42.7578 11.2854 43.4499 11.0567 44.2564C10.828 45.0629 10.7136 45.7731 10.7136 46.387C10.7136 46.9648 10.7798 47.356 10.9122 47.5607C11.0446 47.7533 11.2854 47.8495 11.6345 47.8495ZM19.8764 49.5107C19.0579 49.5107 18.432 49.3121 17.9986 48.9149C17.5653 48.5056 17.3486 47.9338 17.3486 47.1995C17.3486 46.8384 17.3907 46.4953 17.475 46.1703L19.407 37.1243L22.0793 36.7632L21.2126 40.8258C21.5496 40.6211 21.8265 40.4887 22.0432 40.4285C22.2598 40.3563 22.4765 40.3202 22.6932 40.3202C24.0173 40.3202 24.7275 41.223 24.8238 43.0286C25.6423 42.8721 26.5692 41.9212 27.6044 40.1757L30.2767 39.8146C30.3369 41.3554 30.4392 43.0226 30.5837 44.8161C30.6439 45.5384 30.6739 46.062 30.6739 46.387C30.6739 46.6278 30.6559 46.8505 30.6198 47.0551C30.9809 46.8505 31.4082 46.5555 31.9018 46.1703H32.6601C31.998 46.9407 31.1615 47.6449 30.1503 48.2829C29.8494 48.7162 29.4642 49.0292 28.9947 49.2218C28.5373 49.4144 28.0378 49.5107 27.4961 49.5107C26.5331 49.5107 25.8711 49.282 25.5099 48.8246C25.1609 48.3672 24.9863 47.7954 24.9863 47.1093C24.9863 46.6037 25.1187 46.1944 25.3835 45.8814C25.6484 45.5564 25.9493 45.3939 26.2863 45.3939C26.9123 45.3939 27.2252 45.6467 27.2252 46.1523C27.2252 46.369 27.141 46.5616 26.9725 46.7301C26.8039 46.8866 26.5993 46.9648 26.3586 46.9648C26.1058 46.9648 25.9433 46.8866 25.871 46.7301C25.871 47.1634 25.9553 47.5005 26.1238 47.7412C26.3044 47.9699 26.5692 48.0843 26.9183 48.0843C27.3276 48.0843 27.6165 47.9639 27.785 47.7232C27.9656 47.4704 28.0558 47.031 28.0558 46.4051C28.0558 46.0439 28.0197 45.5865 27.9475 45.0328C27.8271 43.8772 27.7308 42.6976 27.6586 41.4938C26.828 42.7457 25.8771 43.5582 24.8057 43.9314C24.7456 44.774 24.5409 45.6226 24.1918 46.4773C23.8428 47.3199 23.3071 48.0361 22.5849 48.626C21.8746 49.2158 20.9718 49.5107 19.8764 49.5107ZM20.8876 47.7593C21.2126 47.7593 21.5195 47.5787 21.8084 47.2176C22.1094 46.8444 22.3561 46.369 22.5487 45.7912C22.7534 45.2134 22.8918 44.6235 22.964 44.0217C22.7714 43.8772 22.6751 43.6365 22.6751 43.2994C22.6751 42.9985 22.7534 42.7517 22.9099 42.5591C22.8376 42.2702 22.7293 42.0415 22.5849 41.873C22.4404 41.6924 22.2598 41.6022 22.0432 41.6022C21.8626 41.6022 21.658 41.6323 21.4293 41.6924C21.2126 41.7406 21.0621 41.8188 20.9779 41.9272L19.9848 46.5134C19.9487 46.6578 19.9306 46.7963 19.9306 46.9287C19.9306 47.4824 20.2496 47.7593 20.8876 47.7593ZM34.9499 49.5107C34.3721 49.5107 33.9027 49.3301 33.5415 48.969C33.1925 48.6079 33.0179 48.0662 33.0179 47.344C33.0179 47.043 33.0661 46.6518 33.1624 46.1703L34.2457 41.0966H33.6499L33.7943 40.3744H34.3902L34.9319 37.8826L37.6041 37.5215L36.9902 40.3744H38.0736L37.9292 41.0966H36.8458L35.6902 46.5134C35.6421 46.694 35.618 46.8866 35.618 47.0912C35.618 47.3319 35.6721 47.5065 35.7805 47.6148C35.9009 47.7111 36.0935 47.7593 36.3583 47.7593C36.7074 47.7593 37.0324 47.6148 37.3333 47.3259C37.6342 47.025 37.8509 46.6398 37.9833 46.1703H38.7417C38.2963 47.4704 37.7245 48.3551 37.0264 48.8246C36.3282 49.282 35.636 49.5107 34.9499 49.5107ZM41.822 49.5107C40.9313 49.5107 40.2391 49.282 39.7456 48.8246C39.2521 48.3551 39.0053 47.6269 39.0053 46.6398C39.0053 45.8092 39.1678 44.8944 39.4928 43.8953C39.8178 42.8962 40.3475 42.0355 41.0817 41.3133C41.816 40.579 42.7489 40.2118 43.8804 40.2118C45.2045 40.2118 45.8666 40.7896 45.8666 41.9452C45.8666 42.6193 45.674 43.2392 45.2888 43.805C44.9036 44.3708 44.392 44.8282 43.754 45.1773C43.1161 45.5143 42.4359 45.7069 41.7137 45.7551C41.6896 46.1162 41.6776 46.3569 41.6776 46.4773C41.6776 47.0671 41.7799 47.4704 41.9845 47.687C42.1892 47.8917 42.5202 47.994 42.9776 47.994C43.6276 47.994 44.1814 47.8435 44.6388 47.5426C45.1082 47.2417 45.6198 46.7842 46.1735 46.1703H46.7874C45.4513 48.3973 43.7961 49.5107 41.822 49.5107ZM41.8581 44.8884C42.3035 44.8643 42.7248 44.7078 43.1221 44.4189C43.5313 44.13 43.8563 43.7629 44.0971 43.3175C44.3499 42.8721 44.4763 42.4027 44.4763 41.9091C44.4763 41.4156 44.3258 41.1688 44.0249 41.1688C43.5915 41.1688 43.1642 41.548 42.7429 42.3064C42.3336 43.0647 42.0387 43.9254 41.8581 44.8884ZM48.6617 40.3744H51.2617L51.027 41.4938C51.4363 41.1327 51.8034 40.8558 52.1284 40.6632C52.4655 40.4707 52.8266 40.3744 53.2118 40.3744C53.597 40.3744 53.8979 40.5068 54.1146 40.7716C54.3433 41.0364 54.4576 41.3554 54.4576 41.7286C54.4576 42.0776 54.3433 42.3846 54.1146 42.6494C53.8859 42.9142 53.5669 43.0466 53.1576 43.0466C52.8928 43.0466 52.7122 42.9865 52.6159 42.8661C52.5317 42.7337 52.4654 42.5471 52.4173 42.3064C52.3812 42.1499 52.3451 42.0355 52.309 41.9633C52.2729 41.8911 52.2066 41.855 52.1103 41.855C51.8576 41.855 51.6409 41.9091 51.4603 42.0175C51.2918 42.1138 51.0691 42.2883 50.7923 42.5411L49.3478 49.4024H46.7477L48.6617 40.3744ZM67.6524 49.7093C67.1709 49.7093 66.7496 49.607 66.3884 49.4024C66.0394 49.2098 65.8648 48.8667 65.8648 48.3732C65.8648 48.0602 65.9431 47.7111 66.0995 47.3259C66.3162 47.5667 66.5148 47.7352 66.6954 47.8315C66.888 47.9278 67.0926 47.9759 67.3093 47.9759C67.9112 47.9759 68.3565 47.6389 68.6454 46.9648C68.9464 46.2907 69.0968 45.5444 69.0968 44.7259C69.0968 43.1971 68.5251 42.4327 67.3815 42.4327C67.0565 42.4327 66.7796 42.4508 66.5509 42.4869L65.0704 49.4024H62.4703L64.9259 37.9187L67.5982 37.5576L66.7496 41.5661H66.8579C67.3153 41.5661 67.7426 41.4216 68.1399 41.1327C68.5371 40.8318 68.8561 40.4586 69.0968 40.0132C69.3376 39.5558 69.458 39.0984 69.458 38.641C69.458 38.0873 69.2593 37.6238 68.8621 37.2507C68.4769 36.8775 67.8811 36.6909 67.0746 36.6909C66.3403 36.6909 65.6241 36.8595 64.9259 37.1965C64.2277 37.5215 63.656 38.015 63.2106 38.6771C62.7772 39.3391 62.5606 40.1396 62.5606 41.0785C62.5606 41.5239 62.6027 41.8369 62.687 42.0175C62.7712 42.186 62.8134 42.2823 62.8134 42.3064C62.1754 42.3064 61.6939 42.18 61.3689 41.9272C61.0439 41.6624 60.8814 41.235 60.8814 40.6452C60.8814 39.8267 61.1883 39.0502 61.8022 38.316C62.4161 37.5817 63.2286 36.9919 64.2398 36.5465C65.2509 36.0891 66.3162 35.8604 67.4357 35.8604C68.2783 35.8604 68.9885 35.9928 69.5663 36.2576C70.1441 36.5224 70.5714 36.8715 70.8483 37.3048C71.1372 37.7382 71.2816 38.2137 71.2816 38.7313C71.2816 39.285 71.1251 39.8206 70.8122 40.3382C70.4992 40.8559 70.0538 41.2772 69.476 41.6022C70.1983 41.7346 70.7339 42.0716 71.083 42.6133C71.4321 43.1429 71.6066 43.7749 71.6066 44.5092C71.6066 45.1953 71.4742 45.9416 71.2094 46.7481C70.9566 47.5546 70.5293 48.2528 69.9274 48.8426C69.3376 49.4204 68.5792 49.7093 67.6524 49.7093ZM74.7237 40.3744H77.3238L77.089 41.4938C77.4983 41.1327 77.8654 40.8558 78.1904 40.6632C78.5275 40.4707 78.8886 40.3744 79.2738 40.3744C79.659 40.3744 79.9599 40.5068 80.1766 40.7716C80.4053 41.0364 80.5197 41.3554 80.5197 41.7286C80.5197 42.0776 80.4053 42.3846 80.1766 42.6494C79.9479 42.9142 79.6289 43.0466 79.2197 43.0466C78.9548 43.0466 78.7743 42.9865 78.678 42.8661C78.5937 42.7337 78.5275 42.5471 78.4793 42.3064C78.4432 42.1499 78.4071 42.0355 78.371 41.9633C78.3349 41.8911 78.2687 41.855 78.1724 41.855C77.9196 41.855 77.7029 41.9091 77.5224 42.0175C77.3539 42.1138 77.1312 42.2883 76.8543 42.5411L75.4098 49.4024H72.8098L74.7237 40.3744ZM83.715 49.5107C83.0289 49.5107 82.4571 49.276 81.9997 48.8065C81.5422 48.3371 81.3135 47.6028 81.3135 46.6037C81.3135 45.7129 81.4881 44.78 81.8372 43.805C82.1983 42.8179 82.7279 41.9874 83.4261 41.3133C84.1363 40.6271 84.9789 40.2841 85.9539 40.2841C86.4475 40.2841 86.8146 40.3683 87.0553 40.5369C87.2961 40.7054 87.4165 40.9281 87.4165 41.2049V41.3313L87.6151 40.3744H90.2151L88.9151 46.5134C88.867 46.694 88.8429 46.8866 88.8429 47.0912C88.8429 47.6088 89.0897 47.8676 89.5832 47.8676C89.9202 47.8676 90.2091 47.7111 90.4499 47.3981C90.7027 47.0852 90.9013 46.6759 91.0457 46.1703H91.8041C91.3587 47.4704 90.805 48.3551 90.1429 48.8246C89.4929 49.282 88.8369 49.5107 88.1748 49.5107C87.6693 49.5107 87.26 49.3723 86.947 49.0954C86.6461 48.8065 86.4655 48.3912 86.4053 47.8495C86.0563 48.3431 85.665 48.7463 85.2317 49.0593C84.8104 49.3602 84.3048 49.5107 83.715 49.5107ZM84.8886 47.7593C85.1896 47.7593 85.4845 47.6208 85.7734 47.344C86.0743 47.0551 86.2789 46.6639 86.3873 46.1703L87.254 42.0897C87.254 41.9332 87.1938 41.7827 87.0734 41.6383C86.953 41.4818 86.7664 41.4036 86.5137 41.4036C86.0322 41.4036 85.5988 41.6864 85.2136 42.2522C84.8284 42.8059 84.5275 43.48 84.3108 44.2745C84.0942 45.0569 83.9858 45.749 83.9858 46.3509C83.9858 46.9528 84.0701 47.338 84.2386 47.5065C84.4192 47.675 84.6359 47.7593 84.8886 47.7593ZM98.8345 49.5107C98.1002 49.5107 97.5585 49.3181 97.2094 48.9329C96.8724 48.5357 96.7039 48.0482 96.7039 47.4704C96.7039 47.2176 96.734 46.9347 96.7942 46.6217C96.8543 46.2967 96.9145 45.9838 96.9747 45.6828C97.047 45.3819 97.0951 45.1893 97.1192 45.105C97.2155 44.6837 97.3058 44.2684 97.39 43.8592C97.4743 43.4499 97.5164 43.1189 97.5164 42.8661C97.5164 42.2522 97.2997 41.9452 96.8664 41.9452C96.5534 41.9452 96.2766 42.1017 96.0358 42.4147C95.7951 42.7156 95.6025 43.1128 95.458 43.6064L94.2302 49.4024H91.6301L93.5441 40.3744H96.1441L95.9455 41.3133C96.5474 40.6392 97.2516 40.3021 98.0581 40.3021C98.672 40.3021 99.1595 40.4707 99.5206 40.8077C99.8817 41.1447 100.062 41.6563 100.062 42.3425C100.062 42.6915 100.02 43.0828 99.9359 43.5161C99.8516 43.9374 99.7313 44.455 99.5748 45.0689C99.4785 45.4421 99.3882 45.8092 99.3039 46.1703C99.2317 46.5194 99.1956 46.7963 99.1956 47.0009C99.1956 47.2417 99.2498 47.4282 99.3581 47.5607C99.4665 47.6931 99.653 47.7593 99.9178 47.7593C100.279 47.7593 100.568 47.6329 100.785 47.3801C101.001 47.1153 101.218 46.712 101.435 46.1703H102.193C101.748 47.4944 101.23 48.3852 100.64 48.8426C100.062 49.288 99.4604 49.5107 98.8345 49.5107ZM104.863 49.5107C104.177 49.5107 103.605 49.276 103.148 48.8065C102.69 48.3371 102.462 47.6028 102.462 46.6037C102.462 45.7129 102.636 44.78 102.985 43.805C103.346 42.8179 103.876 41.9874 104.574 41.3133C105.284 40.6271 106.127 40.2841 107.102 40.2841C107.596 40.2841 107.963 40.3683 108.203 40.5369C108.444 40.7054 108.565 40.9281 108.565 41.2049V41.2772L109.449 37.1243L112.122 36.7632L110.045 46.5134C109.997 46.694 109.973 46.8685 109.973 47.037C109.973 47.5185 110.22 47.7593 110.713 47.7593C110.93 47.7593 111.123 47.7232 111.291 47.6509C111.243 48.2528 111.026 48.7162 110.641 49.0412C110.268 49.3542 109.822 49.5107 109.305 49.5107C108.823 49.5107 108.414 49.3903 108.077 49.1496C107.752 48.8968 107.535 48.5176 107.427 48.0121C106.705 49.0112 105.85 49.5107 104.863 49.5107ZM106.037 47.7593C106.302 47.7593 106.566 47.6449 106.831 47.4162C107.108 47.1875 107.313 46.8685 107.445 46.4592L107.517 46.1703L108.402 42.0355C108.294 41.6142 108.047 41.4036 107.662 41.4036C107.18 41.4036 106.747 41.6864 106.362 42.2522C105.977 42.8059 105.676 43.48 105.459 44.2745C105.242 45.0569 105.134 45.749 105.134 46.3509C105.134 46.9528 105.218 47.338 105.387 47.5065C105.567 47.675 105.784 47.7593 106.037 47.7593ZM123.126 37.4493H122.909C121.838 37.4493 121.002 37.7201 120.4 38.2618C119.81 38.7914 119.515 39.7364 119.515 41.0966C119.515 41.542 119.557 41.8549 119.641 42.0355C119.726 42.204 119.768 42.3003 119.768 42.3244C119.118 42.3244 118.63 42.192 118.305 41.9272C117.992 41.6503 117.836 41.1989 117.836 40.573C117.836 39.7183 118.046 38.9419 118.468 38.2438C118.889 37.5335 119.557 36.9618 120.472 36.5284C121.399 36.0951 122.572 35.8784 123.993 35.8784C124.787 35.8784 125.642 35.9506 126.557 36.0951C127.327 36.2275 128.013 36.2937 128.615 36.2937C129.386 36.2937 130.084 36.1673 130.71 35.9145C130.686 36.6969 130.487 37.2747 130.114 37.6479C129.741 38.0211 129.187 38.2076 128.453 38.2076C128.067 38.2076 127.682 38.1775 127.297 38.1174C126.912 38.0572 126.364 37.9549 125.654 37.8104L123.162 49.4024H120.562L123.126 37.4493ZM130.499 53.9164C129.921 53.9164 129.44 53.7659 129.055 53.465C128.669 53.164 128.477 52.7307 128.477 52.1649C128.477 51.4908 128.76 50.9251 129.325 50.4677C129.903 50.0103 130.607 49.6491 131.438 49.3843L131.637 48.4996C131.287 48.8848 130.932 49.1496 130.571 49.294C130.21 49.4385 129.843 49.5107 129.47 49.5107C128.892 49.5107 128.423 49.3301 128.061 48.969C127.712 48.6079 127.538 48.0662 127.538 47.344C127.538 47.043 127.586 46.6518 127.682 46.1703L128.91 40.3744H131.51L130.21 46.5134C130.174 46.6578 130.156 46.8083 130.156 46.9648C130.156 47.4944 130.337 47.7593 130.698 47.7593C131.011 47.7593 131.287 47.6269 131.528 47.362C131.769 47.0852 131.962 46.7241 132.106 46.2787L133.37 40.3744H135.97L134.201 48.6621C134.802 48.5297 135.404 48.4153 136.006 48.319L137.83 39.7063H140.43L140.141 41.0605C140.743 40.5429 141.447 40.2841 142.253 40.2841C142.928 40.2841 143.463 40.5068 143.86 40.9522C144.258 41.3975 144.456 42.1258 144.456 43.1369C144.456 44.0879 144.318 45.0509 144.041 46.0259C143.764 46.9889 143.295 47.8134 142.633 48.4996C141.971 49.1737 141.098 49.5107 140.015 49.5107C139.413 49.5107 138.859 49.4926 138.353 49.4565L137.541 53.2664L134.814 53.9164L135.771 49.3663C135.169 49.3903 134.586 49.4565 134.02 49.5649L133.749 50.8468C133.508 52.0145 133.093 52.815 132.503 53.2483C131.913 53.6937 131.245 53.9164 130.499 53.9164ZM138.66 48.0482C138.841 48.0361 139.106 48.0301 139.455 48.0301C140.033 48.0301 140.508 47.7532 140.881 47.1995C141.266 46.6458 141.543 45.9898 141.712 45.2314C141.892 44.461 141.983 43.7448 141.983 43.0828C141.983 42.0837 141.682 41.5841 141.08 41.5841C140.863 41.5841 140.64 41.6623 140.412 41.8188C140.195 41.9753 140.002 42.192 139.834 42.4689L138.66 48.0482ZM130.084 52.508C130.288 52.508 130.487 52.3696 130.68 52.0927C130.872 51.8159 131.023 51.4186 131.131 50.901L131.239 50.3774C130.06 50.8107 129.47 51.3223 129.47 51.9122C129.47 52.0686 129.524 52.2071 129.632 52.3274C129.741 52.4478 129.891 52.508 130.084 52.508ZM148.757 49.5107C147.866 49.5107 147.174 49.282 146.68 48.8246C146.187 48.3551 145.94 47.6269 145.94 46.6398C145.94 45.8092 146.102 44.8944 146.427 43.8953C146.752 42.8962 147.282 42.0355 148.016 41.3133C148.751 40.579 149.684 40.2118 150.815 40.2118C152.139 40.2118 152.801 40.7896 152.801 41.9452C152.801 42.6193 152.609 43.2392 152.223 43.805C151.838 44.3708 151.327 44.8282 150.689 45.1773C150.051 45.5143 149.371 45.7069 148.648 45.7551C148.624 46.1162 148.612 46.3569 148.612 46.4773C148.612 47.0671 148.715 47.4704 148.919 47.687C149.124 47.8917 149.455 47.994 149.912 47.994C150.562 47.994 151.116 47.8435 151.573 47.5426C152.043 47.2417 152.554 46.7842 153.108 46.1703H153.722C152.386 48.3973 150.731 49.5107 148.757 49.5107ZM148.793 44.8884C149.238 44.8643 149.659 44.7078 150.057 44.4189C150.466 44.13 150.791 43.7629 151.032 43.3175C151.285 42.8721 151.411 42.4027 151.411 41.9091C151.411 41.4156 151.26 41.1688 150.959 41.1688C150.526 41.1688 150.099 41.548 149.678 42.3064C149.268 43.0647 148.973 43.9254 148.793 44.8884ZM152.744 53.9164C152.178 53.9164 151.685 53.7298 151.263 53.3566C150.83 52.9955 150.613 52.5321 150.613 51.9663C150.613 51.4487 150.746 51.0214 151.011 50.6843C151.275 50.3473 151.619 50.0765 152.04 49.8718C152.461 49.6792 153.021 49.4746 153.719 49.2579L155.904 38.9479C156.145 37.7923 156.566 36.9919 157.168 36.5465C157.782 36.1011 158.456 35.8784 159.19 35.8784C159.756 35.8784 160.249 36.065 160.671 36.4381C161.104 36.7993 161.321 37.2627 161.321 37.8285C161.321 38.1053 161.303 38.3521 161.266 38.5688H160.418C160.442 38.3039 160.454 38.1414 160.454 38.0812C160.454 37.8886 160.388 37.7382 160.255 37.6298C160.123 37.5215 159.96 37.4673 159.768 37.4673C159.515 37.4673 159.268 37.5817 159.028 37.8104C158.787 38.0271 158.612 38.4063 158.504 38.9479L158.197 40.3744H159.515L159.389 41.0966H158.052L155.976 50.8468C155.735 52.0145 155.32 52.815 154.73 53.2483C154.14 53.6937 153.478 53.9164 152.744 53.9164ZM152.329 52.3094C152.81 52.3094 153.153 51.8399 153.358 50.901L153.593 49.8538C152.955 50.0704 152.467 50.3172 152.13 50.5941C151.781 50.883 151.606 51.2561 151.606 51.7135C151.606 51.858 151.679 51.9904 151.823 52.1108C151.968 52.2432 152.136 52.3094 152.329 52.3094ZM162.612 49.5107C161.926 49.5107 161.354 49.276 160.896 48.8065C160.439 48.3371 160.21 47.6028 160.21 46.6037C160.21 45.7129 160.385 44.78 160.734 43.805C161.095 42.8179 161.625 41.9874 162.323 41.3133C163.033 40.6271 163.876 40.2841 164.851 40.2841C165.344 40.2841 165.711 40.3683 165.952 40.5369C166.193 40.7054 166.313 40.9281 166.313 41.2049V41.3313L166.512 40.3744H169.112L167.812 46.5134C167.764 46.694 167.74 46.8866 167.74 47.0912C167.74 47.6088 167.986 47.8676 168.48 47.8676C168.817 47.8676 169.106 47.7111 169.347 47.3981C169.599 47.0852 169.798 46.6759 169.942 46.1703H170.701C170.255 47.4704 169.702 48.3551 169.04 48.8246C168.39 49.282 167.734 49.5107 167.071 49.5107C166.566 49.5107 166.157 49.3723 165.844 49.0954C165.543 48.8065 165.362 48.3912 165.302 47.8495C164.953 48.3431 164.562 48.7463 164.128 49.0593C163.707 49.3602 163.201 49.5107 162.612 49.5107ZM163.785 47.7593C164.086 47.7593 164.381 47.6208 164.67 47.344C164.971 47.0551 165.176 46.6639 165.284 46.1703L166.151 42.0897C166.151 41.9332 166.09 41.7827 165.97 41.6383C165.85 41.4818 165.663 41.4036 165.41 41.4036C164.929 41.4036 164.495 41.6864 164.11 42.2522C163.725 42.8059 163.424 43.48 163.207 44.2745C162.991 45.0569 162.882 45.749 162.882 46.3509C162.882 46.9528 162.967 47.338 163.135 47.5065C163.316 47.675 163.532 47.7593 163.785 47.7593ZM173.794 49.5107C172.904 49.5107 172.211 49.282 171.718 48.8246C171.224 48.3551 170.978 47.6269 170.978 46.6398C170.978 45.8092 171.14 44.8944 171.465 43.8953C171.802 42.8962 172.332 42.0355 173.054 41.3133C173.788 40.579 174.715 40.2118 175.835 40.2118C176.557 40.2118 177.068 40.3683 177.369 40.6813C177.682 40.9943 177.839 41.3915 177.839 41.873C177.839 42.2943 177.749 42.6193 177.568 42.848C177.387 43.0767 177.159 43.1911 176.882 43.1911C176.677 43.1911 176.467 43.1189 176.25 42.9744C176.394 42.5772 176.467 42.2221 176.467 41.9091C176.467 41.6804 176.424 41.4998 176.34 41.3674C176.256 41.235 176.13 41.1688 175.961 41.1688C175.6 41.1688 175.239 41.4637 174.878 42.0536C174.517 42.6434 174.222 43.3596 173.993 44.2022C173.764 45.0448 173.65 45.8032 173.65 46.4773C173.65 47.0671 173.752 47.4704 173.957 47.687C174.161 47.8917 174.493 47.994 174.95 47.994C175.6 47.994 176.154 47.8435 176.611 47.5426C177.081 47.2417 177.592 46.7842 178.146 46.1703H178.76C177.424 48.3973 175.768 49.5107 173.794 49.5107ZM181.953 49.5107C181.074 49.5107 180.388 49.282 179.894 48.8246C179.401 48.3551 179.154 47.6269 179.154 46.6398C179.154 45.8092 179.316 44.8944 179.641 43.8953C179.966 42.8962 180.496 42.0355 181.23 41.3133C181.965 40.579 182.898 40.2118 184.029 40.2118C185.353 40.2118 186.015 40.7896 186.015 41.9452C186.015 42.6193 185.823 43.2392 185.437 43.805C185.052 44.3708 184.541 44.8282 183.903 45.1773C183.265 45.5143 182.585 45.7069 181.862 45.7551C181.838 46.0199 181.826 46.2004 181.826 46.2967C181.826 47.2958 182.199 47.7954 182.946 47.7954C183.283 47.7954 183.644 47.7051 184.029 47.5245C184.414 47.344 184.763 47.1153 185.076 46.8384C184.751 48.6199 183.71 49.5107 181.953 49.5107ZM181.989 44.8884C182.446 44.8763 182.873 44.7259 183.271 44.437C183.68 44.1481 184.005 43.7809 184.246 43.3355C184.499 42.8781 184.625 42.4027 184.625 41.9091C184.625 41.4156 184.474 41.1688 184.174 41.1688C183.752 41.1688 183.331 41.554 182.91 42.3244C182.5 43.0828 182.193 43.9374 181.989 44.8884Z" fill="#FF28B1"/>
<path d="M38.3959 21.6543C37.8662 23.2063 37.2933 24.4444 36.6778 25.3685C36.0617 26.2921 35.4397 27.0003 34.8112 27.4928C34.1957 27.9735 33.5856 28.2875 32.9825 28.4353C32.3913 28.5831 31.8491 28.657 31.3566 28.657C30.5188 28.657 29.8164 28.5399 29.25 28.3058C28.6836 28.0598 28.2212 27.7394 27.8641 27.345C27.5194 26.9388 27.267 26.483 27.1067 25.9781C26.9589 25.4608 26.885 24.931 26.885 24.3888C26.885 23.7485 26.9713 23.0036 27.1434 22.1534C27.3285 21.2913 27.5253 20.4103 27.7346 19.5111C27.9445 18.6124 28.1355 17.7439 28.3075 16.9061C28.4926 16.0683 28.5848 15.3482 28.5848 14.7445C28.5848 13.4509 28.129 12.8046 27.2179 12.8046C26.885 12.8046 26.577 12.8904 26.2938 13.063C26.0106 13.2356 25.7457 13.4698 25.4991 13.7654C25.265 14.061 25.0498 14.4057 24.8529 14.8001C24.6678 15.1938 24.5017 15.613 24.3539 16.0565C24.0334 17.7439 23.6823 19.5974 23.3003 21.6177C22.919 23.638 22.4998 25.9101 22.0445 28.4353H16.5938L21.7855 4.28656C21.0098 4.22508 20.2028 4.13878 19.365 4.02822C18.5278 3.91707 17.6652 3.79409 16.7783 3.65869L11.4388 28.4353H6.00644L11.4021 3.3075C10.3426 3.35657 9.3511 3.50438 8.42698 3.75093C7.50346 3.99748 6.69642 4.41016 6.00644 4.98899C5.32946 5.56782 4.79319 6.35003 4.39943 7.33563C4.00507 8.30822 3.80818 9.54037 3.80818 11.0309C3.80818 11.511 3.83242 11.9053 3.88209 12.2134C3.94358 12.509 4.00507 12.749 4.06656 12.9335C4.12805 13.1061 4.18363 13.2416 4.23271 13.3403C4.29479 13.439 4.32552 13.5247 4.32552 13.5986C3.67279 13.5986 3.09338 13.5372 2.58845 13.4142C2.08353 13.2788 1.65842 13.0695 1.31373 12.7857C0.980859 12.5025 0.722492 12.1271 0.537433 11.6588C0.365381 11.1905 0.279053 10.6182 0.279053 9.94065C0.279053 8.68426 0.531517 7.46449 1.03644 6.28201C1.55378 5.0877 2.3484 4.03413 3.42032 3.12302C4.50407 2.21133 5.88344 1.47819 7.55903 0.924196C9.24644 0.36961 11.2602 0.0929054 13.6004 0.0929054C14.0196 0.0929054 14.6108 0.147894 15.3741 0.259048C16.138 0.357786 16.9817 0.468319 17.9058 0.591297C18.8417 0.702451 19.8208 0.813043 20.8431 0.924196C21.8654 1.02293 22.8569 1.07201 23.8182 1.07201C24.7417 1.07201 25.6038 1.01049 26.4043 0.886919C27.2055 0.76394 27.8706 0.523921 28.4004 0.166811C28.2526 0.450016 28.1107 0.727312 27.9753 0.998102C27.8399 1.26889 27.698 1.58934 27.5502 1.95887C27.4148 2.31598 27.2729 2.74697 27.1251 3.25189C26.9773 3.7574 26.8052 4.38533 26.6077 5.1368C26.4233 5.88827 26.2139 6.78752 25.9798 7.83402C25.7581 8.88111 25.5056 10.1251 25.2219 11.5666C25.6286 11.0983 26.0354 10.7229 26.4416 10.4397C26.8478 10.144 27.2421 9.92232 27.6241 9.77451C28.0184 9.61428 28.388 9.5096 28.7326 9.45994C29.0898 9.39845 29.4226 9.36774 29.7307 9.36774C30.3337 9.36774 30.8883 9.44811 31.3932 9.60775C31.9106 9.76798 32.354 10.0205 32.7235 10.3657C33.1055 10.7104 33.4011 11.1539 33.6104 11.696C33.8197 12.2376 33.9244 12.8844 33.9244 13.6359C33.9244 14.1408 33.8753 14.6889 33.7766 15.2802C33.6902 15.859 33.5797 16.4567 33.4443 17.0722C33.3207 17.6758 33.1794 18.2795 33.0192 18.8832C32.8589 19.4869 32.7111 20.0657 32.5757 20.6196C32.4528 21.1742 32.3416 21.6916 32.2434 22.1717C32.1571 22.6399 32.114 23.0526 32.114 23.4098C32.114 23.878 32.2186 24.26 32.4279 24.5556C32.6372 24.8512 33.0375 24.999 33.6287 24.999C34.0355 24.999 34.3926 24.9186 34.7007 24.7583C35.0087 24.5987 35.2854 24.3705 35.532 24.0749C35.7785 23.7793 36.0002 23.4281 36.1971 23.0219C36.4064 22.6033 36.6098 22.1474 36.8067 21.6543H38.3959ZM52.6413 21.6543C52.1116 22.5412 51.5014 23.4038 50.812 24.241C50.1345 25.0788 49.3647 25.8238 48.5026 26.4771C47.6524 27.1298 46.7041 27.6596 45.657 28.0658C44.6223 28.4601 43.483 28.657 42.239 28.657C41.3397 28.657 40.5268 28.5465 39.8001 28.3247C39.0735 28.0906 38.4515 27.7335 37.9336 27.2528C37.4168 26.7727 37.0225 26.1567 36.7511 25.4052C36.4679 24.6413 36.3266 23.7237 36.3266 22.6524C36.3266 21.9257 36.4005 21.0879 36.5483 20.1396C36.6961 19.1912 36.9302 18.218 37.2501 17.22C37.5706 16.2226 37.9957 15.2435 38.5248 14.2827C39.0546 13.322 39.6955 12.4658 40.4464 11.7144C41.1978 10.9505 42.0788 10.3409 43.0886 9.88507C44.0991 9.41681 45.2508 9.18326 46.5439 9.18326C47.3935 9.18326 48.0835 9.28792 48.6132 9.49722C49.1554 9.6941 49.5799 9.95897 49.8879 10.2918C50.2084 10.6241 50.4242 11.012 50.5348 11.4554C50.6577 11.887 50.7198 12.3364 50.7198 12.8046C50.7198 13.9008 50.4792 14.9231 49.9991 15.8714C49.5184 16.8073 48.8716 17.6268 48.0592 18.3286C47.2581 19.031 46.3346 19.5974 45.2875 20.0284C44.2404 20.46 43.1501 20.7125 42.0173 20.7864C41.9925 21.0696 41.9676 21.3404 41.9434 21.5994C41.931 21.8453 41.9245 22.0795 41.9245 22.3012C41.9245 22.9415 41.98 23.4712 42.0912 23.8904C42.2142 24.2966 42.3868 24.6171 42.6085 24.8512C42.8427 25.0847 43.1259 25.2514 43.4582 25.3496C43.8035 25.4359 44.2037 25.4791 44.6596 25.4791C45.4104 25.4791 46.088 25.3804 46.6917 25.1835C47.3077 24.9866 47.8801 24.7152 48.4098 24.3705C48.9396 24.0258 49.4386 23.619 49.9063 23.1514C50.387 22.6831 50.8676 22.1841 51.3477 21.6543H52.6413ZM42.3129 18.9754C43.0271 18.9264 43.7171 18.723 44.3823 18.3659C45.0474 18.0087 45.6322 17.5464 46.1377 16.98C46.6426 16.4012 47.0429 15.7484 47.3385 15.0218C47.6465 14.2827 47.8003 13.5188 47.8003 12.7307C47.8003 12.2625 47.7323 11.887 47.5969 11.6032C47.4615 11.32 47.2149 11.1787 46.8578 11.1787C46.3777 11.1787 45.9035 11.4123 45.4353 11.8805C44.9794 12.3364 44.5484 12.9335 44.1416 13.6725C43.7355 14.4116 43.3718 15.2494 43.052 16.1853C42.7439 17.1094 42.4974 18.0395 42.3129 18.9754ZM59.2556 28.4353L62.0268 15.3724C62.1013 15.0767 62.1379 14.7628 62.1379 14.4305C62.1379 14.2088 62.1196 13.9989 62.0823 13.8021C62.0457 13.6052 61.9777 13.4325 61.879 13.2847C61.7932 13.1245 61.6761 13.0015 61.5283 12.9152C61.3929 12.8165 61.2144 12.7674 60.9921 12.7674C60.6231 12.7674 60.2779 12.8596 59.9574 13.0447C59.65 13.2291 59.3662 13.4816 59.1078 13.8021C58.8612 14.1225 58.6395 14.4979 58.4426 14.9289C58.2458 15.3605 58.0731 15.8158 57.9253 16.2965L55.3569 28.4353H49.9063L53.9161 9.51555H59.3662L58.96 11.4743C59.3662 11.0185 59.7729 10.6549 60.1797 10.3841C60.5859 10.1009 60.9862 9.88507 61.3805 9.73726C61.7743 9.57704 62.1562 9.47238 62.5258 9.42331C62.8953 9.36182 63.2465 9.33107 63.5794 9.33107C64.0719 9.33107 64.5336 9.39257 64.9647 9.51555C65.3957 9.6267 65.7776 9.81116 66.1105 10.0701C66.4427 10.3285 66.726 10.6673 66.9601 11.0859C67.1942 11.4926 67.3604 11.9917 67.4591 12.5829C67.915 11.8805 68.3826 11.32 68.8633 10.9014C69.344 10.4704 69.8117 10.144 70.2675 9.92232C70.7234 9.7006 71.1603 9.55279 71.5795 9.47888C71.9981 9.40498 72.38 9.36774 72.7247 9.36774C73.3284 9.36774 73.883 9.44811 74.3879 9.60775C74.9052 9.76798 75.3487 10.0205 75.7182 10.3657C76.1001 10.7104 76.3957 11.1539 76.605 11.696C76.8143 12.2376 76.919 12.8844 76.919 13.6359C76.919 14.1408 76.8699 14.6889 76.7712 15.2802C76.6849 15.859 76.5743 16.4567 76.4389 17.0722C76.3153 17.6758 76.174 18.2795 76.0138 18.8832C75.8536 19.4869 75.7058 20.0657 75.5704 20.6196C75.4468 21.1742 75.3362 21.6916 75.2375 22.1717C75.1512 22.6399 75.1086 23.0526 75.1086 23.4098C75.1086 23.878 75.2133 24.26 75.4226 24.5556C75.6443 24.8512 76.0445 24.999 76.6234 24.999C77.227 24.999 77.6456 24.9186 77.8798 24.7583C77.7934 25.4483 77.6214 26.0396 77.3624 26.5321C77.1035 27.0128 76.7836 27.413 76.4017 27.7335C76.0321 28.0534 75.6135 28.2875 75.1453 28.4353C74.6894 28.5831 74.2093 28.657 73.7038 28.657C72.9772 28.657 72.3676 28.5399 71.8751 28.3058C71.3944 28.0598 71.0066 27.7394 70.7109 27.345C70.4153 26.9388 70.206 26.483 70.083 25.9781C69.9595 25.4608 69.898 24.931 69.898 24.3888C69.898 23.7485 69.9843 23.0036 70.1564 22.1534C70.3414 21.2913 70.5383 20.4103 70.7476 19.5111C70.9575 18.6124 71.1485 17.7439 71.3205 16.9061C71.5056 16.0683 71.5978 15.3482 71.5978 14.7445C71.5978 13.4509 71.142 12.8046 70.2308 12.8046C69.8856 12.8046 69.5651 12.8968 69.2695 13.0813C68.9739 13.2664 68.7031 13.5188 68.4571 13.8393C68.2106 14.1467 67.9889 14.5163 67.7914 14.9479C67.5945 15.3665 67.4224 15.8158 67.2746 16.2965L64.7063 28.4353H59.2556ZM89.6491 28.4353L94.7858 4.36047L100.384 3.62142L97.7048 16.2592C98.3457 16.2102 98.9487 16.0375 99.5157 15.7419C100.095 15.4463 100.63 15.0709 101.123 14.615C101.616 14.1468 102.059 13.6111 102.454 13.0074C102.847 12.4043 103.18 11.7699 103.451 11.1048C103.734 10.4272 103.95 9.73726 104.098 9.03545C104.246 8.32064 104.32 7.62472 104.32 6.94716C104.32 6.24535 104.227 5.58614 104.042 4.97066C103.87 4.34217 103.593 3.79406 103.211 3.32579C102.841 2.84571 102.355 2.46971 101.751 2.19892C101.16 1.92813 100.452 1.79273 99.6263 1.79273C98.0867 1.79273 96.7073 2.00204 95.4876 2.42063C94.2809 2.83923 93.258 3.44289 92.4208 4.2316C91.583 5.01973 90.9427 5.98642 90.4993 7.13225C90.0558 8.26566 89.8341 9.5528 89.8341 10.9937C89.8341 11.4743 89.8584 11.8681 89.908 12.1761C89.9695 12.4718 90.031 12.7118 90.0925 12.8969C90.154 13.0695 90.2096 13.2049 90.2586 13.303C90.3207 13.4018 90.3515 13.4881 90.3515 13.562C89.6987 13.562 89.1193 13.5005 88.6144 13.3769C88.1095 13.2415 87.6844 13.0323 87.3397 12.7491C87.0068 12.4658 86.7484 12.0898 86.5634 11.6221C86.3913 11.1539 86.305 10.5751 86.305 9.88507C86.305 9.04728 86.4836 8.22249 86.8407 7.40953C87.2102 6.59658 87.7092 5.82675 88.3371 5.09952C88.978 4.37289 89.723 3.70186 90.5732 3.08578C91.4352 2.46971 92.3528 1.94054 93.326 1.49711C94.3116 1.04126 95.3339 0.690035 96.3934 0.443487C97.4647 0.185114 98.5301 0.0556641 99.5896 0.0556641C101.142 0.0556641 102.478 0.264957 103.599 0.684148C104.72 1.09033 105.643 1.63842 106.37 2.3284C107.109 3.01838 107.651 3.81242 107.996 4.7117C108.341 5.59856 108.514 6.52859 108.514 7.50177C108.514 8.70909 108.261 9.91582 107.756 11.1231C107.263 12.3305 106.543 13.4201 105.594 14.3933C104.658 15.3541 103.513 16.1363 102.158 16.7399C100.815 17.3436 99.294 17.6451 97.5942 17.6451H97.3908L95.0814 28.4353H89.6491ZM128.468 21.6543C127.939 23.2063 127.366 24.4444 126.75 25.3685C126.146 26.2921 125.53 27.0003 124.902 27.4928C124.286 27.9735 123.676 28.2875 123.073 28.4353C122.481 28.5831 121.933 28.657 121.428 28.657C120.591 28.657 119.889 28.5399 119.322 28.3058C118.755 28.0598 118.3 27.7394 117.955 27.345C117.61 26.9388 117.358 26.483 117.197 25.9781C117.05 25.4608 116.976 24.931 116.976 24.3888C116.976 23.7485 117.062 23.0036 117.235 22.1534C117.419 21.2913 117.616 20.4103 117.826 19.5111C118.035 18.6124 118.226 17.7439 118.398 16.9061C118.583 16.0683 118.676 15.3482 118.676 14.7445C118.676 13.4509 118.22 12.8046 117.308 12.8046C116.963 12.8046 116.643 12.8968 116.348 13.0813C116.052 13.2664 115.781 13.5188 115.534 13.8393C115.288 14.1467 115.067 14.5163 114.87 14.9479C114.672 15.3665 114.5 15.8158 114.352 16.2965L111.784 28.4353H106.333L111.821 2.69792L117.419 1.94054L115.386 11.4743C115.793 11.0185 116.194 10.6549 116.588 10.3841C116.994 10.1009 117.388 9.88507 117.77 9.73726C118.152 9.58945 118.509 9.49072 118.842 9.44164C119.187 9.39257 119.507 9.36774 119.802 9.36774C120.406 9.36774 120.967 9.44811 121.484 9.60775C122.001 9.76798 122.445 10.0205 122.814 10.3657C123.196 10.7104 123.492 11.1539 123.701 11.696C123.91 12.2376 124.015 12.8844 124.015 13.6359C124.015 14.1408 123.966 14.6889 123.867 15.2802C123.781 15.859 123.67 16.4567 123.535 17.0722C123.4 17.6758 123.252 18.2795 123.092 18.8832C122.944 19.4869 122.802 20.0657 122.666 20.6196C122.531 21.1742 122.414 21.6916 122.315 22.1717C122.229 22.6399 122.186 23.0526 122.186 23.4098C122.186 23.878 122.291 24.26 122.5 24.5556C122.722 24.8512 123.122 24.999 123.701 24.999C124.107 24.999 124.465 24.9186 124.773 24.7583C125.081 24.5987 125.358 24.3705 125.604 24.0749C125.85 23.7793 126.072 23.4281 126.27 23.0219C126.479 22.6033 126.682 22.1474 126.879 21.6543H128.468ZM148.146 14.061C147.406 14.8367 146.452 15.4959 145.282 16.0375C144.111 16.5797 142.83 16.9676 141.438 17.2017C141.291 18.9506 140.952 20.5274 140.422 21.9316C139.905 23.3358 139.246 24.5307 138.445 25.5163C137.644 26.5014 136.727 27.2593 135.692 27.7885C134.657 28.3182 133.561 28.5831 132.404 28.5831C131.529 28.5831 130.716 28.4785 129.965 28.2692C129.226 28.0475 128.585 27.7028 128.043 27.2345C127.513 26.7538 127.101 26.1383 126.805 25.3869C126.497 24.623 126.343 23.6994 126.343 22.6151C126.343 21.876 126.423 21.0388 126.583 20.1023C126.731 19.154 126.971 18.1808 127.304 17.1834C127.649 16.1854 128.086 15.2127 128.616 14.2638C129.158 13.303 129.81 12.4469 130.574 11.696C131.35 10.9446 132.243 10.3409 133.253 9.88507C134.264 9.41681 135.415 9.18326 136.709 9.18326C139.948 9.18326 141.568 11.197 141.568 15.2246V15.2618C141.629 15.2867 141.685 15.2985 141.734 15.2985C141.796 15.2985 141.876 15.2985 141.974 15.2985C142.418 15.2985 142.892 15.237 143.397 15.114C143.914 14.9786 144.432 14.806 144.949 14.5967C145.467 14.3874 145.972 14.1468 146.464 13.876C146.957 13.5928 147.406 13.3095 147.813 13.0263L148.146 14.061ZM138.297 17.3128C137.903 17.2141 137.633 17.0231 137.485 16.7399C137.349 16.4443 137.281 16.1055 137.281 15.7236C137.281 15.1938 137.386 14.7628 137.595 14.4305C137.817 14.0853 138.107 13.8328 138.464 13.6725C138.439 13.2664 138.396 12.9276 138.334 12.6568C138.273 12.373 138.187 12.1454 138.076 11.9727C137.965 11.7883 137.823 11.6588 137.651 11.5849C137.491 11.511 137.281 11.4743 137.022 11.4743C136.567 11.4743 136.13 11.6529 135.711 12.01C135.292 12.3547 134.892 12.8164 134.51 13.3959C134.14 13.9747 133.795 14.6398 133.475 15.3913C133.167 16.1304 132.903 16.8937 132.68 17.6824C132.459 18.4705 132.287 19.2527 132.164 20.0284C132.04 20.7923 131.979 21.4882 131.979 22.1167C131.979 22.7446 132.009 23.256 132.071 23.6498C132.145 24.0441 132.256 24.3581 132.404 24.5922C132.564 24.814 132.767 24.9682 133.013 25.054C133.26 25.1403 133.561 25.1835 133.918 25.1835C134.374 25.1835 134.83 24.9801 135.286 24.5739C135.754 24.1671 136.185 23.6131 136.579 22.9107C136.973 22.2089 137.318 21.3776 137.614 20.4169C137.922 19.4561 138.149 18.4214 138.297 17.3128ZM155.203 21.6543C154.846 22.6772 154.446 23.564 154.002 24.3149C153.571 25.0664 153.116 25.7008 152.635 26.2182C152.167 26.7355 151.681 27.1541 151.176 27.4745C150.683 27.795 150.202 28.041 149.734 28.2136C149.267 28.3862 148.817 28.5033 148.386 28.5648C147.967 28.6263 147.591 28.657 147.259 28.657C146.692 28.657 146.162 28.5707 145.669 28.3987C145.177 28.226 144.746 27.9552 144.376 27.5857C144.019 27.2162 143.735 26.7479 143.526 26.1815C143.317 25.6145 143.212 24.931 143.212 24.1305C143.212 23.7858 143.237 23.4097 143.286 23.0036C143.335 22.5844 143.409 22.135 143.508 21.6543L145.781 11.0309H144.524L144.838 9.51555H146.076L147.221 4.28656L152.82 3.52922L151.527 9.51555H153.799L153.503 11.0309H151.231L148.811 22.3751C148.749 22.5844 148.706 22.7937 148.681 23.0036C148.669 23.2004 148.663 23.3973 148.663 23.5948C148.663 24.124 148.786 24.4935 149.032 24.7034C149.278 24.9003 149.667 24.999 150.197 24.999C150.565 24.999 150.923 24.9186 151.268 24.7583C151.625 24.5863 151.951 24.3522 152.247 24.0566C152.543 23.7609 152.807 23.4097 153.042 23.0036C153.276 22.5844 153.467 22.135 153.615 21.6543H155.203ZM179.962 8.35136C180.035 9.98969 180.103 11.4123 180.165 12.6196C180.239 13.8145 180.307 14.855 180.368 15.7419C180.43 16.6169 180.485 17.3619 180.534 17.978C180.584 18.5935 180.627 19.1416 180.664 19.6222C180.713 20.0905 180.744 20.5215 180.756 20.9153C180.781 21.2972 180.793 21.6975 180.793 22.1167C180.793 23.3607 180.59 24.4013 180.183 25.2391C179.789 26.0644 179.272 26.7355 178.631 27.2528C177.991 27.7578 177.277 28.1214 176.488 28.3431C175.7 28.5524 174.918 28.657 174.142 28.657C173.008 28.657 172.097 28.5033 171.407 28.1953C170.73 27.8872 170.2 27.4929 169.818 27.0128C169.436 26.5321 169.184 25.9964 169.061 25.4052C168.937 24.8015 168.876 24.2103 168.876 23.6315C168.876 23.0775 168.956 22.5785 169.116 22.135C169.276 21.6792 169.485 21.2972 169.744 20.9892C170.003 20.6817 170.292 20.4476 170.613 20.2874C170.945 20.1148 171.278 20.0284 171.61 20.0284C172.916 20.0284 173.569 20.5582 173.569 21.6177C173.569 22.086 173.396 22.4921 173.052 22.8368C172.706 23.1697 172.275 23.3358 171.758 23.3358C171.549 23.3358 171.352 23.3051 171.167 23.2436C170.982 23.1821 170.84 23.0467 170.742 22.8368C170.742 23.7237 170.921 24.4196 171.278 24.9251C171.635 25.4176 172.183 25.6642 172.922 25.6642C173.341 25.6642 173.698 25.6086 173.994 25.4974C174.302 25.3744 174.554 25.1775 174.751 24.9062C174.948 24.6354 175.09 24.2783 175.177 23.8349C175.275 23.379 175.324 22.8185 175.324 22.1534C175.324 21.8087 175.312 21.4758 175.287 21.1559C175.262 20.8355 175.232 20.4908 175.195 20.1213C175.158 19.7393 175.109 19.3142 175.047 18.8459C174.997 18.3782 174.942 17.8237 174.881 17.1834C174.819 16.5306 174.751 15.7727 174.678 14.9106C174.616 14.0486 174.548 13.0323 174.474 11.8622C173.551 13.2912 172.559 14.4305 171.5 15.2802C170.44 16.1304 169.313 16.7334 168.118 17.0911C167.995 18.8649 167.675 20.4659 167.158 21.895C166.653 23.311 166 24.5183 165.199 25.5163C164.398 26.5014 163.481 27.2593 162.446 27.7885C161.411 28.3182 160.315 28.5831 159.157 28.5831C158.283 28.5831 157.47 28.4785 156.719 28.2692C155.979 28.0475 155.339 27.7028 154.797 27.2345C154.267 26.7538 153.855 26.1383 153.559 25.3869C153.251 24.623 153.097 23.6994 153.097 22.6151C153.097 21.876 153.171 21.0388 153.319 20.1023C153.467 19.154 153.701 18.1808 154.021 17.1834C154.354 16.1854 154.779 15.2127 155.295 14.2638C155.825 13.303 156.466 12.4469 157.217 11.696C157.981 10.9446 158.868 10.3409 159.878 9.88507C160.888 9.41681 162.046 9.18326 163.352 9.18326C166.541 9.18326 168.155 11.1598 168.192 15.114C169.165 15.0525 170.163 14.5044 171.186 13.4698C172.22 12.4351 173.279 10.9753 174.363 9.09041L179.962 8.35136ZM164.94 17.3495C164.337 17.1278 164.035 16.5614 164.035 15.6497C164.035 14.6765 164.392 14.0178 165.107 13.6725C165.045 12.8596 164.903 12.2932 164.682 11.9727C164.472 11.6404 164.133 11.4743 163.666 11.4743C163.222 11.4743 162.791 11.6529 162.372 12.01C161.953 12.3547 161.559 12.8164 161.19 13.3959C160.82 13.9747 160.481 14.6398 160.173 15.3913C159.878 16.1304 159.619 16.8937 159.397 17.6824C159.188 18.4705 159.022 19.2527 158.898 20.0284C158.788 20.7923 158.732 21.4882 158.732 22.1167C158.732 22.7446 158.763 23.256 158.825 23.6498C158.898 24.0441 159.01 24.3581 159.157 24.5922C159.318 24.814 159.52 24.9682 159.767 25.054C160.014 25.1403 160.315 25.1835 160.672 25.1835C161.128 25.1835 161.578 24.9866 162.021 24.5922C162.477 24.1861 162.896 23.6315 163.277 22.9297C163.659 22.2273 163.992 21.4019 164.275 20.4535C164.571 19.4928 164.793 18.4581 164.94 17.3495Z" fill="#FF28B1"/>
</svg>
