<svg width="516" height="240" viewBox="0 0 516 240" fill="none" xmlns="http://www.w3.org/2000/svg">
<path d="M243.928 173.641C243.032 176.266 242.063 178.36 241.022 179.922C239.98 181.485 238.928 182.683 237.865 183.516C236.824 184.329 235.793 184.86 234.772 185.11C233.772 185.36 232.855 185.485 232.022 185.485C230.605 185.485 229.418 185.287 228.459 184.891C227.501 184.474 226.72 183.933 226.115 183.266C225.532 182.579 225.105 181.808 224.834 180.954C224.584 180.079 224.459 179.183 224.459 178.266C224.459 177.183 224.605 175.922 224.897 174.485C225.209 173.026 225.543 171.537 225.897 170.016C226.251 168.495 226.574 167.026 226.865 165.61C227.178 164.193 227.334 162.974 227.334 161.954C227.334 159.766 226.563 158.672 225.022 158.672C224.459 158.672 223.938 158.818 223.459 159.11C222.98 159.401 222.532 159.797 222.115 160.297C221.72 160.797 221.355 161.381 221.022 162.047C220.709 162.714 220.428 163.422 220.178 164.172C219.636 167.026 219.043 170.162 218.397 173.579C217.751 176.995 217.043 180.839 216.272 185.11H207.053L215.834 144.266C214.522 144.162 213.157 144.016 211.74 143.829C210.324 143.641 208.865 143.433 207.365 143.204L198.334 185.11H189.147L198.272 142.61C196.48 142.693 194.803 142.943 193.24 143.36C191.678 143.776 190.313 144.474 189.147 145.454C188.001 146.433 187.095 147.756 186.428 149.422C185.761 151.068 185.428 153.151 185.428 155.672C185.428 156.485 185.47 157.151 185.553 157.672C185.657 158.172 185.761 158.579 185.865 158.891C185.97 159.183 186.063 159.412 186.147 159.579C186.251 159.745 186.303 159.891 186.303 160.016C185.199 160.016 184.22 159.912 183.365 159.704C182.511 159.474 181.793 159.12 181.209 158.641C180.647 158.162 180.209 157.526 179.897 156.735C179.605 155.943 179.459 154.974 179.459 153.829C179.459 151.704 179.886 149.641 180.74 147.641C181.615 145.62 182.959 143.839 184.772 142.297C186.605 140.756 188.938 139.516 191.772 138.579C194.626 137.641 198.032 137.172 201.99 137.172C202.699 137.172 203.699 137.266 204.99 137.454C206.282 137.62 207.709 137.808 209.272 138.016C210.855 138.204 212.511 138.391 214.24 138.579C215.97 138.745 217.647 138.829 219.272 138.829C220.834 138.829 222.293 138.724 223.647 138.516C225.001 138.308 226.126 137.901 227.022 137.297C226.772 137.776 226.532 138.245 226.303 138.704C226.074 139.162 225.834 139.704 225.584 140.329C225.355 140.933 225.115 141.662 224.865 142.516C224.615 143.37 224.324 144.433 223.99 145.704C223.678 146.974 223.324 148.495 222.928 150.266C222.553 152.037 222.126 154.141 221.647 156.579C222.334 155.787 223.022 155.151 223.709 154.672C224.397 154.172 225.063 153.797 225.709 153.547C226.376 153.276 227.001 153.099 227.584 153.016C228.188 152.912 228.751 152.86 229.272 152.86C230.293 152.86 231.23 152.995 232.084 153.266C232.959 153.537 233.709 153.964 234.334 154.547C234.98 155.131 235.48 155.881 235.834 156.797C236.188 157.714 236.365 158.808 236.365 160.079C236.365 160.933 236.282 161.86 236.115 162.86C235.97 163.839 235.782 164.849 235.553 165.891C235.345 166.912 235.105 167.933 234.834 168.954C234.563 169.974 234.313 170.954 234.084 171.891C233.876 172.829 233.688 173.704 233.522 174.516C233.376 175.308 233.303 176.006 233.303 176.61C233.303 177.401 233.48 178.047 233.834 178.547C234.188 179.047 234.865 179.297 235.865 179.297C236.553 179.297 237.157 179.162 237.678 178.891C238.199 178.62 238.668 178.235 239.084 177.735C239.501 177.235 239.876 176.641 240.209 175.954C240.563 175.245 240.907 174.474 241.24 173.641H243.928ZM268.022 173.641C267.126 175.141 266.095 176.599 264.928 178.016C263.782 179.433 262.48 180.693 261.022 181.797C259.584 182.901 257.98 183.797 256.209 184.485C254.459 185.151 252.532 185.485 250.428 185.485C248.907 185.485 247.532 185.297 246.303 184.922C245.074 184.526 244.022 183.922 243.147 183.11C242.272 182.297 241.605 181.256 241.147 179.985C240.668 178.693 240.428 177.141 240.428 175.329C240.428 174.099 240.553 172.683 240.803 171.079C241.053 169.474 241.449 167.829 241.99 166.141C242.532 164.454 243.251 162.797 244.147 161.172C245.043 159.547 246.126 158.099 247.397 156.829C248.668 155.537 250.157 154.506 251.865 153.735C253.574 152.943 255.522 152.547 257.709 152.547C259.147 152.547 260.313 152.724 261.209 153.079C262.126 153.412 262.845 153.86 263.365 154.422C263.907 154.985 264.272 155.641 264.459 156.391C264.668 157.12 264.772 157.881 264.772 158.672C264.772 160.526 264.365 162.256 263.553 163.86C262.74 165.443 261.647 166.829 260.272 168.016C258.918 169.204 257.355 170.162 255.584 170.891C253.813 171.62 251.97 172.047 250.053 172.172C250.011 172.651 249.97 173.11 249.928 173.547C249.907 173.964 249.897 174.36 249.897 174.735C249.897 175.818 249.99 176.714 250.178 177.422C250.386 178.11 250.678 178.651 251.053 179.047C251.449 179.443 251.928 179.724 252.49 179.891C253.074 180.037 253.751 180.11 254.522 180.11C255.793 180.11 256.938 179.943 257.959 179.61C259.001 179.276 259.97 178.818 260.865 178.235C261.761 177.651 262.605 176.964 263.397 176.172C264.209 175.381 265.022 174.537 265.834 173.641H268.022ZM250.553 169.11C251.761 169.026 252.928 168.683 254.053 168.079C255.178 167.474 256.168 166.693 257.022 165.735C257.876 164.756 258.553 163.651 259.053 162.422C259.574 161.172 259.834 159.881 259.834 158.547C259.834 157.756 259.72 157.12 259.49 156.641C259.261 156.162 258.845 155.922 258.24 155.922C257.428 155.922 256.626 156.318 255.834 157.11C255.063 157.881 254.334 158.891 253.647 160.141C252.959 161.391 252.345 162.808 251.803 164.391C251.282 165.954 250.865 167.526 250.553 169.11ZM279.209 185.11L283.897 163.016C284.022 162.516 284.084 161.985 284.084 161.422C284.084 161.047 284.053 160.693 283.99 160.36C283.928 160.026 283.813 159.735 283.647 159.485C283.501 159.214 283.303 159.006 283.053 158.86C282.824 158.693 282.522 158.61 282.147 158.61C281.522 158.61 280.938 158.766 280.397 159.079C279.876 159.391 279.397 159.818 278.959 160.36C278.543 160.901 278.168 161.537 277.834 162.266C277.501 162.995 277.209 163.766 276.959 164.579L272.615 185.11H263.397L270.178 153.11H279.397L278.709 156.422C279.397 155.651 280.084 155.037 280.772 154.579C281.459 154.099 282.136 153.735 282.803 153.485C283.47 153.214 284.115 153.037 284.74 152.954C285.365 152.849 285.959 152.797 286.522 152.797C287.355 152.797 288.136 152.901 288.865 153.11C289.595 153.297 290.24 153.61 290.803 154.047C291.365 154.485 291.845 155.058 292.24 155.766C292.636 156.454 292.918 157.297 293.084 158.297C293.855 157.11 294.647 156.162 295.459 155.454C296.272 154.724 297.063 154.172 297.834 153.797C298.605 153.422 299.345 153.172 300.053 153.047C300.761 152.922 301.407 152.86 301.99 152.86C303.011 152.86 303.949 152.995 304.803 153.266C305.678 153.537 306.428 153.964 307.053 154.547C307.699 155.131 308.199 155.881 308.553 156.797C308.907 157.714 309.084 158.808 309.084 160.079C309.084 160.933 309.001 161.86 308.834 162.86C308.688 163.839 308.501 164.849 308.272 165.891C308.063 166.912 307.824 167.933 307.553 168.954C307.282 169.974 307.032 170.954 306.803 171.891C306.595 172.829 306.407 173.704 306.24 174.516C306.095 175.308 306.022 176.006 306.022 176.61C306.022 177.401 306.199 178.047 306.553 178.547C306.928 179.047 307.605 179.297 308.584 179.297C309.605 179.297 310.313 179.162 310.709 178.891C310.563 180.058 310.272 181.058 309.834 181.891C309.397 182.704 308.855 183.381 308.209 183.922C307.584 184.464 306.876 184.86 306.084 185.11C305.313 185.36 304.501 185.485 303.647 185.485C302.418 185.485 301.386 185.287 300.553 184.891C299.74 184.474 299.084 183.933 298.584 183.266C298.084 182.579 297.73 181.808 297.522 180.954C297.313 180.079 297.209 179.183 297.209 178.266C297.209 177.183 297.355 175.922 297.647 174.485C297.959 173.026 298.293 171.537 298.647 170.016C299.001 168.495 299.324 167.026 299.615 165.61C299.928 164.193 300.084 162.974 300.084 161.954C300.084 159.766 299.313 158.672 297.772 158.672C297.188 158.672 296.647 158.829 296.147 159.141C295.647 159.454 295.188 159.881 294.772 160.422C294.355 160.943 293.98 161.568 293.647 162.297C293.313 163.006 293.022 163.766 292.772 164.579L288.428 185.11H279.209ZM330.615 185.11L339.303 144.391L348.772 143.141L344.24 164.516C345.324 164.433 346.345 164.141 347.303 163.641C348.282 163.141 349.188 162.506 350.022 161.735C350.855 160.943 351.605 160.037 352.272 159.016C352.938 157.995 353.501 156.922 353.959 155.797C354.438 154.651 354.803 153.485 355.053 152.297C355.303 151.089 355.428 149.912 355.428 148.766C355.428 147.579 355.272 146.464 354.959 145.422C354.668 144.36 354.199 143.433 353.553 142.641C352.928 141.829 352.105 141.193 351.084 140.735C350.084 140.276 348.886 140.047 347.49 140.047C344.886 140.047 342.553 140.401 340.49 141.11C338.449 141.818 336.72 142.839 335.303 144.172C333.886 145.506 332.803 147.141 332.053 149.079C331.303 150.995 330.928 153.172 330.928 155.61C330.928 156.422 330.97 157.089 331.053 157.61C331.157 158.11 331.261 158.516 331.365 158.829C331.47 159.12 331.563 159.349 331.647 159.516C331.751 159.683 331.803 159.829 331.803 159.954C330.699 159.954 329.72 159.849 328.865 159.641C328.011 159.412 327.293 159.058 326.709 158.579C326.147 158.099 325.709 157.464 325.397 156.672C325.105 155.881 324.959 154.901 324.959 153.735C324.959 152.318 325.261 150.922 325.865 149.547C326.49 148.172 327.334 146.87 328.397 145.641C329.48 144.412 330.74 143.276 332.178 142.235C333.636 141.193 335.188 140.297 336.834 139.547C338.501 138.776 340.23 138.183 342.022 137.766C343.834 137.329 345.636 137.11 347.428 137.11C350.053 137.11 352.313 137.464 354.209 138.172C356.105 138.86 357.668 139.787 358.897 140.954C360.147 142.12 361.063 143.464 361.647 144.985C362.23 146.485 362.522 148.058 362.522 149.704C362.522 151.745 362.095 153.787 361.24 155.829C360.407 157.87 359.188 159.714 357.584 161.36C356.001 162.985 354.063 164.308 351.772 165.329C349.501 166.349 346.928 166.86 344.053 166.86H343.709L339.803 185.11H330.615ZM396.272 173.641C395.376 176.266 394.407 178.36 393.365 179.922C392.345 181.485 391.303 182.683 390.24 183.516C389.199 184.329 388.168 184.86 387.147 185.11C386.147 185.36 385.22 185.485 384.365 185.485C382.949 185.485 381.761 185.287 380.803 184.891C379.845 184.474 379.074 183.933 378.49 183.266C377.907 182.579 377.48 181.808 377.209 180.954C376.959 180.079 376.834 179.183 376.834 178.266C376.834 177.183 376.98 175.922 377.272 174.485C377.584 173.026 377.918 171.537 378.272 170.016C378.626 168.495 378.949 167.026 379.24 165.61C379.553 164.193 379.709 162.974 379.709 161.954C379.709 159.766 378.938 158.672 377.397 158.672C376.813 158.672 376.272 158.829 375.772 159.141C375.272 159.454 374.813 159.881 374.397 160.422C373.98 160.943 373.605 161.568 373.272 162.297C372.938 163.006 372.647 163.766 372.397 164.579L368.053 185.11H358.834L368.115 141.579L377.584 140.297L374.147 156.422C374.834 155.651 375.511 155.037 376.178 154.579C376.865 154.099 377.532 153.735 378.178 153.485C378.824 153.235 379.428 153.068 379.99 152.985C380.574 152.901 381.115 152.86 381.615 152.86C382.636 152.86 383.584 152.995 384.459 153.266C385.334 153.537 386.084 153.964 386.709 154.547C387.355 155.131 387.855 155.881 388.209 156.797C388.563 157.714 388.74 158.808 388.74 160.079C388.74 160.933 388.657 161.86 388.49 162.86C388.345 163.839 388.157 164.849 387.928 165.891C387.699 166.912 387.449 167.933 387.178 168.954C386.928 169.974 386.688 170.954 386.459 171.891C386.23 172.829 386.032 173.704 385.865 174.516C385.72 175.308 385.647 176.006 385.647 176.61C385.647 177.401 385.824 178.047 386.178 178.547C386.553 179.047 387.23 179.297 388.209 179.297C388.897 179.297 389.501 179.162 390.022 178.891C390.543 178.62 391.011 178.235 391.428 177.735C391.845 177.235 392.22 176.641 392.553 175.954C392.907 175.245 393.251 174.474 393.584 173.641H396.272ZM429.553 160.797C428.303 162.11 426.688 163.224 424.709 164.141C422.73 165.058 420.563 165.714 418.209 166.11C417.959 169.068 417.386 171.735 416.49 174.11C415.615 176.485 414.501 178.506 413.147 180.172C411.793 181.839 410.24 183.12 408.49 184.016C406.74 184.912 404.886 185.36 402.928 185.36C401.449 185.36 400.074 185.183 398.803 184.829C397.553 184.454 396.47 183.87 395.553 183.079C394.657 182.266 393.959 181.224 393.459 179.954C392.938 178.662 392.678 177.099 392.678 175.266C392.678 174.016 392.813 172.599 393.084 171.016C393.334 169.412 393.74 167.766 394.303 166.079C394.886 164.391 395.626 162.745 396.522 161.141C397.438 159.516 398.543 158.068 399.834 156.797C401.147 155.526 402.657 154.506 404.365 153.735C406.074 152.943 408.022 152.547 410.209 152.547C415.688 152.547 418.428 155.954 418.428 162.766V162.829C418.532 162.87 418.626 162.891 418.709 162.891C418.813 162.891 418.949 162.891 419.115 162.891C419.865 162.891 420.668 162.787 421.522 162.579C422.397 162.349 423.272 162.058 424.147 161.704C425.022 161.349 425.876 160.943 426.709 160.485C427.543 160.006 428.303 159.526 428.99 159.047L429.553 160.797ZM412.897 166.297C412.23 166.131 411.772 165.808 411.522 165.329C411.293 164.829 411.178 164.256 411.178 163.61C411.178 162.714 411.355 161.985 411.709 161.422C412.084 160.839 412.574 160.412 413.178 160.141C413.136 159.454 413.063 158.881 412.959 158.422C412.855 157.943 412.709 157.558 412.522 157.266C412.334 156.954 412.095 156.735 411.803 156.61C411.532 156.485 411.178 156.422 410.74 156.422C409.97 156.422 409.23 156.724 408.522 157.329C407.813 157.912 407.136 158.693 406.49 159.672C405.865 160.651 405.282 161.776 404.74 163.047C404.22 164.297 403.772 165.589 403.397 166.922C403.022 168.256 402.73 169.579 402.522 170.891C402.313 172.183 402.209 173.36 402.209 174.422C402.209 175.485 402.261 176.349 402.365 177.016C402.49 177.683 402.678 178.214 402.928 178.61C403.199 178.985 403.543 179.245 403.959 179.391C404.376 179.537 404.886 179.61 405.49 179.61C406.261 179.61 407.032 179.266 407.803 178.579C408.595 177.891 409.324 176.954 409.99 175.766C410.657 174.579 411.24 173.172 411.74 171.547C412.261 169.922 412.647 168.172 412.897 166.297ZM441.49 173.641C440.886 175.37 440.209 176.87 439.459 178.141C438.73 179.412 437.959 180.485 437.147 181.36C436.355 182.235 435.532 182.943 434.678 183.485C433.845 184.026 433.032 184.443 432.24 184.735C431.449 185.026 430.688 185.224 429.959 185.329C429.251 185.433 428.615 185.485 428.053 185.485C427.095 185.485 426.199 185.339 425.365 185.047C424.532 184.756 423.803 184.297 423.178 183.672C422.574 183.047 422.095 182.256 421.74 181.297C421.386 180.339 421.209 179.183 421.209 177.829C421.209 177.245 421.251 176.61 421.334 175.922C421.418 175.214 421.543 174.454 421.709 173.641L425.553 155.672H423.428L423.959 153.11H426.053L427.99 144.266L437.459 142.985L435.272 153.11H439.115L438.615 155.672H434.772L430.678 174.86C430.574 175.214 430.501 175.568 430.459 175.922C430.438 176.256 430.428 176.589 430.428 176.922C430.428 177.818 430.636 178.443 431.053 178.797C431.47 179.131 432.126 179.297 433.022 179.297C433.647 179.297 434.251 179.162 434.834 178.891C435.438 178.599 435.99 178.204 436.49 177.704C436.99 177.204 437.438 176.61 437.834 175.922C438.23 175.214 438.553 174.454 438.803 173.641H441.49ZM483.365 151.141C483.49 153.912 483.605 156.318 483.709 158.36C483.834 160.381 483.949 162.141 484.053 163.641C484.157 165.12 484.251 166.381 484.334 167.422C484.418 168.464 484.49 169.391 484.553 170.204C484.636 170.995 484.688 171.724 484.709 172.391C484.751 173.037 484.772 173.714 484.772 174.422C484.772 176.526 484.428 178.287 483.74 179.704C483.074 181.099 482.199 182.235 481.115 183.11C480.032 183.964 478.824 184.579 477.49 184.954C476.157 185.308 474.834 185.485 473.522 185.485C471.605 185.485 470.063 185.224 468.897 184.704C467.751 184.183 466.855 183.516 466.209 182.704C465.563 181.891 465.136 180.985 464.928 179.985C464.72 178.964 464.615 177.964 464.615 176.985C464.615 176.047 464.751 175.204 465.022 174.454C465.293 173.683 465.647 173.037 466.084 172.516C466.522 171.995 467.011 171.599 467.553 171.329C468.115 171.037 468.678 170.891 469.24 170.891C471.449 170.891 472.553 171.787 472.553 173.579C472.553 174.37 472.261 175.058 471.678 175.641C471.095 176.204 470.365 176.485 469.49 176.485C469.136 176.485 468.803 176.433 468.49 176.329C468.178 176.224 467.938 175.995 467.772 175.641C467.772 177.141 468.074 178.318 468.678 179.172C469.282 180.006 470.209 180.422 471.459 180.422C472.168 180.422 472.772 180.329 473.272 180.141C473.793 179.933 474.22 179.599 474.553 179.141C474.886 178.683 475.126 178.079 475.272 177.329C475.438 176.558 475.522 175.61 475.522 174.485C475.522 173.901 475.501 173.339 475.459 172.797C475.418 172.256 475.365 171.672 475.303 171.047C475.24 170.401 475.157 169.683 475.053 168.891C474.97 168.099 474.876 167.162 474.772 166.079C474.668 164.974 474.553 163.693 474.428 162.235C474.324 160.776 474.209 159.058 474.084 157.079C472.522 159.495 470.845 161.422 469.053 162.86C467.261 164.297 465.355 165.318 463.334 165.922C463.126 168.922 462.584 171.631 461.709 174.047C460.855 176.443 459.751 178.485 458.397 180.172C457.043 181.839 455.49 183.12 453.74 184.016C451.99 184.912 450.136 185.36 448.178 185.36C446.699 185.36 445.324 185.183 444.053 184.829C442.803 184.454 441.72 183.87 440.803 183.079C439.907 182.266 439.209 181.224 438.709 179.954C438.188 178.662 437.928 177.099 437.928 175.266C437.928 174.016 438.053 172.599 438.303 171.016C438.553 169.412 438.949 167.766 439.49 166.079C440.053 164.391 440.772 162.745 441.647 161.141C442.543 159.516 443.626 158.068 444.897 156.797C446.188 155.526 447.688 154.506 449.397 153.735C451.105 152.943 453.063 152.547 455.272 152.547C460.668 152.547 463.397 155.891 463.459 162.579C465.105 162.474 466.793 161.547 468.522 159.797C470.272 158.047 472.063 155.579 473.897 152.391L483.365 151.141ZM457.959 166.36C456.938 165.985 456.428 165.026 456.428 163.485C456.428 161.839 457.032 160.724 458.24 160.141C458.136 158.766 457.897 157.808 457.522 157.266C457.168 156.704 456.595 156.422 455.803 156.422C455.053 156.422 454.324 156.724 453.615 157.329C452.907 157.912 452.24 158.693 451.615 159.672C450.99 160.651 450.418 161.776 449.897 163.047C449.397 164.297 448.959 165.589 448.584 166.922C448.23 168.256 447.949 169.579 447.74 170.891C447.553 172.183 447.459 173.36 447.459 174.422C447.459 175.485 447.511 176.349 447.615 177.016C447.74 177.683 447.928 178.214 448.178 178.61C448.449 178.985 448.793 179.245 449.209 179.391C449.626 179.537 450.136 179.61 450.74 179.61C451.511 179.61 452.272 179.276 453.022 178.61C453.793 177.922 454.501 176.985 455.147 175.797C455.793 174.61 456.355 173.214 456.834 171.61C457.334 169.985 457.709 168.235 457.959 166.36Z" fill="#111E3D"/>
<path d="M27.7074 47.2797L48.4861 102.303C47.4781 102.287 46.808 101.925 46.6093 101.396L25.8306 46.3724C26.0293 46.9021 26.6995 47.2634 27.7074 47.2797Z" fill="#F0A8CA"/>
<path d="M84.6917 48.2307L105.47 103.254L48.4865 102.303L27.7078 47.28L84.6917 48.2307Z" fill="#F0A4C8"/>
<path d="M268.497 4.46289L289.273 59.4861C289.298 59.5486 289.315 59.6138 289.327 59.679L268.548 4.65574C268.54 4.59055 268.52 4.52536 268.497 4.46289Z" fill="#F7D2E4"/>
<path d="M268.543 4.65948L289.321 59.6826C289.364 59.9596 289.287 60.272 289.08 60.6007L268.304 5.57757C268.511 5.24619 268.585 4.93654 268.543 4.65948Z" fill="#F8D6E6"/>
<path d="M158.305 49.4609L179.084 104.484L105.47 103.254L84.6913 48.2305L158.305 49.4609Z" fill="#F0A4C8"/>
<path d="M268.303 5.57745L289.082 60.6007L261.864 103.865L241.088 48.8393L268.303 5.57745Z" fill="#F8D8E7"/>
<path d="M236.906 50.772L257.685 105.795L179.084 104.483L158.306 49.4601L236.906 50.772Z" fill="#F0A4C8"/>
<path d="M266.612 3.55877C268.233 3.58594 268.985 4.49316 268.307 5.57694L241.088 48.8387C240.407 49.9198 238.53 50.7999 236.906 50.7727L158.306 49.4608L84.6914 48.2303L27.7075 47.2796C26.0834 47.2525 25.3394 46.3316 26.018 45.2479L53.2365 1.98334C53.918 0.899556 55.7835 0.0385006 57.4104 0.0629469L266.612 3.55877Z" fill="#F6C9DF"/>
<path d="M241.087 48.8372L261.863 103.86C261.843 103.893 261.82 103.926 261.798 103.958L241.022 48.935C241.041 48.9051 241.064 48.8698 241.087 48.8372Z" fill="#F8D6E6"/>
<path d="M241.02 48.9375L261.796 103.961C261.739 104.039 261.679 104.118 261.611 104.194L240.835 49.1711C240.9 49.0923 240.966 49.0163 241.02 48.9375Z" fill="#F7D2E4"/>
<path d="M240.835 49.1714L261.611 104.195C261.557 104.254 261.5 104.314 261.44 104.374L240.661 49.3506C240.724 49.2909 240.781 49.2311 240.835 49.1714Z" fill="#F6CEE2"/>
<path d="M240.661 49.3474L261.44 104.373C261.383 104.425 261.33 104.477 261.267 104.528L240.491 49.5049C240.551 49.4533 240.61 49.4017 240.661 49.3474Z" fill="#F6CBE0"/>
<path d="M240.494 49.5024L261.27 104.526C261.213 104.574 261.159 104.621 261.097 104.664L240.321 49.641C240.38 49.5948 240.437 49.5486 240.494 49.5024Z" fill="#F5C7DD"/>
<path d="M240.321 49.6407L261.097 104.664C261.038 104.707 260.981 104.751 260.921 104.792L240.145 49.7684C240.205 49.7276 240.265 49.6841 240.321 49.6407Z" fill="#F5C4DB"/>
<path d="M240.145 49.7677L260.921 104.791C260.861 104.834 260.799 104.872 260.739 104.913L239.961 49.8899C240.023 49.8519 240.083 49.8112 240.145 49.7677Z" fill="#F4C0D9"/>
<path d="M239.958 49.8911L260.736 104.914C260.674 104.955 260.609 104.993 260.543 105.028L239.765 50.0052C239.83 49.9699 239.895 49.9319 239.958 49.8911Z" fill="#F4BDD7"/>
<path d="M239.765 50.0074L260.543 105.03C260.475 105.069 260.404 105.107 260.336 105.145L239.558 50.1215C239.629 50.0834 239.697 50.0454 239.765 50.0074Z" fill="#F3B9D5"/>
<path d="M239.554 50.1197L260.333 105.143C260.259 105.181 260.182 105.216 260.106 105.254L239.33 50.2311C239.407 50.1957 239.481 50.1577 239.554 50.1197Z" fill="#F2B6D3"/>
<path d="M239.33 50.2283L260.106 105.252C260.023 105.29 259.938 105.325 259.853 105.36L239.074 50.3369C239.162 50.3043 239.247 50.269 239.33 50.2283Z" fill="#F2B2D1"/>
<path d="M239.078 50.3398L259.856 105.363C259.76 105.404 259.66 105.439 259.561 105.474L238.782 50.4511C238.882 50.4158 238.978 50.3778 239.078 50.3398Z" fill="#F1AFCE"/>
<path d="M238.782 50.4471L259.561 105.47C259.439 105.514 259.317 105.552 259.192 105.584L238.413 50.5612C238.538 50.5286 238.66 50.4906 238.782 50.4471Z" fill="#F1ABCC"/>
<path d="M238.413 50.5657L259.191 105.589C258.692 105.728 258.178 105.804 257.684 105.795L236.905 50.7722C237.399 50.7803 237.913 50.7043 238.413 50.5657Z" fill="#F0A8CA"/>
<path d="M2.86173 183.012L23.6375 238.035C22.6323 238.016 21.9566 237.66 21.7578 237.133L0.982056 182.11C1.18081 182.637 1.85375 182.993 2.86173 183.012Z" fill="#F0A8CA"/>
<path d="M158.306 49.461L179.084 104.484L95.569 237.23L74.7903 182.207L158.306 49.461Z" fill="#F8D8E7"/>
<path d="M70.6105 184.142L91.3892 239.165L23.641 238.035L2.8623 183.012L70.6105 184.142Z" fill="#F0A4C8"/>
<path d="M158.305 49.4609L74.7902 182.21C74.0974 183.307 72.2347 184.171 70.6077 184.144L2.86248 183.011C1.23835 182.984 0.483041 182.079 1.17585 180.979L84.6912 48.2305L158.305 49.4609Z" fill="#F6C9DF"/>
<path d="M74.7913 182.208L95.5673 237.231C95.5446 237.266 95.5218 237.299 95.5019 237.334L74.7231 182.311C74.7487 182.276 74.7686 182.243 74.7913 182.208Z" fill="#F8D6E6"/>
<path d="M74.7229 182.311L95.5015 237.335C95.4419 237.414 95.3794 237.495 95.3113 237.571L74.5355 182.548C74.6037 182.472 74.6662 182.393 74.7229 182.311Z" fill="#F7D2E4"/>
<path d="M74.5319 182.548L95.3077 237.571C95.2537 237.631 95.1969 237.693 95.1345 237.75L74.3558 182.727C74.4183 182.67 74.4779 182.61 74.5319 182.548Z" fill="#F6CEE2"/>
<path d="M74.359 182.729L95.1378 237.752C95.081 237.806 95.027 237.858 94.9646 237.909L74.1886 182.886C74.2482 182.832 74.305 182.78 74.359 182.729Z" fill="#F6CBE0"/>
<path d="M74.1893 182.884L94.9652 237.907C94.9084 237.953 94.8544 238 94.792 238.046L74.0161 183.022C74.0757 182.976 74.1354 182.93 74.1893 182.884Z" fill="#F5C7DD"/>
<path d="M74.0188 183.022L94.7947 238.045C94.738 238.089 94.6812 238.129 94.6187 238.173L73.8428 183.147C73.9024 183.106 73.9592 183.065 74.0188 183.022Z" fill="#F5C4DB"/>
<path d="M73.8428 183.148L94.6188 238.171C94.5592 238.212 94.4995 238.25 94.437 238.29L73.661 183.267C73.7206 183.229 73.7831 183.191 73.8428 183.148Z" fill="#F4C0D9"/>
<path d="M73.6606 183.27L94.4365 238.293C94.3768 238.334 94.3115 238.369 94.2462 238.407L73.4703 183.384C73.5328 183.346 73.5953 183.308 73.6606 183.27Z" fill="#F4BDD7"/>
<path d="M73.4676 183.385L94.2434 238.408C94.1781 238.446 94.1071 238.481 94.039 238.519L73.2632 183.496C73.3313 183.458 73.4023 183.423 73.4676 183.385Z" fill="#F3B9D5"/>
<path d="M73.2643 183.493L94.0402 238.516C93.9692 238.554 93.8925 238.589 93.8187 238.625L73.0428 183.601C73.1167 183.569 73.1933 183.531 73.2643 183.493Z" fill="#F2B6D3"/>
<path d="M73.0418 183.601L93.8176 238.625C93.7352 238.663 93.6501 238.695 93.5677 238.731L72.7919 183.707C72.8742 183.675 72.9594 183.639 73.0418 183.601Z" fill="#F2B2D1"/>
<path d="M72.7922 183.711L93.5681 238.734C93.4744 238.775 93.3751 238.81 93.2757 238.845L72.4969 183.822C72.5992 183.787 72.6957 183.751 72.7922 183.711Z" fill="#F1AFCE"/>
<path d="M72.5001 183.821L93.2788 238.844C93.1568 238.887 93.0346 238.923 92.9125 238.958L72.1338 183.935C72.2587 183.899 72.3808 183.861 72.5001 183.821Z" fill="#F1ABCC"/>
<path d="M72.1336 183.934L92.9123 238.957C92.4068 239.098 91.8901 239.172 91.3904 239.164L70.6117 184.141C71.1086 184.149 71.631 184.073 72.1336 183.934Z" fill="#F0A8CA"/>
<path d="M233.49 44.5824L176.776 43.4877L197.859 10.344L253.999 11.5962L233.49 44.5824Z" fill="#F0A4C8"/>
</svg>
