<svg width="150" height="125" viewBox="0 0 150 125" fill="none" xmlns="http://www.w3.org/2000/svg">
<path d="M14.5642 25.2536L25.2929 53.6639C24.7728 53.6556 24.4265 53.4688 24.3238 53.1955L13.5951 24.7852C13.6978 25.0584 14.0441 25.2452 14.5642 25.2536Z" fill="#F0A8CA"/>
<path d="M43.987 25.7449L54.7157 54.1553L25.2929 53.6643L14.5642 25.2539L43.987 25.7449Z" fill="#F0A4C8"/>
<path d="M138.891 3.14648L149.618 31.5562C149.631 31.5885 149.64 31.6221 149.646 31.6557L138.917 3.24598C138.913 3.21239 138.902 3.17879 138.891 3.14648Z" fill="#F7D2E4"/>
<path d="M138.915 3.24609L149.644 31.6558C149.666 31.7993 149.626 31.9608 149.519 32.13L138.792 3.72032C138.899 3.54911 138.937 3.38888 138.915 3.24609Z" fill="#F8D6E6"/>
<path d="M81.9968 26.3809L92.7255 54.7906L54.7157 54.1555L43.9871 25.7451L81.9968 26.3809Z" fill="#F0A4C8"/>
<path d="M138.791 3.72168L149.52 32.1326L135.466 54.4717L124.739 26.0601L138.791 3.72168Z" fill="#F8D8E7"/>
<path d="M122.579 27.056L133.308 55.4664L92.7249 54.7886L81.9962 26.3789L122.579 27.056Z" fill="#F0A4C8"/>
<path d="M137.918 2.6794C138.755 2.69362 139.143 3.16201 138.793 3.72151L124.739 26.0588C124.388 26.617 123.418 27.0712 122.58 27.0576L81.9962 26.3799L43.9871 25.7448L14.5643 25.2538C13.7257 25.2396 13.342 24.7647 13.6921 24.2046L27.7461 1.86599C28.0976 1.3065 29.0609 0.861996 29.9008 0.874272L137.918 2.6794Z" fill="#F6C9DF"/>
<path d="M124.74 26.0586L135.467 54.469C135.457 54.4858 135.445 54.5026 135.433 54.5194L124.706 26.109C124.716 26.0935 124.728 26.0754 124.74 26.0586Z" fill="#F8D6E6"/>
<path d="M124.704 26.1104L135.431 54.5207C135.402 54.5614 135.371 54.6021 135.336 54.6409L124.609 26.2312C124.643 26.1905 124.676 26.1511 124.704 26.1104Z" fill="#F7D2E4"/>
<path d="M124.608 26.2314L135.336 54.6418C135.308 54.6728 135.279 54.7032 135.248 54.7342L124.519 26.3238C124.552 26.2935 124.581 26.2625 124.608 26.2314Z" fill="#F6CEE2"/>
<path d="M124.519 26.3223L135.247 54.7339C135.218 54.7604 135.191 54.7869 135.158 54.8134L124.431 26.4037C124.462 26.3765 124.492 26.35 124.519 26.3223Z" fill="#F6CBE0"/>
<path d="M124.433 26.4014L135.16 54.8111C135.131 54.8363 135.103 54.8602 135.071 54.8828L124.343 26.4724C124.374 26.4492 124.403 26.4253 124.433 26.4014Z" fill="#F5C7DD"/>
<path d="M124.344 26.4727L135.071 54.883C135.041 54.905 135.011 54.9276 134.981 54.9489L124.253 26.5386C124.284 26.5179 124.315 26.4953 124.344 26.4727Z" fill="#F5C4DB"/>
<path d="M124.252 26.5381L134.98 54.9478C134.949 54.9704 134.916 54.9898 134.885 55.0111L124.157 26.6008C124.189 26.5814 124.22 26.5601 124.252 26.5381Z" fill="#F4C0D9"/>
<path d="M124.156 26.6025L134.884 55.0129C134.852 55.0336 134.818 55.0536 134.785 55.0717L124.056 26.662C124.09 26.6432 124.123 26.6239 124.156 26.6025Z" fill="#F4BDD7"/>
<path d="M124.056 26.6621L134.785 55.0725C134.749 55.0919 134.713 55.1119 134.678 55.1313L123.949 26.7216C123.986 26.7015 124.021 26.6821 124.056 26.6621Z" fill="#F3B9D5"/>
<path d="M123.947 26.7207L134.676 55.1311C134.638 55.1505 134.598 55.1685 134.558 55.1886L123.831 26.7782C123.871 26.7601 123.909 26.7401 123.947 26.7207Z" fill="#F2B6D3"/>
<path d="M123.832 26.7764L134.559 55.1868C134.517 55.2061 134.472 55.2242 134.428 55.2423L123.7 26.8326C123.746 26.8158 123.79 26.797 123.832 26.7764Z" fill="#F2B2D1"/>
<path d="M123.701 26.834L134.43 55.2437C134.38 55.265 134.329 55.2831 134.278 55.3012L123.549 26.8915C123.6 26.8734 123.65 26.8534 123.701 26.834Z" fill="#F1AFCE"/>
<path d="M123.549 26.8896L134.278 55.2994C134.215 55.322 134.152 55.342 134.087 55.3588L123.359 26.9484C123.423 26.9316 123.486 26.9123 123.549 26.8896Z" fill="#F1ABCC"/>
<path d="M123.358 26.9512L134.087 55.3609C133.829 55.4326 133.564 55.472 133.309 55.4675L122.58 27.0578C122.835 27.0616 123.1 27.0222 123.358 26.9512Z" fill="#F0A8CA"/>
<path d="M1.73639 95.3359L12.4638 123.746C11.945 123.736 11.5955 123.552 11.4934 123.28L0.765991 94.8701C0.868717 95.1421 1.2163 95.3262 1.73639 95.3359Z" fill="#F0A8CA"/>
<path d="M81.9966 26.3809L92.7252 54.7906L49.6038 123.332L38.8751 94.9214L81.9966 26.3809Z" fill="#F8D8E7"/>
<path d="M36.7167 95.9194L47.4454 124.33L12.4651 123.746L1.73645 95.3359L36.7167 95.9194Z" fill="#F0A4C8"/>
<path d="M81.9968 26.3809L38.8753 94.9227C38.5174 95.4893 37.556 95.935 36.7155 95.9215L1.73716 95.3362C0.898558 95.3226 0.508331 94.8555 0.866255 94.2876L43.9877 25.7451L81.9968 26.3809Z" fill="#F6C9DF"/>
<path d="M38.8753 94.9219L49.6027 123.332C49.5911 123.35 49.5795 123.367 49.5691 123.386L38.8405 94.9755C38.8534 94.9574 38.8637 94.9406 38.8753 94.9219Z" fill="#F8D6E6"/>
<path d="M38.8412 94.9746L49.5698 123.385C49.5388 123.426 49.5065 123.468 49.4716 123.507L38.7443 95.0967C38.7798 95.0573 38.8121 95.0166 38.8412 94.9746Z" fill="#F7D2E4"/>
<path d="M38.7416 95.0967L49.4689 123.508C49.4411 123.539 49.412 123.571 49.3797 123.601L38.6511 95.1891C38.6834 95.16 38.7138 95.129 38.7416 95.0967Z" fill="#F6CEE2"/>
<path d="M38.6529 95.1914L49.3816 123.601C49.3525 123.63 49.3248 123.656 49.2924 123.683L38.5651 95.2728C38.5961 95.2444 38.6251 95.2179 38.6529 95.1914Z" fill="#F6CBE0"/>
<path d="M38.5653 95.2705L49.292 123.68C49.2629 123.704 49.2351 123.728 49.2028 123.752L38.4755 95.3416C38.5065 95.3177 38.5375 95.2944 38.5653 95.2705Z" fill="#F5C7DD"/>
<path d="M38.4767 95.3398L49.2041 123.75C49.175 123.772 49.1453 123.794 49.113 123.816L38.3862 95.4045C38.4166 95.3831 38.4463 95.3625 38.4767 95.3398Z" fill="#F5C4DB"/>
<path d="M38.3862 95.4062L49.1135 123.816C49.0825 123.837 49.0522 123.857 49.0199 123.878L38.2925 95.4676C38.3235 95.4482 38.3558 95.4282 38.3862 95.4062Z" fill="#F4C0D9"/>
<path d="M38.2927 95.4697L49.0194 123.88C48.989 123.901 48.9554 123.92 48.9212 123.939L38.1945 95.5285C38.2268 95.5091 38.2584 95.4898 38.2927 95.4697Z" fill="#F4BDD7"/>
<path d="M38.1925 95.5283L48.9198 123.939C48.8856 123.958 48.8494 123.976 48.8139 123.996L38.0872 95.5858C38.122 95.5664 38.1589 95.5477 38.1925 95.5283Z" fill="#F3B9D5"/>
<path d="M38.0875 95.584L48.8149 123.994C48.7781 124.014 48.7386 124.032 48.7005 124.051L37.9731 95.6402C38.0113 95.6234 38.0507 95.604 38.0875 95.584Z" fill="#F2B6D3"/>
<path d="M37.9721 95.6396L48.6995 124.05C48.6568 124.069 48.6129 124.086 48.5702 124.104L37.8435 95.6946C37.8855 95.6778 37.9301 95.6597 37.9721 95.6396Z" fill="#F2B2D1"/>
<path d="M37.8428 95.6963L48.5702 124.107C48.5217 124.127 48.4707 124.146 48.419 124.164L37.6903 95.7538C37.7433 95.7357 37.793 95.7176 37.8428 95.6963Z" fill="#F1AFCE"/>
<path d="M37.693 95.7549L48.4216 124.165C48.3583 124.188 48.2956 124.206 48.2323 124.224L37.5037 95.8137C37.5683 95.7956 37.6316 95.7762 37.693 95.7549Z" fill="#F1ABCC"/>
<path d="M37.5037 95.8125L48.2324 124.223C47.9713 124.296 47.7045 124.333 47.4461 124.329L36.7174 95.9191C36.9745 95.9236 37.244 95.8842 37.5037 95.8125Z" fill="#F0A8CA"/>
<path d="M120.816 23.8604L91.533 23.2958L102.419 6.18262L131.406 6.82869L120.816 23.8604Z" fill="#F0A4C8"/>
</svg>
