<svg width="320" height="264" viewBox="0 0 320 264" fill="none" xmlns="http://www.w3.org/2000/svg">
<path opacity="0.8" d="M319 84.6874C319 129.382 274.115 165.954 218.28 165.954C162.445 165.954 117.559 129.382 117.559 84.6874C117.559 39.9927 162.445 3.42041 218.28 3.42041C274.115 3.42041 319 39.9927 319 84.6874Z" stroke="#E5E8F0" stroke-width="2"/>
<path opacity="0.8" d="M202.441 83.0085C202.441 127.703 157.556 164.275 101.721 164.275C45.8855 164.275 1.00012 127.703 1.00012 83.0085C1.00012 38.3137 45.8855 1.74146 101.721 1.74146C157.556 1.74146 202.441 38.3137 202.441 83.0085Z" stroke="#E5E8F0" stroke-width="2"/>
<path opacity="0.8" d="M263.718 180.922C263.718 225.616 218.832 262.189 162.997 262.189C107.162 262.189 62.2767 225.616 62.2767 180.922C62.2767 136.227 107.162 99.6545 162.997 99.6545C218.832 99.6545 263.718 136.227 263.718 180.922Z" stroke="#E5E8F0" stroke-width="2"/>
<path opacity="0.7" d="M203.476 87.1163C203.476 45.6855 175.739 22.9268 161.674 16.6145C146.544 21.029 116.9 49.16 116.9 80.8944C116.9 122.325 144.637 145.084 158.702 151.396C173.832 146.982 203.476 118.851 203.476 87.1163Z" fill="#FF28B1"/>
<path d="M100.729 183.375C101.761 183.375 102.613 183.632 103.285 184.144C103.957 184.648 104.422 185.34 104.678 186.22H103.525C103.309 185.66 102.961 185.216 102.481 184.888C102.001 184.552 101.413 184.384 100.717 184.384C100.164 184.384 99.6683 184.52 99.2282 184.792C98.7961 185.056 98.452 185.44 98.1959 185.944C97.9479 186.44 97.8239 187.024 97.8239 187.697C97.8239 188.361 97.9479 188.941 98.1959 189.437C98.452 189.933 98.7961 190.317 99.2282 190.589C99.6683 190.853 100.164 190.985 100.717 190.985C101.413 190.985 102.001 190.821 102.481 190.493C102.961 190.157 103.309 189.709 103.525 189.149H104.678C104.422 190.029 103.957 190.725 103.285 191.237C102.613 191.742 101.761 191.994 100.729 191.994C99.9364 191.994 99.2362 191.814 98.6281 191.454C98.0199 191.085 97.5438 190.577 97.1997 189.929C96.8636 189.273 96.6956 188.529 96.6956 187.697C96.6956 186.856 96.8636 186.108 97.1997 185.452C97.5438 184.796 98.0199 184.288 98.6281 183.928C99.2362 183.56 99.9364 183.375 100.729 183.375ZM107.231 186.664C107.447 186.208 107.763 185.856 108.179 185.608C108.595 185.352 109.091 185.224 109.667 185.224V186.412H109.331C108.715 186.412 108.211 186.572 107.819 186.892C107.427 187.204 107.231 187.725 107.231 188.453V191.922H106.138V185.332H107.231V186.664ZM116.806 188.261C116.806 188.493 116.79 188.693 116.758 188.861H111.489C111.513 189.613 111.725 190.177 112.125 190.553C112.533 190.929 113.029 191.117 113.614 191.117C114.142 191.117 114.582 190.985 114.934 190.721C115.294 190.449 115.514 190.089 115.594 189.641H116.758C116.678 190.097 116.498 190.505 116.218 190.865C115.946 191.225 115.59 191.506 115.15 191.706C114.71 191.906 114.214 192.006 113.662 192.006C113.029 192.006 112.469 191.87 111.981 191.598C111.493 191.325 111.109 190.937 110.829 190.433C110.557 189.921 110.421 189.321 110.421 188.633C110.421 187.945 110.557 187.344 110.829 186.832C111.109 186.32 111.493 185.928 111.981 185.656C112.469 185.384 113.029 185.248 113.662 185.248C114.302 185.248 114.858 185.384 115.33 185.656C115.81 185.928 116.174 186.292 116.422 186.748C116.678 187.204 116.806 187.709 116.806 188.261ZM115.702 188.333C115.726 187.845 115.646 187.437 115.462 187.108C115.278 186.78 115.026 186.536 114.706 186.376C114.386 186.216 114.038 186.136 113.662 186.136C113.061 186.136 112.557 186.324 112.149 186.7C111.741 187.068 111.521 187.613 111.489 188.333H115.702ZM120.936 185.248C121.576 185.248 122.116 185.408 122.556 185.728C123.004 186.048 123.316 186.476 123.492 187.012V185.332H124.585V191.922H123.492V190.241C123.316 190.777 123.004 191.205 122.556 191.526C122.116 191.846 121.576 192.006 120.936 192.006C120.352 192.006 119.831 191.87 119.375 191.598C118.919 191.325 118.559 190.937 118.295 190.433C118.039 189.921 117.911 189.321 117.911 188.633C117.911 187.945 118.039 187.344 118.295 186.832C118.559 186.32 118.919 185.928 119.375 185.656C119.831 185.384 120.352 185.248 120.936 185.248ZM121.248 186.22C120.576 186.22 120.035 186.436 119.627 186.868C119.227 187.292 119.027 187.881 119.027 188.633C119.027 189.385 119.227 189.977 119.627 190.409C120.035 190.833 120.576 191.045 121.248 191.045C121.68 191.045 122.064 190.945 122.4 190.745C122.744 190.545 123.012 190.265 123.204 189.905C123.396 189.537 123.492 189.113 123.492 188.633C123.492 188.153 123.396 187.729 123.204 187.36C123.012 186.992 122.744 186.712 122.4 186.52C122.064 186.32 121.68 186.22 121.248 186.22ZM129.468 190.961V191.922H128.652C127.979 191.922 127.475 191.762 127.139 191.442C126.811 191.121 126.647 190.585 126.647 189.833V186.28H125.663V185.332H126.647V183.688H127.751V185.332H129.456V186.28H127.751V189.857C127.751 190.281 127.827 190.573 127.979 190.733C128.139 190.885 128.412 190.961 128.796 190.961H129.468ZM130.609 183.399C130.609 183.199 130.677 183.039 130.813 182.919C130.949 182.791 131.129 182.727 131.353 182.727C131.577 182.727 131.757 182.791 131.893 182.919C132.029 183.039 132.097 183.199 132.097 183.399C132.097 183.6 132.029 183.764 131.893 183.892C131.757 184.012 131.577 184.072 131.353 184.072C131.129 184.072 130.949 184.012 130.813 183.892C130.677 183.764 130.609 183.6 130.609 183.399ZM131.893 185.332V191.922H130.801V185.332H131.893ZM136.206 190.757L138.246 185.332H139.423L136.842 191.922H135.546L132.965 185.332H134.141L136.206 190.757ZM146.556 188.261C146.556 188.493 146.54 188.693 146.508 188.861H141.239C141.263 189.613 141.475 190.177 141.875 190.553C142.283 190.929 142.779 191.117 143.363 191.117C143.891 191.117 144.331 190.985 144.684 190.721C145.044 190.449 145.264 190.089 145.344 189.641H146.508C146.428 190.097 146.248 190.505 145.968 190.865C145.696 191.225 145.34 191.506 144.9 191.706C144.46 191.906 143.963 192.006 143.411 192.006C142.779 192.006 142.219 191.87 141.731 191.598C141.243 191.325 140.859 190.937 140.579 190.433C140.306 189.921 140.17 189.321 140.17 188.633C140.17 187.945 140.306 187.344 140.579 186.832C140.859 186.32 141.243 185.928 141.731 185.656C142.219 185.384 142.779 185.248 143.411 185.248C144.051 185.248 144.608 185.384 145.08 185.656C145.56 185.928 145.924 186.292 146.172 186.748C146.428 187.204 146.556 187.709 146.556 188.261ZM145.452 188.333C145.476 187.845 145.396 187.437 145.212 187.108C145.028 186.78 144.776 186.536 144.456 186.376C144.135 186.216 143.787 186.136 143.411 186.136C142.811 186.136 142.307 186.324 141.899 186.7C141.491 187.068 141.271 187.613 141.239 188.333H145.452ZM154.587 185.248C155.171 185.248 155.691 185.384 156.148 185.656C156.604 185.928 156.96 186.32 157.216 186.832C157.48 187.344 157.612 187.945 157.612 188.633C157.612 189.321 157.48 189.921 157.216 190.433C156.96 190.937 156.604 191.325 156.148 191.598C155.691 191.87 155.171 192.006 154.587 192.006C153.947 192.006 153.403 191.846 152.955 191.526C152.515 191.197 152.211 190.769 152.043 190.241V195.042H150.95V185.332H152.043V187.012C152.211 186.484 152.515 186.06 152.955 185.74C153.403 185.412 153.947 185.248 154.587 185.248ZM154.275 186.22C153.851 186.22 153.467 186.32 153.123 186.52C152.779 186.712 152.511 186.992 152.319 187.36C152.127 187.729 152.031 188.153 152.031 188.633C152.031 189.113 152.127 189.537 152.319 189.905C152.511 190.265 152.779 190.545 153.123 190.745C153.467 190.945 153.851 191.045 154.275 191.045C154.955 191.045 155.495 190.833 155.895 190.409C156.304 189.977 156.508 189.385 156.508 188.633C156.508 187.881 156.304 187.292 155.895 186.868C155.495 186.436 154.955 186.22 154.275 186.22ZM160.13 186.664C160.347 186.208 160.663 185.856 161.079 185.608C161.495 185.352 161.991 185.224 162.567 185.224V186.412H162.231C161.615 186.412 161.111 186.572 160.719 186.892C160.327 187.204 160.13 187.725 160.13 188.453V191.922H159.038V185.332H160.13V186.664ZM166.634 185.248C167.266 185.248 167.83 185.384 168.326 185.656C168.83 185.928 169.222 186.32 169.502 186.832C169.79 187.344 169.934 187.945 169.934 188.633C169.934 189.321 169.79 189.921 169.502 190.433C169.222 190.937 168.83 191.325 168.326 191.598C167.83 191.87 167.266 192.006 166.634 192.006C166.001 192.006 165.433 191.87 164.929 191.598C164.433 191.325 164.041 190.937 163.753 190.433C163.465 189.921 163.321 189.321 163.321 188.633C163.321 187.945 163.465 187.344 163.753 186.832C164.041 186.32 164.433 185.928 164.929 185.656C165.433 185.384 166.001 185.248 166.634 185.248ZM166.634 186.208C166.241 186.208 165.877 186.296 165.541 186.472C165.213 186.648 164.945 186.92 164.737 187.288C164.537 187.649 164.437 188.097 164.437 188.633C164.437 189.161 164.537 189.609 164.737 189.977C164.945 190.337 165.213 190.605 165.541 190.781C165.877 190.957 166.241 191.045 166.634 191.045C167.026 191.045 167.386 190.957 167.714 190.781C168.05 190.605 168.318 190.337 168.518 189.977C168.726 189.609 168.83 189.161 168.83 188.633C168.83 188.097 168.726 187.649 168.518 187.288C168.318 186.92 168.05 186.648 167.714 186.472C167.386 186.296 167.026 186.208 166.634 186.208ZM174.274 183.772C173.69 183.764 173.282 183.864 173.05 184.072C172.826 184.28 172.714 184.64 172.714 185.152V185.332H174.274V186.292H172.714V191.922H171.622V186.292H170.674V185.332H171.622V185.068C171.622 183.492 172.506 182.739 174.274 182.811V183.772ZM181.522 188.261C181.522 188.493 181.506 188.693 181.474 188.861H176.204C176.228 189.613 176.441 190.177 176.841 190.553C177.249 190.929 177.745 191.117 178.329 191.117C178.857 191.117 179.297 190.985 179.649 190.721C180.009 190.449 180.229 190.089 180.31 189.641H181.474C181.394 190.097 181.214 190.505 180.934 190.865C180.662 191.225 180.306 191.506 179.865 191.706C179.425 191.906 178.929 192.006 178.377 192.006C177.745 192.006 177.185 191.87 176.697 191.598C176.208 191.325 175.824 190.937 175.544 190.433C175.272 189.921 175.136 189.321 175.136 188.633C175.136 187.945 175.272 187.344 175.544 186.832C175.824 186.32 176.208 185.928 176.697 185.656C177.185 185.384 177.745 185.248 178.377 185.248C179.017 185.248 179.573 185.384 180.045 185.656C180.526 185.928 180.89 186.292 181.138 186.748C181.394 187.204 181.522 187.709 181.522 188.261ZM180.418 188.333C180.442 187.845 180.362 187.437 180.177 187.108C179.993 186.78 179.741 186.536 179.421 186.376C179.101 186.216 178.753 186.136 178.377 186.136C177.777 186.136 177.273 186.324 176.865 186.7C176.457 187.068 176.236 187.613 176.204 188.333H180.418ZM185.015 185.248C185.759 185.248 186.355 185.444 186.803 185.836C187.26 186.22 187.536 186.74 187.632 187.396H186.587C186.539 187.004 186.375 186.684 186.095 186.436C185.823 186.18 185.455 186.052 184.991 186.052C184.599 186.052 184.291 186.148 184.067 186.34C183.851 186.524 183.743 186.776 183.743 187.096C183.743 187.336 183.815 187.533 183.959 187.685C184.111 187.829 184.295 187.941 184.511 188.021C184.735 188.093 185.039 188.173 185.423 188.261C185.911 188.373 186.303 188.489 186.599 188.609C186.903 188.721 187.16 188.905 187.368 189.161C187.584 189.417 187.692 189.761 187.692 190.193C187.692 190.729 187.488 191.165 187.079 191.502C186.679 191.838 186.143 192.006 185.471 192.006C184.687 192.006 184.047 191.818 183.551 191.442C183.054 191.065 182.762 190.541 182.674 189.869H183.731C183.771 190.269 183.943 190.593 184.247 190.841C184.559 191.089 184.967 191.213 185.471 191.213C185.847 191.213 186.139 191.117 186.347 190.925C186.563 190.733 186.671 190.481 186.671 190.169C186.671 189.913 186.595 189.709 186.443 189.557C186.291 189.405 186.103 189.289 185.879 189.209C185.655 189.129 185.347 189.045 184.955 188.957C184.467 188.845 184.075 188.733 183.779 188.621C183.491 188.509 183.243 188.333 183.034 188.093C182.834 187.845 182.734 187.513 182.734 187.096C182.734 186.544 182.938 186.1 183.347 185.764C183.755 185.42 184.311 185.248 185.015 185.248ZM191.216 185.248C191.96 185.248 192.556 185.444 193.004 185.836C193.46 186.22 193.736 186.74 193.832 187.396H192.788C192.74 187.004 192.576 186.684 192.296 186.436C192.024 186.18 191.656 186.052 191.192 186.052C190.8 186.052 190.492 186.148 190.267 186.34C190.051 186.524 189.943 186.776 189.943 187.096C189.943 187.336 190.015 187.533 190.159 187.685C190.312 187.829 190.496 187.941 190.712 188.021C190.936 188.093 191.24 188.173 191.624 188.261C192.112 188.373 192.504 188.489 192.8 188.609C193.104 188.721 193.36 188.905 193.568 189.161C193.784 189.417 193.892 189.761 193.892 190.193C193.892 190.729 193.688 191.165 193.28 191.502C192.88 191.838 192.344 192.006 191.672 192.006C190.888 192.006 190.247 191.818 189.751 191.442C189.255 191.065 188.963 190.541 188.875 189.869H189.931C189.971 190.269 190.143 190.593 190.448 190.841C190.76 191.089 191.168 191.213 191.672 191.213C192.048 191.213 192.34 191.117 192.548 190.925C192.764 190.733 192.872 190.481 192.872 190.169C192.872 189.913 192.796 189.709 192.644 189.557C192.492 189.405 192.304 189.289 192.08 189.209C191.856 189.129 191.548 189.045 191.156 188.957C190.668 188.845 190.276 188.733 189.979 188.621C189.691 188.509 189.443 188.333 189.235 188.093C189.035 187.845 188.935 187.513 188.935 187.096C188.935 186.544 189.139 186.1 189.547 185.764C189.955 185.42 190.512 185.248 191.216 185.248ZM195.16 183.399C195.16 183.199 195.228 183.039 195.364 182.919C195.5 182.791 195.68 182.727 195.904 182.727C196.128 182.727 196.308 182.791 196.444 182.919C196.58 183.039 196.648 183.199 196.648 183.399C196.648 183.6 196.58 183.764 196.444 183.892C196.308 184.012 196.128 184.072 195.904 184.072C195.68 184.072 195.5 184.012 195.364 183.892C195.228 183.764 195.16 183.6 195.16 183.399ZM196.444 185.332V191.922H195.352V185.332H196.444ZM201.189 185.248C201.821 185.248 202.385 185.384 202.882 185.656C203.386 185.928 203.778 186.32 204.058 186.832C204.346 187.344 204.49 187.945 204.49 188.633C204.49 189.321 204.346 189.921 204.058 190.433C203.778 190.937 203.386 191.325 202.882 191.598C202.385 191.87 201.821 192.006 201.189 192.006C200.557 192.006 199.989 191.87 199.485 191.598C198.989 191.325 198.596 190.937 198.308 190.433C198.02 189.921 197.876 189.321 197.876 188.633C197.876 187.945 198.02 187.344 198.308 186.832C198.596 186.32 198.989 185.928 199.485 185.656C199.989 185.384 200.557 185.248 201.189 185.248ZM201.189 186.208C200.797 186.208 200.433 186.296 200.097 186.472C199.769 186.648 199.501 186.92 199.293 187.288C199.093 187.649 198.993 188.097 198.993 188.633C198.993 189.161 199.093 189.609 199.293 189.977C199.501 190.337 199.769 190.605 200.097 190.781C200.433 190.957 200.797 191.045 201.189 191.045C201.581 191.045 201.941 190.957 202.269 190.781C202.605 190.605 202.874 190.337 203.074 189.977C203.282 189.609 203.386 189.161 203.386 188.633C203.386 188.097 203.282 187.649 203.074 187.288C202.874 186.92 202.605 186.648 202.269 186.472C201.941 186.296 201.581 186.208 201.189 186.208ZM209.382 185.224C210.15 185.224 210.77 185.472 211.243 185.968C211.715 186.456 211.951 187.164 211.951 188.093V191.922H210.858V188.189C210.858 187.533 210.69 187.028 210.354 186.676C210.018 186.324 209.562 186.148 208.986 186.148C208.386 186.148 207.906 186.344 207.546 186.736C207.186 187.12 207.005 187.685 207.005 188.429V191.922H205.913V185.332H207.005V186.892C207.174 186.356 207.47 185.944 207.894 185.656C208.326 185.368 208.822 185.224 209.382 185.224ZM216.327 185.248C216.967 185.248 217.507 185.408 217.947 185.728C218.395 186.048 218.707 186.476 218.883 187.012V185.332H219.976V191.922H218.883V190.241C218.707 190.777 218.395 191.205 217.947 191.526C217.507 191.846 216.967 192.006 216.327 192.006C215.743 192.006 215.222 191.87 214.766 191.598C214.31 191.325 213.95 190.937 213.686 190.433C213.43 189.921 213.302 189.321 213.302 188.633C213.302 187.945 213.43 187.344 213.686 186.832C213.95 186.32 214.31 185.928 214.766 185.656C215.222 185.384 215.743 185.248 216.327 185.248ZM216.639 186.22C215.967 186.22 215.427 186.436 215.018 186.868C214.618 187.292 214.418 187.881 214.418 188.633C214.418 189.385 214.618 189.977 215.018 190.409C215.427 190.833 215.967 191.045 216.639 191.045C217.071 191.045 217.455 190.945 217.791 190.745C218.135 190.545 218.403 190.265 218.595 189.905C218.787 189.537 218.883 189.113 218.883 188.633C218.883 188.153 218.787 187.729 218.595 187.36C218.403 186.992 218.135 186.712 217.791 186.52C217.455 186.32 217.071 186.22 216.639 186.22ZM222.806 183.039V191.922H221.714V183.039H222.806ZM226.627 185.248C227.371 185.248 227.967 185.444 228.415 185.836C228.871 186.22 229.148 186.74 229.244 187.396H228.199C228.151 187.004 227.987 186.684 227.707 186.436C227.435 186.18 227.067 186.052 226.603 186.052C226.211 186.052 225.903 186.148 225.679 186.34C225.463 186.524 225.355 186.776 225.355 187.096C225.355 187.336 225.427 187.533 225.571 187.685C225.723 187.829 225.907 187.941 226.123 188.021C226.347 188.093 226.651 188.173 227.035 188.261C227.523 188.373 227.915 188.489 228.211 188.609C228.515 188.721 228.771 188.905 228.98 189.161C229.196 189.417 229.304 189.761 229.304 190.193C229.304 190.729 229.1 191.165 228.691 191.502C228.291 191.838 227.755 192.006 227.083 192.006C226.299 192.006 225.659 191.818 225.163 191.442C224.666 191.065 224.374 190.541 224.286 189.869H225.343C225.383 190.269 225.555 190.593 225.859 190.841C226.171 191.089 226.579 191.213 227.083 191.213C227.459 191.213 227.751 191.117 227.959 190.925C228.175 190.733 228.283 190.481 228.283 190.169C228.283 189.913 228.207 189.709 228.055 189.557C227.903 189.405 227.715 189.289 227.491 189.209C227.267 189.129 226.959 189.045 226.567 188.957C226.079 188.845 225.687 188.733 225.391 188.621C225.103 188.509 224.854 188.333 224.646 188.093C224.446 187.845 224.346 187.513 224.346 187.096C224.346 186.544 224.55 186.1 224.959 185.764C225.367 185.42 225.923 185.248 226.627 185.248Z" fill="#E5E8F0"/>
<path d="M214.481 56.9639C215.513 56.9639 216.365 57.2199 217.038 57.7321C217.71 58.2362 218.174 58.9284 218.43 59.8086H217.278C217.062 59.2484 216.713 58.8043 216.233 58.4763C215.753 58.1402 215.165 57.9721 214.469 57.9721C213.917 57.9721 213.421 58.1082 212.981 58.3802C212.548 58.6443 212.204 59.0284 211.948 59.5325C211.7 60.0286 211.576 60.6128 211.576 61.285C211.576 61.9491 211.7 62.5293 211.948 63.0254C212.204 63.5215 212.548 63.9056 212.981 64.1777C213.421 64.4417 213.917 64.5738 214.469 64.5738C215.165 64.5738 215.753 64.4097 216.233 64.0817C216.713 63.7456 217.062 63.2975 217.278 62.7373H218.43C218.174 63.6175 217.71 64.3137 217.038 64.8258C216.365 65.33 215.513 65.582 214.481 65.582C213.689 65.582 212.989 65.402 212.38 65.0419C211.772 64.6738 211.296 64.1657 210.952 63.5175C210.616 62.8613 210.448 62.1172 210.448 61.285C210.448 60.4447 210.616 59.6966 210.952 59.0404C211.296 58.3842 211.772 57.8761 212.38 57.516C212.989 57.1479 213.689 56.9639 214.481 56.9639ZM222.591 58.8363C223.231 58.8363 223.772 58.9964 224.212 59.3165C224.66 59.6365 224.972 60.0646 225.148 60.6008V58.9204H226.24V65.51H225.148V63.8296C224.972 64.3657 224.66 64.7938 224.212 65.1139C223.772 65.434 223.231 65.594 222.591 65.594C222.007 65.594 221.487 65.458 221.031 65.1859C220.575 64.9139 220.215 64.5258 219.951 64.0216C219.695 63.5095 219.567 62.9094 219.567 62.2212C219.567 61.533 219.695 60.9329 219.951 60.4207C220.215 59.9086 220.575 59.5165 221.031 59.2444C221.487 58.9724 222.007 58.8363 222.591 58.8363ZM222.903 59.8086C222.231 59.8086 221.691 60.0246 221.283 60.4567C220.883 60.8809 220.683 61.469 220.683 62.2212C220.683 62.9734 220.883 63.5655 221.283 63.9976C221.691 64.4217 222.231 64.6338 222.903 64.6338C223.335 64.6338 223.72 64.5338 224.056 64.3337C224.4 64.1337 224.668 63.8536 224.86 63.4935C225.052 63.1254 225.148 62.7013 225.148 62.2212C225.148 61.7411 225.052 61.317 224.86 60.9489C224.668 60.5808 224.4 60.3007 224.056 60.1087C223.72 59.9086 223.335 59.8086 222.903 59.8086ZM236.081 58.8123C236.849 58.8123 237.465 59.0604 237.929 59.5565C238.401 60.0446 238.637 60.7528 238.637 61.6811V65.51H237.545V61.7771C237.545 61.1289 237.385 60.6328 237.065 60.2887C236.753 59.9446 236.321 59.7726 235.769 59.7726C235.192 59.7726 234.728 59.9646 234.376 60.3487C234.032 60.7248 233.86 61.281 233.86 62.0171V65.51H232.768V61.7771C232.768 61.1289 232.608 60.6328 232.288 60.2887C231.968 59.9446 231.535 59.7726 230.991 59.7726C230.407 59.7726 229.939 59.9646 229.587 60.3487C229.243 60.7248 229.071 61.281 229.071 62.0171V65.51H227.979V58.9204H229.071V60.4207C229.231 59.9006 229.515 59.5045 229.923 59.2324C230.339 58.9524 230.815 58.8123 231.351 58.8123C231.912 58.8123 232.396 58.9564 232.804 59.2444C233.22 59.5245 233.516 59.9406 233.692 60.4928C233.876 59.9566 234.184 59.5445 234.616 59.2564C235.048 58.9604 235.536 58.8123 236.081 58.8123ZM246.395 61.8491C246.395 62.0812 246.379 62.2812 246.347 62.4492H241.077C241.101 63.2014 241.313 63.7656 241.714 64.1417C242.122 64.5178 242.618 64.7058 243.202 64.7058C243.73 64.7058 244.17 64.5738 244.522 64.3097C244.882 64.0376 245.102 63.6776 245.182 63.2294H246.347C246.267 63.6856 246.087 64.0937 245.807 64.4537C245.535 64.8138 245.178 65.0939 244.738 65.294C244.298 65.494 243.802 65.594 243.25 65.594C242.618 65.594 242.058 65.458 241.57 65.1859C241.081 64.9139 240.697 64.5258 240.417 64.0216C240.145 63.5095 240.009 62.9094 240.009 62.2212C240.009 61.533 240.145 60.9329 240.417 60.4207C240.697 59.9086 241.081 59.5165 241.57 59.2444C242.058 58.9724 242.618 58.8363 243.25 58.8363C243.89 58.8363 244.446 58.9724 244.918 59.2444C245.398 59.5165 245.763 59.8806 246.011 60.3367C246.267 60.7928 246.395 61.297 246.395 61.8491ZM245.29 61.9211C245.314 61.433 245.234 61.0249 245.05 60.6968C244.866 60.3687 244.614 60.1247 244.294 59.9646C243.974 59.8046 243.626 59.7246 243.25 59.7246C242.65 59.7246 242.146 59.9126 241.738 60.2887C241.329 60.6568 241.109 61.2009 241.077 61.9211H245.29ZM248.916 60.2527C249.132 59.7966 249.448 59.4445 249.864 59.1964C250.28 58.9404 250.776 58.8123 251.352 58.8123V60.0006H251.016C250.4 60.0006 249.896 60.1607 249.504 60.4808C249.112 60.7928 248.916 61.313 248.916 62.0411V65.51H247.823V58.9204H248.916V60.2527ZM255.131 58.8363C255.771 58.8363 256.311 58.9964 256.751 59.3165C257.199 59.6365 257.511 60.0646 257.687 60.6008V58.9204H258.78V65.51H257.687V63.8296C257.511 64.3657 257.199 64.7938 256.751 65.1139C256.311 65.434 255.771 65.594 255.131 65.594C254.547 65.594 254.026 65.458 253.57 65.1859C253.114 64.9139 252.754 64.5258 252.49 64.0216C252.234 63.5095 252.106 62.9094 252.106 62.2212C252.106 61.533 252.234 60.9329 252.49 60.4207C252.754 59.9086 253.114 59.5165 253.57 59.2444C254.026 58.9724 254.547 58.8363 255.131 58.8363ZM255.443 59.8086C254.771 59.8086 254.23 60.0246 253.822 60.4567C253.422 60.8809 253.222 61.469 253.222 62.2212C253.222 62.9734 253.422 63.5655 253.822 63.9976C254.23 64.4217 254.771 64.6338 255.443 64.6338C255.875 64.6338 256.259 64.5338 256.595 64.3337C256.939 64.1337 257.207 63.8536 257.399 63.4935C257.591 63.1254 257.687 62.7013 257.687 62.2212C257.687 61.7411 257.591 61.317 257.399 60.9489C257.207 60.5808 256.939 60.3007 256.595 60.1087C256.259 59.9086 255.875 59.8086 255.443 59.8086ZM267.12 58.8363C267.705 58.8363 268.225 58.9724 268.681 59.2444C269.137 59.5165 269.493 59.9086 269.749 60.4207C270.013 60.9329 270.145 61.533 270.145 62.2212C270.145 62.9094 270.013 63.5095 269.749 64.0216C269.493 64.5258 269.137 64.9139 268.681 65.1859C268.225 65.458 267.705 65.594 267.12 65.594C266.48 65.594 265.936 65.434 265.488 65.1139C265.048 64.7858 264.744 64.3577 264.576 63.8296V68.6308H263.484V58.9204H264.576V60.6008C264.744 60.0726 265.048 59.6485 265.488 59.3285C265.936 59.0004 266.48 58.8363 267.12 58.8363ZM266.808 59.8086C266.384 59.8086 266 59.9086 265.656 60.1087C265.312 60.3007 265.044 60.5808 264.852 60.9489C264.66 61.317 264.564 61.7411 264.564 62.2212C264.564 62.7013 264.66 63.1254 264.852 63.4935C265.044 63.8536 265.312 64.1337 265.656 64.3337C266 64.5338 266.384 64.6338 266.808 64.6338C267.489 64.6338 268.029 64.4217 268.429 63.9976C268.837 63.5655 269.041 62.9734 269.041 62.2212C269.041 61.469 268.837 60.8809 268.429 60.4567C268.029 60.0246 267.489 59.8086 266.808 59.8086ZM275.04 58.8123C275.809 58.8123 276.429 59.0604 276.901 59.5565C277.373 60.0446 277.609 60.7528 277.609 61.6811V65.51H276.517V61.7771C276.517 61.1209 276.349 60.6168 276.013 60.2647C275.677 59.9126 275.22 59.7366 274.644 59.7366C274.044 59.7366 273.564 59.9326 273.204 60.3247C272.844 60.7088 272.664 61.273 272.664 62.0171V65.51H271.572V56.6278H272.664V60.4808C272.832 59.9446 273.128 59.5325 273.552 59.2444C273.984 58.9564 274.48 58.8123 275.04 58.8123ZM282.273 58.8363C282.905 58.8363 283.469 58.9724 283.966 59.2444C284.47 59.5165 284.862 59.9086 285.142 60.4207C285.43 60.9329 285.574 61.533 285.574 62.2212C285.574 62.9094 285.43 63.5095 285.142 64.0216C284.862 64.5258 284.47 64.9139 283.966 65.1859C283.469 65.458 282.905 65.594 282.273 65.594C281.641 65.594 281.073 65.458 280.569 65.1859C280.073 64.9139 279.68 64.5258 279.392 64.0216C279.104 63.5095 278.96 62.9094 278.96 62.2212C278.96 61.533 279.104 60.9329 279.392 60.4207C279.68 59.9086 280.073 59.5165 280.569 59.2444C281.073 58.9724 281.641 58.8363 282.273 58.8363ZM282.273 59.7966C281.881 59.7966 281.517 59.8846 281.181 60.0606C280.853 60.2367 280.585 60.5088 280.377 60.8769C280.177 61.2369 280.077 61.6851 280.077 62.2212C280.077 62.7493 280.177 63.1974 280.377 63.5655C280.585 63.9256 280.853 64.1937 281.181 64.3697C281.517 64.5458 281.881 64.6338 282.273 64.6338C282.665 64.6338 283.025 64.5458 283.353 64.3697C283.689 64.1937 283.958 63.9256 284.158 63.5655C284.366 63.1974 284.47 62.7493 284.47 62.2212C284.47 61.6851 284.366 61.2369 284.158 60.8769C283.958 60.5088 283.689 60.2367 283.353 60.0606C283.025 59.8846 282.665 59.7966 282.273 59.7966ZM290.142 64.5498V65.51H289.326C288.654 65.51 288.15 65.35 287.813 65.0299C287.485 64.7098 287.321 64.1737 287.321 63.4215V59.8686H286.337V58.9204H287.321V57.276H288.426V58.9204H290.13V59.8686H288.426V63.4455C288.426 63.8696 288.502 64.1617 288.654 64.3217C288.814 64.4738 289.086 64.5498 289.47 64.5498H290.142ZM294.464 58.8363C295.096 58.8363 295.66 58.9724 296.156 59.2444C296.66 59.5165 297.052 59.9086 297.332 60.4207C297.62 60.9329 297.764 61.533 297.764 62.2212C297.764 62.9094 297.62 63.5095 297.332 64.0216C297.052 64.5258 296.66 64.9139 296.156 65.1859C295.66 65.458 295.096 65.594 294.464 65.594C293.832 65.594 293.263 65.458 292.759 65.1859C292.263 64.9139 291.871 64.5258 291.583 64.0216C291.295 63.5095 291.151 62.9094 291.151 62.2212C291.151 61.533 291.295 60.9329 291.583 60.4207C291.871 59.9086 292.263 59.5165 292.759 59.2444C293.263 58.9724 293.832 58.8363 294.464 58.8363ZM294.464 59.7966C294.072 59.7966 293.707 59.8846 293.371 60.0606C293.043 60.2367 292.775 60.5088 292.567 60.8769C292.367 61.2369 292.267 61.6851 292.267 62.2212C292.267 62.7493 292.367 63.1974 292.567 63.5655C292.775 63.9256 293.043 64.1937 293.371 64.3697C293.707 64.5458 294.072 64.6338 294.464 64.6338C294.856 64.6338 295.216 64.5458 295.544 64.3697C295.88 64.1937 296.148 63.9256 296.348 63.5655C296.556 63.1974 296.66 62.7493 296.66 62.2212C296.66 61.6851 296.556 61.2369 296.348 60.8769C296.148 60.5088 295.88 60.2367 295.544 60.0606C295.216 59.8846 294.856 59.7966 294.464 59.7966ZM301.252 58.8363C301.996 58.8363 302.593 59.0324 303.041 59.4245C303.497 59.8086 303.773 60.3287 303.869 60.9849H302.825C302.777 60.5928 302.613 60.2727 302.333 60.0246C302.06 59.7686 301.692 59.6405 301.228 59.6405C300.836 59.6405 300.528 59.7366 300.304 59.9286C300.088 60.1127 299.98 60.3647 299.98 60.6848C299.98 60.9249 300.052 61.1209 300.196 61.273C300.348 61.417 300.532 61.529 300.748 61.609C300.972 61.6811 301.276 61.7611 301.66 61.8491C302.149 61.9611 302.541 62.0772 302.837 62.1972C303.141 62.3092 303.397 62.4933 303.605 62.7493C303.821 63.0054 303.929 63.3495 303.929 63.7816C303.929 64.3177 303.725 64.7538 303.317 65.0899C302.917 65.426 302.381 65.594 301.708 65.594C300.924 65.594 300.284 65.406 299.788 65.0299C299.292 64.6538 299 64.1297 298.912 63.4575H299.968C300.008 63.8576 300.18 64.1817 300.484 64.4297C300.796 64.6778 301.204 64.8018 301.708 64.8018C302.085 64.8018 302.377 64.7058 302.585 64.5138C302.801 64.3217 302.909 64.0696 302.909 63.7576C302.909 63.5015 302.833 63.2975 302.681 63.1454C302.529 62.9934 302.341 62.8774 302.117 62.7973C301.892 62.7173 301.584 62.6333 301.192 62.5453C300.704 62.4332 300.312 62.3212 300.016 62.2092C299.728 62.0972 299.48 61.9211 299.272 61.6811C299.072 61.433 298.972 61.1009 298.972 60.6848C298.972 60.1327 299.176 59.6886 299.584 59.3525C299.992 59.0084 300.548 58.8363 301.252 58.8363Z" fill="#E5E8F0"/>
<path d="M17.8933 62.2808V65.6897H16.801V57.2276H19.4897C20.4579 57.2276 21.1821 57.4556 21.6622 57.9118C22.1424 58.3599 22.3824 58.976 22.3824 59.7602C22.3824 60.5524 22.1344 61.1726 21.6382 61.6207C21.1421 62.0608 20.4259 62.2808 19.4897 62.2808H17.8933ZM19.3937 61.3686C20.0578 61.3686 20.534 61.2286 20.822 60.9485C21.1181 60.6684 21.2661 60.2723 21.2661 59.7602C21.2661 59.2321 21.1181 58.832 20.822 58.5599C20.534 58.2798 20.0578 58.1398 19.3937 58.1398H17.8933V61.3686H19.3937ZM27.1271 58.992C27.8953 58.992 28.5154 59.2401 28.9875 59.7362C29.4597 60.2243 29.6957 60.9325 29.6957 61.8607V65.6897H28.6034V61.9568C28.6034 61.3006 28.4354 60.7965 28.0993 60.4444C27.7632 60.0923 27.3071 59.9163 26.731 59.9163C26.1308 59.9163 25.6507 60.1123 25.2906 60.5044C24.9305 60.8885 24.7505 61.4526 24.7505 62.1968V65.6897H23.6582V56.8075H24.7505V60.6604C24.9185 60.1243 25.2146 59.7122 25.6387 59.4241C26.0708 59.1361 26.5669 58.992 27.1271 58.992ZM34.3598 59.016C34.992 59.016 35.5561 59.1521 36.0522 59.4241C36.5564 59.6962 36.9485 60.0883 37.2285 60.6004C37.5166 61.1126 37.6606 61.7127 37.6606 62.4009C37.6606 63.089 37.5166 63.6892 37.2285 64.2013C36.9485 64.7055 36.5564 65.0935 36.0522 65.3656C35.5561 65.6377 34.992 65.7737 34.3598 65.7737C33.7277 65.7737 33.1595 65.6377 32.6554 65.3656C32.1593 65.0935 31.7672 64.7055 31.4791 64.2013C31.191 63.6892 31.047 63.089 31.047 62.4009C31.047 61.7127 31.191 61.1126 31.4791 60.6004C31.7672 60.0883 32.1593 59.6962 32.6554 59.4241C33.1595 59.1521 33.7277 59.016 34.3598 59.016ZM34.3598 59.9763C33.9677 59.9763 33.6036 60.0643 33.2675 60.2403C32.9395 60.4164 32.6714 60.6884 32.4633 61.0565C32.2633 61.4166 32.1633 61.8647 32.1633 62.4009C32.1633 62.929 32.2633 63.3771 32.4633 63.7452C32.6714 64.1053 32.9395 64.3734 33.2675 64.5494C33.6036 64.7255 33.9677 64.8135 34.3598 64.8135C34.7519 64.8135 35.112 64.7255 35.4401 64.5494C35.7762 64.3734 36.0442 64.1053 36.2443 63.7452C36.4523 63.3771 36.5564 62.929 36.5564 62.4009C36.5564 61.8647 36.4523 61.4166 36.2443 61.0565C36.0442 60.6884 35.7762 60.4164 35.4401 60.2403C35.112 60.0643 34.7519 59.9763 34.3598 59.9763ZM42.2287 64.7295V65.6897H41.4125C40.7404 65.6897 40.2362 65.5297 39.9001 65.2096C39.5721 64.8895 39.408 64.3534 39.408 63.6012V60.0483H38.4238V59.1H39.408V57.4556H40.5123V59.1H42.2167V60.0483H40.5123V63.6252C40.5123 64.0493 40.5883 64.3414 40.7404 64.5014C40.9004 64.6534 41.1725 64.7295 41.5566 64.7295H42.2287ZM46.5504 59.016C47.1825 59.016 47.7467 59.1521 48.2428 59.4241C48.7469 59.6962 49.139 60.0883 49.4191 60.6004C49.7072 61.1126 49.8512 61.7127 49.8512 62.4009C49.8512 63.089 49.7072 63.6892 49.4191 64.2013C49.139 64.7055 48.7469 65.0935 48.2428 65.3656C47.7467 65.6377 47.1825 65.7737 46.5504 65.7737C45.9182 65.7737 45.3501 65.6377 44.8459 65.3656C44.3498 65.0935 43.9577 64.7055 43.6696 64.2013C43.3816 63.6892 43.2375 63.089 43.2375 62.4009C43.2375 61.7127 43.3816 61.1126 43.6696 60.6004C43.9577 60.0883 44.3498 59.6962 44.8459 59.4241C45.3501 59.1521 45.9182 59.016 46.5504 59.016ZM46.5504 59.9763C46.1583 59.9763 45.7942 60.0643 45.4581 60.2403C45.13 60.4164 44.8619 60.6884 44.6539 61.0565C44.4538 61.4166 44.3538 61.8647 44.3538 62.4009C44.3538 62.929 44.4538 63.3771 44.6539 63.7452C44.8619 64.1053 45.13 64.3734 45.4581 64.5494C45.7942 64.7255 46.1583 64.8135 46.5504 64.8135C46.9425 64.8135 47.3026 64.7255 47.6306 64.5494C47.9667 64.3734 48.2348 64.1053 48.4348 63.7452C48.6429 63.3771 48.7469 62.929 48.7469 62.4009C48.7469 61.8647 48.6429 61.4166 48.4348 61.0565C48.2348 60.6884 47.9667 60.4164 47.6306 60.2403C47.3026 60.0643 46.9425 59.9763 46.5504 59.9763ZM53.9752 59.016C54.6153 59.016 55.1555 59.1761 55.5956 59.4961C56.0437 59.8162 56.3558 60.2443 56.5318 60.7805V59.1H57.6241V65.7977C57.6241 66.4059 57.496 66.946 57.24 67.4181C56.9839 67.8902 56.6238 68.2583 56.1597 68.5224C55.6956 68.7865 55.1555 68.9185 54.5393 68.9185C53.6511 68.9185 52.9269 68.7025 52.3668 68.2703C51.8066 67.8462 51.4505 67.2701 51.2985 66.5419H52.3788C52.5068 66.982 52.7469 67.3261 53.0989 67.5742C53.459 67.8302 53.9192 67.9583 54.4793 67.9583C55.0714 67.9583 55.5596 67.7662 55.9437 67.3821C56.3358 67.006 56.5318 66.4779 56.5318 65.7977V64.0093C56.3558 64.5454 56.0437 64.9735 55.5956 65.2936C55.1555 65.6137 54.6153 65.7737 53.9752 65.7737C53.391 65.7737 52.8709 65.6377 52.4148 65.3656C51.9587 65.0935 51.5986 64.7055 51.3345 64.2013C51.0784 63.6892 50.9504 63.089 50.9504 62.4009C50.9504 61.7127 51.0784 61.1126 51.3345 60.6004C51.5986 60.0883 51.9587 59.6962 52.4148 59.4241C52.8709 59.1521 53.391 59.016 53.9752 59.016ZM54.2872 59.9883C53.6151 59.9883 53.0749 60.2043 52.6668 60.6364C52.2667 61.0605 52.0667 61.6487 52.0667 62.4009C52.0667 63.1531 52.2667 63.7452 52.6668 64.1773C53.0749 64.6014 53.6151 64.8135 54.2872 64.8135C54.7194 64.8135 55.1034 64.7135 55.4395 64.5134C55.7836 64.3134 56.0517 64.0333 56.2437 63.6732C56.4358 63.3051 56.5318 62.881 56.5318 62.4009C56.5318 61.9208 56.4358 61.4966 56.2437 61.1286C56.0517 60.7605 55.7836 60.4804 55.4395 60.2883C55.1034 60.0883 54.7194 59.9883 54.2872 59.9883ZM60.4547 60.4324C60.6708 59.9763 60.9869 59.6242 61.403 59.3761C61.8191 59.1201 62.3152 58.992 62.8913 58.992V60.1803H62.5552C61.9391 60.1803 61.435 60.3404 61.0429 60.6604C60.6508 60.9725 60.4547 61.4926 60.4547 62.2208V65.6897H59.3624V59.1H60.4547V60.4324ZM66.6697 59.016C67.3099 59.016 67.85 59.1761 68.2901 59.4961C68.7383 59.8162 69.0503 60.2443 69.2264 60.7805V59.1H70.3187V65.6897H69.2264V64.0093C69.0503 64.5454 68.7383 64.9735 68.2901 65.2936C67.85 65.6137 67.3099 65.7737 66.6697 65.7737C66.0856 65.7737 65.5655 65.6377 65.1094 65.3656C64.6532 65.0935 64.2931 64.7055 64.0291 64.2013C63.773 63.6892 63.645 63.089 63.645 62.4009C63.645 61.7127 63.773 61.1126 64.0291 60.6004C64.2931 60.0883 64.6532 59.6962 65.1094 59.4241C65.5655 59.1521 66.0856 59.016 66.6697 59.016ZM66.9818 59.9883C66.3097 59.9883 65.7695 60.2043 65.3614 60.6364C64.9613 61.0605 64.7613 61.6487 64.7613 62.4009C64.7613 63.1531 64.9613 63.7452 65.3614 64.1773C65.7695 64.6014 66.3097 64.8135 66.9818 64.8135C67.4139 64.8135 67.798 64.7135 68.1341 64.5134C68.4782 64.3134 68.7463 64.0333 68.9383 63.6732C69.1304 63.3051 69.2264 62.881 69.2264 62.4009C69.2264 61.9208 69.1304 61.4966 68.9383 61.1286C68.7463 60.7605 68.4782 60.4804 68.1341 60.2883C67.798 60.0883 67.4139 59.9883 66.9818 59.9883ZM75.6939 59.016C76.2781 59.016 76.7982 59.1521 77.2543 59.4241C77.7104 59.6962 78.0665 60.0883 78.3226 60.6004C78.5867 61.1126 78.7187 61.7127 78.7187 62.4009C78.7187 63.089 78.5867 63.6892 78.3226 64.2013C78.0665 64.7055 77.7104 65.0935 77.2543 65.3656C76.7982 65.6377 76.2781 65.7737 75.6939 65.7737C75.0538 65.7737 74.5096 65.6137 74.0615 65.2936C73.6214 64.9655 73.3173 64.5374 73.1493 64.0093V68.8105H72.057V59.1H73.1493V60.7805C73.3173 60.2523 73.6214 59.8282 74.0615 59.5082C74.5096 59.1801 75.0538 59.016 75.6939 59.016ZM75.3819 59.9883C74.9578 59.9883 74.5737 60.0883 74.2296 60.2883C73.8855 60.4804 73.6174 60.7605 73.4254 61.1286C73.2333 61.4966 73.1373 61.9208 73.1373 62.4009C73.1373 62.881 73.2333 63.3051 73.4254 63.6732C73.6174 64.0333 73.8855 64.3134 74.2296 64.5134C74.5737 64.7135 74.9578 64.8135 75.3819 64.8135C76.062 64.8135 76.6022 64.6014 77.0023 64.1773C77.4104 63.7452 77.6144 63.1531 77.6144 62.4009C77.6144 61.6487 77.4104 61.0605 77.0023 60.6364C76.6022 60.2043 76.062 59.9883 75.3819 59.9883ZM83.6139 58.992C84.382 58.992 85.0022 59.2401 85.4743 59.7362C85.9464 60.2243 86.1825 60.9325 86.1825 61.8607V65.6897H85.0902V61.9568C85.0902 61.3006 84.9222 60.7965 84.5861 60.4444C84.25 60.0923 83.7939 59.9163 83.2178 59.9163C82.6176 59.9163 82.1375 60.1123 81.7774 60.5044C81.4173 60.8885 81.2373 61.4526 81.2373 62.1968V65.6897H80.145V56.8075H81.2373V60.6604C81.4053 60.1243 81.7014 59.7122 82.1255 59.4241C82.5576 59.1361 83.0537 58.992 83.6139 58.992ZM93.9194 62.0288C93.9194 62.2608 93.9034 62.4609 93.8714 62.6289H88.602C88.626 63.3811 88.8381 63.9453 89.2382 64.3214C89.6463 64.6974 90.1424 64.8855 90.7266 64.8855C91.2547 64.8855 91.6948 64.7535 92.0469 64.4894C92.407 64.2173 92.627 63.8572 92.7071 63.4091H93.8714C93.7913 63.8652 93.6113 64.2733 93.3312 64.6334C93.0592 64.9935 92.7031 65.2736 92.263 65.4736C91.8228 65.6737 91.3267 65.7737 90.7746 65.7737C90.1424 65.7737 89.5823 65.6377 89.0942 65.3656C88.606 65.0935 88.2219 64.7055 87.9419 64.2013C87.6698 63.6892 87.5338 63.089 87.5338 62.4009C87.5338 61.7127 87.6698 61.1126 87.9419 60.6004C88.2219 60.0883 88.606 59.6962 89.0942 59.4241C89.5823 59.1521 90.1424 59.016 90.7746 59.016C91.4147 59.016 91.9709 59.1521 92.443 59.4241C92.9231 59.6962 93.2872 60.0603 93.5353 60.5164C93.7913 60.9725 93.9194 61.4766 93.9194 62.0288ZM92.8151 62.1008C92.8391 61.6127 92.7591 61.2046 92.575 60.8765C92.391 60.5484 92.1389 60.3044 91.8188 60.1443C91.4988 59.9843 91.1507 59.9043 90.7746 59.9043C90.1744 59.9043 89.6703 60.0923 89.2622 60.4684C88.8541 60.8365 88.634 61.3806 88.602 62.1008H92.8151ZM96.4403 60.4324C96.6563 59.9763 96.9724 59.6242 97.3885 59.3761C97.8046 59.1201 98.3007 58.992 98.8769 58.992V60.1803H98.5408C97.9247 60.1803 97.4205 60.3404 97.0284 60.6604C96.6363 60.9725 96.4403 61.4926 96.4403 62.2208V65.6897H95.348V59.1H96.4403V60.4324ZM102.019 59.016C102.763 59.016 103.359 59.2121 103.808 59.6042C104.264 59.9883 104.54 60.5084 104.636 61.1646H103.592C103.544 60.7725 103.379 60.4524 103.099 60.2043C102.827 59.9483 102.459 59.8202 101.995 59.8202C101.603 59.8202 101.295 59.9163 101.071 60.1083C100.855 60.2923 100.747 60.5444 100.747 60.8645C100.747 61.1046 100.819 61.3006 100.963 61.4526C101.115 61.5967 101.299 61.7087 101.515 61.7887C101.739 61.8607 102.043 61.9408 102.427 62.0288C102.915 62.1408 103.307 62.2568 103.604 62.3769C103.908 62.4889 104.164 62.6729 104.372 62.929C104.588 63.1851 104.696 63.5292 104.696 63.9613C104.696 64.4974 104.492 64.9335 104.084 65.2696C103.684 65.6057 103.147 65.7737 102.475 65.7737C101.691 65.7737 101.051 65.5857 100.555 65.2096C100.059 64.8335 99.7666 64.3094 99.6786 63.6372H100.735C100.775 64.0373 100.947 64.3614 101.251 64.6094C101.563 64.8575 101.971 64.9815 102.475 64.9815C102.851 64.9815 103.143 64.8855 103.351 64.6934C103.568 64.5014 103.676 64.2493 103.676 63.9373C103.676 63.6812 103.6 63.4771 103.447 63.3251C103.295 63.1731 103.107 63.057 102.883 62.977C102.659 62.897 102.351 62.813 101.959 62.725C101.471 62.6129 101.079 62.5009 100.783 62.3889C100.495 62.2768 100.247 62.1008 100.039 61.8607C99.8386 61.6127 99.7386 61.2806 99.7386 60.8645C99.7386 60.3124 99.9426 59.8682 100.351 59.5322C100.759 59.1881 101.315 59.016 102.019 59.016ZM22.1544 76.4931C22.1544 76.8932 22.0583 77.2653 21.8663 77.6094C21.6742 77.9535 21.3822 78.2336 20.9901 78.4496C20.598 78.6657 20.1139 78.7737 19.5377 78.7737C18.9776 78.7737 18.4774 78.6737 18.0373 78.4736C17.6052 78.2656 17.2571 77.9855 16.9931 77.6334C16.737 77.2733 16.589 76.8652 16.549 76.4091H17.7133C17.7373 76.6492 17.8173 76.8852 17.9533 77.1173C18.0973 77.3414 18.2974 77.5294 18.5535 77.6814C18.8175 77.8255 19.1336 77.8975 19.5017 77.8975C19.9818 77.8975 20.3499 77.7695 20.606 77.5134C20.862 77.2573 20.9901 76.9293 20.9901 76.5292C20.9901 76.1851 20.898 75.905 20.714 75.6889C20.538 75.4729 20.3179 75.3049 20.0538 75.1848C19.7898 75.0568 19.4297 74.9208 18.9736 74.7767C18.4374 74.6007 18.0053 74.4366 17.6772 74.2846C17.3572 74.1246 17.0811 73.8885 16.849 73.5764C16.625 73.2643 16.513 72.8522 16.513 72.3401C16.513 71.9 16.617 71.5119 16.825 71.1758C17.0411 70.8397 17.3452 70.5797 17.7373 70.3956C18.1374 70.2116 18.6055 70.1196 19.1416 70.1196C19.9738 70.1196 20.634 70.3236 21.1221 70.7317C21.6102 71.1318 21.8943 71.6439 21.9743 72.2681H20.798C20.734 71.932 20.562 71.6359 20.2819 71.3799C20.0018 71.1238 19.6217 70.9958 19.1416 70.9958C18.7015 70.9958 18.3494 71.1118 18.0853 71.3439C17.8213 71.5679 17.6892 71.888 17.6892 72.3041C17.6892 72.6322 17.7733 72.9002 17.9413 73.1083C18.1174 73.3084 18.3334 73.4684 18.5895 73.5884C18.8455 73.7004 19.1976 73.8285 19.6457 73.9725C20.1899 74.1486 20.626 74.3166 20.9541 74.4766C21.2901 74.6367 21.5742 74.8807 21.8063 75.2088C22.0383 75.5289 22.1544 75.957 22.1544 76.4931ZM27.0919 71.992C27.8601 71.992 28.4803 72.2401 28.9524 72.7362C29.4245 73.2243 29.6606 73.9325 29.6606 74.8607V78.6897H28.5683V74.9568C28.5683 74.3006 28.4002 73.7965 28.0642 73.4444C27.7281 73.0923 27.272 72.9163 26.6958 72.9163C26.0957 72.9163 25.6155 73.1123 25.2555 73.5044C24.8954 73.8885 24.7153 74.4526 24.7153 75.1968V78.6897H23.623V69.8075H24.7153V73.6604C24.8834 73.1243 25.1794 72.7122 25.6035 72.4241C26.0356 72.1361 26.5318 71.992 27.0919 71.992ZM34.3247 72.016C34.9568 72.016 35.521 72.1521 36.0171 72.4241C36.5212 72.6962 36.9133 73.0883 37.1934 73.6004C37.4814 74.1126 37.6255 74.7127 37.6255 75.4009C37.6255 76.089 37.4814 76.6892 37.1934 77.2013C36.9133 77.7055 36.5212 78.0935 36.0171 78.3656C35.521 78.6377 34.9568 78.7737 34.3247 78.7737C33.6925 78.7737 33.1244 78.6377 32.6202 78.3656C32.1241 78.0935 31.732 77.7055 31.4439 77.2013C31.1559 76.6892 31.0118 76.089 31.0118 75.4009C31.0118 74.7127 31.1559 74.1126 31.4439 73.6004C31.732 73.0883 32.1241 72.6962 32.6202 72.4241C33.1244 72.1521 33.6925 72.016 34.3247 72.016ZM34.3247 72.9763C33.9326 72.9763 33.5685 73.0643 33.2324 73.2403C32.9043 73.4164 32.6362 73.6884 32.4282 74.0565C32.2281 74.4166 32.1281 74.8647 32.1281 75.4009C32.1281 75.929 32.2281 76.3771 32.4282 76.7452C32.6362 77.1053 32.9043 77.3734 33.2324 77.5494C33.5685 77.7255 33.9326 77.8135 34.3247 77.8135C34.7168 77.8135 35.0768 77.7255 35.4049 77.5494C35.741 77.3734 36.0091 77.1053 36.2091 76.7452C36.4172 76.3771 36.5212 75.929 36.5212 75.4009C36.5212 74.8647 36.4172 74.4166 36.2091 74.0565C36.0091 73.6884 35.741 73.4164 35.4049 73.2403C35.0768 73.0643 34.7168 72.9763 34.3247 72.9763ZM48.099 72.1L46.2026 78.6897H45.0263L43.2138 73.3244L41.3894 78.6897H40.2011L38.3286 72.1H39.4329L40.8372 77.6454L42.6617 72.1H43.802L45.6384 77.6334L47.0548 72.1H48.099ZM58.1928 78.6897L56.3443 76.6492C56.3443 76.7772 56.3203 76.9373 56.2723 77.1293C56.1843 77.6174 55.9482 78.0135 55.5642 78.3176C55.1801 78.6217 54.7159 78.7737 54.1718 78.7737C53.6757 78.7737 53.2356 78.6697 52.8515 78.4616C52.4674 78.2456 52.1673 77.9495 51.9512 77.5734C51.7352 77.1893 51.6272 76.7492 51.6272 76.2531C51.6272 75.757 51.7232 75.3289 51.9152 74.9688C52.1153 74.6007 52.3794 74.3246 52.7074 74.1406C53.0355 73.9485 53.3996 73.8525 53.7997 73.8525C53.8637 73.8525 53.9517 73.8605 54.0638 73.8765L53.8837 73.6484C53.6597 73.3764 53.4876 73.1203 53.3676 72.8802C53.2556 72.6322 53.1996 72.3441 53.1996 72.016C53.1996 71.6879 53.2796 71.3839 53.4396 71.1038C53.6077 70.8157 53.8557 70.5837 54.1838 70.4076C54.5119 70.2316 54.904 70.1436 55.3601 70.1436C56.0483 70.1436 56.5724 70.3156 56.9325 70.6597C57.3006 71.0038 57.5166 71.4359 57.5807 71.956C57.6287 72.1321 57.6527 72.3121 57.6527 72.4961C57.6527 72.5762 57.6487 72.6362 57.6407 72.6762H56.6084C56.6164 72.6202 56.6164 72.5562 56.6084 72.4841C56.6084 72.4041 56.6084 72.3481 56.6084 72.3161C56.6004 71.916 56.4884 71.6079 56.2723 71.3919C56.0563 71.1678 55.7562 71.0558 55.3721 71.0558C55.02 71.0558 54.7399 71.1598 54.5319 71.3679C54.3318 71.5759 54.2318 71.828 54.2318 72.1241C54.2318 72.3721 54.2758 72.5842 54.3639 72.7602C54.4599 72.9363 54.6119 73.1443 54.82 73.3844L59.3091 78.6897H58.1928ZM54.1718 77.8375C54.6119 77.8375 54.972 77.6974 55.2521 77.4174C55.5401 77.1373 55.6842 76.7772 55.6842 76.3371C55.6842 76.033 55.6042 75.757 55.4441 75.5089C55.2841 75.2608 55.076 75.0648 54.82 74.9208C54.5639 74.7767 54.2958 74.7047 54.0158 74.7047C53.5997 74.7047 53.2556 74.8367 52.9835 75.1008C52.7194 75.3649 52.5874 75.741 52.5874 76.2291C52.5874 76.7252 52.7394 77.1173 53.0435 77.4054C53.3476 77.6934 53.7237 77.8375 54.1718 77.8375ZM68.5839 76.4931C68.5839 76.8932 68.4879 77.2653 68.2959 77.6094C68.1038 77.9535 67.8117 78.2336 67.4196 78.4496C67.0276 78.6657 66.5434 78.7737 65.9673 78.7737C65.4071 78.7737 64.907 78.6737 64.4669 78.4736C64.0348 78.2656 63.6867 77.9855 63.4226 77.6334C63.1666 77.2733 63.0185 76.8652 62.9785 76.4091H64.1428C64.1668 76.6492 64.2469 76.8852 64.3829 77.1173C64.5269 77.3414 64.727 77.5294 64.983 77.6814C65.2471 77.8255 65.5632 77.8975 65.9313 77.8975C66.4114 77.8975 66.7795 77.7695 67.0356 77.5134C67.2916 77.2573 67.4196 76.9293 67.4196 76.5292C67.4196 76.1851 67.3276 75.905 67.1436 75.6889C66.9675 75.4729 66.7475 75.3049 66.4834 75.1848C66.2193 75.0568 65.8593 74.9208 65.4031 74.7767C64.867 74.6007 64.4349 74.4366 64.1068 74.2846C63.7867 74.1246 63.5107 73.8885 63.2786 73.5764C63.0546 73.2643 62.9425 72.8522 62.9425 72.3401C62.9425 71.9 63.0466 71.5119 63.2546 71.1758C63.4707 70.8397 63.7747 70.5797 64.1668 70.3956C64.5669 70.2116 65.0351 70.1196 65.5712 70.1196C66.4034 70.1196 67.0636 70.3236 67.5517 70.7317C68.0398 71.1318 68.3239 71.6439 68.4039 72.2681H67.2276C67.1636 71.932 66.9915 71.6359 66.7115 71.3799C66.4314 71.1238 66.0513 70.9958 65.5712 70.9958C65.1311 70.9958 64.779 71.1118 64.5149 71.3439C64.2509 71.5679 64.1188 71.888 64.1188 72.3041C64.1188 72.6322 64.2028 72.9002 64.3709 73.1083C64.5469 73.3084 64.763 73.4684 65.019 73.5884C65.2751 73.7004 65.6272 73.8285 66.0753 73.9725C66.6194 74.1486 67.0556 74.3166 67.3836 74.4766C67.7197 74.6367 68.0038 74.8807 68.2359 75.2088C68.4679 75.5289 68.5839 75.957 68.5839 76.4931ZM73.5215 71.992C74.2897 71.992 74.9098 72.2401 75.382 72.7362C75.8541 73.2243 76.0901 73.9325 76.0901 74.8607V78.6897H74.9979V74.9568C74.9979 74.3006 74.8298 73.7965 74.4937 73.4444C74.1576 73.0923 73.7015 72.9163 73.1254 72.9163C72.5252 72.9163 72.0451 73.1123 71.685 73.5044C71.3249 73.8885 71.1449 74.4526 71.1449 75.1968V78.6897H70.0526V69.8075H71.1449V73.6604C71.3129 73.1243 71.609 72.7122 72.0331 72.4241C72.4652 72.1361 72.9613 71.992 73.5215 71.992ZM80.4662 72.016C81.1063 72.016 81.6465 72.1761 82.0866 72.4961C82.5347 72.8162 82.8468 73.2443 83.0228 73.7805V72.1H84.1151V78.6897H83.0228V77.0093C82.8468 77.5454 82.5347 77.9735 82.0866 78.2936C81.6465 78.6137 81.1063 78.7737 80.4662 78.7737C79.882 78.7737 79.3619 78.6377 78.9058 78.3656C78.4497 78.0935 78.0896 77.7055 77.8255 77.2013C77.5694 76.6892 77.4414 76.089 77.4414 75.4009C77.4414 74.7127 77.5694 74.1126 77.8255 73.6004C78.0896 73.0883 78.4497 72.6962 78.9058 72.4241C79.3619 72.1521 79.882 72.016 80.4662 72.016ZM80.7782 72.9883C80.1061 72.9883 79.5659 73.2043 79.1578 73.6364C78.7577 74.0605 78.5577 74.6487 78.5577 75.4009C78.5577 76.1531 78.7577 76.7452 79.1578 77.1773C79.5659 77.6014 80.1061 77.8135 80.7782 77.8135C81.2103 77.8135 81.5944 77.7135 81.9305 77.5134C82.2746 77.3134 82.5427 77.0333 82.7347 76.6732C82.9268 76.3051 83.0228 75.881 83.0228 75.4009C83.0228 74.9208 82.9268 74.4966 82.7347 74.1286C82.5427 73.7605 82.2746 73.4804 81.9305 73.2883C81.5944 73.0883 81.2103 72.9883 80.7782 72.9883ZM86.9457 73.4324C87.1618 72.9763 87.4779 72.6242 87.894 72.3761C88.3101 72.1201 88.8062 71.992 89.3823 71.992V73.1803H89.0462C88.4301 73.1803 87.926 73.3404 87.5339 73.6604C87.1418 73.9725 86.9457 74.4926 86.9457 75.2208V78.6897H85.8534V72.1H86.9457V73.4324ZM96.5216 75.0288C96.5216 75.2608 96.5056 75.4609 96.4736 75.6289H91.2043C91.2283 76.3811 91.4403 76.9453 91.8404 77.3214C92.2485 77.6974 92.7446 77.8855 93.3288 77.8855C93.8569 77.8855 94.297 77.7535 94.6491 77.4894C95.0092 77.2173 95.2293 76.8572 95.3093 76.4091H96.4736C96.3935 76.8652 96.2135 77.2733 95.9334 77.6334C95.6614 77.9935 95.3053 78.2736 94.8652 78.4736C94.4251 78.6737 93.9289 78.7737 93.3768 78.7737C92.7446 78.7737 92.1845 78.6377 91.6964 78.3656C91.2083 78.0935 90.8242 77.7055 90.5441 77.2013C90.272 76.6892 90.136 76.089 90.136 75.4009C90.136 74.7127 90.272 74.1126 90.5441 73.6004C90.8242 73.0883 91.2083 72.6962 91.6964 72.4241C92.1845 72.1521 92.7446 72.016 93.3768 72.016C94.017 72.016 94.5731 72.1521 95.0452 72.4241C95.5253 72.6962 95.8894 73.0603 96.1375 73.5164C96.3935 73.9725 96.5216 74.4766 96.5216 75.0288ZM95.4173 75.1008C95.4413 74.6127 95.3613 74.2046 95.1772 73.8765C94.9932 73.5484 94.7411 73.3044 94.4211 73.1443C94.101 72.9843 93.7529 72.9043 93.3768 72.9043C92.7766 72.9043 92.2725 73.0923 91.8644 73.4684C91.4563 73.8365 91.2363 74.3806 91.2043 75.1008H95.4173Z" fill="#E5E8F0"/>
<path d="M107.854 206.08H104.134L103.425 208.037H102.249L105.382 199.731H106.618L109.739 208.037H108.563L107.854 206.08ZM107.542 205.228L105.994 200.955L104.446 205.228H107.542ZM113.545 201.363C114.185 201.363 114.725 201.523 115.166 201.843C115.614 202.163 115.926 202.592 116.102 203.128V199.155H117.194V208.037H116.102V206.356C115.926 206.893 115.614 207.321 115.166 207.641C114.725 207.961 114.185 208.121 113.545 208.121C112.961 208.121 112.441 207.985 111.985 207.713C111.529 207.441 111.169 207.053 110.905 206.548C110.648 206.036 110.52 205.436 110.52 204.748C110.52 204.06 110.648 203.46 110.905 202.948C111.169 202.435 111.529 202.043 111.985 201.771C112.441 201.499 112.961 201.363 113.545 201.363ZM113.857 202.335C113.185 202.335 112.645 202.551 112.237 202.984C111.837 203.408 111.637 203.996 111.637 204.748C111.637 205.5 111.837 206.092 112.237 206.524C112.645 206.949 113.185 207.161 113.857 207.161C114.289 207.161 114.673 207.061 115.01 206.861C115.354 206.661 115.622 206.38 115.814 206.02C116.006 205.652 116.102 205.228 116.102 204.748C116.102 204.268 116.006 203.844 115.814 203.476C115.622 203.108 115.354 202.828 115.01 202.636C114.673 202.435 114.289 202.335 113.857 202.335ZM121.921 201.363C122.553 201.363 123.118 201.499 123.614 201.771C124.118 202.043 124.51 202.435 124.79 202.948C125.078 203.46 125.222 204.06 125.222 204.748C125.222 205.436 125.078 206.036 124.79 206.548C124.51 207.053 124.118 207.441 123.614 207.713C123.118 207.985 122.553 208.121 121.921 208.121C121.289 208.121 120.721 207.985 120.217 207.713C119.721 207.441 119.329 207.053 119.041 206.548C118.752 206.036 118.608 205.436 118.608 204.748C118.608 204.06 118.752 203.46 119.041 202.948C119.329 202.435 119.721 202.043 120.217 201.771C120.721 201.499 121.289 201.363 121.921 201.363ZM121.921 202.323C121.529 202.323 121.165 202.411 120.829 202.588C120.501 202.764 120.233 203.036 120.025 203.404C119.825 203.764 119.725 204.212 119.725 204.748C119.725 205.276 119.825 205.724 120.025 206.092C120.233 206.452 120.501 206.721 120.829 206.897C121.165 207.073 121.529 207.161 121.921 207.161C122.313 207.161 122.673 207.073 123.002 206.897C123.338 206.721 123.606 206.452 123.806 206.092C124.014 205.724 124.118 205.276 124.118 204.748C124.118 204.212 124.014 203.764 123.806 203.404C123.606 203.036 123.338 202.764 123.002 202.588C122.673 202.411 122.313 202.323 121.921 202.323ZM130.282 201.363C130.866 201.363 131.387 201.499 131.843 201.771C132.299 202.043 132.655 202.435 132.911 202.948C133.175 203.46 133.307 204.06 133.307 204.748C133.307 205.436 133.175 206.036 132.911 206.548C132.655 207.053 132.299 207.441 131.843 207.713C131.387 207.985 130.866 208.121 130.282 208.121C129.642 208.121 129.098 207.961 128.65 207.641C128.21 207.313 127.906 206.885 127.738 206.356V208.037H126.645V199.155H127.738V203.128C127.906 202.6 128.21 202.175 128.65 201.855C129.098 201.527 129.642 201.363 130.282 201.363ZM129.97 202.335C129.546 202.335 129.162 202.435 128.818 202.636C128.474 202.828 128.206 203.108 128.014 203.476C127.822 203.844 127.726 204.268 127.726 204.748C127.726 205.228 127.822 205.652 128.014 206.02C128.206 206.38 128.474 206.661 128.818 206.861C129.162 207.061 129.546 207.161 129.97 207.161C130.65 207.161 131.19 206.949 131.591 206.524C131.999 206.092 132.203 205.5 132.203 204.748C132.203 203.996 131.999 203.408 131.591 202.984C131.19 202.551 130.65 202.335 129.97 202.335ZM140.795 204.376C140.795 204.608 140.779 204.808 140.747 204.976H135.477C135.502 205.728 135.714 206.292 136.114 206.669C136.522 207.045 137.018 207.233 137.602 207.233C138.13 207.233 138.57 207.101 138.922 206.837C139.282 206.564 139.503 206.204 139.583 205.756H140.747C140.667 206.212 140.487 206.621 140.207 206.981C139.935 207.341 139.579 207.621 139.138 207.821C138.698 208.021 138.202 208.121 137.65 208.121C137.018 208.121 136.458 207.985 135.97 207.713C135.482 207.441 135.097 207.053 134.817 206.548C134.545 206.036 134.409 205.436 134.409 204.748C134.409 204.06 134.545 203.46 134.817 202.948C135.097 202.435 135.482 202.043 135.97 201.771C136.458 201.499 137.018 201.363 137.65 201.363C138.29 201.363 138.846 201.499 139.318 201.771C139.799 202.043 140.163 202.407 140.411 202.864C140.667 203.32 140.795 203.824 140.795 204.376ZM139.691 204.448C139.715 203.96 139.635 203.552 139.45 203.224C139.266 202.896 139.014 202.652 138.694 202.491C138.374 202.331 138.026 202.251 137.65 202.251C137.05 202.251 136.546 202.439 136.138 202.816C135.73 203.184 135.51 203.728 135.477 204.448H139.691ZM148.934 199.491C149.966 199.491 150.818 199.747 151.491 200.259C152.163 200.763 152.627 201.455 152.883 202.335H151.731C151.515 201.775 151.167 201.331 150.686 201.003C150.206 200.667 149.618 200.499 148.922 200.499C148.37 200.499 147.874 200.635 147.434 200.907C147.002 201.171 146.657 201.555 146.401 202.059C146.153 202.555 146.029 203.14 146.029 203.812C146.029 204.476 146.153 205.056 146.401 205.552C146.657 206.048 147.002 206.432 147.434 206.705C147.874 206.969 148.37 207.101 148.922 207.101C149.618 207.101 150.206 206.937 150.686 206.609C151.167 206.272 151.515 205.824 151.731 205.264H152.883C152.627 206.144 152.163 206.841 151.491 207.353C150.818 207.857 149.966 208.109 148.934 208.109C148.142 208.109 147.442 207.929 146.833 207.569C146.225 207.201 145.749 206.693 145.405 206.044C145.069 205.388 144.901 204.644 144.901 203.812C144.901 202.972 145.069 202.223 145.405 201.567C145.749 200.911 146.225 200.403 146.833 200.043C147.442 199.675 148.142 199.491 148.934 199.491ZM159.697 205.84C159.697 206.24 159.601 206.613 159.409 206.957C159.217 207.301 158.925 207.581 158.533 207.797C158.141 208.013 157.657 208.121 157.08 208.121C156.52 208.121 156.02 208.021 155.58 207.821C155.148 207.613 154.8 207.333 154.536 206.981C154.28 206.621 154.132 206.212 154.092 205.756H155.256C155.28 205.996 155.36 206.232 155.496 206.464C155.64 206.689 155.84 206.877 156.096 207.029C156.36 207.173 156.676 207.245 157.044 207.245C157.524 207.245 157.893 207.117 158.149 206.861C158.405 206.605 158.533 206.276 158.533 205.876C158.533 205.532 158.441 205.252 158.257 205.036C158.081 204.82 157.861 204.652 157.597 204.532C157.332 204.404 156.972 204.268 156.516 204.124C155.98 203.948 155.548 203.784 155.22 203.632C154.9 203.472 154.624 203.236 154.392 202.924C154.168 202.612 154.056 202.199 154.056 201.687C154.056 201.247 154.16 200.859 154.368 200.523C154.584 200.187 154.888 199.927 155.28 199.743C155.68 199.559 156.148 199.467 156.684 199.467C157.516 199.467 158.177 199.671 158.665 200.079C159.153 200.479 159.437 200.991 159.517 201.615H158.341C158.277 201.279 158.105 200.983 157.825 200.727C157.544 200.471 157.164 200.343 156.684 200.343C156.244 200.343 155.892 200.459 155.628 200.691C155.364 200.915 155.232 201.235 155.232 201.651C155.232 201.979 155.316 202.247 155.484 202.455C155.66 202.656 155.876 202.816 156.132 202.936C156.388 203.048 156.74 203.176 157.188 203.32C157.733 203.496 158.169 203.664 158.497 203.824C158.833 203.984 159.117 204.228 159.349 204.556C159.581 204.876 159.697 205.304 159.697 205.84ZM165.224 207.185H168.224V208.037H164.131V199.575H165.224V207.185ZM169.144 199.515C169.144 199.315 169.212 199.155 169.348 199.035C169.484 198.907 169.664 198.843 169.888 198.843C170.112 198.843 170.292 198.907 170.428 199.035C170.564 199.155 170.632 199.315 170.632 199.515C170.632 199.715 170.564 199.879 170.428 200.007C170.292 200.127 170.112 200.187 169.888 200.187C169.664 200.187 169.484 200.127 169.348 200.007C169.212 199.879 169.144 199.715 169.144 199.515ZM170.428 201.447V208.037H169.336V201.447H170.428ZM174.885 201.363C175.525 201.363 176.065 201.523 176.505 201.843C176.953 202.163 177.265 202.592 177.441 203.128V201.447H178.534V208.145C178.534 208.753 178.406 209.293 178.15 209.765C177.894 210.237 177.533 210.606 177.069 210.87C176.605 211.134 176.065 211.266 175.449 211.266C174.561 211.266 173.836 211.05 173.276 210.618C172.716 210.193 172.36 209.617 172.208 208.889H173.288C173.416 209.329 173.656 209.673 174.009 209.921C174.369 210.177 174.829 210.305 175.389 210.305C175.981 210.305 176.469 210.113 176.853 209.729C177.245 209.353 177.441 208.825 177.441 208.145V206.356C177.265 206.893 176.953 207.321 176.505 207.641C176.065 207.961 175.525 208.121 174.885 208.121C174.301 208.121 173.78 207.985 173.324 207.713C172.868 207.441 172.508 207.053 172.244 206.548C171.988 206.036 171.86 205.436 171.86 204.748C171.86 204.06 171.988 203.46 172.244 202.948C172.508 202.435 172.868 202.043 173.324 201.771C173.78 201.499 174.301 201.363 174.885 201.363ZM175.197 202.335C174.525 202.335 173.985 202.551 173.576 202.984C173.176 203.408 172.976 203.996 172.976 204.748C172.976 205.5 173.176 206.092 173.576 206.524C173.985 206.949 174.525 207.161 175.197 207.161C175.629 207.161 176.013 207.061 176.349 206.861C176.693 206.661 176.961 206.38 177.153 206.02C177.345 205.652 177.441 205.228 177.441 204.748C177.441 204.268 177.345 203.844 177.153 203.476C176.961 203.108 176.693 202.828 176.349 202.636C176.013 202.435 175.629 202.335 175.197 202.335ZM183.741 201.339C184.509 201.339 185.129 201.587 185.601 202.083C186.073 202.571 186.31 203.28 186.31 204.208V208.037H185.217V204.304C185.217 203.648 185.049 203.144 184.713 202.792C184.377 202.439 183.921 202.263 183.345 202.263C182.745 202.263 182.265 202.459 181.904 202.852C181.544 203.236 181.364 203.8 181.364 204.544V208.037H180.272V199.155H181.364V203.008C181.532 202.471 181.828 202.059 182.253 201.771C182.685 201.483 183.181 201.339 183.741 201.339ZM191.13 207.077V208.037H190.313C189.641 208.037 189.137 207.877 188.801 207.557C188.473 207.237 188.309 206.701 188.309 205.948V202.395H187.325V201.447H188.309V199.803H189.413V201.447H191.118V202.395H189.413V205.972C189.413 206.396 189.489 206.689 189.641 206.849C189.801 207.001 190.073 207.077 190.458 207.077H191.13ZM193.555 202.78C193.771 202.323 194.087 201.971 194.503 201.723C194.919 201.467 195.415 201.339 195.991 201.339V202.527H195.655C195.039 202.527 194.535 202.688 194.143 203.008C193.751 203.32 193.555 203.84 193.555 204.568V208.037H192.463V201.447H193.555V202.78ZM200.058 201.363C200.69 201.363 201.254 201.499 201.75 201.771C202.255 202.043 202.647 202.435 202.927 202.948C203.215 203.46 203.359 204.06 203.359 204.748C203.359 205.436 203.215 206.036 202.927 206.548C202.647 207.053 202.255 207.441 201.75 207.713C201.254 207.985 200.69 208.121 200.058 208.121C199.426 208.121 198.858 207.985 198.354 207.713C197.857 207.441 197.465 207.053 197.177 206.548C196.889 206.036 196.745 205.436 196.745 204.748C196.745 204.06 196.889 203.46 197.177 202.948C197.465 202.435 197.857 202.043 198.354 201.771C198.858 201.499 199.426 201.363 200.058 201.363ZM200.058 202.323C199.666 202.323 199.302 202.411 198.966 202.588C198.638 202.764 198.37 203.036 198.161 203.404C197.961 203.764 197.861 204.212 197.861 204.748C197.861 205.276 197.961 205.724 198.161 206.092C198.37 206.452 198.638 206.721 198.966 206.897C199.302 207.073 199.666 207.161 200.058 207.161C200.45 207.161 200.81 207.073 201.138 206.897C201.474 206.721 201.742 206.452 201.942 206.092C202.15 205.724 202.255 205.276 202.255 204.748C202.255 204.212 202.15 203.764 201.942 203.404C201.742 203.036 201.474 202.764 201.138 202.588C200.81 202.411 200.45 202.323 200.058 202.323ZM207.771 201.363C208.403 201.363 208.967 201.499 209.463 201.771C209.967 202.043 210.359 202.435 210.64 202.948C210.928 203.46 211.072 204.06 211.072 204.748C211.072 205.436 210.928 206.036 210.64 206.548C210.359 207.053 209.967 207.441 209.463 207.713C208.967 207.985 208.403 208.121 207.771 208.121C207.139 208.121 206.571 207.985 206.066 207.713C205.57 207.441 205.178 207.053 204.89 206.548C204.602 206.036 204.458 205.436 204.458 204.748C204.458 204.06 204.602 203.46 204.89 202.948C205.178 202.435 205.57 202.043 206.066 201.771C206.571 201.499 207.139 201.363 207.771 201.363ZM207.771 202.323C207.379 202.323 207.015 202.411 206.679 202.588C206.35 202.764 206.082 203.036 205.874 203.404C205.674 203.764 205.574 204.212 205.574 204.748C205.574 205.276 205.674 205.724 205.874 206.092C206.082 206.452 206.35 206.721 206.679 206.897C207.015 207.073 207.379 207.161 207.771 207.161C208.163 207.161 208.523 207.073 208.851 206.897C209.187 206.721 209.455 206.452 209.655 206.092C209.863 205.724 209.967 205.276 209.967 204.748C209.967 204.212 209.863 203.764 209.655 203.404C209.455 203.036 209.187 202.764 208.851 202.588C208.523 202.411 208.163 202.323 207.771 202.323ZM220.597 201.339C221.365 201.339 221.981 201.587 222.445 202.083C222.918 202.571 223.154 203.28 223.154 204.208V208.037H222.061V204.304C222.061 203.656 221.901 203.16 221.581 202.816C221.269 202.471 220.837 202.299 220.285 202.299C219.709 202.299 219.245 202.491 218.893 202.876C218.548 203.252 218.376 203.808 218.376 204.544V208.037H217.284V204.304C217.284 203.656 217.124 203.16 216.804 202.816C216.484 202.471 216.052 202.299 215.508 202.299C214.924 202.299 214.455 202.491 214.103 202.876C213.759 203.252 213.587 203.808 213.587 204.544V208.037H212.495V201.447H213.587V202.948C213.747 202.427 214.031 202.031 214.439 201.759C214.856 201.479 215.332 201.339 215.868 201.339C216.428 201.339 216.912 201.483 217.32 201.771C217.736 202.051 218.032 202.467 218.208 203.02C218.392 202.483 218.7 202.071 219.133 201.783C219.565 201.487 220.053 201.339 220.597 201.339Z" fill="#E5E8F0"/>
<path d="M225.352 73.0515C226.337 73.0515 227.161 73.2956 227.825 73.7837C228.497 74.2718 228.949 74.936 229.181 75.7762H228.029C227.829 75.2641 227.493 74.852 227.021 74.5399C226.557 74.2278 226.004 74.0718 225.364 74.0718C224.788 74.0718 224.272 74.2078 223.816 74.4799C223.36 74.7439 223 75.124 222.736 75.6202C222.48 76.1163 222.352 76.7004 222.352 77.3726C222.352 78.0608 222.484 78.6569 222.748 79.161C223.012 79.6572 223.376 80.0413 223.84 80.3133C224.312 80.5774 224.852 80.7094 225.46 80.7094C225.98 80.7094 226.457 80.5974 226.889 80.3734C227.321 80.1493 227.673 79.8252 227.945 79.4011C228.225 78.969 228.393 78.4649 228.449 77.8887H225.124V77.0725H229.373V78.0808C229.301 78.7529 229.093 79.3611 228.749 79.9052C228.405 80.4494 227.941 80.8815 227.357 81.2016C226.773 81.5216 226.108 81.6817 225.364 81.6817C224.548 81.6817 223.828 81.5016 223.204 81.1415C222.58 80.7735 222.091 80.2653 221.739 79.6172C221.395 78.961 221.223 78.2128 221.223 77.3726C221.223 76.5324 221.395 75.7882 221.739 75.14C222.091 74.4839 222.58 73.9717 223.204 73.6037C223.828 73.2356 224.544 73.0515 225.352 73.0515ZM233.842 74.924C234.474 74.924 235.039 75.06 235.535 75.3321C236.039 75.6042 236.431 75.9963 236.711 76.5084C236.999 77.0205 237.143 77.6207 237.143 78.3088C237.143 78.997 236.999 79.5972 236.711 80.1093C236.431 80.6134 236.039 81.0015 235.535 81.2736C235.039 81.5456 234.474 81.6817 233.842 81.6817C233.21 81.6817 232.642 81.5456 232.138 81.2736C231.642 81.0015 231.25 80.6134 230.962 80.1093C230.673 79.5972 230.529 78.997 230.529 78.3088C230.529 77.6207 230.673 77.0205 230.962 76.5084C231.25 75.9963 231.642 75.6042 232.138 75.3321C232.642 75.06 233.21 74.924 233.842 74.924ZM233.842 75.8842C233.45 75.8842 233.086 75.9722 232.75 76.1483C232.422 76.3243 232.154 76.5964 231.946 76.9645C231.746 77.3246 231.646 77.7727 231.646 78.3088C231.646 78.837 231.746 79.2851 231.946 79.6532C232.154 80.0133 232.422 80.2813 232.75 80.4574C233.086 80.6334 233.45 80.7214 233.842 80.7214C234.234 80.7214 234.594 80.6334 234.923 80.4574C235.259 80.2813 235.527 80.0133 235.727 79.6532C235.935 79.2851 236.039 78.837 236.039 78.3088C236.039 77.7727 235.935 77.3246 235.727 76.9645C235.527 76.5964 235.259 76.3243 234.923 76.1483C234.594 75.9722 234.234 75.8842 233.842 75.8842ZM241.555 74.924C242.187 74.924 242.751 75.06 243.248 75.3321C243.752 75.6042 244.144 75.9963 244.424 76.5084C244.712 77.0205 244.856 77.6207 244.856 78.3088C244.856 78.997 244.712 79.5972 244.424 80.1093C244.144 80.6134 243.752 81.0015 243.248 81.2736C242.751 81.5456 242.187 81.6817 241.555 81.6817C240.923 81.6817 240.355 81.5456 239.851 81.2736C239.355 81.0015 238.962 80.6134 238.674 80.1093C238.386 79.5972 238.242 78.997 238.242 78.3088C238.242 77.6207 238.386 77.0205 238.674 76.5084C238.962 75.9963 239.355 75.6042 239.851 75.3321C240.355 75.06 240.923 74.924 241.555 74.924ZM241.555 75.8842C241.163 75.8842 240.799 75.9722 240.463 76.1483C240.135 76.3243 239.867 76.5964 239.659 76.9645C239.459 77.3246 239.359 77.7727 239.359 78.3088C239.359 78.837 239.459 79.2851 239.659 79.6532C239.867 80.0133 240.135 80.2813 240.463 80.4574C240.799 80.6334 241.163 80.7214 241.555 80.7214C241.947 80.7214 242.307 80.6334 242.635 80.4574C242.971 80.2813 243.24 80.0133 243.44 79.6532C243.648 79.2851 243.752 78.837 243.752 78.3088C243.752 77.7727 243.648 77.3246 243.44 76.9645C243.24 76.5964 242.971 76.3243 242.635 76.1483C242.307 75.9722 241.947 75.8842 241.555 75.8842ZM248.98 74.924C249.62 74.924 250.16 75.084 250.6 75.4041C251.048 75.7242 251.361 76.1523 251.537 76.6884V75.008H252.629V81.7057C252.629 82.3138 252.501 82.854 252.245 83.3261C251.989 83.7982 251.629 84.1663 251.164 84.4304C250.7 84.6944 250.16 84.8265 249.544 84.8265C248.656 84.8265 247.932 84.6104 247.372 84.1783C246.811 83.7542 246.455 83.1781 246.303 82.4499H247.384C247.512 82.89 247.752 83.2341 248.104 83.4821C248.464 83.7382 248.924 83.8662 249.484 83.8662C250.076 83.8662 250.564 83.6742 250.948 83.2901C251.341 82.914 251.537 82.3859 251.537 81.7057V79.9172C251.361 80.4534 251.048 80.8815 250.6 81.2016C250.16 81.5216 249.62 81.6817 248.98 81.6817C248.396 81.6817 247.876 81.5456 247.42 81.2736C246.963 81.0015 246.603 80.6134 246.339 80.1093C246.083 79.5972 245.955 78.997 245.955 78.3088C245.955 77.6207 246.083 77.0205 246.339 76.5084C246.603 75.9963 246.963 75.6042 247.42 75.3321C247.876 75.06 248.396 74.924 248.98 74.924ZM249.292 75.8962C248.62 75.8962 248.08 76.1123 247.672 76.5444C247.271 76.9685 247.071 77.5566 247.071 78.3088C247.071 79.061 247.271 79.6532 247.672 80.0853C248.08 80.5094 248.62 80.7214 249.292 80.7214C249.724 80.7214 250.108 80.6214 250.444 80.4214C250.788 80.2213 251.056 79.9412 251.248 79.5812C251.441 79.2131 251.537 78.789 251.537 78.3088C251.537 77.8287 251.441 77.4046 251.248 77.0365C251.056 76.6684 250.788 76.3884 250.444 76.1963C250.108 75.9963 249.724 75.8962 249.292 75.8962ZM255.459 72.7154V81.5977H254.367V72.7154H255.459ZM263.277 77.9367C263.277 78.1688 263.261 78.3688 263.229 78.5369H257.96C257.984 79.2891 258.196 79.8532 258.596 80.2293C259.004 80.6054 259.5 80.7935 260.084 80.7935C260.612 80.7935 261.053 80.6614 261.405 80.3974C261.765 80.1253 261.985 79.7652 262.065 79.3171H263.229C263.149 79.7732 262.969 80.1813 262.689 80.5414C262.417 80.9015 262.061 81.1816 261.621 81.3816C261.181 81.5817 260.684 81.6817 260.132 81.6817C259.5 81.6817 258.94 81.5456 258.452 81.2736C257.964 81.0015 257.58 80.6134 257.3 80.1093C257.028 79.5972 256.891 78.997 256.891 78.3088C256.891 77.6207 257.028 77.0205 257.3 76.5084C257.58 75.9963 257.964 75.6042 258.452 75.3321C258.94 75.06 259.5 74.924 260.132 74.924C260.772 74.924 261.329 75.06 261.801 75.3321C262.281 75.6042 262.645 75.9682 262.893 76.4244C263.149 76.8805 263.277 77.3846 263.277 77.9367ZM262.173 78.0088C262.197 77.5206 262.117 77.1125 261.933 76.7845C261.749 76.4564 261.497 76.2123 261.177 76.0523C260.856 75.8922 260.508 75.8122 260.132 75.8122C259.532 75.8122 259.028 76.0003 258.62 76.3764C258.212 76.7444 257.992 77.2886 257.96 78.0088H262.173ZM268.764 78.1888V81.5977H267.671V73.1355H270.36C271.328 73.1355 272.052 73.3636 272.533 73.8197C273.013 74.2678 273.253 74.884 273.253 75.6682C273.253 76.4604 273.005 77.0805 272.509 77.5286C272.012 77.9687 271.296 78.1888 270.36 78.1888H268.764ZM270.264 77.2766C270.928 77.2766 271.404 77.1365 271.692 76.8565C271.988 76.5764 272.136 76.1803 272.136 75.6682C272.136 75.14 271.988 74.7399 271.692 74.4679C271.404 74.1878 270.928 74.0478 270.264 74.0478H268.764V77.2766H270.264ZM277.997 74.9C278.766 74.9 279.386 75.148 279.858 75.6442C280.33 76.1323 280.566 76.8405 280.566 77.7687V81.5977H279.474V77.8647C279.474 77.2086 279.306 76.7044 278.97 76.3523C278.634 76.0003 278.177 75.8242 277.601 75.8242C277.001 75.8242 276.521 76.0203 276.161 76.4124C275.801 76.7965 275.621 77.3606 275.621 78.1048V81.5977H274.528V72.7154H275.621V76.5684C275.789 76.0323 276.085 75.6202 276.509 75.3321C276.941 75.044 277.437 74.9 277.997 74.9ZM285.23 74.924C285.862 74.924 286.426 75.06 286.923 75.3321C287.427 75.6042 287.819 75.9963 288.099 76.5084C288.387 77.0205 288.531 77.6207 288.531 78.3088C288.531 78.997 288.387 79.5972 288.099 80.1093C287.819 80.6134 287.427 81.0015 286.923 81.2736C286.426 81.5456 285.862 81.6817 285.23 81.6817C284.598 81.6817 284.03 81.5456 283.526 81.2736C283.03 81.0015 282.637 80.6134 282.349 80.1093C282.061 79.5972 281.917 78.997 281.917 78.3088C281.917 77.6207 282.061 77.0205 282.349 76.5084C282.637 75.9963 283.03 75.6042 283.526 75.3321C284.03 75.06 284.598 74.924 285.23 74.924ZM285.23 75.8842C284.838 75.8842 284.474 75.9722 284.138 76.1483C283.81 76.3243 283.542 76.5964 283.334 76.9645C283.134 77.3246 283.034 77.7727 283.034 78.3088C283.034 78.837 283.134 79.2851 283.334 79.6532C283.542 80.0133 283.81 80.2813 284.138 80.4574C284.474 80.6334 284.838 80.7214 285.23 80.7214C285.622 80.7214 285.982 80.6334 286.31 80.4574C286.646 80.2813 286.915 80.0133 287.115 79.6532C287.323 79.2851 287.427 78.837 287.427 78.3088C287.427 77.7727 287.323 77.3246 287.115 76.9645C286.915 76.5964 286.646 76.3243 286.31 76.1483C285.982 75.9722 285.622 75.8842 285.23 75.8842ZM293.099 80.6374V81.5977H292.283C291.611 81.5977 291.107 81.4376 290.77 81.1175C290.442 80.7975 290.278 80.2613 290.278 79.5091V75.9562H289.294V75.008H290.278V73.3636H291.383V75.008H293.087V75.9562H291.383V79.5331C291.383 79.9572 291.459 80.2493 291.611 80.4094C291.771 80.5614 292.043 80.6374 292.427 80.6374H293.099ZM297.421 74.924C298.053 74.924 298.617 75.06 299.113 75.3321C299.617 75.6042 300.009 75.9963 300.289 76.5084C300.577 77.0205 300.721 77.6207 300.721 78.3088C300.721 78.997 300.577 79.5972 300.289 80.1093C300.009 80.6134 299.617 81.0015 299.113 81.2736C298.617 81.5456 298.053 81.6817 297.421 81.6817C296.788 81.6817 296.22 81.5456 295.716 81.2736C295.22 81.0015 294.828 80.6134 294.54 80.1093C294.252 79.5972 294.108 78.997 294.108 78.3088C294.108 77.6207 294.252 77.0205 294.54 76.5084C294.828 75.9963 295.22 75.6042 295.716 75.3321C296.22 75.06 296.788 74.924 297.421 74.924ZM297.421 75.8842C297.029 75.8842 296.664 75.9722 296.328 76.1483C296 76.3243 295.732 76.5964 295.524 76.9645C295.324 77.3246 295.224 77.7727 295.224 78.3088C295.224 78.837 295.324 79.2851 295.524 79.6532C295.732 80.0133 296 80.2813 296.328 80.4574C296.664 80.6334 297.029 80.7214 297.421 80.7214C297.813 80.7214 298.173 80.6334 298.501 80.4574C298.837 80.2813 299.105 80.0133 299.305 79.6532C299.513 79.2851 299.617 78.837 299.617 78.3088C299.617 77.7727 299.513 77.3246 299.305 76.9645C299.105 76.5964 298.837 76.3243 298.501 76.1483C298.173 75.9722 297.813 75.8842 297.421 75.8842ZM304.209 74.924C304.953 74.924 305.55 75.12 305.998 75.5121C306.454 75.8962 306.73 76.4164 306.826 77.0725H305.782C305.734 76.6804 305.57 76.3603 305.29 76.1123C305.017 75.8562 304.649 75.7282 304.185 75.7282C303.793 75.7282 303.485 75.8242 303.261 76.0163C303.045 76.2003 302.937 76.4524 302.937 76.7724C302.937 77.0125 303.009 77.2086 303.153 77.3606C303.305 77.5046 303.489 77.6167 303.705 77.6967C303.929 77.7687 304.233 77.8487 304.617 77.9367C305.106 78.0488 305.498 78.1648 305.794 78.2848C306.098 78.3969 306.354 78.5809 306.562 78.837C306.778 79.093 306.886 79.4371 306.886 79.8692C306.886 80.4054 306.682 80.8415 306.274 81.1776C305.874 81.5136 305.338 81.6817 304.665 81.6817C303.881 81.6817 303.241 81.4936 302.745 81.1175C302.249 80.7414 301.957 80.2173 301.869 79.5451H302.925C302.965 79.9452 303.137 80.2693 303.441 80.5174C303.753 80.7654 304.161 80.8895 304.665 80.8895C305.041 80.8895 305.334 80.7935 305.542 80.6014C305.758 80.4094 305.866 80.1573 305.866 79.8452C305.866 79.5892 305.79 79.3851 305.638 79.2331C305.486 79.081 305.298 78.965 305.073 78.885C304.849 78.805 304.541 78.7209 304.149 78.6329C303.661 78.5209 303.269 78.4089 302.973 78.2968C302.685 78.1848 302.437 78.0088 302.229 77.7687C302.029 77.5206 301.929 77.1886 301.929 76.7724C301.929 76.2203 302.133 75.7762 302.541 75.4401C302.949 75.096 303.505 74.924 304.209 74.924Z" fill="#E5E8F0"/>
<path d="M21.5903 85.4949V86.3831H17.8934V89.3119H21.0261V90.1641H17.8934V93.957H16.8011V85.4949H21.5903ZM23.9769 85.0748V93.957H22.8846V85.0748H23.9769ZM25.541 85.4349C25.541 85.2349 25.609 85.0748 25.745 84.9548C25.881 84.8267 26.0611 84.7627 26.2851 84.7627C26.5092 84.7627 26.6892 84.8267 26.8253 84.9548C26.9613 85.0748 27.0293 85.2349 27.0293 85.4349C27.0293 85.6349 26.9613 85.799 26.8253 85.927C26.6892 86.0471 26.5092 86.1071 26.2851 86.1071C26.0611 86.1071 25.881 86.0471 25.745 85.927C25.609 85.799 25.541 85.6349 25.541 85.4349ZM26.8253 87.3674V93.957H25.733V87.3674H26.8253ZM31.4981 87.2834C32.3383 87.2834 33.0345 87.5074 33.5866 87.9555C34.1388 88.4036 34.4788 89.0038 34.6069 89.756H33.4546C33.3746 89.2839 33.1545 88.9158 32.7944 88.6517C32.4423 88.3796 32.0022 88.2436 31.4741 88.2436C31.09 88.2436 30.7379 88.3316 30.4178 88.5077C30.1058 88.6837 29.8537 88.9558 29.6616 89.3239C29.4696 89.684 29.3736 90.1321 29.3736 90.6682C29.3736 91.2043 29.4696 91.6565 29.6616 92.0245C29.8537 92.3846 30.1058 92.6527 30.4178 92.8287C30.7379 93.0048 31.09 93.0928 31.4741 93.0928C32.0022 93.0928 32.4423 92.9568 32.7944 92.6847C33.1545 92.4126 33.3746 92.0406 33.4546 91.5684H34.6069C34.4788 92.3286 34.1388 92.9328 33.5866 93.3809C33.0345 93.821 32.3383 94.0411 31.4981 94.0411C30.8659 94.0411 30.3058 93.905 29.8177 93.633C29.3296 93.3609 28.9455 92.9728 28.6654 92.4687C28.3933 91.9565 28.2573 91.3564 28.2573 90.6682C28.2573 89.98 28.3933 89.3799 28.6654 88.8678C28.9455 88.3556 29.3296 87.9635 29.8177 87.6915C30.3058 87.4194 30.8659 87.2834 31.4981 87.2834ZM39.6493 93.957L37.1286 90.9923V93.957H36.0364V85.0748H37.1286V90.2361L39.6133 87.3674H40.9456L37.9929 90.6442L41.0176 93.957H39.6493ZM43.0715 88.6997C43.2876 88.2436 43.6037 87.8915 44.0198 87.6435C44.4359 87.3874 44.932 87.2594 45.5081 87.2594V88.4477H45.1721C44.5559 88.4477 44.0518 88.6077 43.6597 88.9278C43.2676 89.2399 43.0715 89.76 43.0715 90.4882V93.957H41.9793V87.3674H43.0715V88.6997Z" fill="#E5E8F0"/>
</svg>
