<svg width="25" height="25" viewBox="0 0 25 25" fill="none" xmlns="http://www.w3.org/2000/svg">
<path fill-rule="evenodd" clip-rule="evenodd" d="M24.3469 24.664H19.7315V16.2591C19.7315 13.9534 18.7542 12.6673 17.0015 12.6673C15.0942 12.6673 13.9623 14.0075 13.9623 16.2591V24.664H9.34692V9.05265H13.9623V10.8083C13.9623 10.8083 15.4104 8.164 18.6735 8.164C21.9377 8.164 24.3469 10.2367 24.3469 14.5262C24.3469 18.8145 24.3469 24.664 24.3469 24.664ZM2.59738 5.164C1.35419 5.164 0.346924 4.15628 0.346924 2.91354C0.346924 1.67172 1.35419 0.664001 2.59738 0.664001C3.83965 0.664001 4.84692 1.67172 4.84692 2.91354C4.84784 4.15628 3.83965 5.164 2.59738 5.164ZM0.346924 24.664H4.84692V9.664H0.346924V24.664Z" fill="#33E1AC"/>
</svg>
