<?xml version="1.0" encoding="utf-8"?>
<!-- Generator: Adobe Illustrator 16.0.0, SVG Export Plug-In . SVG Version: 6.00 Build 0)  -->
<!DOCTYPE svg PUBLIC "-//W3C//DTD SVG 1.1//EN" "http://www.w3.org/Graphics/SVG/1.1/DTD/svg11.dtd">
<svg version="1.1" id="Layer_1" xmlns="http://www.w3.org/2000/svg" xmlns:xlink="http://www.w3.org/1999/xlink" x="0px" y="0px"
	 width="180px" height="180px" viewBox="0 0 180 180" enable-background="new 0 0 180 180" xml:space="preserve">
<g id="Layer_2">
	<g>
		<g>
			<g>
				<path id="SVGID_5_" fill="#0A153A" d="M158.307,92.237c0,40.856-33.115,73.978-73.977,73.978
					c-40.855,0-73.975-33.119-73.975-73.978c0-37.424,27.795-68.36,63.867-73.292c3.307-0.451,6.678-0.686,10.106-0.686
					C125.189,18.261,158.307,51.382,158.307,92.237z"/>
			</g>
			<g>
				<g>
					<defs>
						<path id="SVGID_2_" d="M158.307,92.237c0,40.856-33.115,73.978-73.977,73.978c-40.855,0-73.975-33.119-73.975-73.978
							c0-37.424,27.795-68.36,63.867-73.292c3.307-0.451,6.678-0.686,10.106-0.686C125.189,18.261,158.307,51.382,158.307,92.237z"
							/>
					</defs>
					<clipPath id="SVGID_3_">
						<use xlink:href="#SVGID_2_"  overflow="visible"/>
					</clipPath>
					<polyline clip-path="url(#SVGID_3_)" fill="none" stroke="#213468" stroke-width="4.0098" stroke-miterlimit="10" points="
						185.133,3.851 185.133,182.048 51.273,182.048 					"/>
				</g>
			</g>
			<g>
				<g>
					<defs>
						<path id="SVGID_4_" d="M158.307,92.237c0,40.856-33.115,73.978-73.977,73.978c-40.855,0-73.975-33.119-73.975-73.978
							c0-37.424,27.795-68.36,63.867-73.292c3.307-0.451,6.678-0.686,10.106-0.686C125.189,18.261,158.307,51.382,158.307,92.237z"
							/>
					</defs>
					<clipPath id="SVGID_6_">
						<use xlink:href="#SVGID_4_"  overflow="visible"/>
					</clipPath>
					<rect x="4.589" y="75.935" clip-path="url(#SVGID_6_)" fill="#0A153A" width="46.687" height="107.926"/>
				</g>
			</g>
			<g>
				<g>
					<defs>
						<path id="SVGID_7_" d="M158.307,92.237c0,40.856-33.115,73.978-73.977,73.978c-40.855,0-73.975-33.119-73.975-73.978
							c0-37.424,27.795-68.36,63.867-73.292c3.307-0.451,6.678-0.686,10.106-0.686C125.189,18.261,158.307,51.382,158.307,92.237z"
							/>
					</defs>
					<clipPath id="SVGID_8_">
						<use xlink:href="#SVGID_7_"  overflow="visible"/>
					</clipPath>
					<g clip-path="url(#SVGID_8_)">
						
							<rect x="126.847" y="4.159" transform="matrix(1 -0.0017 0.0017 1 -0.1373 0.2447)" fill="#E5E8EF" width="37.161" height="155.239"/>
						<path fill="#0A153A" d="M126.984,162.424c-0.793,0-1.555-0.313-2.116-0.875c-0.563-0.562-0.882-1.324-0.884-2.12
							L123.719,4.192c-0.005-1.656,1.338-3.002,2.993-3.005l37.16-0.064c0.001,0,0.004,0,0.006,0c1.653,0,2.996,1.341,3,2.995
							l0.271,155.236c0,0.795-0.312,1.56-0.875,2.123s-1.324,0.881-2.121,0.883l-37.161,0.063
							C126.989,162.424,126.986,162.424,126.984,162.424z M129.723,7.182l0.258,149.237l31.162-0.055l-0.26-149.237L129.723,7.182z"
							/>
					</g>
				</g>
			</g>
			<g>
				<g>
					<defs>
						<path id="SVGID_9_" d="M158.307,92.237c0,40.856-33.115,73.978-73.977,73.978c-40.855,0-73.975-33.119-73.975-73.978
							c0-37.424,27.795-68.36,63.867-73.292c3.307-0.451,6.678-0.686,10.106-0.686C125.189,18.261,158.307,51.382,158.307,92.237z"
							/>
					</defs>
					<clipPath id="SVGID_10_">
						<use xlink:href="#SVGID_9_"  overflow="visible"/>
					</clipPath>
					<g clip-path="url(#SVGID_10_)">
						<rect x="57.213" y="38.708" fill="#E5E8EF" width="46.686" height="176.183"/>
						<path fill="#0A153A" d="M103.898,217.891H57.212c-1.657,0-3-1.343-3-3V38.708c0-1.657,1.343-3,3-3h46.687c1.656,0,3,1.343,3,3
							v176.183C106.898,216.548,105.555,217.891,103.898,217.891z M60.213,211.891h40.686V41.708H60.213V211.891z"/>
					</g>
				</g>
			</g>
			<g>
				<g>
					<defs>
						<path id="SVGID_11_" d="M158.307,92.237c0,40.856-33.115,73.978-73.977,73.978c-40.855,0-73.975-33.119-73.975-73.978
							c0-37.424,27.795-68.36,63.867-73.292c3.307-0.451,6.678-0.686,10.106-0.686C125.189,18.261,158.307,51.382,158.307,92.237z"
							/>
					</defs>
					<clipPath id="SVGID_12_">
						<use xlink:href="#SVGID_11_"  overflow="visible"/>
					</clipPath>
					<g clip-path="url(#SVGID_12_)">
						
							<rect x="89.195" y="23.401" transform="matrix(0.8911 -0.4538 0.4538 0.8911 -30.1089 59.0251)" fill="#E5E8EF" width="37.467" height="137.691"/>
						<path fill="#0A153A" d="M121.168,166.122L55.961,38.077l38.732-19.726l65.205,128.042L121.168,166.122z M64.031,40.7
							l59.76,117.352l28.04-14.279L92.07,26.423L64.031,40.7z"/>
					</g>
				</g>
			</g>
			<g>
				<path id="SVGID_1_" fill="none" stroke="#0A153A" stroke-width="7" stroke-miterlimit="10" d="M158.307,92.237
					c0,40.856-33.115,73.978-73.977,73.978c-40.855,0-73.975-33.119-73.975-73.978c0-37.424,27.795-68.36,63.867-73.292
					c3.307-0.451,6.678-0.686,10.106-0.686C125.189,18.261,158.307,51.382,158.307,92.237z"/>
			</g>
		</g>
		<path fill="#0A153A" d="M84.335,22.41c38.5,0,69.822,31.323,69.822,69.825c0,25.272-13.716,48.645-35.793,60.989
			c-10.345,5.782-22.11,8.841-34.029,8.841c-38.503,0-69.828-31.326-69.828-69.83C14.507,53.735,45.832,22.41,84.335,22.41
			 M84.335,16.41c-41.881,0-75.828,33.946-75.828,75.825c0,41.881,33.947,75.83,75.828,75.83c13.417,0,26.021-3.488,36.958-9.604
			c23.189-12.971,38.864-37.77,38.864-66.229C160.157,50.358,126.211,16.41,84.335,16.41L84.335,16.41z"/>
		<g>
			<g>
				<path fill="#0A153A" d="M58.314,102.429c-25.705,0-46.619-20.912-46.619-46.617c0-23.195,17.303-43.053,40.244-46.188
					c2.102-0.284,4.248-0.43,6.375-0.43c25.705,0,46.615,20.913,46.615,46.618C104.93,81.516,84.02,102.429,58.314,102.429z"/>
				<path fill="#E5E8EF" d="M58.314,12.194c24.051,0,43.615,19.566,43.615,43.618c0,24.051-19.564,43.616-43.615,43.616
					S14.695,79.862,14.695,55.812c0-21.705,16.188-40.283,37.645-43.216C54.311,12.329,56.32,12.194,58.314,12.194 M58.314,6.194
					c-2.305,0-4.562,0.156-6.78,0.457C27.337,9.959,8.695,30.709,8.695,55.812c0,27.399,22.216,49.616,49.619,49.616
					c27.4,0,49.615-22.217,49.615-49.616C107.93,28.405,85.716,6.194,58.314,6.194L58.314,6.194z"/>
			</g>
			<g>
				<path fill="#E5E8EF" d="M58.314,70.688c-7.336,0-13.305-5.969-13.305-13.305c0-7.333,5.969-13.299,13.305-13.299
					c7.334,0,13.3,5.966,13.3,13.299C71.614,64.72,65.648,70.688,58.314,70.688z"/>
				<path fill="#E5E8EF" d="M58.314,47.085c5.68,0,10.3,4.619,10.3,10.299c0,5.682-4.62,10.305-10.3,10.305
					c-5.683,0-10.305-4.623-10.305-10.305C48.01,51.704,52.633,47.085,58.314,47.085 M58.314,41.085
					c-9.004,0-16.305,7.297-16.305,16.299c0,9.008,7.301,16.305,16.305,16.305c9.002,0,16.3-7.297,16.3-16.305
					C74.614,48.382,67.316,41.085,58.314,41.085L58.314,41.085z"/>
			</g>
		</g>
	</g>
</g>
</svg>
