<?xml version="1.0" encoding="utf-8"?>
<!-- Generator: Adobe Illustrator 16.0.0, SVG Export Plug-In . SVG Version: 6.00 Build 0)  -->
<!DOCTYPE svg PUBLIC "-//W3C//DTD SVG 1.1//EN" "http://www.w3.org/Graphics/SVG/1.1/DTD/svg11.dtd" [
	<!ENTITY ns_flows "http://ns.adobe.com/Flows/1.0/">
	<!ENTITY ns_extend "http://ns.adobe.com/Extensibility/1.0/">
	<!ENTITY ns_ai "http://ns.adobe.com/AdobeIllustrator/10.0/">
	<!ENTITY ns_graphs "http://ns.adobe.com/Graphs/1.0/">
]>
<svg version="1.1" id="Layer_1" xmlns:x="&ns_extend;" xmlns:i="&ns_ai;" xmlns:graph="&ns_graphs;"
	 xmlns="http://www.w3.org/2000/svg" xmlns:xlink="http://www.w3.org/1999/xlink" xmlns:a="http://ns.adobe.com/AdobeSVGViewerExtensions/3.0/"
	 x="0px" y="0px" width="180px" height="180px" viewBox="79.875 66 180 180" enable-background="new 79.875 66 180 180"
	 xml:space="preserve">
<g id="Layer_2">
	<g>
		<g>
			<g>
				<path id="SVGID_5_" fill="#0A153A" d="M243.85,161.107c0,40.857-33.116,73.978-73.977,73.978
					c-40.855,0-73.975-33.119-73.975-73.978c0-37.424,27.795-68.36,63.867-73.291c3.307-0.451,6.678-0.686,10.107-0.686
					C210.733,87.131,243.85,120.252,243.85,161.107z"/>
			</g>
			<g>
				<defs>
					<path id="SVGID_2_" d="M243.85,161.107c0,40.857-33.116,73.978-73.977,73.978c-40.855,0-73.975-33.119-73.975-73.978
						c0-37.424,27.795-68.36,63.867-73.291c3.307-0.451,6.678-0.686,10.107-0.686C210.733,87.131,243.85,120.252,243.85,161.107z"/>
				</defs>
				<clipPath id="SVGID_3_">
					<use xlink:href="#SVGID_2_"  overflow="visible"/>
				</clipPath>
				<polyline clip-path="url(#SVGID_3_)" fill="none" stroke="#213468" stroke-width="4.0098" stroke-miterlimit="10" points="
					270.676,72.721 270.676,250.918 136.817,250.918 				"/>
			</g>
			<g>
				<defs>
					<path id="SVGID_4_" d="M243.85,161.107c0,40.857-33.116,73.978-73.977,73.978c-40.855,0-73.975-33.119-73.975-73.978
						c0-37.424,27.795-68.36,63.867-73.291c3.307-0.451,6.678-0.686,10.107-0.686C210.733,87.131,243.85,120.252,243.85,161.107z"/>
				</defs>
				<clipPath id="SVGID_6_">
					<use xlink:href="#SVGID_4_"  overflow="visible"/>
				</clipPath>
				<rect x="90.132" y="144.805" clip-path="url(#SVGID_6_)" fill="#0A153A" width="46.686" height="107.926"/>
			</g>
			<g>
				<defs>
					<path id="SVGID_7_" d="M243.85,161.107c0,40.857-33.116,73.978-73.977,73.978c-40.855,0-73.975-33.119-73.975-73.978
						c0-37.424,27.795-68.36,63.867-73.291c3.307-0.451,6.678-0.686,10.107-0.686C210.733,87.131,243.85,120.252,243.85,161.107z"/>
				</defs>
				<clipPath id="SVGID_8_">
					<use xlink:href="#SVGID_7_"  overflow="visible"/>
				</clipPath>
				<g clip-path="url(#SVGID_8_)">
					
						<rect x="212.39" y="73.032" transform="matrix(-1 0.0017 -0.0017 -1 462.1984 300.907)" fill="#E5E8EF" width="37.162" height="155.239"/>
					<path fill="#0A153A" d="M212.528,231.294c-0.794,0-1.556-0.313-2.117-0.875c-0.563-0.562-0.882-1.324-0.883-2.12
						l-0.267-155.237c-0.004-1.656,1.338-3.002,2.994-3.005l37.16-0.064c0.001,0,0.004,0,0.006,0c1.653,0,2.996,1.341,3,2.995
						l0.27,155.237c0.001,0.795-0.312,1.559-0.875,2.122c-0.562,0.564-1.324,0.882-2.12,0.884l-37.162,0.063
						C212.532,231.294,212.53,231.294,212.528,231.294z M215.266,76.052l0.258,149.237l31.162-0.055l-0.26-149.237L215.266,76.052z"
						/>
				</g>
			</g>
			<g>
				<defs>
					<path id="SVGID_9_" d="M243.85,161.107c0,40.857-33.116,73.978-73.977,73.978c-40.855,0-73.975-33.119-73.975-73.978
						c0-37.424,27.795-68.36,63.867-73.291c3.307-0.451,6.678-0.686,10.107-0.686C210.733,87.131,243.85,120.252,243.85,161.107z"/>
				</defs>
				<clipPath id="SVGID_10_">
					<use xlink:href="#SVGID_9_"  overflow="visible"/>
				</clipPath>
				<g clip-path="url(#SVGID_10_)">
					<rect x="142.756" y="107.578" fill="#E5E8EF" width="46.686" height="176.183"/>
					<path fill="#0A153A" d="M189.441,286.761h-46.686c-1.657,0-3-1.343-3-3V107.578c0-1.657,1.343-3,3-3h46.686
						c1.656,0,3,1.343,3,3v176.183C192.441,285.418,191.098,286.761,189.441,286.761z M145.756,280.761h40.686V110.578h-40.686
						V280.761z"/>
				</g>
			</g>
			<g>
				<defs>
					<path id="SVGID_11_" d="M243.85,161.107c0,40.857-33.116,73.978-73.977,73.978c-40.855,0-73.975-33.119-73.975-73.978
						c0-37.424,27.795-68.36,63.867-73.291c3.307-0.451,6.678-0.686,10.107-0.686C210.733,87.131,243.85,120.252,243.85,161.107z"/>
				</defs>
				<clipPath id="SVGID_12_">
					<use xlink:href="#SVGID_11_"  overflow="visible"/>
				</clipPath>
				<g clip-path="url(#SVGID_12_)">
					
						<rect x="174.737" y="92.272" transform="matrix(-0.8911 0.4538 -0.4538 -0.8911 438.9883 216.8916)" fill="#E5E8EF" width="37.467" height="137.691"/>
					<path fill="#0A153A" d="M206.711,234.992l-65.207-128.045l38.732-19.726l65.206,128.042L206.711,234.992z M149.574,109.57
						l59.76,117.352l28.04-14.279l-59.761-117.35L149.574,109.57z"/>
				</g>
			</g>
			<g>
				<path id="SVGID_1_" fill="none" stroke="#0A153A" stroke-width="7" stroke-miterlimit="10" d="M243.85,161.107
					c0,40.857-33.116,73.978-73.977,73.978c-40.855,0-73.975-33.119-73.975-73.978c0-37.424,27.795-68.36,63.867-73.291
					c3.307-0.451,6.678-0.686,10.107-0.686C210.733,87.131,243.85,120.252,243.85,161.107z"/>
			</g>
		</g>
		<path fill="#0A153A" d="M169.878,91.28c38.5,0,69.822,31.324,69.822,69.826c0,25.272-13.716,48.644-35.793,60.989
			c-10.344,5.782-22.11,8.84-34.029,8.84c-38.503,0-69.828-31.326-69.828-69.829C100.05,122.605,131.375,91.28,169.878,91.28
			 M169.878,85.28c-41.881,0-75.828,33.947-75.828,75.826c0,41.88,33.947,75.829,75.828,75.829c13.417,0,26.021-3.488,36.958-9.603
			c23.19-12.97,38.864-37.769,38.864-66.228C245.7,119.229,211.754,85.28,169.878,85.28L169.878,85.28z"/>
		<g>
			<g>
				<path fill="#0A153A" d="M143.858,171.299c-25.706,0-46.619-20.912-46.619-46.617c0-23.196,17.302-43.053,40.244-46.188
					c2.101-0.284,4.247-0.43,6.375-0.43c25.704,0,46.614,20.912,46.614,46.617S169.562,171.299,143.858,171.299z"/>
				<path fill="#E5E8EF" d="M143.858,81.064c24.05,0,43.614,19.566,43.614,43.617s-19.564,43.617-43.614,43.617
					c-24.052,0-43.619-19.566-43.619-43.617c0-21.704,16.187-40.282,37.644-43.215C139.853,81.199,141.864,81.064,143.858,81.064
					 M143.858,75.064c-2.305,0-4.562,0.156-6.781,0.457c-24.197,3.308-42.838,24.058-42.838,49.16
					c0,27.4,22.215,49.617,49.619,49.617c27.4,0,49.614-22.217,49.614-49.617C193.473,97.276,171.259,75.064,143.858,75.064
					L143.858,75.064z"/>
			</g>
			<g>
				<path fill="#E5E8EF" d="M143.858,139.559c-7.337,0-13.305-5.969-13.305-13.305c0-7.333,5.968-13.299,13.305-13.299
					c7.333,0,13.299,5.966,13.299,13.299C157.157,133.59,151.191,139.559,143.858,139.559z"/>
				<path fill="#E5E8EF" d="M143.858,115.955c5.679,0,10.299,4.619,10.299,10.299c0,5.682-4.62,10.305-10.299,10.305
					c-5.683,0-10.305-4.623-10.305-10.305C133.553,120.574,138.176,115.955,143.858,115.955 M143.858,109.955
					c-9.004,0-16.305,7.297-16.305,16.299c0,9.008,7.301,16.305,16.305,16.305c9.002,0,16.299-7.297,16.299-16.305
					C160.157,117.252,152.86,109.955,143.858,109.955L143.858,109.955z"/>
			</g>
		</g>
	</g>
</g>
</svg>
