<svg width="28" height="25" viewBox="0 0 28 25" fill="none" xmlns="http://www.w3.org/2000/svg">
<path fill-rule="evenodd" clip-rule="evenodd" d="M9.1977 24.4234C19.5479 24.4234 25.2091 15.1889 25.2091 7.18159C25.2091 6.91871 25.2091 6.65732 25.1927 6.3974C26.2939 5.54084 27.2443 4.47754 28 3.26064C26.9742 3.75095 25.8839 4.07289 24.7689 4.21467C25.9428 3.45706 26.8219 2.26675 27.243 0.862296C26.1376 1.56821 24.9294 2.0659 23.669 2.3332C21.5378 -0.106494 17.9735 -0.224639 15.7065 2.07033C14.2459 3.5501 13.6247 5.75646 14.0786 7.86092C9.55427 7.61577 5.3385 5.31489 2.48044 1.52982C0.986954 4.29884 1.75084 7.84024 4.22353 9.61833C3.32798 9.59027 2.45164 9.33035 1.66855 8.86072V8.93752C1.66993 11.8217 3.55838 14.3057 6.1833 14.8773C5.35495 15.1209 4.48547 15.1564 3.64341 14.9806C4.37987 17.4499 6.49324 19.1408 8.9001 19.1896C6.90741 20.8761 4.4457 21.7917 1.9113 21.7888C1.46421 21.7873 1.01713 21.7592 0.571411 21.7016C3.14558 23.4797 6.13941 24.4234 9.1977 24.419" fill="#33E1AC"/>
</svg>
