<svg width="360" height="640" viewBox="0 0 360 640" fill="none" xmlns="http://www.w3.org/2000/svg">
<g clip-path="url(#clip0)">
<rect width="360" height="640" fill="white"/>
<path d="M84.7344 60H82.2734V53.6816H75.916V60H73.4453V45.7812H75.916V51.6992H82.2734V45.7812H84.7344V60ZM92.5879 60.1953C91.084 60.1953 89.8633 59.7233 88.9258 58.7793C87.9948 57.8288 87.5293 56.5658 87.5293 54.9902V54.6973C87.5293 53.6426 87.7311 52.7018 88.1348 51.875C88.5449 51.0417 89.1178 50.3939 89.8535 49.9316C90.5892 49.4694 91.4095 49.2383 92.3145 49.2383C93.7533 49.2383 94.8633 49.6973 95.6445 50.6152C96.4323 51.5332 96.8262 52.832 96.8262 54.5117V55.4688H89.9219C89.9935 56.3411 90.2832 57.0312 90.791 57.5391C91.3053 58.0469 91.9499 58.3008 92.7246 58.3008C93.8118 58.3008 94.6973 57.8613 95.3809 56.9824L96.6602 58.2031C96.237 58.8346 95.6706 59.3262 94.9609 59.6777C94.2578 60.0228 93.4668 60.1953 92.5879 60.1953ZM92.3047 51.1426C91.6536 51.1426 91.1263 51.3704 90.7227 51.8262C90.3255 52.2819 90.0716 52.9167 89.9609 53.7305H94.4824V53.5547C94.4303 52.7604 94.2188 52.1615 93.8477 51.7578C93.4766 51.3477 92.9622 51.1426 92.3047 51.1426ZM101.701 60H99.3281V45H101.701V60ZM114.047 54.8242C114.047 56.4583 113.676 57.7637 112.934 58.7402C112.191 59.7103 111.195 60.1953 109.945 60.1953C108.786 60.1953 107.859 59.8145 107.162 59.0527V64.0625H104.789V49.4336H106.977L107.074 50.5078C107.771 49.6615 108.718 49.2383 109.916 49.2383C111.205 49.2383 112.214 49.7201 112.943 50.6836C113.679 51.6406 114.047 52.972 114.047 54.6777V54.8242ZM111.684 54.6191C111.684 53.5645 111.472 52.7279 111.049 52.1094C110.632 51.4909 110.033 51.1816 109.252 51.1816C108.282 51.1816 107.585 51.582 107.162 52.3828V57.0703C107.592 57.8906 108.295 58.3008 109.271 58.3008C110.027 58.3008 110.616 57.998 111.039 57.3926C111.469 56.7806 111.684 55.8561 111.684 54.6191ZM121.217 60.1953C119.713 60.1953 118.492 59.7233 117.555 58.7793C116.624 57.8288 116.158 56.5658 116.158 54.9902V54.6973C116.158 53.6426 116.36 52.7018 116.764 51.875C117.174 51.0417 117.747 50.3939 118.482 49.9316C119.218 49.4694 120.038 49.2383 120.943 49.2383C122.382 49.2383 123.492 49.6973 124.273 50.6152C125.061 51.5332 125.455 52.832 125.455 54.5117V55.4688H118.551C118.622 56.3411 118.912 57.0312 119.42 57.5391C119.934 58.0469 120.579 58.3008 121.354 58.3008C122.441 58.3008 123.326 57.8613 124.01 56.9824L125.289 58.2031C124.866 58.8346 124.299 59.3262 123.59 59.6777C122.887 60.0228 122.096 60.1953 121.217 60.1953ZM120.934 51.1426C120.283 51.1426 119.755 51.3704 119.352 51.8262C118.954 52.2819 118.701 52.9167 118.59 53.7305H123.111V53.5547C123.059 52.7604 122.848 52.1615 122.477 51.7578C122.105 51.3477 121.591 51.1426 120.934 51.1426ZM133.338 51.6016C133.025 51.5495 132.703 51.5234 132.371 51.5234C131.284 51.5234 130.551 51.9401 130.174 52.7734V60H127.801V49.4336H130.066L130.125 50.6152C130.698 49.6973 131.492 49.2383 132.508 49.2383C132.846 49.2383 133.126 49.2839 133.348 49.375L133.338 51.6016Z" fill="#797979"/>
<path d="M337 56.1719L347.594 45.5781L349 46.9844L337 58.9844L331.422 53.4062L332.828 52L337 56.1719Z" fill="white"/>
<path d="M325 56.1719L335.594 45.5781L337 46.9844L325 58.9844L319.422 53.4062L320.828 52L325 56.1719Z" fill="#4285F4"/>
<path fill-rule="evenodd" clip-rule="evenodd" d="M0 0V24H360V0H0Z" fill="#999999"/>
<path d="M322.147 17H320.876V8.57129L318.326 9.50781V8.35938L321.949 6.99902H322.147V17ZM330.009 17H328.737V8.57129L326.188 9.50781V8.35938L329.811 6.99902H330.009V17ZM333.803 16.3369C333.803 16.1182 333.867 15.9359 333.994 15.79C334.126 15.6442 334.322 15.5713 334.582 15.5713C334.842 15.5713 335.038 15.6442 335.17 15.79C335.307 15.9359 335.375 16.1182 335.375 16.3369C335.375 16.5465 335.307 16.722 335.17 16.8633C335.038 17.0046 334.842 17.0752 334.582 17.0752C334.322 17.0752 334.126 17.0046 333.994 16.8633C333.867 16.722 333.803 16.5465 333.803 16.3369ZM333.81 10.3008C333.81 10.082 333.873 9.89974 334.001 9.75391C334.133 9.60807 334.329 9.53516 334.589 9.53516C334.849 9.53516 335.045 9.60807 335.177 9.75391C335.313 9.89974 335.382 10.082 335.382 10.3008C335.382 10.5104 335.313 10.6859 335.177 10.8271C335.045 10.9684 334.849 11.0391 334.589 11.0391C334.329 11.0391 334.133 10.9684 334.001 10.8271C333.873 10.6859 333.81 10.5104 333.81 10.3008ZM341.261 17H339.989V8.57129L337.439 9.50781V8.35938L341.062 6.99902H341.261V17ZM349.122 17H347.851V8.57129L345.301 9.50781V8.35938L348.924 6.99902H349.122V17Z" fill="white"/>
<path d="M265 19.1016L256.281 8.23828C259.117 6.24609 262.023 5.25 265 5.25C267.977 5.25 270.883 6.24609 273.719 8.23828L265 19.1016Z" fill="white"/>
<path d="M277.512 19.4883L292.488 4.51172V19.4883H277.512Z" fill="white"/>
<path d="M307.742 5.98828C308.023 5.98828 308.258 6.09375 308.445 6.30469C308.656 6.49219 308.762 6.72656 308.762 7.00781V18.5039C308.762 18.7852 308.656 19.0195 308.445 19.207C308.258 19.3945 308.023 19.4883 307.742 19.4883H302.258C301.977 19.4883 301.73 19.3945 301.52 19.207C301.332 19.0195 301.238 18.7852 301.238 18.5039V7.00781C301.238 6.72656 301.332 6.49219 301.52 6.30469C301.73 6.09375 301.977 5.98828 302.258 5.98828H303.488V4.51172H306.512V5.98828H307.742Z" fill="white"/>
<g clip-path="url(#clip1)">
<path d="M76.8281 242.773H82.2188V244H75.3203V232.625H76.8281V242.773ZM83.4803 239.695C83.4803 238.867 83.6418 238.122 83.9647 237.461C84.2928 236.799 84.7459 236.289 85.3241 235.93C85.9074 235.57 86.5715 235.391 87.3162 235.391C88.4673 235.391 89.397 235.789 90.1053 236.586C90.8189 237.383 91.1756 238.443 91.1756 239.766V239.867C91.1756 240.69 91.0168 241.43 90.6991 242.086C90.3866 242.737 89.936 243.245 89.3475 243.609C88.7642 243.974 88.0923 244.156 87.3319 244.156C86.186 244.156 85.2564 243.758 84.5428 242.961C83.8345 242.164 83.4803 241.109 83.4803 239.797V239.695ZM84.9334 239.867C84.9334 240.805 85.1496 241.557 85.5819 242.125C86.0194 242.693 86.6027 242.977 87.3319 242.977C88.0662 242.977 88.6496 242.69 89.0819 242.117C89.5142 241.539 89.7303 240.732 89.7303 239.695C89.7303 238.768 89.509 238.018 89.0662 237.445C88.6287 236.867 88.0454 236.578 87.3162 236.578C86.6027 236.578 86.0272 236.862 85.5897 237.43C85.1522 237.997 84.9334 238.81 84.9334 239.867ZM96.5387 242.977C97.0544 242.977 97.5049 242.82 97.8903 242.508C98.2757 242.195 98.4893 241.805 98.5309 241.336H99.8981C99.8721 241.82 99.7054 242.281 99.3981 242.719C99.0908 243.156 98.6794 243.505 98.1637 243.766C97.6533 244.026 97.1117 244.156 96.5387 244.156C95.3877 244.156 94.471 243.773 93.7887 243.008C93.1117 242.237 92.7731 241.185 92.7731 239.852V239.609C92.7731 238.786 92.9242 238.055 93.2262 237.414C93.5283 236.773 93.9606 236.276 94.5231 235.922C95.0908 235.568 95.7601 235.391 96.5309 235.391C97.4789 235.391 98.2653 235.674 98.8903 236.242C99.5205 236.81 99.8565 237.547 99.8981 238.453H98.5309C98.4893 237.906 98.2809 237.458 97.9059 237.109C97.5361 236.755 97.0778 236.578 96.5309 236.578C95.7966 236.578 95.2262 236.844 94.82 237.375C94.419 237.901 94.2184 238.664 94.2184 239.664V239.938C94.2184 240.911 94.419 241.661 94.82 242.188C95.221 242.714 95.794 242.977 96.5387 242.977ZM106.902 244C106.819 243.833 106.751 243.536 106.699 243.109C106.027 243.807 105.225 244.156 104.292 244.156C103.459 244.156 102.774 243.922 102.238 243.453C101.707 242.979 101.441 242.38 101.441 241.656C101.441 240.776 101.774 240.094 102.441 239.609C103.113 239.12 104.056 238.875 105.269 238.875H106.675V238.211C106.675 237.706 106.524 237.305 106.222 237.008C105.92 236.706 105.475 236.555 104.886 236.555C104.371 236.555 103.938 236.685 103.589 236.945C103.24 237.206 103.066 237.521 103.066 237.891H101.613C101.613 237.469 101.761 237.062 102.058 236.672C102.36 236.276 102.766 235.964 103.277 235.734C103.792 235.505 104.358 235.391 104.972 235.391C105.946 235.391 106.709 235.635 107.261 236.125C107.813 236.609 108.1 237.279 108.121 238.133V242.023C108.121 242.799 108.22 243.417 108.417 243.875V244H106.902ZM104.503 242.898C104.957 242.898 105.386 242.781 105.792 242.547C106.199 242.312 106.493 242.008 106.675 241.633V239.898H105.542C103.772 239.898 102.886 240.417 102.886 241.453C102.886 241.906 103.037 242.26 103.339 242.516C103.641 242.771 104.029 242.898 104.503 242.898ZM112.507 233.5V235.547H114.085V236.664H112.507V241.906C112.507 242.245 112.577 242.5 112.718 242.672C112.859 242.839 113.098 242.922 113.437 242.922C113.604 242.922 113.833 242.891 114.124 242.828V244C113.744 244.104 113.374 244.156 113.015 244.156C112.369 244.156 111.882 243.961 111.554 243.57C111.226 243.18 111.062 242.625 111.062 241.906V236.664H109.523V235.547H111.062V233.5H112.507ZM117.511 244H116.066V235.547H117.511V244ZM115.948 233.305C115.948 233.07 116.019 232.872 116.159 232.711C116.305 232.549 116.519 232.469 116.8 232.469C117.081 232.469 117.295 232.549 117.441 232.711C117.586 232.872 117.659 233.07 117.659 233.305C117.659 233.539 117.586 233.734 117.441 233.891C117.295 234.047 117.081 234.125 116.8 234.125C116.519 234.125 116.305 234.047 116.159 233.891C116.019 233.734 115.948 233.539 115.948 233.305ZM119.608 239.695C119.608 238.867 119.77 238.122 120.093 237.461C120.421 236.799 120.874 236.289 121.452 235.93C122.036 235.57 122.7 235.391 123.444 235.391C124.595 235.391 125.525 235.789 126.233 236.586C126.947 237.383 127.304 238.443 127.304 239.766V239.867C127.304 240.69 127.145 241.43 126.827 242.086C126.515 242.737 126.064 243.245 125.476 243.609C124.892 243.974 124.22 244.156 123.46 244.156C122.314 244.156 121.384 243.758 120.671 242.961C119.963 242.164 119.608 241.109 119.608 239.797V239.695ZM121.062 239.867C121.062 240.805 121.278 241.557 121.71 242.125C122.147 242.693 122.731 242.977 123.46 242.977C124.194 242.977 124.778 242.69 125.21 242.117C125.642 241.539 125.858 240.732 125.858 239.695C125.858 238.768 125.637 238.018 125.194 237.445C124.757 236.867 124.174 236.578 123.444 236.578C122.731 236.578 122.155 236.862 121.718 237.43C121.28 237.997 121.062 238.81 121.062 239.867ZM130.643 235.547L130.69 236.609C131.336 235.797 132.18 235.391 133.222 235.391C135.008 235.391 135.909 236.398 135.925 238.414V244H134.479V238.406C134.474 237.797 134.334 237.346 134.057 237.055C133.787 236.763 133.362 236.617 132.784 236.617C132.315 236.617 131.904 236.742 131.55 236.992C131.196 237.242 130.919 237.57 130.722 237.977V244H129.276V235.547H130.643ZM147.612 244C147.529 243.833 147.461 243.536 147.409 243.109C146.737 243.807 145.935 244.156 145.003 244.156C144.169 244.156 143.484 243.922 142.948 243.453C142.417 242.979 142.151 242.38 142.151 241.656C142.151 240.776 142.484 240.094 143.151 239.609C143.823 239.12 144.766 238.875 145.979 238.875H147.385V238.211C147.385 237.706 147.234 237.305 146.932 237.008C146.63 236.706 146.185 236.555 145.596 236.555C145.081 236.555 144.648 236.685 144.299 236.945C143.95 237.206 143.776 237.521 143.776 237.891H142.323C142.323 237.469 142.471 237.062 142.768 236.672C143.07 236.276 143.476 235.964 143.987 235.734C144.503 235.505 145.068 235.391 145.682 235.391C146.656 235.391 147.419 235.635 147.971 236.125C148.523 236.609 148.81 237.279 148.831 238.133V242.023C148.831 242.799 148.93 243.417 149.128 243.875V244H147.612ZM145.213 242.898C145.667 242.898 146.096 242.781 146.503 242.547C146.909 242.312 147.203 242.008 147.385 241.633V239.898H146.253C144.482 239.898 143.596 240.417 143.596 241.453C143.596 241.906 143.747 242.26 144.049 242.516C144.351 242.771 144.739 242.898 145.213 242.898ZM152.623 235.547L152.67 236.609C153.316 235.797 154.16 235.391 155.202 235.391C156.988 235.391 157.889 236.398 157.905 238.414V244H156.459V238.406C156.454 237.797 156.314 237.346 156.037 237.055C155.767 236.763 155.342 236.617 154.764 236.617C154.295 236.617 153.884 236.742 153.53 236.992C153.176 237.242 152.899 237.57 152.702 237.977V244H151.256V235.547H152.623ZM159.893 239.703C159.893 238.406 160.2 237.365 160.815 236.578C161.429 235.786 162.234 235.391 163.229 235.391C164.218 235.391 165.002 235.729 165.58 236.406V232H167.026V244H165.698L165.627 243.094C165.049 243.802 164.244 244.156 163.213 244.156C162.234 244.156 161.434 243.755 160.815 242.953C160.2 242.151 159.893 241.104 159.893 239.812V239.703ZM161.338 239.867C161.338 240.826 161.536 241.576 161.932 242.117C162.328 242.659 162.875 242.93 163.573 242.93C164.489 242.93 165.158 242.518 165.58 241.695V237.812C165.148 237.016 164.484 236.617 163.588 236.617C162.88 236.617 162.328 236.891 161.932 237.438C161.536 237.984 161.338 238.794 161.338 239.867ZM173.791 244V232.625H177.002C177.991 232.625 178.866 232.844 179.627 233.281C180.387 233.719 180.973 234.341 181.385 235.148C181.801 235.956 182.012 236.883 182.018 237.93V238.656C182.018 239.729 181.809 240.669 181.393 241.477C180.981 242.284 180.39 242.904 179.619 243.336C178.853 243.768 177.96 243.99 176.939 244H173.791ZM175.291 233.859V242.773H176.869C178.025 242.773 178.924 242.414 179.564 241.695C180.21 240.977 180.533 239.953 180.533 238.625V237.961C180.533 236.669 180.228 235.667 179.619 234.953C179.015 234.234 178.156 233.87 177.041 233.859H175.291ZM189.443 244C189.36 243.833 189.292 243.536 189.24 243.109C188.568 243.807 187.766 244.156 186.834 244.156C186 244.156 185.316 243.922 184.779 243.453C184.248 242.979 183.982 242.38 183.982 241.656C183.982 240.776 184.316 240.094 184.982 239.609C185.654 239.12 186.597 238.875 187.81 238.875H189.217V238.211C189.217 237.706 189.066 237.305 188.763 237.008C188.461 236.706 188.016 236.555 187.427 236.555C186.912 236.555 186.48 236.685 186.131 236.945C185.782 237.206 185.607 237.521 185.607 237.891H184.154C184.154 237.469 184.302 237.062 184.599 236.672C184.901 236.276 185.308 235.964 185.818 235.734C186.334 235.505 186.899 235.391 187.513 235.391C188.487 235.391 189.25 235.635 189.802 236.125C190.355 236.609 190.641 237.279 190.662 238.133V242.023C190.662 242.799 190.761 243.417 190.959 243.875V244H189.443ZM187.045 242.898C187.498 242.898 187.927 242.781 188.334 242.547C188.74 242.312 189.034 242.008 189.217 241.633V239.898H188.084C186.313 239.898 185.427 240.417 185.427 241.453C185.427 241.906 185.579 242.26 185.881 242.516C186.183 242.771 186.571 242.898 187.045 242.898ZM195.048 233.5V235.547H196.627V236.664H195.048V241.906C195.048 242.245 195.119 242.5 195.259 242.672C195.4 242.839 195.64 242.922 195.978 242.922C196.145 242.922 196.374 242.891 196.666 242.828V244C196.285 244.104 195.916 244.156 195.556 244.156C194.91 244.156 194.423 243.961 194.095 243.57C193.767 243.18 193.603 242.625 193.603 241.906V236.664H192.064V235.547H193.603V233.5H195.048ZM201.99 244.156C200.844 244.156 199.912 243.781 199.193 243.031C198.474 242.276 198.115 241.268 198.115 240.008V239.742C198.115 238.904 198.274 238.156 198.591 237.5C198.914 236.839 199.362 236.323 199.935 235.953C200.513 235.578 201.138 235.391 201.81 235.391C202.909 235.391 203.763 235.753 204.372 236.477C204.982 237.201 205.287 238.237 205.287 239.586V240.188H199.56C199.581 241.021 199.823 241.695 200.287 242.211C200.755 242.721 201.349 242.977 202.068 242.977C202.578 242.977 203.011 242.872 203.365 242.664C203.719 242.456 204.029 242.18 204.294 241.836L205.177 242.523C204.469 243.612 203.406 244.156 201.99 244.156ZM201.81 236.578C201.227 236.578 200.737 236.792 200.341 237.219C199.945 237.641 199.701 238.234 199.607 239H203.841V238.891C203.8 238.156 203.602 237.589 203.247 237.188C202.893 236.781 202.414 236.578 201.81 236.578Z" fill="black" fill-opacity="0.87"/>
<circle cx="38" cy="249" r="20" fill="#2521EA" fill-opacity="0.38"/>
<path d="M319 231.016C316.25 231.016 313.891 232 311.922 233.969C309.984 235.906 309.016 238.25 309.016 241C309.016 243.75 309.984 246.109 311.922 248.078C313.891 250.016 316.25 250.984 319 250.984C321.75 250.984 324.094 250.016 326.031 248.078C328 246.109 328.984 243.75 328.984 241C328.984 238.25 328 235.906 326.031 233.969C324.094 232 321.75 231.016 319 231.016Z" fill="#9E9E9E"/>
<path d="M318.385 239.898H315.213V241.266H318.385V244.859H319.838V241.266H323.01V239.898H319.838V236.578H318.385V239.898Z" fill="#4285F4"/>
<path d="M81.5938 382.977H76.8203V388H75.3203V376.625H82.3672V377.859H76.8203V381.75H81.5938V382.977ZM89.0506 388C88.9673 387.833 88.8996 387.536 88.8475 387.109C88.1756 387.807 87.3735 388.156 86.4412 388.156C85.6079 388.156 84.923 387.922 84.3866 387.453C83.8553 386.979 83.5897 386.38 83.5897 385.656C83.5897 384.776 83.923 384.094 84.5897 383.609C85.2616 383.12 86.2043 382.875 87.4178 382.875H88.8241V382.211C88.8241 381.706 88.673 381.305 88.3709 381.008C88.0689 380.706 87.6235 380.555 87.035 380.555C86.5194 380.555 86.0871 380.685 85.7381 380.945C85.3892 381.206 85.2147 381.521 85.2147 381.891H83.7616C83.7616 381.469 83.91 381.062 84.2069 380.672C84.509 380.276 84.9152 379.964 85.4256 379.734C85.9412 379.505 86.5064 379.391 87.1209 379.391C88.0949 379.391 88.8579 379.635 89.41 380.125C89.9621 380.609 90.2485 381.279 90.2694 382.133V386.023C90.2694 386.799 90.3683 387.417 90.5662 387.875V388H89.0506ZM86.6522 386.898C87.1053 386.898 87.535 386.781 87.9412 386.547C88.3475 386.312 88.6418 386.008 88.8241 385.633V383.898H87.6912C85.9204 383.898 85.035 384.417 85.035 385.453C85.035 385.906 85.186 386.26 85.4881 386.516C85.7902 386.771 86.1782 386.898 86.6522 386.898ZM96.0856 386.977C96.6012 386.977 97.0518 386.82 97.4372 386.508C97.8226 386.195 98.0361 385.805 98.0778 385.336H99.445C99.419 385.82 99.2523 386.281 98.945 386.719C98.6377 387.156 98.2262 387.505 97.7106 387.766C97.2002 388.026 96.6585 388.156 96.0856 388.156C94.9346 388.156 94.0179 387.773 93.3356 387.008C92.6585 386.237 92.32 385.185 92.32 383.852V383.609C92.32 382.786 92.471 382.055 92.7731 381.414C93.0752 380.773 93.5075 380.276 94.07 379.922C94.6377 379.568 95.307 379.391 96.0778 379.391C97.0257 379.391 97.8122 379.674 98.4372 380.242C99.0674 380.81 99.4033 381.547 99.445 382.453H98.0778C98.0361 381.906 97.8278 381.458 97.4528 381.109C97.083 380.755 96.6247 380.578 96.0778 380.578C95.3434 380.578 94.7731 380.844 94.3669 381.375C93.9658 381.901 93.7653 382.664 93.7653 383.664V383.938C93.7653 384.911 93.9658 385.661 94.3669 386.188C94.7679 386.714 95.3408 386.977 96.0856 386.977ZM104.738 388.156C103.592 388.156 102.66 387.781 101.941 387.031C101.222 386.276 100.863 385.268 100.863 384.008V383.742C100.863 382.904 101.022 382.156 101.339 381.5C101.662 380.839 102.11 380.323 102.683 379.953C103.261 379.578 103.886 379.391 104.558 379.391C105.657 379.391 106.511 379.753 107.121 380.477C107.73 381.201 108.035 382.237 108.035 383.586V384.188H102.308C102.329 385.021 102.571 385.695 103.035 386.211C103.503 386.721 104.097 386.977 104.816 386.977C105.326 386.977 105.759 386.872 106.113 386.664C106.467 386.456 106.777 386.18 107.042 385.836L107.925 386.523C107.217 387.612 106.154 388.156 104.738 388.156ZM104.558 380.578C103.975 380.578 103.485 380.792 103.089 381.219C102.694 381.641 102.449 382.234 102.355 383H106.589V382.891C106.548 382.156 106.35 381.589 105.996 381.188C105.641 380.781 105.162 380.578 104.558 380.578ZM118.402 383.398H115.73V388H114.222V376.625H117.987C119.269 376.625 120.253 376.917 120.941 377.5C121.633 378.083 121.98 378.932 121.98 380.047C121.98 380.755 121.787 381.372 121.402 381.898C121.021 382.424 120.49 382.818 119.808 383.078L122.48 387.906V388H120.87L118.402 383.398ZM115.73 382.172H118.034C118.779 382.172 119.37 381.979 119.808 381.594C120.251 381.208 120.472 380.693 120.472 380.047C120.472 379.344 120.261 378.805 119.839 378.43C119.422 378.055 118.818 377.865 118.027 377.859H115.73V382.172ZM127.53 388.156C126.384 388.156 125.452 387.781 124.733 387.031C124.015 386.276 123.655 385.268 123.655 384.008V383.742C123.655 382.904 123.814 382.156 124.132 381.5C124.455 380.839 124.903 380.323 125.476 379.953C126.054 379.578 126.679 379.391 127.351 379.391C128.45 379.391 129.304 379.753 129.913 380.477C130.522 381.201 130.827 382.237 130.827 383.586V384.188H125.101C125.121 385.021 125.364 385.695 125.827 386.211C126.296 386.721 126.89 386.977 127.608 386.977C128.119 386.977 128.551 386.872 128.905 386.664C129.259 386.456 129.569 386.18 129.835 385.836L130.718 386.523C130.009 387.612 128.947 388.156 127.53 388.156ZM127.351 380.578C126.767 380.578 126.278 380.792 125.882 381.219C125.486 381.641 125.241 382.234 125.147 383H129.382V382.891C129.34 382.156 129.142 381.589 128.788 381.188C128.434 380.781 127.955 380.578 127.351 380.578ZM136.057 386.977C136.573 386.977 137.024 386.82 137.409 386.508C137.794 386.195 138.008 385.805 138.05 385.336H139.417C139.391 385.82 139.224 386.281 138.917 386.719C138.61 387.156 138.198 387.505 137.682 387.766C137.172 388.026 136.63 388.156 136.057 388.156C134.906 388.156 133.99 387.773 133.307 387.008C132.63 386.237 132.292 385.185 132.292 383.852V383.609C132.292 382.786 132.443 382.055 132.745 381.414C133.047 380.773 133.479 380.276 134.042 379.922C134.61 379.568 135.279 379.391 136.05 379.391C136.998 379.391 137.784 379.674 138.409 380.242C139.039 380.81 139.375 381.547 139.417 382.453H138.05C138.008 381.906 137.8 381.458 137.425 381.109C137.055 380.755 136.597 380.578 136.05 380.578C135.315 380.578 134.745 380.844 134.339 381.375C133.938 381.901 133.737 382.664 133.737 383.664V383.938C133.737 384.911 133.938 385.661 134.339 386.188C134.74 386.714 135.313 386.977 136.057 386.977ZM140.819 383.695C140.819 382.867 140.981 382.122 141.303 381.461C141.632 380.799 142.085 380.289 142.663 379.93C143.246 379.57 143.91 379.391 144.655 379.391C145.806 379.391 146.736 379.789 147.444 380.586C148.158 381.383 148.514 382.443 148.514 383.766V383.867C148.514 384.69 148.356 385.43 148.038 386.086C147.725 386.737 147.275 387.245 146.686 387.609C146.103 387.974 145.431 388.156 144.671 388.156C143.525 388.156 142.595 387.758 141.882 386.961C141.173 386.164 140.819 385.109 140.819 383.797V383.695ZM142.272 383.867C142.272 384.805 142.488 385.557 142.921 386.125C143.358 386.693 143.941 386.977 144.671 386.977C145.405 386.977 145.988 386.69 146.421 386.117C146.853 385.539 147.069 384.732 147.069 383.695C147.069 382.768 146.848 382.018 146.405 381.445C145.967 380.867 145.384 380.578 144.655 380.578C143.941 380.578 143.366 380.862 142.928 381.43C142.491 381.997 142.272 382.81 142.272 383.867ZM150.143 383.703C150.143 382.385 150.448 381.339 151.057 380.562C151.667 379.781 152.474 379.391 153.479 379.391C154.51 379.391 155.315 379.755 155.893 380.484L155.963 379.547H157.284V387.797C157.284 388.891 156.958 389.753 156.307 390.383C155.661 391.013 154.792 391.328 153.698 391.328C153.088 391.328 152.492 391.198 151.909 390.938C151.325 390.677 150.88 390.32 150.573 389.867L151.323 389C151.943 389.766 152.7 390.148 153.596 390.148C154.299 390.148 154.846 389.951 155.237 389.555C155.633 389.159 155.831 388.602 155.831 387.883V387.156C155.253 387.823 154.463 388.156 153.463 388.156C152.474 388.156 151.672 387.758 151.057 386.961C150.448 386.164 150.143 385.078 150.143 383.703ZM151.596 383.867C151.596 384.82 151.792 385.57 152.182 386.117C152.573 386.659 153.12 386.93 153.823 386.93C154.734 386.93 155.404 386.516 155.831 385.688V381.828C155.388 381.021 154.724 380.617 153.838 380.617C153.135 380.617 152.586 380.891 152.19 381.438C151.794 381.984 151.596 382.794 151.596 383.867ZM160.998 379.547L161.045 380.609C161.691 379.797 162.535 379.391 163.577 379.391C165.363 379.391 166.264 380.398 166.28 382.414V388H164.834V382.406C164.829 381.797 164.689 381.346 164.412 381.055C164.142 380.763 163.717 380.617 163.139 380.617C162.67 380.617 162.259 380.742 161.905 380.992C161.551 381.242 161.274 381.57 161.077 381.977V388H159.631V379.547H160.998ZM170.19 388H168.744V379.547H170.19V388ZM168.627 377.305C168.627 377.07 168.698 376.872 168.838 376.711C168.984 376.549 169.198 376.469 169.479 376.469C169.76 376.469 169.974 376.549 170.119 376.711C170.265 376.872 170.338 377.07 170.338 377.305C170.338 377.539 170.265 377.734 170.119 377.891C169.974 378.047 169.76 378.125 169.479 378.125C169.198 378.125 168.984 378.047 168.838 377.891C168.698 377.734 168.627 377.539 168.627 377.305ZM174.631 377.5V379.547H176.209V380.664H174.631V385.906C174.631 386.245 174.701 386.5 174.842 386.672C174.982 386.839 175.222 386.922 175.561 386.922C175.727 386.922 175.956 386.891 176.248 386.828V388C175.868 388.104 175.498 388.156 175.139 388.156C174.493 388.156 174.006 387.961 173.678 387.57C173.35 387.18 173.186 386.625 173.186 385.906V380.664H171.647V379.547H173.186V377.5H174.631ZM179.635 388H178.189V379.547H179.635V388ZM178.072 377.305C178.072 377.07 178.143 376.872 178.283 376.711C178.429 376.549 178.643 376.469 178.924 376.469C179.205 376.469 179.419 376.549 179.564 376.711C179.71 376.872 179.783 377.07 179.783 377.305C179.783 377.539 179.71 377.734 179.564 377.891C179.419 378.047 179.205 378.125 178.924 378.125C178.643 378.125 178.429 378.047 178.283 377.891C178.143 377.734 178.072 377.539 178.072 377.305ZM181.732 383.695C181.732 382.867 181.894 382.122 182.217 381.461C182.545 380.799 182.998 380.289 183.576 379.93C184.159 379.57 184.823 379.391 185.568 379.391C186.719 379.391 187.649 379.789 188.357 380.586C189.071 381.383 189.427 382.443 189.427 383.766V383.867C189.427 384.69 189.269 385.43 188.951 386.086C188.638 386.737 188.188 387.245 187.599 387.609C187.016 387.974 186.344 388.156 185.584 388.156C184.438 388.156 183.508 387.758 182.795 386.961C182.086 386.164 181.732 385.109 181.732 383.797V383.695ZM183.185 383.867C183.185 384.805 183.401 385.557 183.834 386.125C184.271 386.693 184.855 386.977 185.584 386.977C186.318 386.977 186.901 386.69 187.334 386.117C187.766 385.539 187.982 384.732 187.982 383.695C187.982 382.768 187.761 382.018 187.318 381.445C186.881 380.867 186.297 380.578 185.568 380.578C184.855 380.578 184.279 380.862 183.842 381.43C183.404 381.997 183.185 382.81 183.185 383.867ZM192.767 379.547L192.814 380.609C193.46 379.797 194.304 379.391 195.345 379.391C197.132 379.391 198.033 380.398 198.048 382.414V388H196.603V382.406C196.598 381.797 196.457 381.346 196.181 381.055C195.91 380.763 195.486 380.617 194.908 380.617C194.439 380.617 194.028 380.742 193.673 380.992C193.319 381.242 193.043 381.57 192.845 381.977V388H191.4V379.547H192.767Z" fill="black" fill-opacity="0.87"/>
<path d="M319.549 375.016C316.925 375.016 314.673 376 312.794 377.969C310.945 379.906 310.021 382.25 310.021 385C310.021 387.75 310.945 390.109 312.794 392.078C314.673 394.016 316.925 394.984 319.549 394.984C322.173 394.984 324.41 394.016 326.258 392.078C328.137 390.109 329.077 387.75 329.077 385C329.077 382.25 328.137 379.906 326.258 377.969C324.41 376 322.173 375.016 319.549 375.016Z" fill="black" fill-opacity="0.38"/>
<path d="M318.933 383.898H315.762V385.266H318.933V388.859H320.387V385.266H323.558V383.898H320.387V380.578H318.933V383.898Z" fill="#4285F4"/>
<circle cx="38" cy="393" r="20" fill="#F80A0A" fill-opacity="0.38"/>
<path d="M83.6875 492.391C83.5469 493.594 83.1016 494.523 82.3516 495.18C81.6068 495.831 80.6146 496.156 79.375 496.156C78.0312 496.156 76.9531 495.674 76.1406 494.711C75.3333 493.747 74.9297 492.458 74.9297 490.844V489.75C74.9297 488.693 75.1172 487.763 75.4922 486.961C75.8724 486.159 76.4089 485.544 77.1016 485.117C77.7943 484.685 78.5964 484.469 79.5078 484.469C80.7161 484.469 81.6849 484.807 82.4141 485.484C83.1432 486.156 83.5677 487.089 83.6875 488.281H82.1797C82.0495 487.375 81.7656 486.719 81.3281 486.312C80.8958 485.906 80.2891 485.703 79.5078 485.703C78.5495 485.703 77.7969 486.057 77.25 486.766C76.7083 487.474 76.4375 488.482 76.4375 489.789V490.891C76.4375 492.125 76.6953 493.107 77.2109 493.836C77.7266 494.565 78.4479 494.93 79.375 494.93C80.2083 494.93 80.8464 494.742 81.2891 494.367C81.737 493.987 82.0339 493.328 82.1797 492.391H83.6875ZM89.7616 488.844C89.5428 488.807 89.3058 488.789 89.0506 488.789C88.1027 488.789 87.4595 489.193 87.1209 490V496H85.6756V487.547H87.0819L87.1053 488.523C87.5793 487.768 88.2511 487.391 89.1209 487.391C89.4022 487.391 89.6157 487.427 89.7616 487.5V488.844ZM94.6091 496.156C93.4632 496.156 92.5309 495.781 91.8122 495.031C91.0934 494.276 90.7341 493.268 90.7341 492.008V491.742C90.7341 490.904 90.8929 490.156 91.2106 489.5C91.5335 488.839 91.9815 488.323 92.5544 487.953C93.1325 487.578 93.7575 487.391 94.4294 487.391C95.5283 487.391 96.3825 487.753 96.9919 488.477C97.6012 489.201 97.9059 490.237 97.9059 491.586V492.188H92.1794C92.2002 493.021 92.4424 493.695 92.9059 494.211C93.3747 494.721 93.9684 494.977 94.6872 494.977C95.1976 494.977 95.6299 494.872 95.9841 494.664C96.3382 494.456 96.6481 494.18 96.9137 493.836L97.7966 494.523C97.0882 495.612 96.0257 496.156 94.6091 496.156ZM94.4294 488.578C93.846 488.578 93.3565 488.792 92.9606 489.219C92.5648 489.641 92.32 490.234 92.2262 491H96.4606V490.891C96.419 490.156 96.221 489.589 95.8669 489.188C95.5127 488.781 95.0335 488.578 94.4294 488.578ZM104.964 496C104.881 495.833 104.813 495.536 104.761 495.109C104.089 495.807 103.287 496.156 102.355 496.156C101.522 496.156 100.837 495.922 100.3 495.453C99.7691 494.979 99.5034 494.38 99.5034 493.656C99.5034 492.776 99.8368 492.094 100.503 491.609C101.175 491.12 102.118 490.875 103.332 490.875H104.738V490.211C104.738 489.706 104.587 489.305 104.285 489.008C103.983 488.706 103.537 488.555 102.949 488.555C102.433 488.555 102.001 488.685 101.652 488.945C101.303 489.206 101.128 489.521 101.128 489.891H99.6753C99.6753 489.469 99.8237 489.062 100.121 488.672C100.423 488.276 100.829 487.964 101.339 487.734C101.855 487.505 102.42 487.391 103.035 487.391C104.009 487.391 104.772 487.635 105.324 488.125C105.876 488.609 106.162 489.279 106.183 490.133V494.023C106.183 494.799 106.282 495.417 106.48 495.875V496H104.964ZM102.566 494.898C103.019 494.898 103.449 494.781 103.855 494.547C104.261 494.312 104.556 494.008 104.738 493.633V491.898H103.605C101.834 491.898 100.949 492.417 100.949 493.453C100.949 493.906 101.1 494.26 101.402 494.516C101.704 494.771 102.092 494.898 102.566 494.898ZM110.57 485.5V487.547H112.148V488.664H110.57V493.906C110.57 494.245 110.64 494.5 110.781 494.672C110.921 494.839 111.161 494.922 111.499 494.922C111.666 494.922 111.895 494.891 112.187 494.828V496C111.807 496.104 111.437 496.156 111.077 496.156C110.432 496.156 109.945 495.961 109.617 495.57C109.288 495.18 109.124 494.625 109.124 493.906V488.664H107.585V487.547H109.124V485.5H110.57ZM117.511 496.156C116.365 496.156 115.433 495.781 114.714 495.031C113.995 494.276 113.636 493.268 113.636 492.008V491.742C113.636 490.904 113.795 490.156 114.112 489.5C114.435 488.839 114.883 488.323 115.456 487.953C116.034 487.578 116.659 487.391 117.331 487.391C118.43 487.391 119.284 487.753 119.894 488.477C120.503 489.201 120.808 490.237 120.808 491.586V492.188H115.081C115.102 493.021 115.344 493.695 115.808 494.211C116.277 494.721 116.87 494.977 117.589 494.977C118.099 494.977 118.532 494.872 118.886 494.664C119.24 494.456 119.55 494.18 119.816 493.836L120.698 494.523C119.99 495.612 118.928 496.156 117.511 496.156ZM117.331 488.578C116.748 488.578 116.258 488.792 115.862 489.219C115.467 489.641 115.222 490.234 115.128 491H119.362V490.891C119.321 490.156 119.123 489.589 118.769 489.188C118.415 488.781 117.935 488.578 117.331 488.578ZM135.753 490.68C135.753 491.794 135.565 492.768 135.19 493.602C134.815 494.43 134.284 495.062 133.597 495.5C132.909 495.938 132.107 496.156 131.19 496.156C130.294 496.156 129.5 495.938 128.807 495.5C128.115 495.057 127.576 494.43 127.19 493.617C126.81 492.799 126.615 491.854 126.604 490.781V489.961C126.604 488.867 126.794 487.901 127.175 487.062C127.555 486.224 128.091 485.583 128.784 485.141C129.482 484.693 130.279 484.469 131.175 484.469C132.086 484.469 132.888 484.69 133.581 485.133C134.279 485.57 134.815 486.208 135.19 487.047C135.565 487.88 135.753 488.852 135.753 489.961V490.68ZM134.261 489.945C134.261 488.596 133.99 487.562 133.448 486.844C132.906 486.12 132.149 485.758 131.175 485.758C130.227 485.758 129.479 486.12 128.932 486.844C128.391 487.562 128.112 488.562 128.097 489.844V490.68C128.097 491.987 128.37 493.016 128.917 493.766C129.469 494.51 130.227 494.883 131.19 494.883C132.159 494.883 132.909 494.531 133.44 493.828C133.972 493.12 134.245 492.107 134.261 490.789V489.945ZM145.421 494.008L147.046 487.547H148.491L146.03 496H144.858L142.803 489.594L140.803 496H139.632L137.178 487.547H138.616L140.28 493.875L142.249 487.547H143.413L145.421 494.008ZM151.495 487.547L151.542 488.609C152.187 487.797 153.031 487.391 154.073 487.391C155.859 487.391 156.76 488.398 156.776 490.414V496H155.331V490.406C155.325 489.797 155.185 489.346 154.909 489.055C154.638 488.763 154.213 488.617 153.635 488.617C153.167 488.617 152.755 488.742 152.401 488.992C152.047 489.242 151.771 489.57 151.573 489.977V496H150.128V487.547H151.495Z" fill="black" fill-opacity="0.87"/>
<path d="M319 483.016C316.25 483.016 313.891 484 311.922 485.969C309.984 487.906 309.016 490.25 309.016 493C309.016 495.75 309.984 498.109 311.922 500.078C313.891 502.016 316.25 502.984 319 502.984C321.75 502.984 324.094 502.016 326.031 500.078C328 498.109 328.984 495.75 328.984 493C328.984 490.25 328 487.906 326.031 485.969C324.094 484 321.75 483.016 319 483.016Z" fill="black" fill-opacity="0.38"/>
<path d="M318.385 491.898H315.213V493.266H318.385V496.859H319.838V493.266H323.01V491.898H319.838V488.578H318.385V491.898Z" fill="#4285F4"/>
<circle cx="38" cy="501" r="20" fill="#28B650" fill-opacity="0.7"/>
<path d="M83.6875 600.391C83.5469 601.594 83.1016 602.523 82.3516 603.18C81.6068 603.831 80.6146 604.156 79.375 604.156C78.0312 604.156 76.9531 603.674 76.1406 602.711C75.3333 601.747 74.9297 600.458 74.9297 598.844V597.75C74.9297 596.693 75.1172 595.763 75.4922 594.961C75.8724 594.159 76.4089 593.544 77.1016 593.117C77.7943 592.685 78.5964 592.469 79.5078 592.469C80.7161 592.469 81.6849 592.807 82.4141 593.484C83.1432 594.156 83.5677 595.089 83.6875 596.281H82.1797C82.0495 595.375 81.7656 594.719 81.3281 594.312C80.8958 593.906 80.2891 593.703 79.5078 593.703C78.5495 593.703 77.7969 594.057 77.25 594.766C76.7083 595.474 76.4375 596.482 76.4375 597.789V598.891C76.4375 600.125 76.6953 601.107 77.2109 601.836C77.7266 602.565 78.4479 602.93 79.375 602.93C80.2083 602.93 80.8464 602.742 81.2891 602.367C81.737 601.987 82.0339 601.328 82.1797 600.391H83.6875ZM90.8944 604C90.811 603.833 90.7433 603.536 90.6912 603.109C90.0194 603.807 89.2173 604.156 88.285 604.156C87.4517 604.156 86.7668 603.922 86.2303 603.453C85.6991 602.979 85.4334 602.38 85.4334 601.656C85.4334 600.776 85.7668 600.094 86.4334 599.609C87.1053 599.12 88.048 598.875 89.2616 598.875H90.6678V598.211C90.6678 597.706 90.5168 597.305 90.2147 597.008C89.9126 596.706 89.4673 596.555 88.8787 596.555C88.3631 596.555 87.9308 596.685 87.5819 596.945C87.2329 597.206 87.0584 597.521 87.0584 597.891H85.6053C85.6053 597.469 85.7537 597.062 86.0506 596.672C86.3527 596.276 86.759 595.964 87.2694 595.734C87.785 595.505 88.3501 595.391 88.9647 595.391C89.9386 595.391 90.7017 595.635 91.2537 596.125C91.8058 596.609 92.0923 597.279 92.1131 598.133V602.023C92.1131 602.799 92.2121 603.417 92.41 603.875V604H90.8944ZM88.4959 602.898C88.9491 602.898 89.3787 602.781 89.785 602.547C90.1912 602.312 90.4855 602.008 90.6678 601.633V599.898H89.535C87.7642 599.898 86.8787 600.417 86.8787 601.453C86.8787 601.906 87.0298 602.26 87.3319 602.516C87.634 602.771 88.022 602.898 88.4959 602.898ZM96.4997 593.5V595.547H98.0778V596.664H96.4997V601.906C96.4997 602.245 96.57 602.5 96.7106 602.672C96.8512 602.839 97.0908 602.922 97.4294 602.922C97.596 602.922 97.8252 602.891 98.1169 602.828V604C97.7367 604.104 97.3669 604.156 97.0075 604.156C96.3617 604.156 95.8747 603.961 95.5466 603.57C95.2184 603.18 95.0544 602.625 95.0544 601.906V596.664H93.5153V595.547H95.0544V593.5H96.4997ZM103.441 604.156C102.295 604.156 101.363 603.781 100.644 603.031C99.9253 602.276 99.5659 601.268 99.5659 600.008V599.742C99.5659 598.904 99.7248 598.156 100.042 597.5C100.365 596.839 100.813 596.323 101.386 595.953C101.964 595.578 102.589 595.391 103.261 595.391C104.36 595.391 105.214 595.753 105.824 596.477C106.433 597.201 106.738 598.237 106.738 599.586V600.188H101.011C101.032 601.021 101.274 601.695 101.738 602.211C102.207 602.721 102.8 602.977 103.519 602.977C104.029 602.977 104.462 602.872 104.816 602.664C105.17 602.456 105.48 602.18 105.746 601.836L106.628 602.523C105.92 603.612 104.858 604.156 103.441 604.156ZM103.261 596.578C102.678 596.578 102.188 596.792 101.792 597.219C101.397 597.641 101.152 598.234 101.058 599H105.292V598.891C105.251 598.156 105.053 597.589 104.699 597.188C104.345 596.781 103.865 596.578 103.261 596.578ZM108.234 599.703C108.234 598.385 108.538 597.339 109.148 596.562C109.757 595.781 110.564 595.391 111.57 595.391C112.601 595.391 113.406 595.755 113.984 596.484L114.054 595.547H115.374V603.797C115.374 604.891 115.049 605.753 114.398 606.383C113.752 607.013 112.882 607.328 111.788 607.328C111.179 607.328 110.583 607.198 109.999 606.938C109.416 606.677 108.971 606.32 108.663 605.867L109.413 605C110.033 605.766 110.791 606.148 111.687 606.148C112.39 606.148 112.937 605.951 113.327 605.555C113.723 605.159 113.921 604.602 113.921 603.883V603.156C113.343 603.823 112.554 604.156 111.554 604.156C110.564 604.156 109.762 603.758 109.148 602.961C108.538 602.164 108.234 601.078 108.234 599.703ZM109.687 599.867C109.687 600.82 109.882 601.57 110.273 602.117C110.663 602.659 111.21 602.93 111.913 602.93C112.825 602.93 113.494 602.516 113.921 601.688V597.828C113.479 597.021 112.814 596.617 111.929 596.617C111.226 596.617 110.676 596.891 110.281 597.438C109.885 597.984 109.687 598.794 109.687 599.867ZM117.339 599.695C117.339 598.867 117.501 598.122 117.823 597.461C118.152 596.799 118.605 596.289 119.183 595.93C119.766 595.57 120.43 595.391 121.175 595.391C122.326 595.391 123.256 595.789 123.964 596.586C124.678 597.383 125.034 598.443 125.034 599.766V599.867C125.034 600.69 124.876 601.43 124.558 602.086C124.245 602.737 123.795 603.245 123.206 603.609C122.623 603.974 121.951 604.156 121.191 604.156C120.045 604.156 119.115 603.758 118.402 602.961C117.693 602.164 117.339 601.109 117.339 599.797V599.695ZM118.792 599.867C118.792 600.805 119.008 601.557 119.441 602.125C119.878 602.693 120.461 602.977 121.191 602.977C121.925 602.977 122.508 602.69 122.941 602.117C123.373 601.539 123.589 600.732 123.589 599.695C123.589 598.768 123.368 598.018 122.925 597.445C122.487 596.867 121.904 596.578 121.175 596.578C120.461 596.578 119.886 596.862 119.448 597.43C119.011 597.997 118.792 598.81 118.792 599.867ZM131.093 596.844C130.874 596.807 130.637 596.789 130.382 596.789C129.434 596.789 128.791 597.193 128.452 598V604H127.007V595.547H128.413L128.437 596.523C128.911 595.768 129.582 595.391 130.452 595.391C130.733 595.391 130.947 595.427 131.093 595.5V596.844ZM135.495 601.883L137.464 595.547H139.011L135.612 605.305C135.086 606.711 134.25 607.414 133.104 607.414L132.831 607.391L132.292 607.289V606.117L132.682 606.148C133.172 606.148 133.552 606.049 133.823 605.852C134.099 605.654 134.326 605.292 134.503 604.766L134.823 603.906L131.807 595.547H133.386L135.495 601.883Z" fill="black" fill-opacity="0.87"/>
<circle cx="38" cy="609" r="20" fill="#C3DE22" fill-opacity="0.38"/>
<path d="M319 591.016C316.25 591.016 313.891 592 311.922 593.969C309.984 595.906 309.016 598.25 309.016 601C309.016 603.75 309.984 606.109 311.922 608.078C313.891 610.016 316.25 610.984 319 610.984C321.75 610.984 324.094 610.016 326.031 608.078C328 606.109 328.984 603.75 328.984 601C328.984 598.25 328 595.906 326.031 593.969C324.094 592 321.75 591.016 319 591.016Z" fill="#4285F4"/>
<path d="M318.385 599.898H315.213V601.266H318.385V604.859H319.838V601.266H323.01V599.898H319.838V596.578H318.385V599.898Z" fill="#C4C4C4"/>
</g>
<rect x="23" y="153" width="328" height="56" rx="4" fill="black" fill-opacity="0.06"/>
<path d="M41.1211 190.08H45.1641V191H39.9902V182.469H41.1211V190.08ZM45.9902 187.771C45.9902 187.15 46.1113 186.592 46.3535 186.096C46.5996 185.6 46.9395 185.217 47.373 184.947C47.8105 184.678 48.3086 184.543 48.8672 184.543C49.7305 184.543 50.4277 184.842 50.959 185.439C51.4941 186.037 51.7617 186.832 51.7617 187.824V187.9C51.7617 188.518 51.6426 189.072 51.4043 189.564C51.1699 190.053 50.832 190.434 50.3906 190.707C49.9531 190.98 49.4492 191.117 48.8789 191.117C48.0195 191.117 47.3223 190.818 46.7871 190.221C46.2559 189.623 45.9902 188.832 45.9902 187.848V187.771ZM47.0801 187.9C47.0801 188.604 47.2422 189.168 47.5664 189.594C47.8945 190.02 48.332 190.232 48.8789 190.232C49.4297 190.232 49.8672 190.018 50.1914 189.588C50.5156 189.154 50.6777 188.549 50.6777 187.771C50.6777 187.076 50.5117 186.514 50.1797 186.084C49.8516 185.65 49.4141 185.434 48.8672 185.434C48.332 185.434 47.9004 185.646 47.5723 186.072C47.2441 186.498 47.0801 187.107 47.0801 187.9ZM55.6641 190.232C56.0508 190.232 56.3887 190.115 56.6777 189.881C56.9668 189.646 57.127 189.354 57.1582 189.002H58.1836C58.1641 189.365 58.0391 189.711 57.8086 190.039C57.5781 190.367 57.2695 190.629 56.8828 190.824C56.5 191.02 56.0938 191.117 55.6641 191.117C54.8008 191.117 54.1133 190.83 53.6016 190.256C53.0938 189.678 52.8398 188.889 52.8398 187.889V187.707C52.8398 187.09 52.9531 186.541 53.1797 186.061C53.4062 185.58 53.7305 185.207 54.1523 184.941C54.5781 184.676 55.0801 184.543 55.6582 184.543C56.3691 184.543 56.959 184.756 57.4277 185.182C57.9004 185.607 58.1523 186.16 58.1836 186.84H57.1582C57.127 186.43 56.9707 186.094 56.6895 185.832C56.4121 185.566 56.0684 185.434 55.6582 185.434C55.1074 185.434 54.6797 185.633 54.375 186.031C54.0742 186.426 53.9238 186.998 53.9238 187.748V187.953C53.9238 188.684 54.0742 189.246 54.375 189.641C54.6758 190.035 55.1055 190.232 55.6641 190.232ZM63.3164 191C63.2539 190.875 63.2031 190.652 63.1641 190.332C62.6602 190.855 62.0586 191.117 61.3594 191.117C60.7344 191.117 60.2207 190.941 59.8184 190.59C59.4199 190.234 59.2207 189.785 59.2207 189.242C59.2207 188.582 59.4707 188.07 59.9707 187.707C60.4746 187.34 61.1816 187.156 62.0918 187.156H63.1465V186.658C63.1465 186.279 63.0332 185.979 62.8066 185.756C62.5801 185.529 62.2461 185.416 61.8047 185.416C61.418 185.416 61.0938 185.514 60.832 185.709C60.5703 185.904 60.4395 186.141 60.4395 186.418H59.3496C59.3496 186.102 59.4609 185.797 59.6836 185.504C59.9102 185.207 60.2148 184.973 60.5977 184.801C60.9844 184.629 61.4082 184.543 61.8691 184.543C62.5996 184.543 63.1719 184.727 63.5859 185.094C64 185.457 64.2148 185.959 64.2305 186.6V189.518C64.2305 190.1 64.3047 190.562 64.4531 190.906V191H63.3164ZM61.5176 190.174C61.8574 190.174 62.1797 190.086 62.4844 189.91C62.7891 189.734 63.0098 189.506 63.1465 189.225V187.924H62.2969C60.9688 187.924 60.3047 188.312 60.3047 189.09C60.3047 189.43 60.418 189.695 60.6445 189.887C60.8711 190.078 61.1621 190.174 61.5176 190.174ZM67.4004 183.125V184.66H68.584V185.498H67.4004V189.43C67.4004 189.684 67.4531 189.875 67.5586 190.004C67.6641 190.129 67.8438 190.191 68.0977 190.191C68.2227 190.191 68.3945 190.168 68.6133 190.121V191C68.3281 191.078 68.0508 191.117 67.7812 191.117C67.2969 191.117 66.9316 190.971 66.6855 190.678C66.4395 190.385 66.3164 189.969 66.3164 189.43V185.498H65.1621V184.66H66.3164V183.125H67.4004ZM71.0332 191H69.9492V184.66H71.0332V191ZM69.8613 182.979C69.8613 182.803 69.9141 182.654 70.0195 182.533C70.1289 182.412 70.2891 182.352 70.5 182.352C70.7109 182.352 70.8711 182.412 70.9805 182.533C71.0898 182.654 71.1445 182.803 71.1445 182.979C71.1445 183.154 71.0898 183.301 70.9805 183.418C70.8711 183.535 70.7109 183.594 70.5 183.594C70.2891 183.594 70.1289 183.535 70.0195 183.418C69.9141 183.301 69.8613 183.154 69.8613 182.979ZM72.4863 187.771C72.4863 187.15 72.6074 186.592 72.8496 186.096C73.0957 185.6 73.4355 185.217 73.8691 184.947C74.3066 184.678 74.8047 184.543 75.3633 184.543C76.2266 184.543 76.9238 184.842 77.4551 185.439C77.9902 186.037 78.2578 186.832 78.2578 187.824V187.9C78.2578 188.518 78.1387 189.072 77.9004 189.564C77.666 190.053 77.3281 190.434 76.8867 190.707C76.4492 190.98 75.9453 191.117 75.375 191.117C74.5156 191.117 73.8184 190.818 73.2832 190.221C72.752 189.623 72.4863 188.832 72.4863 187.848V187.771ZM73.5762 187.9C73.5762 188.604 73.7383 189.168 74.0625 189.594C74.3906 190.02 74.8281 190.232 75.375 190.232C75.9258 190.232 76.3633 190.018 76.6875 189.588C77.0117 189.154 77.1738 188.549 77.1738 187.771C77.1738 187.076 77.0078 186.514 76.6758 186.084C76.3477 185.65 75.9102 185.434 75.3633 185.434C74.8281 185.434 74.3965 185.646 74.0684 186.072C73.7402 186.498 73.5762 187.107 73.5762 187.9ZM80.6426 184.66L80.6777 185.457C81.1621 184.848 81.7949 184.543 82.5762 184.543C83.916 184.543 84.5918 185.299 84.6035 186.811V191H83.5195V186.805C83.5156 186.348 83.4102 186.01 83.2031 185.791C83 185.572 82.6816 185.463 82.248 185.463C81.8965 185.463 81.5879 185.557 81.3223 185.744C81.0566 185.932 80.8496 186.178 80.7012 186.482V191H79.6172V184.66H80.6426ZM86.2031 192.699L85.5879 192.277C85.9551 191.766 86.1465 191.238 86.1621 190.695V189.717H87.2227V190.566C87.2227 190.961 87.125 191.355 86.9297 191.75C86.7383 192.145 86.4961 192.461 86.2031 192.699ZM96.4453 187.232H92.8652V191H91.7402V182.469H97.0254V183.395H92.8652V186.312H96.4453V187.232ZM101.918 191C101.855 190.875 101.805 190.652 101.766 190.332C101.262 190.855 100.66 191.117 99.9609 191.117C99.3359 191.117 98.8223 190.941 98.4199 190.59C98.0215 190.234 97.8223 189.785 97.8223 189.242C97.8223 188.582 98.0723 188.07 98.5723 187.707C99.0762 187.34 99.7832 187.156 100.693 187.156H101.748V186.658C101.748 186.279 101.635 185.979 101.408 185.756C101.182 185.529 100.848 185.416 100.406 185.416C100.02 185.416 99.6953 185.514 99.4336 185.709C99.1719 185.904 99.041 186.141 99.041 186.418H97.9512C97.9512 186.102 98.0625 185.797 98.2852 185.504C98.5117 185.207 98.8164 184.973 99.1992 184.801C99.5859 184.629 100.01 184.543 100.471 184.543C101.201 184.543 101.773 184.727 102.188 185.094C102.602 185.457 102.816 185.959 102.832 186.6V189.518C102.832 190.1 102.906 190.562 103.055 190.906V191H101.918ZM100.119 190.174C100.459 190.174 100.781 190.086 101.086 189.91C101.391 189.734 101.611 189.506 101.748 189.225V187.924H100.898C99.5703 187.924 98.9062 188.312 98.9062 189.09C98.9062 189.43 99.0195 189.695 99.2461 189.887C99.4727 190.078 99.7637 190.174 100.119 190.174ZM107.074 190.232C107.461 190.232 107.799 190.115 108.088 189.881C108.377 189.646 108.537 189.354 108.568 189.002H109.594C109.574 189.365 109.449 189.711 109.219 190.039C108.988 190.367 108.68 190.629 108.293 190.824C107.91 191.02 107.504 191.117 107.074 191.117C106.211 191.117 105.523 190.83 105.012 190.256C104.504 189.678 104.25 188.889 104.25 187.889V187.707C104.25 187.09 104.363 186.541 104.59 186.061C104.816 185.58 105.141 185.207 105.562 184.941C105.988 184.676 106.49 184.543 107.068 184.543C107.779 184.543 108.369 184.756 108.838 185.182C109.311 185.607 109.562 186.16 109.594 186.84H108.568C108.537 186.43 108.381 186.094 108.1 185.832C107.822 185.566 107.479 185.434 107.068 185.434C106.518 185.434 106.09 185.633 105.785 186.031C105.484 186.426 105.334 186.998 105.334 187.748V187.953C105.334 188.684 105.484 189.246 105.785 189.641C106.086 190.035 106.516 190.232 107.074 190.232ZM113.443 191.117C112.584 191.117 111.885 190.836 111.346 190.273C110.807 189.707 110.537 188.951 110.537 188.006V187.807C110.537 187.178 110.656 186.617 110.895 186.125C111.137 185.629 111.473 185.242 111.902 184.965C112.336 184.684 112.805 184.543 113.309 184.543C114.133 184.543 114.773 184.814 115.23 185.357C115.688 185.9 115.916 186.678 115.916 187.689V188.141H111.621C111.637 188.766 111.818 189.271 112.166 189.658C112.518 190.041 112.963 190.232 113.502 190.232C113.885 190.232 114.209 190.154 114.475 189.998C114.74 189.842 114.973 189.635 115.172 189.377L115.834 189.893C115.303 190.709 114.506 191.117 113.443 191.117ZM113.309 185.434C112.871 185.434 112.504 185.594 112.207 185.914C111.91 186.23 111.727 186.676 111.656 187.25H114.832V187.168C114.801 186.617 114.652 186.191 114.387 185.891C114.121 185.586 113.762 185.434 113.309 185.434ZM123.451 187.549H121.447V191H120.316V182.469H123.141C124.102 182.469 124.84 182.688 125.355 183.125C125.875 183.562 126.135 184.199 126.135 185.035C126.135 185.566 125.99 186.029 125.701 186.424C125.416 186.818 125.018 187.113 124.506 187.309L126.51 190.93V191H125.303L123.451 187.549ZM121.447 186.629H123.176C123.734 186.629 124.178 186.484 124.506 186.195C124.838 185.906 125.004 185.52 125.004 185.035C125.004 184.508 124.846 184.104 124.529 183.822C124.217 183.541 123.764 183.398 123.17 183.395H121.447V186.629ZM130.178 191.117C129.318 191.117 128.619 190.836 128.08 190.273C127.541 189.707 127.271 188.951 127.271 188.006V187.807C127.271 187.178 127.391 186.617 127.629 186.125C127.871 185.629 128.207 185.242 128.637 184.965C129.07 184.684 129.539 184.543 130.043 184.543C130.867 184.543 131.508 184.814 131.965 185.357C132.422 185.9 132.65 186.678 132.65 187.689V188.141H128.355C128.371 188.766 128.553 189.271 128.9 189.658C129.252 190.041 129.697 190.232 130.236 190.232C130.619 190.232 130.943 190.154 131.209 189.998C131.475 189.842 131.707 189.635 131.906 189.377L132.568 189.893C132.037 190.709 131.24 191.117 130.178 191.117ZM130.043 185.434C129.605 185.434 129.238 185.594 128.941 185.914C128.645 186.23 128.461 186.676 128.391 187.25H131.566V187.168C131.535 186.617 131.387 186.191 131.121 185.891C130.855 185.586 130.496 185.434 130.043 185.434ZM136.453 190.232C136.84 190.232 137.178 190.115 137.467 189.881C137.756 189.646 137.916 189.354 137.947 189.002H138.973C138.953 189.365 138.828 189.711 138.598 190.039C138.367 190.367 138.059 190.629 137.672 190.824C137.289 191.02 136.883 191.117 136.453 191.117C135.59 191.117 134.902 190.83 134.391 190.256C133.883 189.678 133.629 188.889 133.629 187.889V187.707C133.629 187.09 133.742 186.541 133.969 186.061C134.195 185.58 134.52 185.207 134.941 184.941C135.367 184.676 135.869 184.543 136.447 184.543C137.158 184.543 137.748 184.756 138.217 185.182C138.689 185.607 138.941 186.16 138.973 186.84H137.947C137.916 186.43 137.76 186.094 137.479 185.832C137.201 185.566 136.857 185.434 136.447 185.434C135.896 185.434 135.469 185.633 135.164 186.031C134.863 186.426 134.713 186.998 134.713 187.748V187.953C134.713 188.684 134.863 189.246 135.164 189.641C135.465 190.035 135.895 190.232 136.453 190.232ZM139.904 187.771C139.904 187.15 140.025 186.592 140.268 186.096C140.514 185.6 140.854 185.217 141.287 184.947C141.725 184.678 142.223 184.543 142.781 184.543C143.645 184.543 144.342 184.842 144.873 185.439C145.408 186.037 145.676 186.832 145.676 187.824V187.9C145.676 188.518 145.557 189.072 145.318 189.564C145.084 190.053 144.746 190.434 144.305 190.707C143.867 190.98 143.363 191.117 142.793 191.117C141.934 191.117 141.236 190.818 140.701 190.221C140.17 189.623 139.904 188.832 139.904 187.848V187.771ZM140.994 187.9C140.994 188.604 141.156 189.168 141.48 189.594C141.809 190.02 142.246 190.232 142.793 190.232C143.344 190.232 143.781 190.018 144.105 189.588C144.43 189.154 144.592 188.549 144.592 187.771C144.592 187.076 144.426 186.514 144.094 186.084C143.766 185.65 143.328 185.434 142.781 185.434C142.246 185.434 141.814 185.646 141.486 186.072C141.158 186.498 140.994 187.107 140.994 187.9ZM146.777 187.777C146.777 186.789 147.006 186.004 147.463 185.422C147.92 184.836 148.525 184.543 149.279 184.543C150.053 184.543 150.656 184.816 151.09 185.363L151.143 184.66H152.133V190.848C152.133 191.668 151.889 192.314 151.4 192.787C150.916 193.26 150.264 193.496 149.443 193.496C148.986 193.496 148.539 193.398 148.102 193.203C147.664 193.008 147.33 192.74 147.1 192.4L147.662 191.75C148.127 192.324 148.695 192.611 149.367 192.611C149.895 192.611 150.305 192.463 150.598 192.166C150.895 191.869 151.043 191.451 151.043 190.912V190.367C150.609 190.867 150.018 191.117 149.268 191.117C148.525 191.117 147.924 190.818 147.463 190.221C147.006 189.623 146.777 188.809 146.777 187.777ZM147.867 187.9C147.867 188.615 148.014 189.178 148.307 189.588C148.6 189.994 149.01 190.197 149.537 190.197C150.221 190.197 150.723 189.887 151.043 189.266V186.371C150.711 185.766 150.213 185.463 149.549 185.463C149.021 185.463 148.609 185.668 148.312 186.078C148.016 186.488 147.867 187.096 147.867 187.9ZM154.799 184.66L154.834 185.457C155.318 184.848 155.951 184.543 156.732 184.543C158.072 184.543 158.748 185.299 158.76 186.811V191H157.676V186.805C157.672 186.348 157.566 186.01 157.359 185.791C157.156 185.572 156.838 185.463 156.404 185.463C156.053 185.463 155.744 185.557 155.479 185.744C155.213 185.932 155.006 186.178 154.857 186.482V191H153.773V184.66H154.799ZM161.572 191H160.488V184.66H161.572V191ZM160.4 182.979C160.4 182.803 160.453 182.654 160.559 182.533C160.668 182.412 160.828 182.352 161.039 182.352C161.25 182.352 161.41 182.412 161.52 182.533C161.629 182.654 161.684 182.803 161.684 182.979C161.684 183.154 161.629 183.301 161.52 183.418C161.41 183.535 161.25 183.594 161.039 183.594C160.828 183.594 160.668 183.535 160.559 183.418C160.453 183.301 160.4 183.154 160.4 182.979ZM164.783 183.125V184.66H165.967V185.498H164.783V189.43C164.783 189.684 164.836 189.875 164.941 190.004C165.047 190.129 165.227 190.191 165.48 190.191C165.605 190.191 165.777 190.168 165.996 190.121V191C165.711 191.078 165.434 191.117 165.164 191.117C164.68 191.117 164.314 190.971 164.068 190.678C163.822 190.385 163.699 189.969 163.699 189.43V185.498H162.545V184.66H163.699V183.125H164.783ZM168.416 191H167.332V184.66H168.416V191ZM167.244 182.979C167.244 182.803 167.297 182.654 167.402 182.533C167.512 182.412 167.672 182.352 167.883 182.352C168.094 182.352 168.254 182.412 168.363 182.533C168.473 182.654 168.527 182.803 168.527 182.979C168.527 183.154 168.473 183.301 168.363 183.418C168.254 183.535 168.094 183.594 167.883 183.594C167.672 183.594 167.512 183.535 167.402 183.418C167.297 183.301 167.244 183.154 167.244 182.979ZM169.869 187.771C169.869 187.15 169.99 186.592 170.232 186.096C170.479 185.6 170.818 185.217 171.252 184.947C171.689 184.678 172.188 184.543 172.746 184.543C173.609 184.543 174.307 184.842 174.838 185.439C175.373 186.037 175.641 186.832 175.641 187.824V187.9C175.641 188.518 175.521 189.072 175.283 189.564C175.049 190.053 174.711 190.434 174.27 190.707C173.832 190.98 173.328 191.117 172.758 191.117C171.898 191.117 171.201 190.818 170.666 190.221C170.135 189.623 169.869 188.832 169.869 187.848V187.771ZM170.959 187.9C170.959 188.604 171.121 189.168 171.445 189.594C171.773 190.02 172.211 190.232 172.758 190.232C173.309 190.232 173.746 190.018 174.07 189.588C174.395 189.154 174.557 188.549 174.557 187.771C174.557 187.076 174.391 186.514 174.059 186.084C173.73 185.65 173.293 185.434 172.746 185.434C172.211 185.434 171.779 185.646 171.451 186.072C171.123 186.498 170.959 187.107 170.959 187.9ZM178.025 184.66L178.061 185.457C178.545 184.848 179.178 184.543 179.959 184.543C181.299 184.543 181.975 185.299 181.986 186.811V191H180.902V186.805C180.898 186.348 180.793 186.01 180.586 185.791C180.383 185.572 180.064 185.463 179.631 185.463C179.279 185.463 178.971 185.557 178.705 185.744C178.439 185.932 178.232 186.178 178.084 186.482V191H177V184.66H178.025Z" fill="black" fill-opacity="0.87"/>
<path opacity="0.87" d="M46.5527 168.01C46.5527 168.846 46.4121 169.576 46.1309 170.201C45.8496 170.822 45.4512 171.297 44.9355 171.625C44.4199 171.953 43.8184 172.117 43.1309 172.117C42.459 172.117 41.8633 171.953 41.3438 171.625C40.8242 171.293 40.4199 170.822 40.1309 170.213C39.8457 169.6 39.6992 168.891 39.6914 168.086V167.471C39.6914 166.65 39.834 165.926 40.1191 165.297C40.4043 164.668 40.8066 164.188 41.3262 163.855C41.8496 163.52 42.4473 163.352 43.1191 163.352C43.8027 163.352 44.4043 163.518 44.9238 163.85C45.4473 164.178 45.8496 164.656 46.1309 165.285C46.4121 165.91 46.5527 166.639 46.5527 167.471V168.01ZM45.4336 167.459C45.4336 166.447 45.2305 165.672 44.8242 165.133C44.418 164.59 43.8496 164.318 43.1191 164.318C42.4082 164.318 41.8477 164.59 41.4375 165.133C41.0312 165.672 40.8223 166.422 40.8105 167.383V168.01C40.8105 168.99 41.0156 169.762 41.4258 170.324C41.8398 170.883 42.4082 171.162 43.1309 171.162C43.8574 171.162 44.4199 170.898 44.8184 170.371C45.2168 169.84 45.4219 169.08 45.4336 168.092V167.459ZM51.1348 166.633C50.9707 166.605 50.793 166.592 50.6016 166.592C49.8906 166.592 49.4082 166.895 49.1543 167.5V172H48.0703V165.66H49.125L49.1426 166.393C49.498 165.826 50.002 165.543 50.6543 165.543C50.8652 165.543 51.0254 165.57 51.1348 165.625V166.633ZM51.7617 168.777C51.7617 167.789 51.9902 167.004 52.4473 166.422C52.9043 165.836 53.5098 165.543 54.2637 165.543C55.0371 165.543 55.6406 165.816 56.0742 166.363L56.127 165.66H57.1172V171.848C57.1172 172.668 56.873 173.314 56.3848 173.787C55.9004 174.26 55.248 174.496 54.4277 174.496C53.9707 174.496 53.5234 174.398 53.0859 174.203C52.6484 174.008 52.3145 173.74 52.084 173.4L52.6465 172.75C53.1113 173.324 53.6797 173.611 54.3516 173.611C54.8789 173.611 55.2891 173.463 55.582 173.166C55.8789 172.869 56.0273 172.451 56.0273 171.912V171.367C55.5938 171.867 55.002 172.117 54.252 172.117C53.5098 172.117 52.9082 171.818 52.4473 171.221C51.9902 170.623 51.7617 169.809 51.7617 168.777ZM52.8516 168.9C52.8516 169.615 52.998 170.178 53.291 170.588C53.584 170.994 53.9941 171.197 54.5215 171.197C55.2051 171.197 55.707 170.887 56.0273 170.266V167.371C55.6953 166.766 55.1973 166.463 54.5332 166.463C54.0059 166.463 53.5938 166.668 53.2969 167.078C53 167.488 52.8516 168.096 52.8516 168.9ZM62.6719 172C62.6094 171.875 62.5586 171.652 62.5195 171.332C62.0156 171.855 61.4141 172.117 60.7148 172.117C60.0898 172.117 59.5762 171.941 59.1738 171.59C58.7754 171.234 58.5762 170.785 58.5762 170.242C58.5762 169.582 58.8262 169.07 59.3262 168.707C59.8301 168.34 60.5371 168.156 61.4473 168.156H62.502V167.658C62.502 167.279 62.3887 166.979 62.1621 166.756C61.9355 166.529 61.6016 166.416 61.1602 166.416C60.7734 166.416 60.4492 166.514 60.1875 166.709C59.9258 166.904 59.7949 167.141 59.7949 167.418H58.7051C58.7051 167.102 58.8164 166.797 59.0391 166.504C59.2656 166.207 59.5703 165.973 59.9531 165.801C60.3398 165.629 60.7637 165.543 61.2246 165.543C61.9551 165.543 62.5273 165.727 62.9414 166.094C63.3555 166.457 63.5703 166.959 63.5859 167.6V170.518C63.5859 171.1 63.6602 171.562 63.8086 171.906V172H62.6719ZM60.873 171.174C61.2129 171.174 61.5352 171.086 61.8398 170.91C62.1445 170.734 62.3652 170.506 62.502 170.225V168.924H61.6523C60.3242 168.924 59.6602 169.312 59.6602 170.09C59.6602 170.43 59.7734 170.695 60 170.887C60.2266 171.078 60.5176 171.174 60.873 171.174ZM66.3105 165.66L66.3457 166.457C66.8301 165.848 67.4629 165.543 68.2441 165.543C69.584 165.543 70.2598 166.299 70.2715 167.811V172H69.1875V167.805C69.1836 167.348 69.0781 167.01 68.8711 166.791C68.668 166.572 68.3496 166.463 67.916 166.463C67.5645 166.463 67.2559 166.557 66.9902 166.744C66.7246 166.932 66.5176 167.178 66.3691 167.482V172H65.2852V165.66H66.3105ZM73.084 172H72V165.66H73.084V172ZM71.9121 163.979C71.9121 163.803 71.9648 163.654 72.0703 163.533C72.1797 163.412 72.3398 163.352 72.5508 163.352C72.7617 163.352 72.9219 163.412 73.0312 163.533C73.1406 163.654 73.1953 163.803 73.1953 163.979C73.1953 164.154 73.1406 164.301 73.0312 164.418C72.9219 164.535 72.7617 164.594 72.5508 164.594C72.3398 164.594 72.1797 164.535 72.0703 164.418C71.9648 164.301 71.9121 164.154 71.9121 163.979ZM75.8438 171.115H79.5527V172H74.5195V171.203L78.0176 166.557H74.5723V165.66H79.377V166.428L75.8438 171.115ZM83.3145 172.117C82.4551 172.117 81.7559 171.836 81.2168 171.273C80.6777 170.707 80.4082 169.951 80.4082 169.006V168.807C80.4082 168.178 80.5273 167.617 80.7656 167.125C81.0078 166.629 81.3438 166.242 81.7734 165.965C82.207 165.684 82.6758 165.543 83.1797 165.543C84.0039 165.543 84.6445 165.814 85.1016 166.357C85.5586 166.9 85.7871 167.678 85.7871 168.689V169.141H81.4922C81.5078 169.766 81.6895 170.271 82.0371 170.658C82.3887 171.041 82.834 171.232 83.373 171.232C83.7559 171.232 84.0801 171.154 84.3457 170.998C84.6113 170.842 84.8438 170.635 85.043 170.377L85.7051 170.893C85.1738 171.709 84.377 172.117 83.3145 172.117ZM83.1797 166.434C82.7422 166.434 82.375 166.594 82.0781 166.914C81.7812 167.23 81.5977 167.676 81.5273 168.25H84.7031V168.168C84.6719 167.617 84.5234 167.191 84.2578 166.891C83.9922 166.586 83.6328 166.434 83.1797 166.434ZM86.7832 168.777C86.7832 167.805 87.0137 167.023 87.4746 166.434C87.9355 165.84 88.5391 165.543 89.2852 165.543C90.0273 165.543 90.6152 165.797 91.0488 166.305V163H92.1328V172H91.1367L91.084 171.32C90.6504 171.852 90.0469 172.117 89.2734 172.117C88.5391 172.117 87.9395 171.816 87.4746 171.215C87.0137 170.613 86.7832 169.828 86.7832 168.859V168.777ZM87.8672 168.9C87.8672 169.619 88.0156 170.182 88.3125 170.588C88.6094 170.994 89.0195 171.197 89.543 171.197C90.2305 171.197 90.7324 170.889 91.0488 170.271V167.359C90.7246 166.762 90.2266 166.463 89.5547 166.463C89.0234 166.463 88.6094 166.668 88.3125 167.078C88.0156 167.488 87.8672 168.096 87.8672 168.9ZM96.9668 172V163.469H99.7559C100.682 163.469 101.377 163.66 101.842 164.043C102.311 164.426 102.545 164.992 102.545 165.742C102.545 166.141 102.432 166.494 102.205 166.803C101.979 167.107 101.67 167.344 101.279 167.512C101.74 167.641 102.104 167.887 102.369 168.25C102.639 168.609 102.773 169.039 102.773 169.539C102.773 170.305 102.525 170.906 102.029 171.344C101.533 171.781 100.832 172 99.9258 172H96.9668ZM98.0918 168.01V171.08H99.9492C100.473 171.08 100.885 170.945 101.186 170.676C101.49 170.402 101.643 170.027 101.643 169.551C101.643 168.523 101.084 168.01 99.9668 168.01H98.0918ZM98.0918 167.107H99.791C100.283 167.107 100.676 166.984 100.969 166.738C101.266 166.492 101.414 166.158 101.414 165.736C101.414 165.268 101.277 164.928 101.004 164.717C100.73 164.502 100.314 164.395 99.7559 164.395H98.0918V167.107ZM106.348 170.412L107.824 165.66H108.984L106.436 172.979C106.041 174.033 105.414 174.561 104.555 174.561L104.35 174.543L103.945 174.467V173.588L104.238 173.611C104.605 173.611 104.891 173.537 105.094 173.389C105.301 173.24 105.471 172.969 105.604 172.574L105.844 171.93L103.582 165.66H104.766L106.348 170.412Z" fill="#2C98F0"/>
<g filter="url(#filter0_ddd)">
<rect x="-1" y="81" width="376" height="48" fill="white"/>
<path d="M23.6016 112.031H18.8359L17.7656 115H16.2188L20.5625 103.625H21.875L26.2266 115H24.6875L23.6016 112.031ZM19.2891 110.797H23.1562L21.2188 105.477L19.2891 110.797ZM27.1797 110.703C27.1797 109.406 27.487 108.365 28.1016 107.578C28.7161 106.786 29.5208 106.391 30.5156 106.391C31.5052 106.391 32.2891 106.729 32.8672 107.406V103H34.3125V115H32.9844L32.9141 114.094C32.3359 114.802 31.5312 115.156 30.5 115.156C29.5208 115.156 28.7214 114.755 28.1016 113.953C27.487 113.151 27.1797 112.104 27.1797 110.812V110.703ZM28.625 110.867C28.625 111.826 28.8229 112.576 29.2188 113.117C29.6146 113.659 30.1615 113.93 30.8594 113.93C31.776 113.93 32.4453 113.518 32.8672 112.695V108.812C32.4349 108.016 31.7708 107.617 30.875 107.617C30.1667 107.617 29.6146 107.891 29.2188 108.438C28.8229 108.984 28.625 109.794 28.625 110.867ZM36.2109 110.703C36.2109 109.406 36.5182 108.365 37.1328 107.578C37.7474 106.786 38.5521 106.391 39.5469 106.391C40.5365 106.391 41.3203 106.729 41.8984 107.406V103H43.3438V115H42.0156L41.9453 114.094C41.3672 114.802 40.5625 115.156 39.5312 115.156C38.5521 115.156 37.7526 114.755 37.1328 113.953C36.5182 113.151 36.2109 112.104 36.2109 110.812V110.703ZM37.6562 110.867C37.6562 111.826 37.8542 112.576 38.25 113.117C38.6458 113.659 39.1927 113.93 39.8906 113.93C40.8073 113.93 41.4766 113.518 41.8984 112.695V108.812C41.4661 108.016 40.8021 107.617 39.9062 107.617C39.1979 107.617 38.6458 107.891 38.25 108.438C37.8542 108.984 37.6562 109.794 37.6562 110.867ZM58.5312 115H57.0234V109.742H51.2891V115H49.7891V103.625H51.2891V108.516H57.0234V103.625H58.5312V115ZM64.4766 115.156C63.3307 115.156 62.3984 114.781 61.6797 114.031C60.9609 113.276 60.6016 112.268 60.6016 111.008V110.742C60.6016 109.904 60.7604 109.156 61.0781 108.5C61.401 107.839 61.849 107.323 62.4219 106.953C63 106.578 63.625 106.391 64.2969 106.391C65.3958 106.391 66.25 106.753 66.8594 107.477C67.4688 108.201 67.7734 109.237 67.7734 110.586V111.188H62.0469C62.0677 112.021 62.3099 112.695 62.7734 113.211C63.2422 113.721 63.8359 113.977 64.5547 113.977C65.0651 113.977 65.4974 113.872 65.8516 113.664C66.2057 113.456 66.5156 113.18 66.7812 112.836L67.6641 113.523C66.9557 114.612 65.8932 115.156 64.4766 115.156ZM64.2969 107.578C63.7135 107.578 63.224 107.792 62.8281 108.219C62.4323 108.641 62.1875 109.234 62.0938 110H66.3281V109.891C66.2865 109.156 66.0885 108.589 65.7344 108.188C65.3802 107.781 64.901 107.578 64.2969 107.578ZM71.0234 115H69.5781V103H71.0234V115ZM80.4844 110.867C80.4844 112.154 80.1901 113.19 79.6016 113.977C79.013 114.763 78.2161 115.156 77.2109 115.156C76.1849 115.156 75.3776 114.831 74.7891 114.18V118.25H73.3438V106.547H74.6641L74.7344 107.484C75.3229 106.755 76.1406 106.391 77.1875 106.391C78.2031 106.391 79.0052 106.773 79.5938 107.539C80.1875 108.305 80.4844 109.37 80.4844 110.734V110.867ZM79.0391 110.703C79.0391 109.75 78.8359 108.997 78.4297 108.445C78.0234 107.893 77.4661 107.617 76.7578 107.617C75.8828 107.617 75.2266 108.005 74.7891 108.781V112.82C75.2214 113.591 75.8828 113.977 76.7734 113.977C77.4661 113.977 78.0156 113.703 78.4219 113.156C78.8333 112.604 79.0391 111.786 79.0391 110.703ZM85.8359 115.156C84.6901 115.156 83.7578 114.781 83.0391 114.031C82.3203 113.276 81.9609 112.268 81.9609 111.008V110.742C81.9609 109.904 82.1198 109.156 82.4375 108.5C82.7604 107.839 83.2083 107.323 83.7812 106.953C84.3594 106.578 84.9844 106.391 85.6562 106.391C86.7552 106.391 87.6094 106.753 88.2188 107.477C88.8281 108.201 89.1328 109.237 89.1328 110.586V111.188H83.4062C83.4271 112.021 83.6693 112.695 84.1328 113.211C84.6016 113.721 85.1953 113.977 85.9141 113.977C86.4245 113.977 86.8568 113.872 87.2109 113.664C87.5651 113.456 87.875 113.18 88.1406 112.836L89.0234 113.523C88.3151 114.612 87.2526 115.156 85.8359 115.156ZM85.6562 107.578C85.0729 107.578 84.5833 107.792 84.1875 108.219C83.7917 108.641 83.5469 109.234 83.4531 110H87.6875V109.891C87.6458 109.156 87.4479 108.589 87.0938 108.188C86.7396 107.781 86.2604 107.578 85.6562 107.578ZM94.8984 107.844C94.6797 107.807 94.4427 107.789 94.1875 107.789C93.2396 107.789 92.5964 108.193 92.2578 109V115H90.8125V106.547H92.2188L92.2422 107.523C92.7161 106.768 93.388 106.391 94.2578 106.391C94.5391 106.391 94.7526 106.427 94.8984 106.5V107.844ZM103.781 109.93C102.495 109.56 101.557 109.107 100.969 108.57C100.385 108.029 100.094 107.362 100.094 106.57C100.094 105.674 100.451 104.935 101.164 104.352C101.883 103.763 102.815 103.469 103.961 103.469C104.742 103.469 105.438 103.62 106.047 103.922C106.661 104.224 107.135 104.641 107.469 105.172C107.807 105.703 107.977 106.284 107.977 106.914H106.469C106.469 106.227 106.25 105.688 105.812 105.297C105.375 104.901 104.758 104.703 103.961 104.703C103.221 104.703 102.643 104.867 102.227 105.195C101.815 105.518 101.609 105.969 101.609 106.547C101.609 107.01 101.805 107.404 102.195 107.727C102.591 108.044 103.26 108.336 104.203 108.602C105.151 108.867 105.891 109.161 106.422 109.484C106.958 109.802 107.354 110.174 107.609 110.602C107.87 111.029 108 111.531 108 112.109C108 113.031 107.641 113.771 106.922 114.328C106.203 114.88 105.242 115.156 104.039 115.156C103.258 115.156 102.529 115.008 101.852 114.711C101.174 114.409 100.651 113.997 100.281 113.477C99.9167 112.956 99.7344 112.365 99.7344 111.703H101.242C101.242 112.391 101.495 112.935 102 113.336C102.51 113.732 103.19 113.93 104.039 113.93C104.831 113.93 105.438 113.768 105.859 113.445C106.281 113.122 106.492 112.682 106.492 112.125C106.492 111.568 106.297 111.138 105.906 110.836C105.516 110.529 104.807 110.227 103.781 109.93ZM114.922 114.164C114.359 114.826 113.534 115.156 112.445 115.156C111.544 115.156 110.857 114.896 110.383 114.375C109.914 113.849 109.677 113.073 109.672 112.047V106.547H111.117V112.008C111.117 113.289 111.638 113.93 112.68 113.93C113.784 113.93 114.518 113.518 114.883 112.695V106.547H116.328V115H114.953L114.922 114.164ZM118.188 110.703C118.188 109.385 118.492 108.339 119.102 107.562C119.711 106.781 120.518 106.391 121.523 106.391C122.555 106.391 123.359 106.755 123.938 107.484L124.008 106.547H125.328V114.797C125.328 115.891 125.003 116.753 124.352 117.383C123.706 118.013 122.836 118.328 121.742 118.328C121.133 118.328 120.536 118.198 119.953 117.938C119.37 117.677 118.924 117.32 118.617 116.867L119.367 116C119.987 116.766 120.745 117.148 121.641 117.148C122.344 117.148 122.891 116.951 123.281 116.555C123.677 116.159 123.875 115.602 123.875 114.883V114.156C123.297 114.823 122.508 115.156 121.508 115.156C120.518 115.156 119.716 114.758 119.102 113.961C118.492 113.164 118.188 112.078 118.188 110.703ZM119.641 110.867C119.641 111.82 119.836 112.57 120.227 113.117C120.617 113.659 121.164 113.93 121.867 113.93C122.779 113.93 123.448 113.516 123.875 112.688V108.828C123.432 108.021 122.768 107.617 121.883 107.617C121.18 107.617 120.63 107.891 120.234 108.438C119.839 108.984 119.641 109.794 119.641 110.867ZM127.172 110.703C127.172 109.385 127.477 108.339 128.086 107.562C128.695 106.781 129.503 106.391 130.508 106.391C131.539 106.391 132.344 106.755 132.922 107.484L132.992 106.547H134.312V114.797C134.312 115.891 133.987 116.753 133.336 117.383C132.69 118.013 131.82 118.328 130.727 118.328C130.117 118.328 129.521 118.198 128.938 117.938C128.354 117.677 127.909 117.32 127.602 116.867L128.352 116C128.971 116.766 129.729 117.148 130.625 117.148C131.328 117.148 131.875 116.951 132.266 116.555C132.661 116.159 132.859 115.602 132.859 114.883V114.156C132.281 114.823 131.492 115.156 130.492 115.156C129.503 115.156 128.701 114.758 128.086 113.961C127.477 113.164 127.172 112.078 127.172 110.703ZM128.625 110.867C128.625 111.82 128.82 112.57 129.211 113.117C129.602 113.659 130.148 113.93 130.852 113.93C131.763 113.93 132.432 113.516 132.859 112.688V108.828C132.417 108.021 131.753 107.617 130.867 107.617C130.164 107.617 129.615 107.891 129.219 108.438C128.823 108.984 128.625 109.794 128.625 110.867ZM140.008 115.156C138.862 115.156 137.93 114.781 137.211 114.031C136.492 113.276 136.133 112.268 136.133 111.008V110.742C136.133 109.904 136.292 109.156 136.609 108.5C136.932 107.839 137.38 107.323 137.953 106.953C138.531 106.578 139.156 106.391 139.828 106.391C140.927 106.391 141.781 106.753 142.391 107.477C143 108.201 143.305 109.237 143.305 110.586V111.188H137.578C137.599 112.021 137.841 112.695 138.305 113.211C138.773 113.721 139.367 113.977 140.086 113.977C140.596 113.977 141.029 113.872 141.383 113.664C141.737 113.456 142.047 113.18 142.312 112.836L143.195 113.523C142.487 114.612 141.424 115.156 140.008 115.156ZM139.828 107.578C139.245 107.578 138.755 107.792 138.359 108.219C137.964 108.641 137.719 109.234 137.625 110H141.859V109.891C141.818 109.156 141.62 108.589 141.266 108.188C140.911 107.781 140.432 107.578 139.828 107.578ZM149.906 112.758C149.906 112.367 149.758 112.065 149.461 111.852C149.169 111.633 148.656 111.445 147.922 111.289C147.193 111.133 146.612 110.945 146.18 110.727C145.753 110.508 145.435 110.247 145.227 109.945C145.023 109.643 144.922 109.284 144.922 108.867C144.922 108.174 145.214 107.589 145.797 107.109C146.385 106.63 147.135 106.391 148.047 106.391C149.005 106.391 149.781 106.638 150.375 107.133C150.974 107.628 151.273 108.26 151.273 109.031H149.82C149.82 108.635 149.651 108.294 149.312 108.008C148.979 107.721 148.557 107.578 148.047 107.578C147.521 107.578 147.109 107.693 146.812 107.922C146.516 108.151 146.367 108.451 146.367 108.82C146.367 109.169 146.505 109.432 146.781 109.609C147.057 109.786 147.555 109.956 148.273 110.117C148.997 110.279 149.583 110.471 150.031 110.695C150.479 110.919 150.81 111.19 151.023 111.508C151.242 111.82 151.352 112.203 151.352 112.656C151.352 113.411 151.049 114.018 150.445 114.477C149.841 114.93 149.057 115.156 148.094 115.156C147.417 115.156 146.818 115.036 146.297 114.797C145.776 114.557 145.367 114.224 145.07 113.797C144.779 113.365 144.633 112.898 144.633 112.398H146.078C146.104 112.883 146.297 113.268 146.656 113.555C147.021 113.836 147.5 113.977 148.094 113.977C148.641 113.977 149.078 113.867 149.406 113.648C149.74 113.424 149.906 113.128 149.906 112.758ZM155.195 104.5V106.547H156.773V107.664H155.195V112.906C155.195 113.245 155.266 113.5 155.406 113.672C155.547 113.839 155.786 113.922 156.125 113.922C156.292 113.922 156.521 113.891 156.812 113.828V115C156.432 115.104 156.062 115.156 155.703 115.156C155.057 115.156 154.57 114.961 154.242 114.57C153.914 114.18 153.75 113.625 153.75 112.906V107.664H152.211V106.547H153.75V104.5H155.195ZM160.039 115H158.594V106.547H160.039V115ZM158.477 104.305C158.477 104.07 158.547 103.872 158.688 103.711C158.833 103.549 159.047 103.469 159.328 103.469C159.609 103.469 159.823 103.549 159.969 103.711C160.115 103.872 160.188 104.07 160.188 104.305C160.188 104.539 160.115 104.734 159.969 104.891C159.823 105.047 159.609 105.125 159.328 105.125C159.047 105.125 158.833 105.047 158.688 104.891C158.547 104.734 158.477 104.539 158.477 104.305ZM161.977 110.695C161.977 109.867 162.138 109.122 162.461 108.461C162.789 107.799 163.242 107.289 163.82 106.93C164.404 106.57 165.068 106.391 165.812 106.391C166.964 106.391 167.893 106.789 168.602 107.586C169.315 108.383 169.672 109.443 169.672 110.766V110.867C169.672 111.69 169.513 112.43 169.195 113.086C168.883 113.737 168.432 114.245 167.844 114.609C167.26 114.974 166.589 115.156 165.828 115.156C164.682 115.156 163.753 114.758 163.039 113.961C162.331 113.164 161.977 112.109 161.977 110.797V110.695ZM163.43 110.867C163.43 111.805 163.646 112.557 164.078 113.125C164.516 113.693 165.099 113.977 165.828 113.977C166.562 113.977 167.146 113.69 167.578 113.117C168.01 112.539 168.227 111.732 168.227 110.695C168.227 109.768 168.005 109.018 167.562 108.445C167.125 107.867 166.542 107.578 165.812 107.578C165.099 107.578 164.523 107.862 164.086 108.43C163.648 108.997 163.43 109.81 163.43 110.867ZM172.852 106.547L172.898 107.609C173.544 106.797 174.388 106.391 175.43 106.391C177.216 106.391 178.117 107.398 178.133 109.414V115H176.688V109.406C176.682 108.797 176.542 108.346 176.266 108.055C175.995 107.763 175.57 107.617 174.992 107.617C174.523 107.617 174.112 107.742 173.758 107.992C173.404 108.242 173.128 108.57 172.93 108.977V115H171.484V106.547H172.852ZM185.234 112.758C185.234 112.367 185.086 112.065 184.789 111.852C184.497 111.633 183.984 111.445 183.25 111.289C182.521 111.133 181.94 110.945 181.508 110.727C181.081 110.508 180.763 110.247 180.555 109.945C180.352 109.643 180.25 109.284 180.25 108.867C180.25 108.174 180.542 107.589 181.125 107.109C181.714 106.63 182.464 106.391 183.375 106.391C184.333 106.391 185.109 106.638 185.703 107.133C186.302 107.628 186.602 108.26 186.602 109.031H185.148C185.148 108.635 184.979 108.294 184.641 108.008C184.307 107.721 183.885 107.578 183.375 107.578C182.849 107.578 182.438 107.693 182.141 107.922C181.844 108.151 181.695 108.451 181.695 108.82C181.695 109.169 181.833 109.432 182.109 109.609C182.385 109.786 182.883 109.956 183.602 110.117C184.326 110.279 184.911 110.471 185.359 110.695C185.807 110.919 186.138 111.19 186.352 111.508C186.57 111.82 186.68 112.203 186.68 112.656C186.68 113.411 186.378 114.018 185.773 114.477C185.169 114.93 184.385 115.156 183.422 115.156C182.745 115.156 182.146 115.036 181.625 114.797C181.104 114.557 180.695 114.224 180.398 113.797C180.107 113.365 179.961 112.898 179.961 112.398H181.406C181.432 112.883 181.625 113.268 181.984 113.555C182.349 113.836 182.828 113.977 183.422 113.977C183.969 113.977 184.406 113.867 184.734 113.648C185.068 113.424 185.234 113.128 185.234 112.758ZM194.492 104.5V106.547H196.07V107.664H194.492V112.906C194.492 113.245 194.562 113.5 194.703 113.672C194.844 113.839 195.083 113.922 195.422 113.922C195.589 113.922 195.818 113.891 196.109 113.828V115C195.729 115.104 195.359 115.156 195 115.156C194.354 115.156 193.867 114.961 193.539 114.57C193.211 114.18 193.047 113.625 193.047 112.906V107.664H191.508V106.547H193.047V104.5H194.492ZM197.227 110.695C197.227 109.867 197.388 109.122 197.711 108.461C198.039 107.799 198.492 107.289 199.07 106.93C199.654 106.57 200.318 106.391 201.062 106.391C202.214 106.391 203.143 106.789 203.852 107.586C204.565 108.383 204.922 109.443 204.922 110.766V110.867C204.922 111.69 204.763 112.43 204.445 113.086C204.133 113.737 203.682 114.245 203.094 114.609C202.51 114.974 201.839 115.156 201.078 115.156C199.932 115.156 199.003 114.758 198.289 113.961C197.581 113.164 197.227 112.109 197.227 110.797V110.695ZM198.68 110.867C198.68 111.805 198.896 112.557 199.328 113.125C199.766 113.693 200.349 113.977 201.078 113.977C201.812 113.977 202.396 113.69 202.828 113.117C203.26 112.539 203.477 111.732 203.477 110.695C203.477 109.768 203.255 109.018 202.812 108.445C202.375 107.867 201.792 107.578 201.062 107.578C200.349 107.578 199.773 107.862 199.336 108.43C198.898 108.997 198.68 109.81 198.68 110.867ZM219.68 109.68C219.68 110.794 219.492 111.768 219.117 112.602C218.742 113.43 218.211 114.062 217.523 114.5C216.836 114.938 216.034 115.156 215.117 115.156C214.221 115.156 213.427 114.938 212.734 114.5C212.042 114.057 211.503 113.43 211.117 112.617C210.737 111.799 210.542 110.854 210.531 109.781V108.961C210.531 107.867 210.721 106.901 211.102 106.062C211.482 105.224 212.018 104.583 212.711 104.141C213.409 103.693 214.206 103.469 215.102 103.469C216.013 103.469 216.815 103.69 217.508 104.133C218.206 104.57 218.742 105.208 219.117 106.047C219.492 106.88 219.68 107.852 219.68 108.961V109.68ZM218.188 108.945C218.188 107.596 217.917 106.562 217.375 105.844C216.833 105.12 216.076 104.758 215.102 104.758C214.154 104.758 213.406 105.12 212.859 105.844C212.318 106.562 212.039 107.562 212.023 108.844V109.68C212.023 110.987 212.297 112.016 212.844 112.766C213.396 113.51 214.154 113.883 215.117 113.883C216.086 113.883 216.836 113.531 217.367 112.828C217.898 112.12 218.172 111.107 218.188 109.789V108.945ZM225.789 107.844C225.57 107.807 225.333 107.789 225.078 107.789C224.13 107.789 223.487 108.193 223.148 109V115H221.703V106.547H223.109L223.133 107.523C223.607 106.768 224.279 106.391 225.148 106.391C225.43 106.391 225.643 106.427 225.789 106.5V107.844ZM226.625 110.703C226.625 109.385 226.93 108.339 227.539 107.562C228.148 106.781 228.956 106.391 229.961 106.391C230.992 106.391 231.797 106.755 232.375 107.484L232.445 106.547H233.766V114.797C233.766 115.891 233.44 116.753 232.789 117.383C232.143 118.013 231.273 118.328 230.18 118.328C229.57 118.328 228.974 118.198 228.391 117.938C227.807 117.677 227.362 117.32 227.055 116.867L227.805 116C228.424 116.766 229.182 117.148 230.078 117.148C230.781 117.148 231.328 116.951 231.719 116.555C232.115 116.159 232.312 115.602 232.312 114.883V114.156C231.734 114.823 230.945 115.156 229.945 115.156C228.956 115.156 228.154 114.758 227.539 113.961C226.93 113.164 226.625 112.078 226.625 110.703ZM228.078 110.867C228.078 111.82 228.273 112.57 228.664 113.117C229.055 113.659 229.602 113.93 230.305 113.93C231.216 113.93 231.885 113.516 232.312 112.688V108.828C231.87 108.021 231.206 107.617 230.32 107.617C229.617 107.617 229.068 107.891 228.672 108.438C228.276 108.984 228.078 109.794 228.078 110.867ZM241.172 115C241.089 114.833 241.021 114.536 240.969 114.109C240.297 114.807 239.495 115.156 238.562 115.156C237.729 115.156 237.044 114.922 236.508 114.453C235.977 113.979 235.711 113.38 235.711 112.656C235.711 111.776 236.044 111.094 236.711 110.609C237.383 110.12 238.326 109.875 239.539 109.875H240.945V109.211C240.945 108.706 240.794 108.305 240.492 108.008C240.19 107.706 239.745 107.555 239.156 107.555C238.641 107.555 238.208 107.685 237.859 107.945C237.51 108.206 237.336 108.521 237.336 108.891H235.883C235.883 108.469 236.031 108.062 236.328 107.672C236.63 107.276 237.036 106.964 237.547 106.734C238.062 106.505 238.628 106.391 239.242 106.391C240.216 106.391 240.979 106.635 241.531 107.125C242.083 107.609 242.37 108.279 242.391 109.133V113.023C242.391 113.799 242.49 114.417 242.688 114.875V115H241.172ZM238.773 113.898C239.227 113.898 239.656 113.781 240.062 113.547C240.469 113.312 240.763 113.008 240.945 112.633V110.898H239.812C238.042 110.898 237.156 111.417 237.156 112.453C237.156 112.906 237.307 113.26 237.609 113.516C237.911 113.771 238.299 113.898 238.773 113.898ZM246.023 106.547L246.07 107.609C246.716 106.797 247.56 106.391 248.602 106.391C250.388 106.391 251.289 107.398 251.305 109.414V115H249.859V109.406C249.854 108.797 249.714 108.346 249.438 108.055C249.167 107.763 248.742 107.617 248.164 107.617C247.695 107.617 247.284 107.742 246.93 107.992C246.576 108.242 246.299 108.57 246.102 108.977V115H244.656V106.547H246.023ZM255.055 115H253.609V106.547H255.055V115ZM253.492 104.305C253.492 104.07 253.562 103.872 253.703 103.711C253.849 103.549 254.062 103.469 254.344 103.469C254.625 103.469 254.839 103.549 254.984 103.711C255.13 103.872 255.203 104.07 255.203 104.305C255.203 104.539 255.13 104.734 254.984 104.891C254.839 105.047 254.625 105.125 254.344 105.125C254.062 105.125 253.849 105.047 253.703 104.891C253.562 104.734 253.492 104.539 253.492 104.305ZM258.734 113.82H263.68V115H256.969V113.938L261.633 107.742H257.039V106.547H263.445V107.57L258.734 113.82ZM268.695 115.156C267.549 115.156 266.617 114.781 265.898 114.031C265.18 113.276 264.82 112.268 264.82 111.008V110.742C264.82 109.904 264.979 109.156 265.297 108.5C265.62 107.839 266.068 107.323 266.641 106.953C267.219 106.578 267.844 106.391 268.516 106.391C269.615 106.391 270.469 106.753 271.078 107.477C271.688 108.201 271.992 109.237 271.992 110.586V111.188H266.266C266.286 112.021 266.529 112.695 266.992 113.211C267.461 113.721 268.055 113.977 268.773 113.977C269.284 113.977 269.716 113.872 270.07 113.664C270.424 113.456 270.734 113.18 271 112.836L271.883 113.523C271.174 114.612 270.112 115.156 268.695 115.156ZM268.516 107.578C267.932 107.578 267.443 107.792 267.047 108.219C266.651 108.641 266.406 109.234 266.312 110H270.547V109.891C270.505 109.156 270.307 108.589 269.953 108.188C269.599 107.781 269.12 107.578 268.516 107.578Z" fill="black" fill-opacity="0.87"/>
</g>
<path d="M325.44 96.9115L331.2 102.669L329.85 104.018L325.44 99.6101L321.03 104.018L319.68 102.669L325.44 96.9115Z" fill="#666666"/>
<path fill-rule="evenodd" clip-rule="evenodd" d="M0 592V640H360V592H0Z" fill="black"/>
<path d="M274 610C274 609.448 274.448 609 275 609H287C287.552 609 288 609.448 288 610V622C288 622.552 287.552 623 287 623H275C274.448 623 274 622.552 274 622V610Z" stroke="white" stroke-width="2"/>
<path d="M187 616C187 619.866 183.866 623 180 623C176.134 623 173 619.866 173 616C173 612.134 176.134 609 180 609C183.866 609 187 612.134 187 616Z" stroke="white" stroke-width="2"/>
<path d="M84.4995 608.849C85.1662 608.464 86 608.945 86 609.715V621.287C86 622.057 85.1662 622.538 84.4995 622.153L74.4904 616.367C73.8244 615.982 73.8244 615.02 74.4904 614.635L84.4995 608.849Z" stroke="white" stroke-width="2"/>
</g>
<defs>
<filter id="filter0_ddd" x="-4" y="79" width="382" height="54" filterUnits="userSpaceOnUse" color-interpolation-filters="sRGB">
<feFlood flood-opacity="0" result="BackgroundImageFix"/>
<feColorMatrix in="SourceAlpha" type="matrix" values="0 0 0 0 0 0 0 0 0 0 0 0 0 0 0 0 0 0 127 0"/>
<feOffset dy="1"/>
<feGaussianBlur stdDeviation="1.5"/>
<feColorMatrix type="matrix" values="0 0 0 0 0 0 0 0 0 0 0 0 0 0 0 0 0 0 0.2 0"/>
<feBlend mode="normal" in2="BackgroundImageFix" result="effect1_dropShadow"/>
<feColorMatrix in="SourceAlpha" type="matrix" values="0 0 0 0 0 0 0 0 0 0 0 0 0 0 0 0 0 0 127 0"/>
<feOffset dy="2"/>
<feGaussianBlur stdDeviation="1"/>
<feColorMatrix type="matrix" values="0 0 0 0 0 0 0 0 0 0 0 0 0 0 0 0 0 0 0.12 0"/>
<feBlend mode="normal" in2="effect1_dropShadow" result="effect2_dropShadow"/>
<feColorMatrix in="SourceAlpha" type="matrix" values="0 0 0 0 0 0 0 0 0 0 0 0 0 0 0 0 0 0 127 0"/>
<feOffset/>
<feGaussianBlur stdDeviation="1"/>
<feColorMatrix type="matrix" values="0 0 0 0 0 0 0 0 0 0 0 0 0 0 0 0 0 0 0.14 0"/>
<feBlend mode="normal" in2="effect2_dropShadow" result="effect3_dropShadow"/>
<feBlend mode="normal" in="SourceGraphic" in2="effect3_dropShadow" result="shape"/>
</filter>
<clipPath id="clip0">
<rect width="360" height="640" fill="white"/>
</clipPath>
<clipPath id="clip1">
<rect width="313" height="378" fill="white" transform="translate(18 229)"/>
</clipPath>
</defs>
</svg>
